<?xml version="1.0" encoding="utf-8"?>

<!DOCTYPE svg PUBLIC "-//W3C//DTD SVG 1.0//EN" "http://www.w3.org/TR/2001/REC-SVG-20010904/DTD/svg10.dtd">
<!-- Uploaded to: SVG Repo, www.svgrepo.com, Generator: SVG Repo Mixer Tools -->
<svg version="1.0" id="Layer_1" xmlns="http://www.w3.org/2000/svg" xmlns:xlink="http://www.w3.org/1999/xlink" 
	 width="800px" height="800px" viewBox="0 0 64 64" enable-background="new 0 0 64 64" xml:space="preserve">
<g>
	<path fill="#231F20" d="M60,0H4C1.789,0,0,1.789,0,4v56c0,2.211,1.789,4,4,4h56c2.211,0,4-1.789,4-4V4C64,1.789,62.211,0,60,0z
		 M53,54H11c-0.553,0-1-0.447-1-1s0.447-1,1-1h42c0.553,0,1,0.447,1,1S53.553,54,53,54z M53,48H11c-0.553,0-1-0.447-1-1s0.447-1,1-1
		h42c0.553,0,1,0.447,1,1S53.553,48,53,48z M11,28h18c0.553,0,1,0.447,1,1s-0.447,1-1,1H11c-0.553,0-1-0.447-1-1S10.447,28,11,28z
		 M10,23c0-0.553,0.447-1,1-1h18c0.553,0,1,0.447,1,1s-0.447,1-1,1H11C10.447,24,10,23.553,10,23z M11,34h18c0.553,0,1,0.447,1,1
		s-0.447,1-1,1H11c-0.553,0-1-0.447-1-1S10.447,34,11,34z M11,40h18c0.553,0,1,0.447,1,1s-0.447,1-1,1H11c-0.553,0-1-0.447-1-1
		S10.447,40,11,40z M54,41c0,0.553-0.447,1-1,1H35c-0.553,0-1-0.447-1-1V23c0-0.553,0.447-1,1-1h18c0.553,0,1,0.447,1,1V41z M62,12
		H2V4c0-1.104,0.896-2,2-2h56c1.104,0,2,0.896,2,2V12z"/>
	<path fill="#231F20" d="M7,4C5.343,4,4,5.343,4,7s1.343,3,3,3s3-1.343,3-3S8.657,4,7,4z M7,8C6.447,8,6,7.553,6,7s0.447-1,1-1
		s1,0.447,1,1S7.553,8,7,8z"/>
	<path fill="#231F20" d="M33,4H15c-1.657,0-3,1.343-3,3s1.343,3,3,3h18c1.657,0,3-1.343,3-3S34.657,4,33,4z M33,8H15
		c-0.553,0-1-0.447-1-1s0.447-1,1-1h18c0.553,0,1,0.447,1,1S33.553,8,33,8z"/>
</g>
</svg>