<svg width="389" height="389" viewBox="0 0 389 389" fill="none" xmlns="http://www.w3.org/2000/svg">
<path d="M152.457 230.031H100.798L97.6624 193.854H149.322L152.457 230.031Z" fill="#FEFFE8"/>
<path d="M155.133 230.031H103.474L100.339 193.854H151.998L155.133 230.031Z" fill="#FEFFE8"/>
<path d="M110.538 222.259L108.811 201.619H144.934L146.661 222.259H110.538Z" fill="#FEFFE8"/>
<path d="M164.073 230.031H158.012V297.507H164.073V230.031Z" fill="#FEFFE8"/>
<path d="M165.986 230.031H161.777V297.507H165.986V230.031Z" fill="#FEFFE8"/>
<path d="M107.317 237.477H165.986V230.031H107.317V237.477Z" fill="#FEFFE8"/>
<path d="M109.387 237.477H103.326V297.507H109.387V237.477Z" fill="#FEFFE8"/>
<path d="M111.301 237.477H107.092V297.507H111.301V237.477Z" fill="#FEFFE8"/>
<path d="M66.2467 237.477H60.186V297.507H66.2467V237.477Z" fill="#FEFFE8"/>
<path d="M68.1606 237.477H63.9517V297.507H68.1606V237.477Z" fill="#FEFFE8"/>
<path d="M125.717 237.477H119.656V297.507H125.717V237.477Z" fill="#FEFFE8"/>
<path d="M127.623 237.477H123.414V297.507H127.623V237.477Z" fill="#FEFFE8"/>
<path d="M107.317 230.031H60.186V237.477H107.317V230.031Z" fill="#FEFFE8"/>
<path d="M283.068 61.781H100.759V163.279H283.068V61.781Z" fill="#FEFFE8"/>
<path d="M293.081 61.781H101.677V163.279H293.081V61.781Z" fill="#FEFFE8"/>
<path d="M289.953 160.151V64.9085L104.804 64.9085V160.151H289.953Z" fill="#FEFFE8"/>
<path d="M179.772 160.151L214.728 64.9085H157.039L122.084 160.151H179.772Z" fill="#FEFFE8"/>
<path d="M235.298 160.151L270.254 64.9085H226.733L191.777 160.151H235.298Z" fill="#FEFFE8"/>
<path d="M340.85 200.568H325.352V297.507H340.85V200.568Z" fill="#FEFFE8"/>
<path d="M336.773 297.507H340.85V290.046H332.502L336.773 297.507Z" fill="#FEFFE8"/>
<path d="M197.962 200.568H182.464V297.507H197.962V200.568Z" fill="#FEFFE8"/>
<path d="M340.85 200.568H194.407V295.492H340.85V200.568Z" fill="#FEFFE8"/>
<path d="M338.08 231.198H197.184V204.388H338.08V231.198ZM197.962 230.42H337.302V205.166H197.962V230.42Z" fill="#FEFFE8"/>
<path d="M313.277 217.404H224.718C220.61 217.404 216.65 214.09 213.826 208.302L213.561 207.749H324.426L324.162 208.302C321.314 214.09 317.424 217.404 313.277 217.404ZM214.837 208.504C217.467 213.662 221.061 216.603 224.718 216.603H313.277C316.949 216.603 320.528 213.662 323.158 208.504H214.837Z" fill="#FEFFE8"/>
<path d="M198.483 297.507H194.407V290.046H202.755L198.483 297.507Z" fill="#FEFFE8"/>
<path d="M338.08 261.408H197.184V234.629H338.08V261.408ZM197.962 260.63H337.302V235.407H197.962V260.63Z" fill="#FEFFE8"/>
<path d="M313.277 247.645H224.718C220.61 247.645 216.65 244.323 213.826 238.543L213.561 237.982H324.426L324.162 238.543C321.314 244.292 317.424 247.645 313.277 247.645ZM214.837 238.76C217.467 243.919 221.061 246.867 224.718 246.867H313.277C316.949 246.867 320.528 243.919 323.158 238.76H214.837Z" fill="#FEFFE8"/>
<path d="M338.08 291.672H197.184V264.862H338.08V291.672ZM197.962 290.894H337.302V265.64H197.962V290.894Z" fill="#FEFFE8"/>
<path d="M313.277 277.878H224.718C220.61 277.878 216.65 274.564 213.826 268.783L213.561 268.223H324.426L324.162 268.783C321.314 274.564 317.424 277.878 313.277 277.878ZM214.837 269.001C217.467 274.159 221.061 277.1 224.718 277.1H313.277C316.949 277.1 320.528 274.159 323.158 269.001H214.837Z" fill="#FEFFE8"/>
<path d="M94.1226 213.39V215.273H92.9245L91.9286 230.031H77.2711L76.2831 215.273H75.0771V213.39H94.1226Z" fill="#FEFFE8"/>
<path d="M89.2989 176.769C88.1008 167.978 76.2363 165.473 61.182 165.146C46.859 164.843 42.2688 159.778 42.2688 159.778C42.2688 159.778 42.3155 180.294 62.9558 187.731C82.5536 194.78 90.5048 185.576 89.2989 176.769Z" fill="#FEFFE8"/>
<path d="M81.9856 196.694C82.2346 193.084 88.0074 186.44 101.895 189.459C111.931 191.645 115.665 186.44 115.665 186.44C115.665 186.44 114.732 201.129 99.6385 205.54C85.2999 209.733 81.5422 203.058 81.9856 196.694Z" fill="#FEFFE8"/>
<path d="M85.1521 218.929C85.2303 218.93 85.3077 218.914 85.3789 218.881C85.4502 218.849 85.5135 218.802 85.5645 218.742C86.5681 217.552 85.7434 214.705 84.6075 210.76C83.1449 205.703 81.3244 199.401 82.8648 194.835C83.7187 192.422 84.7163 190.063 85.8523 187.77C88.0307 183.165 89.9135 179.212 88.3419 175.027C88.3174 174.96 88.2799 174.899 88.2317 174.847C88.1834 174.795 88.1253 174.753 88.0607 174.724C87.9962 174.694 87.9264 174.678 87.8555 174.676C87.7845 174.673 87.7139 174.685 87.6475 174.71C87.5812 174.735 87.5205 174.774 87.469 174.822C87.4175 174.871 87.3762 174.93 87.3474 174.995C87.3186 175.059 87.303 175.129 87.3015 175.2C87.2999 175.271 87.3124 175.342 87.3383 175.408C88.7465 179.134 87.0427 182.744 84.8798 187.319C83.7293 189.649 82.7162 192.044 81.8456 194.492C80.204 199.378 82.0712 205.859 83.5728 211.056C84.4597 214.168 85.3777 217.28 84.7476 218.058C84.6975 218.112 84.6592 218.175 84.6351 218.244C84.611 218.314 84.6015 218.387 84.6074 218.461C84.6132 218.534 84.6343 218.605 84.6691 218.669C84.704 218.734 84.7519 218.791 84.8098 218.836C84.9092 218.907 85.0305 218.94 85.1521 218.929Z" fill="#FEFFE8"/>
<path d="M194.5 332.642C277.81 332.642 345.346 328.699 345.346 323.835C345.346 318.971 277.81 315.028 194.5 315.028C111.19 315.028 43.6536 318.971 43.6536 323.835C43.6536 328.699 111.19 332.642 194.5 332.642Z" fill="#F5F5F5"/>
<path d="M194.469 280.897H83.9928L77.9478 103.225H188.424L194.469 280.897Z" fill="#5E53B8"/>
<path d="M199.985 275.381H89.5089L83.4561 97.709H193.932L199.985 275.381Z" fill="#5E53B8"/>
<path opacity="0.3" d="M199.985 275.381H89.5089L83.4561 97.709H193.932L199.985 275.381Z" fill="white"/>
<path d="M162.97 170.821C174.799 158.788 174.295 139.112 161.846 126.873C149.396 114.635 129.714 114.468 117.886 126.501C106.057 138.534 106.56 158.21 119.01 170.448C131.459 182.687 151.141 182.854 162.97 170.821Z" fill="#5E53B8"/>
<path d="M166.08 148.668C166.239 152.902 165.315 157.106 163.395 160.883C161.324 164.953 158.159 168.365 154.256 170.737C150.354 173.109 145.867 174.347 141.3 174.311C136.626 174.286 132.041 173.032 128.004 170.675C123.968 168.318 120.622 164.941 118.303 160.883C116.14 157.164 114.932 152.967 114.786 148.668C114.642 145.334 115.178 142.006 116.361 138.886C117.543 135.766 119.348 132.919 121.664 130.517C123.981 128.116 126.762 126.211 129.838 124.918C132.914 123.624 136.221 122.97 139.557 122.994C146.431 123.043 153.022 125.737 157.961 130.518C162.9 135.299 165.808 141.799 166.08 148.668Z" fill="white"/>
<path opacity="0.6" d="M163.38 160.883C161.308 164.953 158.144 168.365 154.241 170.737C150.338 173.109 145.852 174.347 141.285 174.311C136.611 174.286 132.025 173.032 127.989 170.675C123.952 168.318 120.606 164.941 118.287 160.883C124.867 156.397 132.652 154.012 140.616 154.044C148.707 154.061 156.618 156.438 163.38 160.883Z" fill="#5E53B8"/>
<path opacity="0.6" d="M148.421 148.028C152.77 143.604 152.585 136.369 148.007 131.868C143.429 127.368 136.192 127.307 131.843 131.732C127.493 136.156 127.678 143.391 132.256 147.891C136.834 152.392 144.071 152.453 148.421 148.028Z" fill="#5E53B8"/>
<path d="M177.789 211.04H107.317L106.843 197.036H177.314L177.789 211.04Z" fill="white"/>
<path d="M178.644 236.069H108.165L107.691 222.065H178.17L178.644 236.069Z" fill="white"/>
<path d="M151.445 223.994L134.462 226.328C134.3 226.346 134.143 226.398 134.002 226.48C133.861 226.562 133.738 226.672 133.642 226.804C133.546 226.935 133.477 227.085 133.442 227.244C133.406 227.403 133.404 227.568 133.435 227.728L135.668 239.111C135.741 239.445 135.936 239.739 136.215 239.936C136.495 240.134 136.838 240.219 137.177 240.176L154.161 237.842C154.322 237.822 154.478 237.769 154.618 237.685C154.759 237.602 154.88 237.491 154.976 237.359C155.071 237.227 155.139 237.077 155.174 236.918C155.209 236.759 155.211 236.594 155.18 236.434L152.955 225.052C152.882 224.719 152.686 224.425 152.406 224.229C152.127 224.033 151.784 223.949 151.445 223.994ZM146.567 235.524L143.455 235.936L143.152 232.264C142.831 232.125 142.549 231.912 142.328 231.641C142.107 231.37 141.955 231.05 141.884 230.708C141.827 230.443 141.826 230.169 141.881 229.904C141.937 229.638 142.047 229.388 142.205 229.168C142.364 228.948 142.567 228.763 142.801 228.627C143.035 228.49 143.295 228.404 143.564 228.374C144.117 228.303 144.676 228.442 145.131 228.763C145.587 229.084 145.905 229.565 146.023 230.109C146.09 230.438 146.07 230.779 145.963 231.097C145.857 231.415 145.668 231.7 145.416 231.922L146.567 235.524Z" fill="#5E53B8"/>
<path d="M149.765 223.379C149.465 223.418 149.161 223.342 148.913 223.168C148.666 222.994 148.492 222.733 148.427 222.438L148.209 221.325C147.898 219.807 147.047 218.453 145.814 217.515C144.581 216.576 143.049 216.117 141.503 216.222C140.722 216.266 139.961 216.478 139.27 216.843C138.579 217.208 137.974 217.717 137.497 218.336C137.021 218.956 136.683 219.67 136.507 220.432C136.33 221.193 136.32 221.983 136.477 222.749L136.726 224.033C136.755 224.175 136.754 224.322 136.723 224.464C136.692 224.605 136.631 224.739 136.546 224.856C136.46 224.974 136.351 225.072 136.225 225.144C136.099 225.217 135.96 225.262 135.815 225.278C135.515 225.32 135.209 225.246 134.961 225.071C134.712 224.896 134.539 224.634 134.477 224.336L134.267 223.255C134.054 222.244 134.047 221.201 134.246 220.187C134.446 219.174 134.849 218.211 135.43 217.357C136.012 216.503 136.76 215.776 137.629 215.218C138.499 214.661 139.473 214.285 140.491 214.113C142.7 213.742 144.967 214.236 146.821 215.492C148.675 216.748 149.975 218.67 150.45 220.859L150.699 222.135C150.728 222.279 150.726 222.427 150.693 222.57C150.661 222.714 150.599 222.849 150.511 222.966C150.422 223.084 150.31 223.181 150.182 223.252C150.053 223.324 149.911 223.367 149.765 223.379Z" fill="#5E53B8"/>
<path d="M167.013 255.682H121.134L120.831 246.564H166.702L167.013 255.682Z" fill="#5E53B8"/>
<path d="M144.879 204.038C144.893 204.371 144.839 204.703 144.72 205.014C144.602 205.325 144.422 205.609 144.19 205.848C143.959 206.087 143.682 206.277 143.375 206.406C143.068 206.535 142.738 206.6 142.405 206.598C141.719 206.593 141.061 206.324 140.568 205.848C140.074 205.371 139.782 204.724 139.752 204.038C139.738 203.706 139.792 203.374 139.911 203.063C140.029 202.752 140.209 202.468 140.441 202.228C140.672 201.989 140.95 201.799 141.257 201.67C141.563 201.541 141.893 201.476 142.226 201.479C142.913 201.482 143.572 201.75 144.066 202.227C144.56 202.703 144.851 203.352 144.879 204.038Z" fill="#263238"/>
<path d="M133.816 204.038C133.831 204.371 133.778 204.703 133.66 205.015C133.542 205.327 133.361 205.611 133.13 205.851C132.898 206.09 132.62 206.28 132.313 206.408C132.005 206.537 131.675 206.601 131.342 206.598C130.657 206.592 130 206.324 129.507 205.847C129.015 205.371 128.725 204.723 128.697 204.038C128.683 203.706 128.737 203.374 128.855 203.063C128.974 202.752 129.154 202.468 129.385 202.228C129.617 201.989 129.894 201.799 130.201 201.67C130.508 201.541 130.838 201.476 131.171 201.479C131.857 201.482 132.514 201.75 133.007 202.227C133.5 202.704 133.79 203.353 133.816 204.038Z" fill="#263238"/>
<path d="M122.823 204.038C122.836 204.371 122.782 204.703 122.664 205.014C122.546 205.325 122.365 205.609 122.134 205.848C121.903 206.087 121.625 206.277 121.318 206.406C121.011 206.535 120.682 206.6 120.349 206.598C119.663 206.594 119.005 206.326 118.512 205.849C118.019 205.372 117.73 204.724 117.703 204.038C117.69 203.706 117.744 203.374 117.862 203.063C117.981 202.752 118.161 202.468 118.392 202.228C118.624 201.989 118.901 201.799 119.208 201.67C119.515 201.541 119.845 201.476 120.178 201.479C120.863 201.482 121.521 201.75 122.014 202.227C122.507 202.704 122.797 203.353 122.823 204.038Z" fill="#263238"/>
<path d="M155.903 204.038C155.917 204.371 155.863 204.703 155.745 205.014C155.626 205.325 155.446 205.609 155.215 205.848C154.983 206.087 154.706 206.277 154.399 206.406C154.092 206.535 153.762 206.6 153.429 206.598C152.744 206.594 152.086 206.326 151.593 205.849C151.1 205.372 150.81 204.724 150.784 204.038C150.773 203.707 150.828 203.376 150.948 203.067C151.068 202.757 151.25 202.476 151.482 202.238C151.714 202.001 151.992 201.814 152.298 201.687C152.605 201.561 152.934 201.498 153.266 201.502C153.947 201.507 154.599 201.773 155.09 202.245C155.58 202.717 155.872 203.358 155.903 204.038Z" fill="#263238"/>
<path d="M166.927 204.038C166.942 204.371 166.889 204.703 166.771 205.015C166.653 205.327 166.473 205.611 166.241 205.851C166.01 206.09 165.732 206.28 165.424 206.408C165.117 206.537 164.787 206.601 164.453 206.598C163.768 206.592 163.111 206.324 162.619 205.847C162.126 205.371 161.836 204.723 161.808 204.038C161.795 203.706 161.849 203.374 161.967 203.063C162.085 202.752 162.266 202.468 162.497 202.228C162.728 201.989 163.006 201.799 163.313 201.67C163.62 201.541 163.949 201.476 164.282 201.479C164.968 201.482 165.626 201.75 166.119 202.227C166.612 202.704 166.901 203.353 166.927 204.038Z" fill="#263238"/>
<path d="M259.782 135.59C260.817 137.255 261.68 138.842 262.567 140.499C263.454 142.156 264.256 143.821 265.041 145.525C266.645 148.975 267.971 152.547 269.009 156.207C269.149 156.666 269.25 157.156 269.367 157.631L269.538 158.354L269.624 158.712L269.725 159.303C269.9 160.645 269.819 162.007 269.484 163.318C268.947 165.353 268.13 167.303 267.056 169.114C265.136 172.404 262.816 175.443 260.148 178.162L256.872 175.688C258.516 172.666 259.979 169.548 261.253 166.352C261.82 164.944 262.219 163.473 262.443 161.972C262.514 161.513 262.493 161.045 262.381 160.595L262.069 159.646C261.945 159.257 261.828 158.868 261.68 158.471C260.497 155.261 259.128 152.123 257.58 149.073C256.024 145.961 254.352 142.849 252.679 139.877L259.782 135.59Z" fill="#FF8B7B"/>
<path d="M257.705 174.607L254.126 176.497L258.234 181.305C258.234 181.305 260.801 179.57 260.918 176.925L257.705 174.607Z" fill="#FF8B7B"/>
<path d="M249.326 179.461L253.721 182.954L258.234 181.305L254.126 176.497L249.326 179.461Z" fill="#FF8B7B"/>
<path d="M234.295 110.134C234.209 110.569 233.906 110.873 233.626 110.818C233.345 110.764 233.182 110.359 233.268 109.931C233.353 109.503 233.657 109.153 233.945 109.247C234.232 109.34 234.38 109.698 234.295 110.134Z" fill="#263238"/>
<path d="M233.945 110.881C233.161 112.099 232.213 113.204 231.128 114.164C231.384 114.429 231.695 114.636 232.039 114.771C232.383 114.905 232.751 114.963 233.12 114.942L233.945 110.881Z" fill="#FF5652"/>
<path d="M232.544 126.145V121.041L239.297 121.819C239.297 121.819 239.188 126.207 235.407 127.499L232.544 126.145Z" fill="#FF8B7B"/>
<path d="M234.489 117.369L239.243 118.738L239.328 121.858L232.575 121.041L234.489 117.369Z" fill="#FF8B7B"/>
<path opacity="0.2" d="M239.243 118.738L234.489 117.369L233.563 119.143C233.614 120.541 234.051 121.897 234.825 123.062C235.6 124.226 236.682 125.153 237.951 125.74C238.768 124.6 239.246 123.251 239.328 121.85L239.243 118.738Z" fill="black"/>
<path d="M236.364 108.056C236.414 108.055 236.462 108.04 236.504 108.012C236.545 107.984 236.578 107.945 236.599 107.9C236.619 107.854 236.626 107.804 236.619 107.754C236.612 107.705 236.591 107.659 236.559 107.621C236.285 107.312 235.942 107.073 235.558 106.925C235.173 106.776 234.759 106.721 234.349 106.765C234.282 106.776 234.222 106.814 234.183 106.869C234.144 106.925 234.128 106.994 234.139 107.061C234.151 107.128 234.188 107.189 234.243 107.229C234.298 107.27 234.367 107.287 234.435 107.278C234.759 107.247 235.087 107.293 235.39 107.413C235.693 107.534 235.963 107.725 236.177 107.971C236.201 107.997 236.23 108.018 236.262 108.032C236.294 108.047 236.329 108.055 236.364 108.056Z" fill="#263238"/>
<path d="M246.307 118.007C245.529 122.014 245.047 127.561 247.863 130.229C247.863 130.229 246.774 134.291 239.305 134.291C231.128 134.291 235.376 130.727 235.376 130.727C238.776 129.669 238.745 125.803 237.967 122.691L246.307 118.007Z" fill="#FF8B7B"/>
<path d="M249.38 132.906C250.112 131.879 250.08 128.619 249.302 128.043C248.05 127.117 242.674 126.9 235.446 128.564C236.224 131.723 234.552 133.373 234.552 133.373L249.38 132.906Z" fill="#5E53B8"/>
<path d="M273.7 317.611C273.478 317.689 273.243 317.722 273.008 317.709C272.773 317.696 272.543 317.636 272.331 317.533C272.251 317.458 272.196 317.361 272.173 317.253C272.151 317.146 272.163 317.034 272.207 316.934C272.231 316.85 272.274 316.772 272.331 316.706C272.389 316.64 272.461 316.588 272.541 316.553C273.28 316.195 274.976 316.887 275.054 316.918C275.077 316.928 275.097 316.944 275.111 316.965C275.125 316.985 275.132 317.01 275.132 317.035C275.132 317.06 275.125 317.084 275.113 317.106C275.101 317.128 275.083 317.146 275.062 317.159C274.623 317.352 274.167 317.503 273.7 317.611ZM272.806 316.732C272.754 316.744 272.705 316.762 272.658 316.786C272.609 316.804 272.566 316.833 272.53 316.871C272.495 316.908 272.47 316.954 272.456 317.004C272.386 317.237 272.456 317.315 272.502 317.338C272.798 317.587 273.887 317.338 274.657 317.051C274.071 316.808 273.439 316.699 272.806 316.732Z" fill="#5E53B8"/>
<path d="M275.031 317.167H274.969C274.346 316.988 273.024 316.047 273.008 315.432C273.007 315.335 273.04 315.24 273.101 315.163C273.162 315.087 273.247 315.033 273.343 315.012C273.435 314.978 273.534 314.964 273.632 314.972C273.73 314.98 273.825 315.01 273.911 315.059C274.642 315.432 275.109 316.942 275.124 317.012C275.135 317.031 275.141 317.052 275.141 317.074C275.141 317.096 275.135 317.117 275.124 317.136C275.112 317.148 275.097 317.157 275.081 317.163C275.065 317.168 275.048 317.17 275.031 317.167ZM273.475 315.23H273.413C273.257 315.284 273.257 315.362 273.257 315.401C273.257 315.767 274.144 316.506 274.813 316.802C274.65 316.366 274.292 315.502 273.817 315.246C273.712 315.198 273.592 315.192 273.483 315.23H273.475Z" fill="#5E53B8"/>
<path d="M233.291 318.529C232.591 318.529 231.914 318.428 231.689 318.116C231.63 318.033 231.598 317.934 231.598 317.832C231.598 317.731 231.63 317.631 231.689 317.548C231.733 317.472 231.792 317.406 231.863 317.354C231.934 317.302 232.015 317.265 232.101 317.245C233.011 316.996 234.925 318.085 235.003 318.132C235.027 318.144 235.046 318.163 235.057 318.187C235.069 318.211 235.071 318.238 235.065 318.264C235.062 318.291 235.051 318.316 235.033 318.335C235.014 318.355 234.99 318.368 234.964 318.373C234.412 318.474 233.852 318.526 233.291 318.529ZM232.428 317.463C232.345 317.449 232.261 317.449 232.179 317.463C232.126 317.474 232.076 317.495 232.032 317.526C231.988 317.557 231.95 317.596 231.922 317.642C231.829 317.805 231.867 317.883 231.922 317.93C232.179 318.288 233.556 318.295 234.575 318.147C233.91 317.784 233.181 317.551 232.428 317.463Z" fill="#5E53B8"/>
<path d="M234.956 318.373H234.902C234.24 318.078 232.933 316.895 233.034 316.273C233.034 316.125 233.159 315.946 233.517 315.915C233.645 315.9 233.774 315.911 233.897 315.949C234.021 315.986 234.135 316.049 234.232 316.133C234.731 316.729 235.03 317.466 235.088 318.241C235.088 318.263 235.083 318.285 235.074 318.305C235.064 318.325 235.051 318.343 235.034 318.358C235.01 318.37 234.983 318.375 234.956 318.373ZM233.618 316.156H233.54C233.307 316.156 233.291 316.265 233.291 316.296C233.229 316.669 234.116 317.603 234.793 318.007C234.733 317.383 234.48 316.793 234.069 316.319C233.941 316.21 233.778 316.152 233.61 316.156H233.618Z" fill="#5E53B8"/>
<path d="M240.962 318.249H235.493L234.948 305.575H240.418L240.962 318.249Z" fill="#FF8B7B"/>
<path d="M281.13 315.712L275.785 316.872L270.409 305.069L275.762 303.91L281.13 315.712Z" fill="#FF8B7B"/>
<path d="M275.264 316.335L281.278 315.036C281.383 315.013 281.493 315.027 281.589 315.075C281.685 315.123 281.762 315.203 281.807 315.3L283.892 319.828C283.948 319.938 283.976 320.059 283.976 320.182C283.976 320.305 283.946 320.426 283.89 320.535C283.834 320.644 283.753 320.739 283.653 320.811C283.553 320.882 283.438 320.93 283.316 320.948C281.216 321.361 280.166 321.462 277.528 322.03C275.902 322.388 272.23 323.282 269.982 323.765C267.733 324.247 266.963 322.092 267.842 321.695C271.771 319.898 273.405 318.319 274.471 316.848C274.663 316.586 274.946 316.403 275.264 316.335Z" fill="#263238"/>
<path d="M235.532 317.611H241.507C241.615 317.611 241.72 317.649 241.805 317.716C241.89 317.784 241.949 317.878 241.974 317.984L243.055 322.847C243.087 322.964 243.09 323.087 243.066 323.207C243.041 323.326 242.989 323.438 242.913 323.533C242.838 323.628 242.741 323.705 242.63 323.756C242.52 323.807 242.399 323.831 242.277 323.827C240.122 323.788 237.01 323.664 234.303 323.664C231.128 323.664 228.398 323.835 224.679 323.835C222.43 323.835 221.808 321.563 222.749 321.353C227.028 320.419 230.529 320.318 234.225 318.039C234.613 317.779 235.065 317.631 235.532 317.611Z" fill="#263238"/>
<path d="M257.65 131.482C262.777 132.657 266.986 145.751 266.986 145.751L256.74 153.585C254.081 150.741 252.204 147.257 251.294 143.471C249.481 136.609 252.407 130.268 257.65 131.482Z" fill="#5E53B8"/>
<path opacity="0.4" d="M257.65 131.482C262.777 132.657 266.986 145.751 266.986 145.751L256.74 153.585C254.081 150.741 252.204 147.257 251.294 143.471C249.481 136.609 252.407 130.268 257.65 131.482Z" fill="black"/>
<path d="M230.677 147.096C229.401 148.473 228.125 149.703 226.787 150.986C226.126 151.609 225.457 152.231 224.772 152.83L223.737 153.741L223.481 153.966L223.037 154.324C222.581 154.689 222.075 154.987 221.536 155.211C220.935 155.466 220.29 155.598 219.637 155.6C219.08 155.602 218.526 155.505 218.003 155.312C217.423 155.091 216.894 154.755 216.447 154.324C215.877 153.767 215.46 153.073 215.234 152.309C215.116 151.932 215.04 151.543 215.008 151.15C214.967 150.689 214.967 150.226 215.008 149.765C215.047 149.392 215.094 149.065 215.156 148.761C215.369 147.701 215.671 146.66 216.058 145.649C216.408 144.689 216.811 143.749 217.264 142.833C217.762 141.845 218.237 141.121 218.711 140.297C220.639 137.139 222.839 134.156 225.286 131.381C227.708 128.622 230.377 126.091 233.26 123.819L236.123 126.767C234.116 129.459 232.14 132.346 230.311 135.185C228.492 138.009 226.83 140.931 225.332 143.938C224.998 144.669 224.554 145.494 224.344 146.085C224.066 146.772 223.824 147.473 223.621 148.186C223.425 148.827 223.276 149.483 223.177 150.146C223.172 150.25 223.172 150.354 223.177 150.457C223.177 150.52 223.177 150.551 223.177 150.387C223.164 150.213 223.13 150.04 223.076 149.874C222.908 149.322 222.599 148.824 222.181 148.427C221.809 148.085 221.373 147.821 220.898 147.649C220.48 147.491 220.037 147.409 219.591 147.408C219.161 147.402 218.735 147.484 218.338 147.649C218.204 147.704 218.074 147.769 217.949 147.843L218.245 147.571L219.186 146.715L221.045 144.972C222.275 143.813 223.512 142.576 224.679 141.425L230.677 147.096Z" fill="#FF8B7B"/>
<path opacity="0.2" d="M253.255 141.098C256.04 143.852 256.95 148.878 257.145 153.235L256.693 153.585C254.034 150.741 252.157 147.257 251.247 143.471C251.146 143.066 251.053 142.693 250.983 142.249L253.255 141.098Z" fill="black"/>
<path d="M225.239 136.928C224.119 142.841 223.418 154.985 226.663 179.026H255.962C256.164 174.537 253.34 152.612 257.674 131.443C254.436 130.821 251.162 130.408 247.871 130.206C243.725 129.968 239.569 129.968 235.423 130.206C234.054 130.331 232.7 130.533 231.533 130.743C229.981 131.015 228.548 131.752 227.424 132.857C226.3 133.961 225.538 135.381 225.239 136.928Z" fill="#5E53B8"/>
<path opacity="0.4" d="M225.239 136.928C224.119 142.841 223.418 154.985 226.663 179.026H255.962C256.164 174.537 253.34 152.612 257.674 131.443C254.436 130.821 251.162 130.408 247.871 130.206C243.725 129.968 239.569 129.968 235.423 130.206C234.054 130.331 232.7 130.533 231.533 130.743C229.981 131.015 228.548 131.752 227.424 132.857C226.3 133.961 225.538 135.381 225.239 136.928Z" fill="black"/>
<path opacity="0.2" d="M229.72 145.696L224.43 144.428C224.266 147.633 224.251 151.601 224.484 156.51C226.919 153.741 230.031 149.415 229.72 145.696Z" fill="black"/>
<path opacity="0.2" d="M234.948 305.575L235.228 312.11H240.705L240.425 305.575H234.948Z" fill="black"/>
<path opacity="0.2" d="M275.762 303.91L270.409 305.069L273.179 311.153L278.532 309.994L275.762 303.91Z" fill="black"/>
<path d="M248.906 112.156C247.505 117.4 246.945 120.543 243.709 122.722C238.846 126.036 232.778 122.239 232.622 116.7C232.451 111.697 234.777 103.956 240.402 102.898C241.638 102.666 242.913 102.753 244.106 103.15C245.3 103.547 246.372 104.241 247.223 105.168C248.074 106.094 248.675 107.221 248.969 108.444C249.263 109.667 249.242 110.945 248.906 112.156Z" fill="#FF8B7B"/>
<path d="M236.629 112.351C236.364 111.651 235.158 106.228 236.294 104.82C237.43 103.412 250.384 104.431 252.298 106.314C255.48 109.426 253.27 112.226 249.793 115.829C247.178 118.536 247.077 121.586 245.755 122.053C243.421 122.831 239.857 122.099 239.142 119.633C238.426 117.167 236.629 112.351 236.629 112.351Z" fill="#263238"/>
<path d="M250.726 100.144C246.151 98.1991 237.57 100.354 232.933 99.2339C232.874 100.958 233.441 102.645 234.529 103.984C235.618 105.323 237.154 106.222 238.854 106.516C242.7 107.249 246.608 107.611 250.524 107.597C255.612 107.364 254.616 101.801 250.726 100.144Z" fill="#263238"/>
<path d="M251.442 106.477C253.113 106.641 254.796 106.32 256.289 105.551C257.145 107.621 252.438 108.189 251.442 106.477Z" fill="#263238"/>
<path d="M239.118 112.569C239.013 113.918 238.466 115.195 237.562 116.202C236.364 117.517 235.12 116.692 234.909 115.097C234.723 113.65 235.112 111.207 236.574 110.507C238.037 109.807 239.22 110.943 239.118 112.569Z" fill="#FF8B7B"/>
<path d="M237.049 179.049C237.049 179.049 243.273 220.866 246.673 236.535C250.399 253.69 270.425 310.445 270.425 310.445L280.22 308.321C280.22 308.321 266.216 262.062 263.104 238.076C260.692 219.653 255.954 179.033 255.954 179.033L237.049 179.049Z" fill="#5E53B8"/>
<path d="M268.076 307.186C268.037 307.186 269.904 310.733 269.904 310.733L280.92 308.345L279.995 305.03L268.076 307.186Z" fill="#263238"/>
<path opacity="0.3" d="M240.978 193.948C248.159 195.356 247.396 222.135 246.533 235.913C244.463 226.172 241.429 207.438 239.36 194.142C239.861 193.895 240.432 193.826 240.978 193.948Z" fill="black"/>
<path d="M226.663 179.049C226.663 179.049 225.885 219.964 226.507 236.621C227.129 253.978 233.19 310.811 233.19 310.811H242.464C242.464 310.811 242.798 254.989 243.242 237.944C243.693 219.365 245.934 179.018 245.934 179.018L226.663 179.049Z" fill="#5E53B8"/>
<path d="M231.408 307.154C231.362 307.154 231.929 310.998 231.929 310.998H243.203L243.514 307.567L231.408 307.154Z" fill="#263238"/>
<path d="M236.707 138.749C239.328 145.821 223.916 154.153 223.916 154.153L217.241 145.595C217.241 145.595 221.73 136.71 227.176 132.711C233.906 127.779 234.707 133.365 236.707 138.749Z" fill="#5E53B8"/>
<path opacity="0.4" d="M236.707 138.749C239.328 145.821 223.916 154.153 223.916 154.153L217.241 145.595C217.241 145.595 221.73 136.71 227.176 132.711C233.906 127.779 234.707 133.365 236.707 138.749Z" fill="black"/>
<path d="M297.095 85.0588C312.602 85.0588 325.173 77.0473 325.173 67.1648C325.173 57.2822 312.602 49.2708 297.095 49.2708C281.588 49.2708 269.017 57.2822 269.017 67.1648C269.017 77.0473 281.588 85.0588 297.095 85.0588Z" fill="#5E53B8"/>
<path d="M286.966 76.174C285.116 76.168 283.327 75.5104 281.915 74.3166C280.502 73.1228 279.555 71.4693 279.24 69.6466C278.931 67.6722 279.376 65.6537 280.487 63.9929C281.599 62.3321 283.295 61.1507 285.238 60.684C286.833 60.3166 288.503 60.4582 290.013 61.089C291.523 61.7197 292.797 62.808 293.656 64.2006L311.683 60.4817C312.375 60.33 313.1 60.4452 313.711 60.8043C314.323 61.1634 314.776 61.74 314.981 62.4189C315.076 62.7759 315.096 63.1483 315.042 63.5134C314.987 63.8786 314.859 64.2288 314.664 64.5426C314.47 64.8565 314.214 65.1274 313.911 65.3388C313.608 65.5502 313.266 65.6976 312.904 65.7721L312.437 65.8655C312.368 65.8779 312.302 65.9061 312.246 65.948C312.189 65.9898 312.143 66.0441 312.11 66.1067C312.082 66.1702 312.067 66.2392 312.067 66.3089C312.067 66.3787 312.082 66.4477 312.11 66.5112L312.429 67.3359C312.536 67.6032 312.547 67.8994 312.459 68.1735C312.371 68.4476 312.19 68.6824 311.947 68.8374C311.756 68.9556 311.594 69.1158 311.474 69.3059C311.354 69.496 311.279 69.711 311.255 69.9344C311.232 70.1909 311.128 70.4336 310.959 70.6278C310.79 70.822 310.564 70.9578 310.313 71.0158L309.948 71.0936C309.694 71.1405 309.432 71.1054 309.2 70.9935C308.968 70.8816 308.777 70.6987 308.656 70.4712C308.495 70.1999 308.253 69.9857 307.964 69.8585C307.674 69.7313 307.353 69.6975 307.044 69.7617C306.735 69.8259 306.453 69.985 306.239 70.2168C306.024 70.4486 305.888 70.7415 305.848 71.0547C305.826 71.3096 305.724 71.5509 305.556 71.7439C305.388 71.9369 305.163 72.0715 304.914 72.1284L304.548 72.2062C304.295 72.2518 304.034 72.2162 303.802 72.1044C303.57 71.9926 303.379 71.8104 303.257 71.5838C303.14 71.3908 302.983 71.2255 302.797 71.0992C302.61 70.973 302.398 70.8888 302.175 70.8525C301.876 70.8165 301.6 70.6725 301.4 70.4476C301.199 70.2227 301.088 69.9323 301.086 69.631V68.7441C301.083 68.6747 301.065 68.6068 301.033 68.5451C301.001 68.4833 300.957 68.4292 300.902 68.3863C300.847 68.3435 300.784 68.313 300.716 68.2968C300.649 68.2807 300.579 68.2793 300.51 68.2928L294.761 69.4754C294.527 71.0682 293.807 72.5502 292.7 73.7195C291.594 74.8888 290.154 75.6888 288.576 76.0106C288.046 76.119 287.506 76.1737 286.966 76.174ZM285.41 61.392C283.645 61.8042 282.102 62.8696 281.091 64.3739C280.081 65.8781 279.678 67.7093 279.964 69.4987C280.269 71.1636 281.161 72.6639 282.477 73.7284C283.793 74.7928 285.447 75.3511 287.139 75.3022C288.831 75.2534 290.45 74.6005 291.702 73.4619C292.955 72.3232 293.758 70.7739 293.968 69.0942V68.8141L300.308 67.5304C300.49 67.4864 300.679 67.4835 300.863 67.5218C301.046 67.5601 301.218 67.6387 301.367 67.752C301.516 67.8652 301.638 68.0102 301.724 68.1764C301.81 68.3426 301.858 68.5259 301.864 68.713V69.5999C301.866 69.7055 301.904 69.8072 301.972 69.888C302.04 69.9688 302.134 70.0237 302.238 70.0433C302.578 70.0921 302.902 70.2176 303.187 70.4103C303.471 70.6031 303.708 70.858 303.879 71.1559C303.92 71.2398 303.987 71.3089 304.069 71.3535C304.151 71.3981 304.245 71.416 304.338 71.4048L304.696 71.327C304.787 71.3037 304.868 71.2517 304.926 71.1789C304.985 71.106 305.019 71.0161 305.023 70.9225C305.072 70.4382 305.274 69.982 305.599 69.6199C305.924 69.2577 306.356 69.0084 306.833 68.908C307.309 68.8075 307.805 68.8611 308.249 69.061C308.693 69.2609 309.061 69.5967 309.302 70.02C309.342 70.1033 309.407 70.1721 309.488 70.2168C309.569 70.2614 309.661 70.2796 309.753 70.269L310.127 70.1912C310.216 70.1664 310.295 70.1138 310.352 70.0411C310.41 69.9683 310.442 69.8792 310.446 69.7866C310.484 69.445 310.6 69.1167 310.785 68.8268C310.97 68.537 311.218 68.2931 311.511 68.1139C311.597 68.0521 311.66 67.9634 311.689 67.8619C311.719 67.7604 311.714 67.652 311.675 67.5537L311.356 66.7291C311.29 66.559 311.262 66.3767 311.274 66.1947C311.285 66.0127 311.337 65.8355 311.424 65.6755C311.512 65.5155 311.633 65.3764 311.78 65.2682C311.927 65.1599 312.095 65.0849 312.274 65.0486L312.748 64.9474C313.005 64.8927 313.248 64.7867 313.463 64.6358C313.678 64.4849 313.861 64.2921 313.999 64.0692C314.138 63.8462 314.23 63.5975 314.271 63.338C314.311 63.0786 314.299 62.8136 314.234 62.559C314.083 62.0694 313.751 61.6553 313.307 61.3999C312.862 61.1445 312.338 61.0666 311.838 61.1819L293.306 65.033L293.166 64.7918C292.422 63.4663 291.266 62.4192 289.873 61.8087C288.481 61.1981 286.928 61.0573 285.448 61.4075L285.41 61.392ZM286.966 73.2798C285.999 73.2906 285.05 73.0203 284.235 72.5018C283.27 71.8685 282.555 70.9201 282.211 69.8184C281.867 68.7167 281.916 67.5299 282.35 66.4602C282.783 65.3906 283.574 64.5044 284.588 63.9527C285.601 63.401 286.775 63.218 287.909 63.4348C289.042 63.6516 290.065 64.2548 290.804 65.1417C291.542 66.0285 291.95 67.1441 291.959 68.2981C291.967 69.4522 291.574 70.5733 290.848 71.4704C290.122 72.3675 289.107 72.9849 287.977 73.2176C287.646 73.2775 287.31 73.3036 286.973 73.2954L286.966 73.2798ZM286.966 64.0916C286.676 64.0933 286.386 64.1219 286.102 64.1772C285.56 64.2927 285.046 64.5137 284.589 64.8278C284.133 65.1419 283.743 65.5428 283.441 66.0077C283.139 66.4726 282.932 66.9924 282.832 67.5373C282.731 68.0822 282.738 68.6417 282.854 69.1837C282.969 69.7257 283.19 70.2396 283.504 70.6962C283.818 71.1527 284.219 71.543 284.684 71.8446C285.149 72.1462 285.669 72.3533 286.214 72.4541C286.759 72.5548 287.318 72.5473 287.86 72.4318C288.674 72.2624 289.419 71.8559 290.002 71.2636C290.585 70.6713 290.98 69.9196 291.136 69.1034C291.293 68.2871 291.204 67.4428 290.881 66.6769C290.558 65.911 290.016 65.2578 289.323 64.7996C288.634 64.3415 287.824 64.1004 286.997 64.1072L286.966 64.0916Z" fill="white"/>
<path opacity="0.6" d="M274.245 95.554C279.341 95.554 283.472 92.9207 283.472 89.6723C283.472 86.4239 279.341 83.7906 274.245 83.7906C269.149 83.7906 265.018 86.4239 265.018 89.6723C265.018 92.9207 269.149 95.554 274.245 95.554Z" fill="#5E53B8"/>
<path opacity="0.3" d="M259.564 97.9658C261.657 97.9658 263.353 96.886 263.353 95.554C263.353 94.222 261.657 93.1422 259.564 93.1422C257.472 93.1422 255.775 94.222 255.775 95.554C255.775 96.886 257.472 97.9658 259.564 97.9658Z" fill="#5E53B8"/>
</svg>
