<svg width="392" height="262" viewBox="0 0 392 262" fill="none" xmlns="http://www.w3.org/2000/svg">
<path d="M20.3265 88.7027L20.8492 89.7088C25.1194 98.1662 33.5866 103.721 42.958 103.857C44.1637 103.872 45.3689 103.8 46.5644 103.642C50.9005 102.997 55.0107 101.289 58.5302 98.6693C62.0497 96.0495 64.8695 92.599 66.7393 88.6241C68.9136 83.9081 69.844 78.3904 73.534 74.8115C78.3582 70.1531 85.9107 70.5776 92.5225 71.2954C99.1342 72.0133 106.692 72.422 111.501 67.7427C114.511 64.8136 115.734 60.4067 115.833 56.1833C116.1 44.9906 109.117 34.4216 99.6307 28.71C90.1443 22.9984 78.5882 21.6517 67.6383 22.9984C52.2928 24.8848 37.2818 32.1579 27.6491 44.4404C18.0163 56.723 14.4936 74.1932 20.3265 88.7027Z" fill="#FEFFE8"/>
<path d="M280.149 37.728L279.559 38.6817C274.599 46.7513 274.295 56.8959 279.083 64.9708C279.696 66.0116 280.386 67.0048 281.148 67.9418C283.957 71.3178 287.556 73.9454 291.622 75.5909C295.689 77.2365 300.099 77.8489 304.459 77.3738C309.596 76.7712 314.786 74.6752 319.767 75.9748C326.249 77.6673 329.834 84.3588 332.677 90.3743C335.521 96.3898 339.122 103.076 345.608 104.737C349.674 105.785 354.06 104.528 357.708 102.405C367.367 96.7828 372.708 85.2967 372.62 74.2089C372.531 63.121 367.628 52.5362 360.76 43.8798C351.133 31.7282 337.12 22.6944 321.623 20.8762C306.126 19.0579 289.432 25.152 280.149 37.728Z" fill="#FEFFE8"/>
<path d="M165.851 53.2994C168.252 43.8545 162.561 34.2463 153.141 31.8388C143.72 29.4313 134.136 35.1363 131.735 44.5812C129.333 54.0261 135.024 63.6343 144.445 66.0418C153.865 68.4493 163.449 62.7443 165.851 53.2994Z" fill="#FEFFE8"/>
<path d="M373.581 237.618C373.581 237.692 293.906 237.755 195.645 237.755C97.3833 237.755 17.6923 237.692 17.6923 237.618C17.6923 237.545 97.3519 237.482 195.645 237.482C293.937 237.482 373.581 237.545 373.581 237.618Z" fill="#37306B"/>
<path d="M45.472 177.673C45.6131 177.233 61.8994 123.858 61.8994 123.858L61.4917 117.229L65.7515 110.197L71.0408 111.953L70.3196 119.813L66.5564 125.545L50.176 179.208L45.472 177.673Z" fill="#FEFFE8"/>
<path d="M45.472 177.673L45.7856 177.762L46.6898 178.045L50.176 179.14L50.1185 179.171C52.7684 170.468 58.8941 150.325 66.4414 125.524L70.1993 119.797V119.855C70.4293 117.345 70.675 114.677 70.9206 111.995L71.0147 112.136L70.5757 111.995L65.7253 110.386L65.8821 110.328L61.6224 117.36V117.282C61.7583 119.542 61.8924 121.751 62.0248 123.91V123.957C57.2633 139.463 53.1395 152.893 50.2073 162.45C48.7334 167.235 47.5522 171.044 46.7421 173.669C46.3396 174.979 46.0208 175.991 45.8065 176.682L45.5608 177.463L45.472 177.73C45.4897 177.644 45.5124 177.558 45.5399 177.474C45.5922 177.29 45.6654 177.033 45.7647 176.703C45.9737 176.012 46.2873 175.006 46.6637 173.706C47.4529 171.086 48.6028 167.271 50.0453 162.492C52.9618 152.903 57.0491 139.436 61.774 123.879V123.926C61.6381 121.767 61.5004 119.558 61.3611 117.297V117.255V117.219L65.6208 110.187L65.6731 110.092L65.7776 110.129L70.6332 111.733L71.067 111.879L71.1715 111.911V112.021C70.9258 114.719 70.6802 117.386 70.445 119.881V119.917V119.944L66.687 125.676V125.639C59.0613 150.388 52.8834 170.504 50.2073 179.208V179.255H50.1603L46.6689 178.097L45.7856 177.798L45.472 177.673Z" fill="#37306B"/>
<path d="M41.5467 180.256L34.2294 190.17L24.0008 227.374C24.0008 227.374 22.5321 234.962 30.8896 237.115C40.2976 239.536 42.4405 232.326 42.4405 232.326L52.3712 195.997L52.2666 183.4L54.7179 180.628C54.8288 180.499 54.9065 180.345 54.9444 180.178C54.9824 180.012 54.9793 179.839 54.9355 179.675C54.8918 179.51 54.8086 179.359 54.6933 179.233C54.578 179.108 54.4339 179.013 54.2737 178.956L42.5241 175.068C42.3608 175.017 42.1875 175.007 42.0194 175.039C41.8512 175.07 41.6934 175.143 41.5597 175.25C41.4261 175.357 41.3207 175.495 41.2528 175.653C41.1849 175.81 41.1566 175.982 41.1704 176.153L41.5467 180.256Z" fill="#5E53B8"/>
<path d="M52.3294 183.835C52.3033 183.908 49.8415 183.19 46.8309 182.231C43.8204 181.273 41.39 180.434 41.4161 180.361C41.4422 180.287 43.8988 181.011 46.9146 181.969C49.9303 182.928 52.3503 183.762 52.3294 183.835Z" fill="#37306B"/>
<path d="M52.3921 196.002C52.1444 195.987 51.8991 195.944 51.6604 195.876C51.19 195.777 50.5209 195.614 49.6899 195.405C48.0278 194.991 45.749 194.357 43.2663 193.56C40.7837 192.764 38.5623 191.957 36.9577 191.333C36.1633 191.019 35.5204 190.757 35.0814 190.568C34.8483 190.484 34.6242 190.377 34.4124 190.249C34.6559 190.299 34.894 190.372 35.1232 190.469L37.0257 191.15C38.6355 191.726 40.8621 192.507 43.3447 193.298C45.8274 194.09 48.0958 194.755 49.7369 195.221L51.6865 195.772C51.9282 195.827 52.1644 195.904 52.3921 196.002Z" fill="#37306B"/>
<g opacity="0.3">
<path d="M38.6356 194.114L38.3797 194.04C37.4653 193.772 36.5077 194.299 36.241 195.215L27.1836 226.349C26.9169 227.265 27.442 228.225 28.3565 228.493L28.6124 228.568C29.5268 228.835 30.4844 228.308 30.7511 227.392L39.8085 196.259C40.0752 195.342 39.5501 194.382 38.6356 194.114Z" fill="#16132A"/>
</g>
<g opacity="0.3">
<path d="M43.8793 195.819L43.6234 195.744C42.7089 195.477 41.7514 196.003 41.4846 196.92L32.4273 228.053C32.1605 228.97 32.6856 229.93 33.6001 230.197L33.856 230.272C34.7705 230.54 35.728 230.013 35.9948 229.096L45.0522 197.963C45.3189 197.046 44.7938 196.086 43.8793 195.819Z" fill="#16132A"/>
</g>
<g opacity="0.3">
<path d="M48.6092 197.387L48.3536 197.311C47.4402 197.04 46.4806 197.563 46.2102 198.479L37.0283 229.575C36.7579 230.491 37.2792 231.453 38.1926 231.724L38.4482 231.8C39.3616 232.071 40.3212 231.548 40.5916 230.633L49.7735 199.536C50.0439 198.621 49.5226 197.658 48.6092 197.387Z" fill="#16132A"/>
</g>
<path d="M66.5198 125.55C65.7205 125.416 64.9386 125.193 64.1887 124.885C63.4099 124.665 62.6592 124.356 61.9517 123.963C62.7485 124.1 63.5282 124.324 64.2775 124.628C65.0577 124.849 65.81 125.158 66.5198 125.55Z" fill="#37306B"/>
<path d="M71.0513 111.953C71.0121 112.202 70.9509 112.448 70.8683 112.686C70.7168 113.21 70.5181 113.87 70.2725 114.688L68.1818 121.5L68.14 121.631L68.0093 121.589L65.5999 120.745L63.1224 119.875L63.0022 119.834L63.0388 119.713C63.7914 117.02 64.4552 114.656 64.9465 112.901C65.1869 112.089 65.3803 111.418 65.5319 110.915C65.5933 110.672 65.6737 110.433 65.7723 110.202C65.7437 110.453 65.693 110.7 65.6208 110.941L65.0981 112.948C64.6329 114.693 64.0057 117.062 63.2844 119.76L63.2008 119.598L65.6835 120.468L68.0877 121.311L67.9153 121.4L70.1105 114.635C70.3823 113.823 70.6331 113.163 70.7795 112.66C70.85 112.417 70.9409 112.18 71.0513 111.953Z" fill="#37306B"/>
<path d="M225.217 58.6461C224.795 58.6468 224.377 58.5759 223.978 58.4365L217.576 56.2147C216.947 55.9944 216.387 55.6129 215.952 55.1082C215.516 54.6035 215.22 53.9931 215.093 53.338L213.812 46.6674C213.687 46.0115 213.736 45.334 213.954 44.703C214.172 44.072 214.553 43.5098 215.056 43.0728L220.179 38.6293C220.683 38.1931 221.292 37.8973 221.946 37.7713C222.6 37.6454 223.276 37.6937 223.905 37.9114L230.303 40.1332C230.932 40.3527 231.493 40.7338 231.93 41.2386C232.366 41.7434 232.663 42.3542 232.791 43.0099L234.071 49.6804C234.194 50.3363 234.144 51.013 233.926 51.6435C233.708 52.2741 233.329 52.8365 232.827 53.2751L227.705 57.7186C227.014 58.3171 226.131 58.6463 225.217 58.6461ZM219.154 52.3266L225.139 54.4226L229.921 50.2726L228.724 44.016L222.745 41.92L217.952 46.112L219.154 52.3266Z" fill="#FEFFE8"/>
<path d="M219.154 52.3266C219.11 52.191 219.076 52.0528 219.05 51.9127L218.788 50.6813C218.564 49.5756 218.266 48.0194 217.863 46.1172C217.859 46.0993 217.86 46.0807 217.866 46.0633C217.871 46.0458 217.881 46.0301 217.895 46.0177L222.661 41.8257C222.681 41.8156 222.702 41.8103 222.724 41.8103C222.746 41.8103 222.767 41.8156 222.787 41.8257L228.766 43.9217L228.86 44.0265V44.1156V44.2204L228.902 44.4247L228.98 44.8334C229.033 45.1007 229.08 45.3574 229.132 45.6404C229.236 46.1644 229.336 46.6884 229.435 47.2124C229.634 48.2604 229.827 49.2665 230.01 50.2359C230.014 50.2579 230.013 50.2807 230.005 50.3018C229.998 50.323 229.985 50.3419 229.968 50.3564L225.201 54.496C225.186 54.5047 225.169 54.5093 225.152 54.5093C225.134 54.5093 225.117 54.5047 225.102 54.496L220.727 52.924L219.551 52.4838C219.415 52.4394 219.282 52.3851 219.154 52.3214C219.303 52.3527 219.45 52.3947 219.593 52.4472L220.801 52.8349L225.17 54.3021H225.071L229.837 50.1101L229.796 50.2359C229.607 49.2612 229.409 48.2552 229.21 47.2124C229.111 46.6884 229.006 46.1644 228.902 45.6404C228.85 45.3732 228.803 45.1164 228.75 44.8334L228.672 44.4247L228.63 44.2204V44.1156V44.0632V44.0265C228.63 44.0265 228.797 44.2204 228.714 44.126L222.74 42.03H222.865L218.062 46.1644L218.098 46.0648C218.438 47.9617 218.72 49.5075 218.919 50.6132C219.008 51.1372 219.081 51.5511 219.133 51.8655C219.154 52.0183 219.161 52.1726 219.154 52.3266Z" fill="#37306B"/>
<path d="M225.217 58.6461C225.217 58.6461 225.442 58.6461 225.865 58.5622C226.475 58.4458 227.048 58.1813 227.532 57.792L232.733 53.2279C233.302 52.7354 233.709 52.0812 233.899 51.352C234.001 50.9679 234.043 50.5701 234.024 50.173C233.978 49.7589 233.908 49.3478 233.815 48.9416C233.486 47.2491 233.135 45.4465 232.77 43.5496C232.705 43.0751 232.577 42.6116 232.388 42.1715C232.185 41.7276 231.895 41.3288 231.536 40.9985C231.177 40.6683 230.756 40.4133 230.297 40.2484L228.823 39.7244L225.797 38.6764L224.229 38.1524C223.732 37.9428 223.2 37.8308 222.661 37.8223C222.12 37.8217 221.585 37.9397 221.093 38.1682C220.616 38.4083 220.179 38.7211 219.797 39.0956L217.377 41.1916L215.041 43.2195C214.329 43.8729 213.902 44.7795 213.849 45.7452C213.842 46.2129 213.894 46.6796 214.006 47.1338C214.095 47.6002 214.178 48.056 214.267 48.5067C214.434 49.408 214.602 50.2778 214.759 51.1267C214.915 51.9756 215.067 52.793 215.229 53.558C215.424 54.2835 215.832 54.9334 216.4 55.4235C216.664 55.6494 216.957 55.8381 217.273 55.9842C217.581 56.1204 217.91 56.22 218.213 56.3352L219.964 56.9536L222.766 57.9492C223.345 58.1836 223.939 58.3814 224.543 58.5413C224.961 58.6199 225.191 58.6146 225.191 58.6251C224.972 58.6517 224.751 58.6517 224.532 58.6251C223.921 58.484 223.32 58.3002 222.734 58.0749L219.943 57.116L218.187 56.5186C217.874 56.4086 217.555 56.3143 217.225 56.1728C216.892 56.022 216.581 55.8263 216.3 55.5912C215.697 55.0804 215.262 54.3992 215.051 53.6366C214.874 52.8402 214.732 52.0332 214.565 51.1896C214.398 50.3459 214.231 49.4708 214.042 48.5696C213.952 48.1259 213.863 47.67 213.776 47.2019C213.658 46.7291 213.602 46.243 213.609 45.7557C213.663 44.721 214.119 43.7487 214.879 43.0466L217.21 41.0135L219.63 38.9175C219.839 38.7393 220.032 38.5612 220.257 38.3935C220.486 38.2228 220.731 38.0754 220.989 37.9533C221.509 37.711 222.077 37.5858 222.651 37.5865C223.22 37.5955 223.782 37.7128 224.308 37.9324L225.876 38.4564L228.902 39.5044L230.376 40.0284C230.873 40.2064 231.33 40.4825 231.719 40.8406C232.1 41.1916 232.408 41.6156 232.623 42.0877C232.821 42.5476 232.954 43.0324 233.02 43.5287C233.369 45.4325 233.709 47.2316 234.04 48.9259C234.134 49.3421 234.202 49.7639 234.244 50.1887C234.274 50.7919 234.165 51.394 233.926 51.9483C233.686 52.5026 233.323 52.9942 232.864 53.3851L227.606 57.8863C227.099 58.2739 226.505 58.5296 225.876 58.6304C225.658 58.6627 225.436 58.6679 225.217 58.6461Z" fill="#37306B"/>
<path d="M180.67 47.7364C180.256 47.7354 179.847 47.6406 179.474 47.4592C179.101 47.2777 178.774 47.0142 178.517 46.6884L176.693 44.409C176.392 44.0301 176.194 43.5787 176.121 43.0998C176.048 42.6209 176.101 42.131 176.275 41.679L177.32 38.9542C177.496 38.5032 177.787 38.1066 178.164 37.804C178.541 37.5014 178.991 37.3035 179.468 37.2302L182.348 36.7848C182.826 36.7123 183.314 36.7665 183.764 36.9421C184.215 37.1177 184.611 37.4086 184.914 37.7856L186.738 40.0703C187.04 40.4482 187.237 40.8986 187.31 41.3767C187.383 41.8549 187.33 42.3439 187.157 42.7951L186.111 45.5251C185.938 45.9764 185.65 46.3743 185.276 46.6795C184.902 46.9847 184.455 47.1865 183.979 47.2648L181.094 47.705C180.953 47.7262 180.812 47.7367 180.67 47.7364ZM182.761 38.8651H182.662L179.797 39.3C179.682 39.3172 179.573 39.3645 179.481 39.4371C179.389 39.5098 179.318 39.6052 179.275 39.714L178.229 42.444C178.188 42.5525 178.175 42.6698 178.193 42.7846C178.21 42.8995 178.257 43.0078 178.329 43.099L180.153 45.3784C180.226 45.4688 180.321 45.5385 180.429 45.5807C180.537 45.623 180.655 45.6363 180.77 45.6194L183.655 45.174C183.77 45.1573 183.88 45.1102 183.972 45.0375C184.063 44.9648 184.134 44.8691 184.177 44.7601L185.223 42.0353C185.265 41.927 185.278 41.8094 185.261 41.6944C185.243 41.5794 185.196 41.471 185.123 41.3803L183.299 39.1009C183.236 39.0259 183.156 38.9659 183.067 38.9251C182.977 38.8844 182.88 38.8639 182.782 38.8651H182.761Z" fill="#FEFFE8"/>
<path d="M182.782 38.8651C182.855 38.8421 182.933 38.8421 183.007 38.8651C183.097 38.8898 183.181 38.9345 183.252 38.9961C183.341 39.084 183.425 39.1767 183.503 39.2738L184.987 41.0606L185.228 41.3593C185.318 41.4826 185.37 41.6307 185.374 41.7838C185.371 41.9346 185.335 42.0829 185.27 42.2187C185.223 42.3497 185.17 42.4807 185.123 42.6169C184.914 43.1409 184.695 43.733 184.465 44.3409C184.407 44.4928 184.35 44.6448 184.287 44.802C184.218 44.9913 184.08 45.147 183.9 45.2369C183.732 45.2998 183.556 45.3403 183.378 45.3574L182.855 45.4413C182.149 45.5461 181.459 45.6666 180.675 45.7662C180.563 45.7665 180.452 45.7428 180.349 45.6967C180.246 45.6507 180.154 45.5832 180.08 45.4989L179.735 45.064L179.06 44.2256L178.417 43.4082L178.255 43.209C178.194 43.1356 178.144 43.0524 178.109 42.9628C178.038 42.7772 178.038 42.5719 178.109 42.3864L178.789 40.6729L179.097 39.8974C179.142 39.7653 179.202 39.6388 179.275 39.5201C179.358 39.402 179.475 39.3109 179.609 39.2581C180.613 39.0747 181.376 39.0013 181.925 38.928C182.205 38.8729 182.491 38.8483 182.777 38.8546C182.707 38.8803 182.635 38.8979 182.562 38.907L181.945 39.0328C181.423 39.1376 180.597 39.2528 179.682 39.4362C179.584 39.4795 179.499 39.5482 179.437 39.6354C179.378 39.7444 179.329 39.8584 179.29 39.976L178.998 40.7567L178.339 42.4807C178.292 42.6074 178.292 42.747 178.339 42.8737C178.412 43.0086 178.501 43.1336 178.606 43.2457L179.275 44.0684L179.949 44.9068L180.289 45.3312C180.338 45.3862 180.399 45.43 180.466 45.4598C180.534 45.4896 180.607 45.5047 180.681 45.5042L182.818 45.1845L183.341 45.1059C183.5 45.096 183.656 45.0642 183.806 45.0116C183.93 44.9526 184.026 44.8472 184.073 44.7182C184.13 44.561 184.193 44.409 184.25 44.257C184.491 43.6597 184.716 43.0833 184.93 42.5436C184.989 42.4143 185.041 42.2833 185.087 42.1506C185.143 42.0416 185.177 41.9221 185.186 41.7995C185.181 41.6878 185.147 41.5794 185.087 41.4851L184.857 41.1916L183.44 39.3524C183.378 39.2239 183.285 39.1125 183.171 39.0276C183.056 38.9428 182.923 38.887 182.782 38.8651Z" fill="#37306B"/>
<path d="M180.67 47.7364C180.784 47.7105 180.899 47.693 181.015 47.684L182.013 47.5111L183.581 47.2438C183.907 47.2082 184.227 47.1307 184.533 47.0133C184.868 46.8746 185.17 46.6676 185.421 46.4054C185.709 46.1184 185.93 45.7713 186.069 45.3889C186.221 44.9906 186.383 44.5714 186.545 44.1365C186.832 43.2614 187.418 42.3654 187.204 41.3646C187.111 40.857 186.879 40.3853 186.535 40.0022L185.489 38.7026L184.967 38.0319C184.8 37.8065 184.603 37.6054 184.381 37.4346C183.929 37.0944 183.379 36.9106 182.813 36.9106C182.522 36.9213 182.232 36.9546 181.945 37.0101L181.073 37.1411L179.374 37.4084C178.853 37.5218 178.378 37.7924 178.015 38.1839C177.84 38.3716 177.692 38.5833 177.576 38.8127C177.466 39.038 177.377 39.3 177.283 39.5358L176.724 40.9558C176.529 41.384 176.375 41.8296 176.264 42.2868C176.202 42.6995 176.235 43.121 176.359 43.5194C176.483 43.9178 176.695 44.2829 176.98 44.5872L178.292 46.264C178.491 46.505 178.653 46.746 178.841 46.9294C179.011 47.0972 179.203 47.2417 179.411 47.3591C179.811 47.5719 180.25 47.7003 180.702 47.7364C180.702 47.7364 180.67 47.7364 180.607 47.7364C180.545 47.7364 180.461 47.7364 180.346 47.7364C180.003 47.7053 179.669 47.6074 179.364 47.4482C179.143 47.3307 178.937 47.1864 178.752 47.0185C178.547 46.8071 178.353 46.5849 178.172 46.353L176.829 44.7024C176.521 44.3799 176.291 43.9916 176.155 43.5667C176.019 43.1419 175.981 42.6917 176.045 42.2501C176.149 41.7732 176.302 41.308 176.499 40.8615L177.048 39.4415C177.147 39.1952 177.226 38.9542 177.346 38.6974C177.471 38.4437 177.631 38.2091 177.822 38.0005C178.212 37.5792 178.717 37.2822 179.275 37.1464C179.85 37.0468 180.409 36.9682 180.989 36.8739L181.862 36.7429C182.162 36.6826 182.466 36.6476 182.771 36.6381C183.394 36.6324 184.002 36.8311 184.501 37.204C184.741 37.3878 184.954 37.6048 185.134 37.8485L185.656 38.5192C186.012 38.9594 186.357 39.3996 186.702 39.824C187.075 40.2411 187.323 40.755 187.418 41.3069C187.51 41.8363 187.452 42.3811 187.251 42.8789C187.073 43.3348 186.895 43.7802 186.728 44.2151C186.561 44.65 186.393 45.0588 186.237 45.4622C186.09 45.8563 185.86 46.2139 185.562 46.5102C185.032 47.0212 184.337 47.3244 183.602 47.3644L182.034 47.5844C181.601 47.6421 181.261 47.6892 181.031 47.705C180.912 47.7297 180.791 47.7403 180.67 47.7364Z" fill="#37306B"/>
<path d="M231.588 40.8982C231.22 41.5325 230.767 42.1127 230.24 42.6222C229.777 43.1958 229.22 43.6866 228.594 44.0736C229.034 43.4943 229.518 42.9495 230.041 42.444C230.497 41.8718 231.016 41.3532 231.588 40.8982Z" fill="#37306B"/>
<path d="M221.788 37.8852C222.13 38.5014 222.365 39.1711 222.484 39.8659C222.695 40.5434 222.789 41.2525 222.761 41.9619C222.526 41.3047 222.351 40.6278 222.238 39.9393C222.025 39.2699 221.875 38.5823 221.788 37.8852Z" fill="#37306B"/>
<path d="M217.889 45.9915C217.205 45.8565 216.534 45.6637 215.882 45.4151C215.204 45.2481 214.54 45.0274 213.896 44.7548C215.302 44.8686 216.665 45.2908 217.889 45.9915Z" fill="#37306B"/>
<path d="M216.776 55.0829C217.05 54.5349 217.402 54.03 217.821 53.5842C218.181 53.0851 218.611 52.6404 219.097 52.2638C218.826 52.8138 218.474 53.3192 218.051 53.7624C217.692 54.2616 217.262 54.7063 216.776 55.0829Z" fill="#37306B"/>
<path d="M225.578 57.9492C225.367 57.4098 225.244 56.8402 225.212 56.2619C225.086 55.6946 225.053 55.1107 225.113 54.5327C225.321 55.0745 225.444 55.6455 225.478 56.2252C225.601 56.7911 225.635 57.3728 225.578 57.9492Z" fill="#37306B"/>
<path d="M233.015 51.2367C232.48 51.174 231.959 51.0217 231.473 50.7861C230.954 50.6371 230.464 50.3996 230.026 50.0839C231.079 50.2983 232.09 50.688 233.015 51.2367Z" fill="#37306B"/>
<path d="M336.775 91.417C340.314 87.1412 343.852 82.8234 346.612 78.0026C349.371 73.1818 351.316 67.7951 351.457 62.2407C351.457 61.3971 351.117 55.5545 350.307 55.3187C349.732 55.151 349.335 60.3124 348.864 60.6844C344.348 64.2267 341.416 69.4824 339.728 74.9739C338.139 80.3283 337.149 85.8432 336.775 91.417Z" fill="#37306B"/>
<path d="M290.681 123.916C292.092 120.248 299.044 101.908 299.007 101.908C298.971 101.908 287.033 95.6614 291.167 82.9387C293.153 76.7922 298.27 64.473 303.026 53.3746C305.495 47.6246 310.033 43.017 315.736 40.4683C321.439 37.9196 327.89 37.6166 333.806 39.6196L335.024 40.0336C347.913 45.2736 350.704 59.1439 345.127 71.9138L319.517 131.388L297.073 124.434L290.681 123.916Z" fill="#FFBF9D"/>
<path d="M299.012 101.918C299.012 101.918 306.816 105.062 317.102 102.61C317.102 102.61 309.983 110.674 297.763 105.266L299.012 101.918Z" fill="#FF9A6C"/>
<path d="M303.006 65.6205C302.843 66.0906 302.869 66.6059 303.079 67.0569C303.288 67.5079 303.665 67.8592 304.129 68.0362C304.353 68.1318 304.593 68.1818 304.836 68.1831C305.079 68.1845 305.32 68.1371 305.544 68.0439C305.769 67.9507 305.972 67.8134 306.143 67.6402C306.314 67.467 306.448 67.2614 306.539 67.0353C306.703 66.5653 306.678 66.0494 306.468 65.5981C306.258 65.1467 305.88 64.7955 305.415 64.6197C305.192 64.5233 304.951 64.4727 304.708 64.471C304.465 64.4693 304.224 64.5165 303.999 64.6098C303.775 64.7032 303.571 64.8407 303.4 65.0143C303.23 65.1879 303.095 65.394 303.006 65.6205Z" fill="#37306B"/>
<path d="M303.936 59.5578C304.082 59.8722 305.791 59.3168 307.73 59.9823C309.67 60.6478 310.767 62.0783 311.055 61.9316C311.196 61.8634 311.112 61.3604 310.642 60.6949C310 59.827 309.105 59.1806 308.081 58.8452C307.067 58.4942 305.967 58.4795 304.945 58.8033C304.192 59.06 303.863 59.4164 303.936 59.5578Z" fill="#37306B"/>
<path d="M320.039 72.4902C319.875 72.9595 319.901 73.4746 320.111 73.9251C320.321 74.3757 320.699 74.7258 321.163 74.9006C321.386 74.997 321.627 75.0475 321.87 75.0492C322.113 75.0509 322.354 75.0037 322.579 74.9104C322.803 74.8171 323.007 74.6796 323.178 74.506C323.348 74.3324 323.483 74.1262 323.572 73.8997C323.735 73.4296 323.709 72.9144 323.499 72.4633C323.29 72.0123 322.913 71.661 322.449 71.4841C322.225 71.3885 321.984 71.3388 321.741 71.3379C321.498 71.3369 321.257 71.3847 321.033 71.4784C320.808 71.5721 320.605 71.7099 320.434 71.8837C320.263 72.0574 320.129 72.2636 320.039 72.4902Z" fill="#37306B"/>
<path d="M322.694 66.7838C322.836 67.0982 324.55 66.548 326.489 67.2082C328.428 67.8685 329.52 69.3042 329.813 69.1628C329.949 69.0894 329.871 68.5864 329.4 67.9261C328.756 67.0569 327.86 66.4088 326.834 66.0712C325.82 65.719 324.72 65.7043 323.698 66.0292C322.966 66.286 322.621 66.6423 322.694 66.7838Z" fill="#37306B"/>
<path d="M310.689 79.386C310.736 79.2812 309.596 78.6629 307.725 77.7511C307.25 77.531 306.811 77.2743 306.842 76.9022C306.873 76.5302 307.234 76.0376 307.668 75.5451L310.412 72.2544C314.264 67.5384 317.233 63.6241 317.039 63.4669C316.846 63.3097 313.574 66.9986 309.722 71.6989C308.786 72.8622 307.887 73.9678 307.035 75.0316C306.659 75.5556 306.121 76.0796 306.121 76.897C306.134 77.0961 306.193 77.2894 306.291 77.4627C306.39 77.636 306.526 77.7848 306.69 77.8978C306.941 78.0645 307.212 78.2 307.495 78.3013C309.419 79.0716 310.642 79.496 310.689 79.386Z" fill="#37306B"/>
<path d="M315.952 82.6662C315.638 82.5457 314.907 84.6574 312.617 85.543C310.328 86.4286 308.138 85.4434 308.023 85.7316C307.95 85.8522 308.389 86.308 309.325 86.6591C310.555 87.092 311.897 87.079 313.119 86.6224C314.29 86.1793 315.243 85.2983 315.78 84.1649C316.156 83.316 316.098 82.7029 315.952 82.6662Z" fill="#37306B"/>
<path d="M325.459 58.9238C325.459 59.5159 327.498 59.9246 329.682 60.9674C331.867 62.0102 333.503 63.2625 333.963 62.8905C334.172 62.7071 334.021 62.0992 333.44 61.3185C332.662 60.3533 331.674 59.5792 330.552 59.0552C329.429 58.5312 328.202 58.2712 326.965 58.295C326.024 58.3684 325.465 58.6461 325.459 58.9238Z" fill="#37306B"/>
<path d="M306.92 53.3589C307.114 53.9196 308.603 53.8829 310.218 54.4069C311.833 54.9309 313.093 55.7117 313.558 55.3554C313.772 55.1772 313.71 54.6637 313.255 54.0401C312.624 53.2682 311.778 52.7014 310.826 52.4113C309.873 52.1212 308.856 52.1209 307.903 52.4105C307.182 52.6987 306.842 53.0917 306.92 53.3589Z" fill="#37306B"/>
<path d="M340.915 80.958C341.165 80.958 350.464 81.3196 347.275 89.866C344.087 98.4124 336.158 93.4554 336.237 93.2039C336.315 92.9524 340.915 80.958 340.915 80.958Z" fill="#FFBF9D"/>
<path d="M340.057 90.9559C340.104 90.9559 340.167 91.1184 340.376 91.328C340.672 91.6139 341.068 91.772 341.479 91.7681C342.524 91.7681 343.8 90.6206 344.416 89.0905C344.714 88.3638 344.844 87.5794 344.798 86.7954C344.82 86.4962 344.768 86.1963 344.647 85.9221C344.526 85.6478 344.339 85.4079 344.103 85.2234C343.948 85.1091 343.757 85.0543 343.566 85.0687C343.374 85.0831 343.194 85.1658 343.058 85.302C342.854 85.5011 342.843 85.6897 342.796 85.6897C342.749 85.6897 342.666 85.4749 342.864 85.1657C342.989 84.9743 343.172 84.8289 343.387 84.7518C343.688 84.6623 344.013 84.6943 344.291 84.8408C344.613 85.0445 344.878 85.3269 345.061 85.6615C345.243 85.9961 345.338 86.3719 345.336 86.7534C345.421 87.6324 345.292 88.5188 344.96 89.3368C344.26 91.0398 342.781 92.3288 341.411 92.224C341.156 92.2036 340.909 92.1268 340.688 91.999C340.466 91.8712 340.276 91.6957 340.131 91.4852C339.995 91.176 340.021 90.9612 340.057 90.9559Z" fill="#FF9A6C"/>
<path d="M313.935 41.3593C312.847 40.0703 318.696 37.1673 322.674 36.9472C328.684 36.5909 337.052 38.1629 341.254 41.3226C346.324 45.1216 349.957 49.7748 350.824 56.0575C351.692 62.3403 350.453 68.796 348.023 74.6543C347.281 76.4411 346.371 78.2489 344.824 79.407C342.916 80.8375 340.178 81.1466 339.279 83.7928C339.13 84.2761 338.887 84.7251 338.564 85.1136C338.241 85.5022 337.844 85.8227 337.397 86.0565C335.202 87.1045 333.895 84.8251 333.618 82.9125C333.028 78.8463 334.345 74.7748 335.646 70.8605C336.571 68.0938 337.528 65.2694 339.305 62.9481C340.266 61.6853 341.448 60.6006 342.341 59.2801C343.235 57.9596 343.815 56.309 343.387 54.7842C343.278 54.448 343.136 54.1233 342.963 53.8148C342.173 52.3196 341.001 51.0618 339.566 50.1705C338.132 49.2792 336.487 48.7863 334.799 48.7425C329.348 48.601 320.165 47.9879 318.675 45.5356C316.496 42.0038 316.344 40.1908 316.344 40.1908L313.935 41.3593Z" fill="#37306B"/>
<path d="M342.347 36.0931C342.896 36.3708 355.737 44.3252 355.654 55.9265C355.57 67.5279 353.453 70.368 353.453 70.368C353.884 70.8998 354.236 71.491 354.499 72.1234C354.844 73.0037 352.873 75.9905 351.185 74.9949C339.655 64.2686 323.766 58.1064 305.64 52.4629L291.967 47.553C287.963 46.6779 286.965 45.1845 288.92 44.781C290.42 44.4666 302.838 43.8378 302.838 43.8378L305.52 43.0099L313.882 37.0835C313.882 37.0835 313.558 35.742 315.257 35.3071C316.956 34.8722 331.548 30.5911 342.347 36.0931Z" fill="#5E53B8"/>
<path d="M305.509 43.0309C305.509 43.0309 305.692 43.1042 306.032 43.2195L307.6 43.7121C308.948 44.1156 310.866 44.7968 313.229 45.6666C319.342 48.0251 325.237 50.9146 330.848 54.3021C336.456 57.7038 341.865 61.4232 347.051 65.4424C349.058 66.9672 350.652 68.2353 351.755 69.1104L353.035 70.1112C353.328 70.3365 353.49 70.4466 353.49 70.4466C353.49 70.4466 353.349 70.3103 353.061 70.0693L351.812 69.0213C350.72 68.1305 349.136 66.8414 347.145 65.3009C341.978 61.2344 336.567 57.4895 330.942 54.0873C325.314 50.6872 319.387 47.8124 313.234 45.4989C310.702 44.5471 308.124 43.7234 305.509 43.0309Z" fill="#37306B"/>
<g opacity="0.3">
<path d="M352.978 46.636C352.978 46.636 338.803 39.0275 330.973 39.9498L331.893 39.824L324.576 40.4318C323.337 40.5366 321.921 40.5733 321.074 39.6668C321.074 39.6668 325.512 37.7804 332.521 37.8171C339.53 37.8538 349.816 40.348 352.978 46.636Z" fill="#16132A"/>
</g>
<path d="M353.166 46.7618C352.851 46.2874 352.502 45.8373 352.121 45.4151C351.1 44.2463 349.945 43.2016 348.681 42.3025C346.81 40.9587 344.751 39.8993 342.571 39.1585C339.915 38.1776 337.079 37.7826 334.256 38.0005C332.807 38.1469 331.368 38.3849 329.949 38.7131C328.58 39.0223 327.247 39.2371 325.987 39.6039C324.832 39.988 323.647 40.272 322.444 40.4528C321.391 40.5572 320.328 40.4155 319.339 40.0388C315.633 38.8179 313.631 37.2721 313.882 37.0992C313.896 37.2498 313.965 37.3899 314.076 37.4922C314.377 37.7871 314.714 38.0424 315.079 38.252C316.409 39.0503 317.822 39.7021 319.292 40.196C320.303 40.5879 321.39 40.7421 322.47 40.6467C323.686 40.4762 324.886 40.201 326.055 39.824C327.289 39.4834 328.637 39.2528 330.007 38.9437C331.417 38.6289 332.844 38.3979 334.282 38.252C337.071 38.0416 339.873 38.4255 342.503 39.3786C344.667 40.1043 346.716 41.1365 348.587 42.444C349.85 43.3249 351.012 44.3424 352.053 45.478C352.424 45.8814 352.701 46.2063 352.878 46.4316C353.056 46.657 353.166 46.7618 353.166 46.7618Z" fill="#37306B"/>
<g opacity="0.3">
<path d="M355.487 60.7211C352.8 59.7727 351.002 58.3736 348.53 56.8645C345.917 55.261 343.246 53.7938 340.69 52.0646C338.751 50.7546 336.404 49.3713 335.542 47.3486C335.255 47.8393 335.101 48.3959 335.093 48.9642C335.084 49.5326 335.223 50.0934 335.495 50.5922C336.043 51.6402 338.369 53.5109 339.362 54.1868C345.012 58.0382 348.938 60.6687 355.251 63.3464C355.386 62.4791 355.463 61.6038 355.481 60.7264" fill="#16132A"/>
</g>
<path d="M355.622 54.6427C357.075 55.9684 357.948 56.8278 357.499 58.3107C357.128 59.5369 356.375 60.9307 355.11 60.7368C354.736 60.6497 354.382 60.4933 354.065 60.2757L336.754 50.1154C336.128 49.8401 335.62 49.3495 335.322 48.732C334.977 47.7469 335.845 46.6674 336.843 46.395C337.841 46.1225 338.908 46.395 339.901 46.7408C345.535 48.5696 350.673 51.3782 355.622 54.6375" fill="#5E53B8"/>
<path d="M335.51 49.1093C335.351 48.8064 335.275 48.4663 335.291 48.1242C335.329 47.6625 335.497 47.221 335.774 46.8503C336.052 46.4797 336.427 46.1947 336.859 46.0282C337.967 45.6509 339.435 45.9024 340.878 46.4893C342.321 47.0762 343.946 47.7416 345.582 48.5014C348.424 49.7649 351.147 51.2801 353.72 53.0288C354.703 53.7048 355.46 54.3021 355.988 54.7161L356.584 55.2034C356.651 55.2635 356.725 55.3162 356.804 55.3606C356.804 55.3606 356.746 55.2872 356.615 55.1667L356.046 54.6427C355.523 54.2078 354.797 53.5947 353.819 52.8873C351.263 51.0892 348.537 49.5466 345.681 48.2814C344.019 47.5163 342.415 46.8561 340.941 46.2744C339.467 45.6928 337.956 45.4413 336.759 45.8657C336.306 46.0471 335.914 46.3555 335.63 46.7541C335.347 47.1527 335.183 47.6246 335.16 48.1137C335.153 48.3762 335.209 48.6367 335.322 48.8735C335.371 48.9625 335.434 49.0423 335.51 49.1093Z" fill="#37306B"/>
<path d="M311.258 38.9646L323.024 42.7427L320.907 45.7033L308.295 41.0606L311.258 38.9646Z" fill="#FEFFE8"/>
<path d="M325.37 55.4444C325.397 55.3816 320.447 52.8244 314.306 49.7748C308.164 46.7251 303.147 44.257 303.147 44.3199C303.147 44.3828 308.07 46.9399 314.212 49.9896C320.353 53.0393 325.339 55.5021 325.37 55.4444Z" fill="#37306B"/>
<path d="M328.334 119.016L328.491 111.271L302.054 121.117C302.054 121.117 297.167 105.203 297.167 104.454L291.308 108.122L281.571 103.93L271.834 99.1094L252.14 133.693L231.479 194.76L280.149 227.311L316.245 188.535L338.197 154.999L350.26 133.767L328.334 119.016Z" fill="#5E53B8"/>
<path d="M299.702 121.002C299.671 120.745 299.659 120.486 299.666 120.227C299.666 119.703 299.666 118.958 299.634 118.057L299.755 118.131C296.849 119.553 294.167 121.394 291.794 123.596L291.585 123.795V123.507C291.585 123.161 291.543 122.794 291.523 122.422C291.308 118.623 291.131 115.186 291 112.691C290.948 111.476 290.906 110.48 290.874 109.741C290.874 109.42 290.874 109.153 290.874 108.94C290.84 108.933 290.809 108.914 290.788 108.886C290.767 108.858 290.757 108.823 290.76 108.787C290.763 108.752 290.78 108.72 290.806 108.696C290.832 108.672 290.865 108.659 290.901 108.659C290.936 108.659 290.97 108.672 290.996 108.696C291.022 108.72 291.038 108.752 291.041 108.787C291.044 108.823 291.034 108.858 291.013 108.886C290.992 108.914 290.961 108.933 290.927 108.94C290.927 109.149 290.969 109.416 291 109.736C291.052 110.475 291.12 111.471 291.204 112.681C291.371 115.17 291.575 118.607 291.789 122.406C291.789 122.778 291.831 123.145 291.847 123.491L291.622 123.397C294.014 121.18 296.737 119.352 299.692 117.979L299.817 117.926V118.057C299.817 118.958 299.781 119.687 299.77 120.227C299.767 120.486 299.744 120.746 299.702 121.002Z" fill="#37306B"/>
<path d="M325.898 119.388C325.804 119.454 325.702 119.508 325.595 119.551L324.712 119.975L321.44 121.479L310.589 126.342L305.436 128.626L305.216 128.721L305.258 128.485C305.684 126.028 305.883 123.537 305.854 121.044L305.974 121.117L303.533 122.307L302.88 122.611C302.734 122.679 302.655 122.71 302.65 122.7C302.714 122.648 302.784 122.604 302.859 122.569L303.492 122.223L305.901 120.965L306.016 120.903V121.044C306.09 123.558 305.915 126.073 305.493 128.553L305.316 128.411L310.464 126.116L321.346 121.322L324.66 119.896L325.564 119.524C325.669 119.465 325.782 119.42 325.898 119.388Z" fill="#37306B"/>
<path d="M279.679 80.6331H80.5952C76.3894 80.6331 72.98 84.0513 72.98 88.2678V226.468C72.98 230.684 76.3894 234.102 80.5952 234.102H279.679C283.885 234.102 287.294 230.684 287.294 226.468V88.2678C287.294 84.0513 283.885 80.6331 279.679 80.6331Z" fill="#5E53B8"/>
<path d="M64.6016 224.188H296.796V228.291C296.796 230.765 295.816 233.137 294.071 234.886C292.327 236.636 289.96 237.618 287.493 237.618H73.9051C71.4377 237.618 69.0713 236.636 67.3265 234.886C65.5818 233.137 64.6016 230.765 64.6016 228.291V224.188Z" fill="#5E53B8"/>
<path d="M280.944 86.7325H78.7346V216.333H280.944V86.7325Z" fill="#37306B"/>
<path d="M159.011 222.752L161.891 227.715H202.434L205.11 222.752H159.011Z" fill="#37306B"/>
<path d="M275.482 91.1184H84.6041C83.6602 91.1184 82.895 91.8855 82.895 92.8318V214.201C82.895 215.147 83.6602 215.914 84.6041 215.914H275.482C276.426 215.914 277.191 215.147 277.191 214.201V92.8318C277.191 91.8855 276.426 91.1184 275.482 91.1184Z" fill="#8F8AB8"/>
<path d="M276.987 216.098H82.6911L82.8949 100.446H276.987V216.098Z" fill="#37306B"/>
<path d="M99.223 95.9392C99.2077 96.2525 99.101 96.5544 98.9162 96.8076C98.7314 97.0607 98.4766 97.2539 98.1834 97.3633C97.8901 97.4727 97.5713 97.4935 97.2664 97.423C96.9615 97.3526 96.6839 97.194 96.468 96.9669C96.2521 96.7399 96.1073 96.4543 96.0517 96.1456C95.9961 95.8369 96.032 95.5186 96.155 95.2302C96.2781 94.9417 96.4828 94.6958 96.7438 94.5228C97.0049 94.3499 97.3108 94.2575 97.6237 94.2571C98.0581 94.2681 98.4704 94.4514 98.7702 94.7667C99.07 95.082 99.2329 95.5036 99.223 95.9392Z" fill="#37306B"/>
<path d="M89.5224 95.9392C89.507 96.2525 89.4003 96.5544 89.2155 96.8076C89.0307 97.0607 88.7759 97.2539 88.4827 97.3633C88.1894 97.4727 87.8706 97.4935 87.5657 97.423C87.2608 97.3526 86.9832 97.194 86.7673 96.9669C86.5514 96.7399 86.4067 96.4543 86.351 96.1456C86.2954 95.8369 86.3313 95.5186 86.4544 95.2302C86.5774 94.9417 86.7821 94.6958 87.0431 94.5228C87.3042 94.3499 87.6101 94.2575 87.923 94.2571C88.3574 94.2681 88.7697 94.4514 89.0695 94.7667C89.3693 95.082 89.5322 95.5036 89.5224 95.9392Z" fill="#37306B"/>
<path d="M94.5086 95.9392C94.4933 96.2525 94.3866 96.5544 94.2018 96.8076C94.017 97.0607 93.7622 97.2539 93.4689 97.3633C93.1757 97.4727 92.8569 97.4935 92.5519 97.423C92.247 97.3526 91.9694 97.194 91.7535 96.9669C91.5376 96.7399 91.3929 96.4543 91.3373 96.1456C91.2817 95.8369 91.3176 95.5186 91.4406 95.2302C91.5636 94.9417 91.7683 94.6958 92.0294 94.5228C92.2904 94.3499 92.5964 94.2575 92.9093 94.2571C93.3437 94.2681 93.756 94.4514 94.0558 94.7667C94.3556 95.082 94.5185 95.5036 94.5086 95.9392Z" fill="#37306B"/>
<path d="M285.454 222.752C285.454 222.836 237.892 222.899 179.222 222.899C120.553 222.899 72.98 222.836 72.98 222.752C72.98 222.669 120.543 222.6 179.222 222.6C237.902 222.6 285.454 222.669 285.454 222.752Z" fill="#37306B"/>
<path d="M159.173 122.616C162.332 120.704 165.731 119.224 169.281 118.214L171.372 108.18L188.275 107.881L190.711 117.837C194.293 118.724 197.741 120.084 200.965 121.882L209.511 116.27L221.673 128.045L216.384 136.811C218.292 139.98 219.768 143.39 220.774 146.951L230.778 149.047L231.076 165.993L221.145 168.435C220.259 172.016 218.9 175.463 217.105 178.684L222.708 187.251L210.964 199.445L202.23 194.137C199.07 196.049 195.668 197.53 192.117 198.538L190.026 208.573L173.118 208.866L170.687 198.91C167.115 198.033 163.675 196.681 160.459 194.891L151.913 200.509L139.751 188.734L145.045 179.978C143.136 176.81 141.657 173.4 140.65 169.839L130.646 167.743L130.348 150.797L140.279 148.355C141.162 144.763 142.519 141.306 144.313 138.074L138.716 129.507L150.46 117.313L159.173 122.616ZM168.184 145.195C165.692 147.782 164.022 151.052 163.384 154.591C162.747 158.13 163.17 161.779 164.601 165.076C166.031 168.374 168.405 171.172 171.422 173.117C174.439 175.062 177.963 176.067 181.55 176.004C185.136 175.941 188.623 174.813 191.571 172.763C194.518 170.713 196.792 167.833 198.107 164.487C199.421 161.142 199.717 157.48 198.956 153.966C198.195 150.452 196.411 147.243 193.831 144.745C192.116 143.087 190.093 141.784 187.876 140.91C185.659 140.036 183.293 139.608 180.911 139.652C178.529 139.695 176.18 140.208 173.996 141.162C171.812 142.116 169.837 143.492 168.184 145.211V145.195Z" fill="#FEFFE8"/>
<path d="M226.707 129.098C226.938 127.844 227.334 126.627 227.883 125.477L225.792 122.647L229.576 118.204L232.712 119.849C233.758 119.127 234.895 118.547 236.094 118.125L236.616 114.63L242.423 114.174L243.469 117.544C244.72 117.775 245.934 118.174 247.08 118.728L249.903 116.632L254.335 120.431L252.694 123.575C253.417 124.625 253.997 125.767 254.418 126.97L257.899 127.494L258.354 133.321L254.993 134.369C254.764 135.624 254.367 136.842 253.812 137.99L255.903 140.825L252.119 145.263L248.983 143.618C247.936 144.343 246.797 144.925 245.596 145.347L245.073 148.842L239.266 149.298L238.221 145.924C236.97 145.694 235.755 145.297 234.609 144.745L231.782 146.841L227.36 143L229.001 139.856C228.279 138.805 227.699 137.664 227.276 136.46L223.795 135.936L223.341 130.109L226.701 129.061L226.707 129.098ZM234.583 130.864C234.459 132.174 234.749 133.491 235.41 134.627C236.072 135.764 237.073 136.664 238.272 137.2C239.471 137.737 240.808 137.882 242.094 137.616C243.38 137.35 244.55 136.687 245.44 135.719C246.33 134.75 246.894 133.527 247.053 132.22C247.212 130.914 246.958 129.59 246.327 128.436C245.696 127.281 244.72 126.355 243.535 125.786C242.351 125.218 241.019 125.036 239.726 125.267C238.377 125.509 237.143 126.186 236.215 127.197C235.286 128.208 234.713 129.496 234.583 130.864Z" fill="#FEFFE8"/>
<path d="M99.4217 187.592C99.4639 186.087 99.7083 184.594 100.148 183.154L97.1847 180.256L100.812 174.398L104.742 175.76C105.84 174.727 107.071 173.846 108.401 173.14L108.37 168.974L115.07 167.402L116.884 171.149C118.386 171.191 119.875 171.436 121.311 171.877L124.233 168.906L130.076 172.543L128.717 176.483C129.747 177.584 130.626 178.817 131.33 180.151L135.486 180.12L137.054 186.832L133.311 188.64C133.265 190.145 133.019 191.638 132.58 193.078L135.543 196.002L131.916 201.866L127.985 200.503C126.889 201.537 125.658 202.419 124.327 203.123L124.358 207.289L117.663 208.861L115.844 205.115C114.346 205.062 112.863 204.808 111.433 204.36L108.516 207.331L102.667 203.695L104.026 199.754C102.996 198.653 102.117 197.42 101.413 196.086L97.2317 196.117L95.6637 189.405L99.4008 187.582L99.4217 187.592ZM109.107 189.478C109.442 190.902 110.191 192.193 111.259 193.19C112.326 194.187 113.665 194.844 115.104 195.078C116.544 195.313 118.021 195.115 119.349 194.508C120.676 193.902 121.794 192.915 122.563 191.672C123.331 190.428 123.714 188.985 123.664 187.523C123.615 186.061 123.134 184.647 122.283 183.459C121.432 182.272 120.249 181.363 118.883 180.849C117.518 180.335 116.031 180.238 114.61 180.57C113.663 180.792 112.769 181.198 111.979 181.767C111.189 182.336 110.519 183.056 110.008 183.885C109.497 184.714 109.154 185.637 108.999 186.599C108.844 187.562 108.881 188.546 109.107 189.494V189.478Z" fill="#FEFFE8"/>
<path d="M111.448 131.618C111.619 130.672 111.918 129.753 112.337 128.888L110.769 126.75L113.622 123.402L115.974 124.644C116.764 124.098 117.621 123.659 118.525 123.339L118.912 120.719L123.292 120.373L124.076 122.915C125.019 123.091 125.934 123.39 126.799 123.805L128.931 122.233L132.266 125.095L131.033 127.453C131.577 128.243 132.013 129.103 132.329 130.01L134.942 130.392L135.287 134.783L132.757 135.548C132.584 136.493 132.287 137.411 131.874 138.278L133.442 140.411L130.588 143.759L128.236 142.518C127.448 143.065 126.59 143.504 125.686 143.822L125.304 146.442L120.924 146.783L120.135 144.241C119.191 144.069 118.275 143.77 117.412 143.351L115.285 144.923L111.945 142.062L113.178 139.704C112.633 138.914 112.197 138.053 111.882 137.147L109.269 136.759L108.929 132.368L111.464 131.582L111.448 131.618ZM117.38 133.751C117.454 134.68 117.801 135.566 118.377 136.298C118.953 137.029 119.732 137.573 120.617 137.861C121.501 138.149 122.45 138.168 123.345 137.915C124.24 137.663 125.04 137.15 125.644 136.442C126.248 135.734 126.63 134.862 126.74 133.936C126.851 133.011 126.685 132.074 126.265 131.242C125.844 130.411 125.187 129.724 124.377 129.266C123.567 128.809 122.64 128.603 121.713 128.673C121.096 128.72 120.494 128.889 119.942 129.17C119.389 129.451 118.898 129.838 118.495 130.31C118.093 130.782 117.787 131.329 117.596 131.919C117.404 132.51 117.331 133.132 117.38 133.751Z" fill="#8F8AB8"/>
<path d="M226.926 178.909C227.077 178.097 227.334 177.308 227.689 176.562L226.325 174.728L228.776 171.851L230.799 172.899C231.476 172.429 232.212 172.052 232.989 171.778L233.318 169.514L237.082 169.221L237.756 171.406C238.567 171.555 239.354 171.812 240.097 172.171L241.927 170.803L244.796 173.261L243.751 175.283C244.22 175.964 244.596 176.704 244.869 177.484L247.127 177.814L247.42 181.587L245.24 182.263C245.092 183.076 244.835 183.866 244.477 184.61L245.841 186.444L243.39 189.316L241.373 188.268C240.693 188.736 239.955 189.113 239.177 189.389L238.848 191.648L235.085 191.941L234.411 189.761C233.6 189.61 232.813 189.353 232.069 188.996L230.24 190.364L227.36 187.906L228.405 185.884C227.936 185.205 227.56 184.467 227.287 183.688L225.034 183.358L224.736 179.585L226.916 178.909H226.926ZM232.022 180.738C232.084 181.54 232.382 182.305 232.878 182.937C233.374 183.569 234.047 184.039 234.81 184.288C235.573 184.536 236.392 184.552 237.164 184.333C237.936 184.114 238.626 183.67 239.146 183.057C239.666 182.445 239.992 181.691 240.085 180.892C240.177 180.093 240.03 179.285 239.664 178.569C239.297 177.854 238.727 177.264 238.025 176.874C237.323 176.484 236.522 176.311 235.723 176.378C234.656 176.467 233.668 176.975 232.974 177.792C232.281 178.609 231.938 179.668 232.022 180.738Z" fill="#8F8AB8"/>
<path d="M180.702 184.595H154.709C153.182 184.591 151.682 184.185 150.359 183.418C149.037 182.651 147.939 181.549 147.174 180.223C146.409 178.897 146.005 177.393 146.002 175.861C145.999 174.329 146.398 172.824 147.157 171.495L160.161 148.916L173.159 126.336C173.926 125.008 175.028 123.905 176.354 123.138C177.68 122.372 179.184 121.968 180.715 121.968C182.245 121.968 183.749 122.372 185.075 123.138C186.402 123.905 187.503 125.008 188.27 126.336L201.274 148.916L214.278 171.495C215.037 172.824 215.435 174.33 215.432 175.862C215.429 177.395 215.024 178.899 214.259 180.225C213.494 181.552 212.395 182.653 211.072 183.42C209.749 184.187 208.248 184.592 206.72 184.595H180.702Z" fill="#5E53B8"/>
<path d="M208.696 174.083C208.696 174.083 208.764 174.214 208.894 174.487C209.117 175.033 209.203 175.625 209.142 176.212C209.082 176.799 208.878 177.362 208.549 177.851C208.291 178.237 207.958 178.568 207.572 178.825C207.122 179.112 206.609 179.282 206.077 179.318C201.645 179.365 195.247 179.355 187.334 179.376L159.539 179.407H155.567C154.858 179.399 154.169 179.171 153.595 178.755C153.022 178.338 152.591 177.753 152.363 177.081C152.12 176.409 152.075 175.681 152.232 174.985C152.274 174.812 152.331 174.639 152.389 174.461C152.446 174.282 152.54 174.13 152.619 173.973L153.141 173.056C153.81 171.825 154.49 170.588 155.169 169.336L163.595 153.831L172.072 138.336C173.435 135.831 174.776 133.374 176.097 130.963C176.431 130.366 176.74 129.763 177.095 129.171C177.448 128.566 177.953 128.064 178.559 127.715C179.152 127.374 179.819 127.179 180.502 127.149C181.186 127.118 181.867 127.25 182.489 127.536C183.106 127.816 183.645 128.245 184.057 128.783C184.414 129.327 184.737 129.892 185.024 130.476C185.636 131.597 186.242 132.703 186.832 133.793C188.024 135.973 189.176 138.088 190.287 140.139C192.519 144.231 194.594 148.046 196.486 151.525C200.27 158.489 203.328 164.127 205.445 168.031L207.87 172.522C208.142 173.046 208.351 173.423 208.492 173.696C208.633 173.968 208.701 174.099 208.701 174.099C208.701 174.099 208.617 173.968 208.471 173.706L207.823 172.548L205.351 168.078C203.218 164.185 200.124 158.568 196.319 151.619L190.094 140.243L186.623 133.908C186.028 132.818 185.426 131.713 184.81 130.591C184.522 130.025 184.203 129.476 183.853 128.946C183.468 128.443 182.965 128.042 182.39 127.777C181.804 127.508 181.163 127.382 180.519 127.412C179.876 127.441 179.248 127.624 178.689 127.945C178.123 128.277 177.651 128.75 177.32 129.318C176.975 129.889 176.661 130.502 176.332 131.1L172.308 138.472C169.579 143.482 166.746 148.664 163.851 153.977L155.389 169.472C154.704 170.724 154.03 171.966 153.356 173.192C152.988 173.77 152.698 174.394 152.493 175.047C152.344 175.7 152.386 176.383 152.613 177.012C152.82 177.636 153.217 178.18 153.747 178.566C154.278 178.952 154.916 179.162 155.572 179.166H159.544L187.339 179.192L206.077 179.218C206.59 179.188 207.088 179.03 207.525 178.757C207.906 178.51 208.234 178.189 208.492 177.814C208.894 177.221 209.109 176.52 209.108 175.802C209.102 175.205 208.961 174.617 208.696 174.083Z" fill="#37306B"/>
<path d="M176.489 169.252C176.489 166.941 178.329 165.217 180.947 165.217C183.566 165.217 185.364 166.941 185.364 169.252C185.364 171.563 183.566 173.365 180.947 173.365C178.329 173.365 176.489 171.531 176.489 169.252ZM176.531 145.583H185.364L183.879 163.022H177.978L176.531 145.583Z" fill="#FEFFE8"/>
<path d="M181.946 123.727C181.411 123.546 180.856 123.43 180.294 123.381C178.927 123.352 177.593 123.8 176.52 124.649C175.473 125.525 174.629 126.619 174.048 127.856C173.572 128.799 173.348 129.428 173.306 129.402C173.32 129.247 173.357 129.095 173.416 128.951C173.546 128.55 173.7 128.156 173.876 127.772C174.428 126.474 175.283 125.328 176.369 124.429C177.487 123.539 178.895 123.098 180.32 123.192C180.747 123.224 181.165 123.327 181.559 123.496C181.815 123.617 181.956 123.711 181.946 123.727Z" fill="#FEFFE8"/>
<path d="M171.074 133.306C171.181 132.854 171.375 132.427 171.644 132.048C172.025 131.403 172.386 130.911 172.454 130.948C172.343 131.393 172.148 131.813 171.879 132.184C171.685 132.606 171.412 132.987 171.074 133.306Z" fill="#FEFFE8"/>
<g opacity="0.3">
<path d="M193.747 135.852L153.246 160.868L147.988 170.007L196.606 140.815L193.747 135.852Z" fill="#FEFFE8"/>
</g>
<g opacity="0.3">
<path d="M200.124 146.94L146.441 178.684C146.656 179.516 147.054 180.29 147.606 180.948L201.07 148.585L200.124 146.94Z" fill="#FEFFE8"/>
</g>
<path d="M332.792 206.142C330.752 203.887 328.106 202.269 325.173 201.481C322.24 200.693 319.142 200.768 316.25 201.698L311.248 196.196L310.553 195.415L270.971 151.876C272.084 149.292 272.49 146.457 272.148 143.663C271.806 140.87 270.728 138.218 269.025 135.98C267.322 133.742 265.055 132 262.458 130.931C259.86 129.862 257.026 129.506 254.246 129.9L252.312 130.67L259.039 135.192L258.678 142.554L253.237 147.506L245.894 147.144L241.096 141.842L239.115 142.622C238.545 147.061 241.514 152.657 244.749 156.246C246.786 158.498 249.427 160.115 252.355 160.904C255.284 161.693 258.377 161.62 261.265 160.695L301.511 204.963L302.744 206.341L306.56 210.533C305.366 213.322 304.997 216.396 305.497 219.389C305.996 222.382 307.343 225.168 309.377 227.416C312.597 230.979 316.872 233.358 321.32 233.238L323.306 232.462L318.503 227.154L318.863 219.818L324.304 214.866L331.622 215.223L334.434 221.306L336.42 220.525C337.032 218.013 337.022 215.389 336.39 212.881C335.757 210.374 334.522 208.06 332.792 206.142Z" fill="#FEFFE8"/>
<g opacity="0.3">
<path d="M332.792 206.142C330.752 203.887 328.106 202.269 325.173 201.481C322.24 200.693 319.142 200.768 316.25 201.698L311.248 196.196L310.553 195.415L270.971 151.876C272.084 149.292 272.49 146.457 272.148 143.663C271.806 140.87 270.728 138.218 269.025 135.98C267.322 133.742 265.055 132 262.458 130.931C259.86 129.862 257.026 129.506 254.246 129.9L252.312 130.67L259.039 135.192L258.678 142.554L253.237 147.506L245.894 147.144L241.096 141.842L239.115 142.622C238.545 147.061 241.514 152.657 244.749 156.246C246.786 158.498 249.427 160.115 252.355 160.904C255.284 161.693 258.377 161.62 261.265 160.695L301.511 204.963L302.744 206.341L306.56 210.533C305.366 213.322 304.997 216.396 305.497 219.389C305.996 222.382 307.343 225.168 309.377 227.416C312.597 230.979 316.872 233.358 321.32 233.238L323.306 232.462L318.503 227.154L318.863 219.818L324.304 214.866L331.622 215.223L334.434 221.306L336.42 220.525C337.032 218.013 337.022 215.389 336.39 212.881C335.757 210.374 334.522 208.06 332.792 206.142Z" fill="#16132A"/>
</g>
<path d="M330.806 206.917C328.766 204.663 326.122 203.045 323.189 202.258C320.256 201.471 317.159 201.548 314.269 202.479L309.262 196.972L308.567 196.191L268.985 152.652C270.098 150.068 270.505 147.233 270.163 144.439C269.821 141.646 268.743 138.994 267.039 136.756C265.336 134.519 263.069 132.777 260.472 131.709C257.874 130.641 255.04 130.286 252.26 130.68L257.058 135.983L256.703 143.319L251.251 148.292L243.934 147.936L239.136 142.633C238.472 145.367 238.547 148.228 239.353 150.923C240.158 153.619 241.665 156.05 243.718 157.968C245.772 159.886 248.297 161.221 251.036 161.835C253.775 162.45 256.627 162.322 259.3 161.465L299.545 205.733L300.784 207.111L304.6 211.303C303.492 213.886 303.089 216.718 303.434 219.509C303.778 222.299 304.857 224.947 306.56 227.182C308.262 229.416 310.527 231.156 313.122 232.223C315.717 233.29 318.548 233.646 321.325 233.253L316.522 227.94L316.877 220.604L322.323 215.652L329.641 216.014L334.439 221.317C335.055 218.802 335.046 216.174 334.413 213.663C333.78 211.152 332.541 208.836 330.806 206.917Z" fill="#FEFFE8"/>
<path d="M330.806 206.917C330.806 206.917 331.036 207.169 331.47 207.677C332.088 208.451 332.636 209.278 333.106 210.15C334.923 213.574 335.425 217.547 334.517 221.317V221.421L334.444 221.343L329.641 216.045L329.683 216.071L322.365 215.72H322.417L316.982 220.677V220.62C316.877 222.904 316.757 225.393 316.631 227.982V227.914L321.393 233.18L321.518 233.316L321.335 233.342C318.685 233.728 315.981 233.435 313.474 232.491C310.967 231.546 308.739 229.981 306.999 227.94C305.105 225.735 303.857 223.047 303.392 220.174C302.899 217.163 303.273 214.073 304.469 211.266V211.392L259.159 161.565L259.3 161.602C256.437 162.509 253.377 162.596 250.467 161.853C246.413 160.802 242.935 158.194 240.783 154.593C238.632 150.991 237.98 146.686 238.968 142.607L239.031 142.355L239.204 142.544L244.002 147.847L243.908 147.805L251.251 148.161L251.152 148.198L256.629 143.241L256.582 143.335C256.703 140.851 256.823 138.404 256.943 135.973L256.974 136.067L252.176 130.764L252.014 130.581L252.255 130.549C255.145 130.14 258.092 130.534 260.774 131.689C263.456 132.844 265.771 134.716 267.464 137.099C269.085 139.373 270.078 142.036 270.344 144.818C270.591 147.499 270.169 150.2 269.116 152.678V152.552L314.353 202.416H314.29C316.443 201.727 318.718 201.507 320.963 201.772C323.208 202.037 325.37 202.78 327.304 203.951C328.287 204.553 329.205 205.255 330.043 206.047C330.566 206.608 330.848 206.896 330.848 206.896L330.022 206.068C329.177 205.28 328.256 204.578 327.273 203.972C325.343 202.819 323.191 202.09 320.958 201.836C318.726 201.581 316.465 201.805 314.327 202.495H314.29V202.463L268.97 152.683L268.917 152.625L268.949 152.557C269.985 150.109 270.398 147.44 270.151 144.792C269.889 142.052 268.908 139.43 267.307 137.194C265.64 134.849 263.362 133.008 260.722 131.872C258.083 130.736 255.182 130.35 252.338 130.754L252.417 130.539L257.152 135.894L257.189 135.931V135.988C257.074 138.413 256.955 140.858 256.833 143.324V143.382L256.791 143.419L251.35 148.371L251.309 148.407H251.251L243.934 148.046H243.876L243.84 148.004L239.036 142.701L239.272 142.643C238.615 145.352 238.69 148.188 239.487 150.859C240.284 153.53 241.775 155.94 243.807 157.843C245.84 159.745 248.34 161.072 251.053 161.687C253.765 162.301 256.592 162.181 259.243 161.34H259.321L259.384 161.402C275.837 179.522 291.266 196.484 304.662 211.251L304.715 211.308L304.683 211.382C303.507 214.142 303.136 217.18 303.612 220.143C304.07 222.902 305.25 225.49 307.031 227.643C308.813 229.796 311.132 231.437 313.752 232.399C316.169 233.276 318.764 233.546 321.309 233.185L321.247 233.348L316.454 228.045L316.428 228.013V227.94C316.553 225.357 316.673 222.868 316.788 220.604V220.567V220.541L322.24 215.6H322.271L329.588 215.967C331.345 217.916 332.96 219.703 334.376 221.28H334.282C335.196 217.534 334.715 213.582 332.928 210.166C332.464 209.294 331.928 208.463 331.324 207.682C331.021 207.184 330.806 206.917 330.806 206.917Z" fill="#37306B"/>
<path d="M267.182 155.193C267.145 155.332 267.087 155.465 267.009 155.586C266.826 155.927 266.622 156.256 266.398 156.571C264.916 158.685 262.826 160.295 260.408 161.188C260.047 161.324 259.677 161.436 259.3 161.523C259.165 161.568 259.024 161.591 258.882 161.591C258.882 161.544 259.452 161.387 260.34 161.009C262.672 160.037 264.708 158.469 266.246 156.461C266.837 155.691 267.14 155.172 267.182 155.193Z" fill="#37306B"/>
<path d="M311.384 174.104L296.352 167.083L282.914 165.401L287.848 169.593C287.848 169.593 270.475 175.666 270.172 177.033C269.868 178.401 271.541 182.08 274.604 181.398C274.604 181.398 272.884 183.494 273.6 185.805C274.316 188.116 275.9 188.551 278.827 188.011C278.827 188.011 276.841 190.993 278.398 192.512C279.956 194.032 282.381 193.649 282.381 193.649C282.381 193.649 282.412 197.281 284.325 197.595C286.238 197.91 291.57 197.538 293.561 196.924L303.675 193.78L310.229 192.308L311.384 174.104Z" fill="#FFBF9D"/>
<path d="M283.714 178.715C283.771 178.915 281.77 179.669 279.25 180.408C276.731 181.147 274.63 181.576 274.572 181.377C274.515 181.178 276.517 180.418 279.036 179.685C281.555 178.951 283.656 178.516 283.714 178.715Z" fill="#FF9A6C"/>
<path d="M286.27 185.879C286.327 186.078 284.744 186.733 282.726 187.346C280.709 187.959 279.02 188.284 278.958 188.085C278.895 187.885 280.489 187.23 282.507 186.623C284.524 186.015 286.212 185.685 286.27 185.879Z" fill="#FF9A6C"/>
<path d="M288.564 191.836C288.601 192.062 287.158 192.36 285.465 192.79C283.771 193.22 282.449 193.838 282.329 193.623C282.209 193.408 283.453 192.544 285.256 192.051C287.059 191.559 288.538 191.653 288.564 191.836Z" fill="#FF9A6C"/>
<path d="M290.462 168.99C290.519 169.194 288.549 169.912 286.108 170.756C283.667 171.6 281.676 172.244 281.592 172.05C281.508 171.856 283.4 170.892 285.867 170.043C288.334 169.194 290.409 168.791 290.462 168.99Z" fill="#FF9A6C"/>
<path d="M308.551 172.784L341.108 184.605L339.205 207.006L303.361 192.518L308.551 172.784Z" fill="#FFBF9D"/>
<path d="M350.323 133.583C350.323 133.583 354.567 137.98 357.039 145.887C359.511 153.794 371.151 187.314 370.869 197.978C370.56 209.008 363.154 216.878 346.878 212.519C337.167 209.899 325.595 205.707 325.595 205.707L333.822 178.595L340.256 180.256L329.865 160.7L350.323 133.583Z" fill="#5E53B8"/>
<path d="M342.869 146.395C342.932 146.442 338.427 152.872 332.813 160.758C327.2 168.644 322.606 175.016 322.543 174.964C322.48 174.911 326.986 168.487 332.599 160.601C338.212 152.715 342.812 146.353 342.869 146.395Z" fill="#37306B"/>
<path d="M355.33 183.924C355.33 183.924 355.048 183.788 354.541 183.552C353.819 183.229 353.073 182.964 352.309 182.761C351.342 182.493 350.171 182.237 348.87 181.959L344.646 181.026C341.652 180.356 338.939 179.732 336.984 179.266L334.669 178.7C334.382 178.645 334.1 178.564 333.827 178.459C334.118 178.483 334.406 178.53 334.69 178.6L337.026 179.077C338.996 179.496 341.73 180.088 344.709 180.759L348.927 181.718C350.223 182.011 351.394 182.284 352.361 182.577C353.129 182.801 353.874 183.095 354.588 183.458C354.78 183.556 354.967 183.666 355.147 183.788C355.213 183.825 355.275 183.871 355.33 183.924Z" fill="#37306B"/>
<g opacity="0.3">
<path d="M363.651 185.119C363.547 184.475 363.289 183.867 362.899 183.345C362.51 182.823 362 182.403 361.414 182.121C360.237 181.563 358.969 181.223 357.671 181.115C351.823 180.308 345.906 180.067 340.005 179.863L340.528 180.099C347.818 181.45 354.954 183.536 361.826 186.324C362.203 186.533 362.646 186.586 363.06 186.471C363.284 186.332 363.461 186.129 363.566 185.887C363.672 185.646 363.701 185.378 363.651 185.119Z" fill="#16132A"/>
</g>
<g opacity="0.3">
<path d="M229.524 81.1781C224.036 80.2401 217.471 81.8383 211.983 80.9004C211.168 80.7641 210.269 80.6331 209.548 81.0523C208.68 81.5501 208.382 82.661 208.34 83.6723C208.318 85.0599 208.586 86.4368 209.126 87.7146C209.666 88.9923 210.467 90.1428 211.476 91.0922C213.531 92.9758 216.098 94.2051 218.851 94.6239C221.041 94.996 223.398 94.9226 225.348 93.8641C228.776 91.9987 230.423 84.9561 229.524 81.1781Z" fill="#16132A"/>
</g>
<path d="M208.225 91.2441C208.225 91.2441 204.896 87.3298 204.415 85.5273C204.096 84.3326 204.253 80.9842 204.415 78.862C204.452 78.1469 204.697 77.4582 205.119 76.8809C205.542 76.3036 206.124 75.8629 206.793 75.6132C206.989 75.5157 207.208 75.4734 207.426 75.4909C207.644 75.5085 207.854 75.5852 208.032 75.7128C208.484 75.098 208.991 74.5262 209.548 74.0045C210.854 72.6631 211.476 71.7566 214.351 72.5897C214.351 72.5897 216.468 70.3522 217.685 70.5199C218.503 70.6411 219.311 70.8162 220.105 71.0439C220.105 71.0439 224.741 70.8448 225.693 72.3225C226.233 72.9896 226.962 73.4773 227.783 73.7216C228.509 73.9781 229.175 74.3779 229.743 74.8972C230.312 75.4165 230.77 76.0449 231.092 76.745C231.633 78.031 231.946 79.4017 232.017 80.7956L227.313 80.9842C227.313 80.9842 227.648 91.8362 226.461 92.7113C225.275 93.5864 224.825 93.272 224.825 93.272C224.825 93.272 223.921 95.8186 220.393 93.9375C220.393 93.9375 217.466 94.823 216.212 93.6126C214.957 92.4022 210.368 80.7746 210.368 80.7746L210.499 86.5386C210.499 86.5386 212.919 90.2747 211.732 91.1498C210.546 92.0249 208.225 91.2441 208.225 91.2441Z" fill="#FFBF9D"/>
<path d="M214.1 76.5354C214.211 76.753 214.301 76.9812 214.367 77.2166L215.004 79.103C215.527 80.675 216.243 82.9178 217.006 85.3648C217.769 87.8119 218.407 90.0808 219.128 91.569C219.405 92.1685 219.727 92.7465 220.09 93.2982C220.346 93.6912 220.508 93.8903 220.492 93.906C220.476 93.9218 220.435 93.8694 220.351 93.775C220.228 93.6436 220.113 93.5054 220.006 93.3611C219.604 92.8262 219.254 92.2542 218.961 91.6528C218.182 90.1385 217.529 87.8905 216.755 85.4487C215.982 83.0068 215.307 80.7746 214.826 79.1607C214.607 78.3904 214.419 77.7511 214.272 77.2481C214.193 77.0164 214.135 76.7778 214.1 76.5354Z" fill="#FF9A6C"/>
<path d="M219.886 75.194C219.991 75.4188 220.071 75.6542 220.126 75.8962L220.686 77.8402C221.14 79.4803 221.731 81.7545 222.421 84.2697C223.111 86.7849 223.67 89.0695 224.078 90.7254C224.271 91.5114 224.428 92.1716 224.553 92.6851C224.624 92.9243 224.669 93.1702 224.689 93.4187C224.59 93.1915 224.51 92.9567 224.449 92.7166C224.302 92.1926 224.119 91.5533 223.895 90.7725C223.435 89.1324 222.818 86.8582 222.159 84.343C221.501 81.8278 220.91 79.5432 220.497 77.8874C220.309 77.0961 220.147 76.4411 220.027 75.9224C219.957 75.6846 219.91 75.4407 219.886 75.194Z" fill="#FF9A6C"/>
</svg>
