<svg width="16" height="25" viewBox="0 0 16 25" fill="none" xmlns="http://www.w3.org/2000/svg">
<path d="M15.0758 0.750868C15.0758 0.570865 15.0043 0.398235 14.877 0.270954C14.7498 0.143672 14.5771 0.0721664 14.3971 0.0721664H11.0036C9.29482 -0.0129551 7.62179 0.581724 6.35007 1.72627C5.07836 2.87082 4.31134 4.47218 4.21662 6.18048V9.84546H0.82311C0.643108 9.84546 0.470477 9.91697 0.343196 10.0443C0.215915 10.1715 0.144409 10.3442 0.144409 10.5242V14.0534C0.144409 14.2334 0.215915 14.406 0.343196 14.5333C0.470477 14.6606 0.643108 14.7321 0.82311 14.7321H4.21662V23.8267C4.21662 24.0067 4.28812 24.1793 4.4154 24.3066C4.54268 24.4339 4.71531 24.5054 4.89532 24.5054H8.96752C9.14753 24.5054 9.32016 24.4339 9.44744 24.3066C9.57472 24.1793 9.64622 24.0067 9.64622 23.8267V14.7321H13.2026C13.3535 14.7343 13.5009 14.6861 13.6214 14.5951C13.7418 14.5042 13.8285 14.3756 13.8677 14.2299L14.8451 10.7006C14.8721 10.6003 14.8757 10.4952 14.8557 10.3933C14.8357 10.2914 14.7925 10.1954 14.7296 10.1128C14.6666 10.0302 14.5856 9.96316 14.4926 9.91681C14.3997 9.87045 14.2974 9.84604 14.1935 9.84546H9.64622V6.18048C9.67999 5.84449 9.83777 5.53315 10.0888 5.30725C10.3398 5.08135 10.6659 4.95712 11.0036 4.95881H14.3971C14.5771 4.95881 14.7498 4.88731 14.877 4.76003C15.0043 4.63275 15.0758 4.46012 15.0758 4.28011V0.750868Z" fill="#1877F2"/>
</svg>
