<svg width="16" height="25" viewBox="0 0 16 25" fill="none" xmlns="http://www.w3.org/2000/svg">
<path d="M15.076 0.750868C15.076 0.570865 15.0044 0.398235 14.8772 0.270954C14.7499 0.143672 14.5773 0.0721664 14.3973 0.0721664H11.0037C9.29495 -0.0129551 7.62191 0.581724 6.3502 1.72627C5.07848 2.87082 4.31146 4.47218 4.21674 6.18048V9.84546H0.823232C0.64323 9.84546 0.470599 9.91697 0.343318 10.0443C0.216037 10.1715 0.144531 10.3442 0.144531 10.5242V14.0534C0.144531 14.2334 0.216037 14.406 0.343318 14.5333C0.470599 14.6606 0.64323 14.7321 0.823232 14.7321H4.21674V23.8267C4.21674 24.0067 4.28824 24.1793 4.41552 24.3066C4.54281 24.4339 4.71544 24.5054 4.89544 24.5054H8.96764C9.14765 24.5054 9.32028 24.4339 9.44756 24.3066C9.57484 24.1793 9.64635 24.0067 9.64635 23.8267V14.7321H13.2027C13.3537 14.7343 13.501 14.6861 13.6215 14.5951C13.7419 14.5042 13.8286 14.3756 13.8679 14.2299L14.8452 10.7006C14.8722 10.6003 14.8758 10.4952 14.8558 10.3933C14.8358 10.2914 14.7926 10.1954 14.7297 10.1128C14.6668 10.0302 14.5857 9.96316 14.4928 9.91681C14.3998 9.87045 14.2975 9.84604 14.1936 9.84546H9.64635V6.18048C9.68011 5.84449 9.8379 5.53315 10.0889 5.30725C10.3399 5.08135 10.6661 4.95712 11.0037 4.95881H14.3973C14.5773 4.95881 14.7499 4.88731 14.8772 4.76003C15.0044 4.63275 15.076 4.46012 15.076 4.28011V0.750868Z" fill="#FEFFE8"/>
</svg>
