<svg width="24" height="24" viewBox="0 0 24 24" fill="none" xmlns="http://www.w3.org/2000/svg">
<path d="M23.4847 9.53535H22.5296V9.48614H11.8577V14.2292H18.559C17.5814 16.9903 14.9543 18.9723 11.8577 18.9723C7.92863 18.9723 4.74307 15.7867 4.74307 11.8577C4.74307 7.92863 7.92863 4.74307 11.8577 4.74307C13.6713 4.74307 15.3213 5.42726 16.5776 6.54484L19.9316 3.1909C17.8138 1.21719 14.981 0 11.8577 0C5.30927 0 0 5.30927 0 11.8577C0 18.4061 5.30927 23.7153 11.8577 23.7153C18.4061 23.7153 23.7153 18.4061 23.7153 11.8577C23.7153 11.0626 23.6335 10.2865 23.4847 9.53535Z" fill="#FEFFE8"/>
<path d="M1.36719 6.33852L5.26303 9.19562C6.31717 6.58575 8.87013 4.74307 11.8577 4.74307C13.6713 4.74307 15.3213 5.42726 16.5776 6.54484L19.9316 3.1909C17.8138 1.21719 14.981 0 11.8577 0C7.30314 0 3.35335 2.57134 1.36719 6.33852Z" fill="#FEFFE8"/>
<path d="M11.8576 23.7154C14.9204 23.7154 17.7034 22.5432 19.8075 20.6371L16.1376 17.5316C14.9471 18.4334 13.4672 18.9723 11.8576 18.9723C8.77338 18.9723 6.15461 17.0057 5.16806 14.2613L1.30127 17.2405C3.26371 21.0806 7.24908 23.7154 11.8576 23.7154Z" fill="#FEFFE8"/>
<path d="M23.627 9.04921H22.6719V9H12V13.7431H18.7014C18.2318 15.0693 17.3786 16.213 16.2782 17.046C16.2788 17.0454 16.2794 17.0454 16.28 17.0448L19.95 20.1504C19.6903 20.3863 23.8577 17.3004 23.8577 11.3715C23.8577 10.5765 23.7759 9.80039 23.627 9.04921Z" fill="#FEFFE8"/>
</svg>
