<svg width="24" height="24" viewBox="0 0 24 24" fill="none" xmlns="http://www.w3.org/2000/svg">
<path d="M23.4847 9.53535H22.5296V9.48614H11.8577V14.2292H18.559C17.5814 16.9903 14.9543 18.9723 11.8577 18.9723C7.92863 18.9723 4.74307 15.7867 4.74307 11.8577C4.74307 7.92863 7.92863 4.74307 11.8577 4.74307C13.6713 4.74307 15.3213 5.42726 16.5776 6.54484L19.9316 3.1909C17.8138 1.21719 14.981 0 11.8577 0C5.30927 0 0 5.30927 0 11.8577C0 18.4061 5.30927 23.7153 11.8577 23.7153C18.4061 23.7153 23.7153 18.4061 23.7153 11.8577C23.7153 11.0626 23.6335 10.2865 23.4847 9.53535Z" fill="#FFC107"/>
<path d="M1.36719 6.33852L5.26303 9.19562C6.31717 6.58575 8.87013 4.74307 11.8577 4.74307C13.6713 4.74307 15.3213 5.42726 16.5776 6.54484L19.9316 3.1909C17.8138 1.21719 14.981 0 11.8577 0C7.30314 0 3.35335 2.57134 1.36719 6.33852Z" fill="#FF3D00"/>
<path d="M11.8577 23.7154C14.9205 23.7154 17.7035 22.5432 19.8076 20.6371L16.1377 17.5316C14.9472 18.4334 13.4673 18.9723 11.8577 18.9723C8.77347 18.9723 6.15471 17.0057 5.16815 14.2613L1.30136 17.2405C3.26381 21.0806 7.24917 23.7154 11.8577 23.7154Z" fill="#4CAF50"/>
<path d="M23.4847 9.53532H22.5296V9.48611H11.8577V14.2292H18.559C18.0895 15.5555 17.2363 16.6991 16.1359 17.5321C16.1365 17.5315 16.1371 17.5315 16.1377 17.5309L19.8077 20.6365C19.548 20.8724 23.7154 17.7865 23.7154 11.8576C23.7154 11.0626 23.6335 10.2865 23.4847 9.53532Z" fill="#1976D2"/>
</svg>
