<svg width="392" height="392" viewBox="0 0 392 392" fill="none" xmlns="http://www.w3.org/2000/svg">
<path d="M182.155 87.5335C151.916 85.7695 120.273 67.9335 90.6147 85.1345C68.357 98.0469 65.072 123.386 71.6184 147.118C88.741 209.453 184.616 220.03 238.61 204.35C294.588 188.16 357.724 132.723 321.534 76.3145C306.638 53.0689 280.633 48.9685 252.276 56.7145C228.183 63.2217 205.855 88.9133 182.155 87.5335Z" fill="#5E53B8"/>
<path opacity="0.9" d="M182.155 87.5335C151.916 85.7695 120.273 67.9335 90.6147 85.1345C68.357 98.0469 65.072 123.386 71.6184 147.118C88.741 209.453 184.616 220.03 238.61 204.35C294.588 188.16 357.724 132.723 321.534 76.3145C306.638 53.0689 280.633 48.9685 252.276 56.7145C228.183 63.2217 205.855 88.9133 182.155 87.5335Z" fill="#FEFFE8"/>
<path d="M196 335.207C279.953 335.207 348.01 331.233 348.01 326.332C348.01 321.43 279.953 317.457 196 317.457C112.047 317.457 43.9902 321.43 43.9902 326.332C43.9902 331.233 112.047 335.207 196 335.207Z" fill="#FEFFE8"/>
<path d="M272.95 90.4424C271.28 88.7724 268.065 82.4456 271.146 79.4664C274.227 76.4872 276.971 79.192 277.183 80.6424C277.395 82.0928 276.83 94.3153 272.95 90.4424Z" fill="#37306B"/>
<path d="M272.244 318.03L265.243 318.093L263.338 301.911L270.331 301.848L272.244 318.03Z" fill="#FF8B7B"/>
<path d="M265.235 317.285L272.871 317.214C273.012 317.216 273.149 317.263 273.261 317.348C273.374 317.432 273.457 317.55 273.498 317.685L275.349 323.886C275.398 324.031 275.411 324.185 275.388 324.335C275.365 324.486 275.306 324.629 275.216 324.752C275.126 324.875 275.008 324.975 274.871 325.042C274.735 325.11 274.584 325.144 274.431 325.141C271.679 325.141 267.681 324.992 264.239 325.023C260.194 325.023 258.391 325.305 253.64 325.352C250.77 325.352 249.72 322.483 250.935 322.216C256.321 320.97 259.104 320.805 263.612 317.849C264.086 317.507 264.651 317.311 265.235 317.285Z" fill="#37306B"/>
<path opacity="0.2" d="M263.338 301.919L264.326 310.26L271.319 310.198L270.339 301.856L263.338 301.919Z" fill="#37306B"/>
<path d="M262.342 318.532C263.097 318.518 263.848 318.426 264.584 318.257C264.619 318.252 264.651 318.235 264.675 318.21C264.7 318.184 264.714 318.151 264.718 318.116C264.721 318.082 264.713 318.048 264.697 318.019C264.68 317.989 264.654 317.966 264.623 317.951C264.294 317.787 261.354 316.383 260.547 316.877C260.472 316.925 260.411 316.991 260.37 317.07C260.329 317.148 260.308 317.236 260.311 317.324C260.31 317.475 260.343 317.624 260.408 317.76C260.473 317.896 260.569 318.015 260.688 318.108C261.178 318.426 261.759 318.575 262.342 318.532ZM264.02 318.03C262.507 318.296 261.354 318.241 260.884 317.865C260.802 317.802 260.738 317.719 260.695 317.625C260.653 317.53 260.634 317.427 260.641 317.324C260.636 317.292 260.641 317.259 260.655 317.23C260.669 317.201 260.691 317.176 260.719 317.16C261.158 316.893 262.82 317.52 264.02 318.03Z" fill="#5E53B8"/>
<path d="M264.553 318.304C264.59 318.301 264.626 318.288 264.655 318.265C264.679 318.247 264.696 318.223 264.706 318.195C264.716 318.167 264.717 318.137 264.71 318.108C264.71 317.983 264.161 314.972 262.499 315.16C262.06 315.207 261.934 315.435 261.911 315.607C261.793 316.391 263.589 317.912 264.482 318.288L264.553 318.304ZM262.64 315.482C263.644 315.482 264.145 317.12 264.318 317.834C263.393 317.316 262.17 316.125 262.24 315.654C262.24 315.654 262.24 315.521 262.538 315.49L262.64 315.482Z" fill="#5E53B8"/>
<path d="M267.297 125.777L266.576 126.561L265.901 127.228C265.455 127.667 264.992 128.082 264.529 128.49C263.61 129.316 262.669 130.1 261.707 130.842C259.766 132.384 257.723 133.794 255.592 135.06C254.518 135.695 253.412 136.299 252.291 136.871C251.17 137.443 249.986 137.937 248.795 138.439C246.351 139.414 243.805 140.111 241.205 140.517L240.625 140.603C240.248 140.651 239.869 140.675 239.488 140.673C238.615 140.665 237.751 140.495 236.94 140.172C236.136 139.849 235.4 139.378 234.769 138.784C234.266 138.305 233.829 137.762 233.467 137.169C232.967 136.309 232.589 135.382 232.346 134.417C232.156 133.669 232.017 132.91 231.931 132.143C231.788 130.818 231.749 129.484 231.813 128.153C231.868 126.883 231.97 125.66 232.111 124.46C232.409 122.053 232.832 119.756 233.35 117.404C233.867 115.052 234.455 112.881 235.216 110.607L240.367 111.626C240.178 116.032 239.967 120.548 240.108 124.813C240.133 126.793 240.343 128.767 240.735 130.709C240.812 131.067 240.92 131.419 241.056 131.759C241.166 132.026 241.299 132.19 241.292 132.12C241.246 132 241.174 131.893 241.08 131.806C240.867 131.6 240.617 131.435 240.343 131.32C240.061 131.202 239.762 131.13 239.457 131.109C239.316 131.109 239.253 131.109 239.167 131.109H239.253L239.418 131.061C241.275 130.584 243.082 129.928 244.812 129.101C246.622 128.228 248.374 127.238 250.057 126.138C251.758 125.009 253.436 123.786 255.051 122.492C255.835 121.849 256.658 121.175 257.403 120.493L258.547 119.458L259.096 118.949L259.575 118.494L267.297 125.777Z" fill="#FF8B7B"/>
<path d="M271.444 123.01C271.178 115.617 265.11 113.045 257.505 118.086C254.152 120.212 250.925 122.528 247.838 125.025L252.754 140.814C252.754 140.814 262.162 137.827 267.603 131.963C271.264 127.98 271.538 125.526 271.444 123.01Z" fill="#37306B"/>
<path opacity="0.2" d="M262.185 126.162C262.185 126.162 257.646 132.653 256.039 139.552C258.27 138.601 260.421 137.468 262.468 136.165L262.185 126.162Z" fill="#37306B"/>
<path d="M240.108 113.97L242.742 108.02L235.286 105.84C235.286 105.84 234.008 108.686 234.737 113.571L240.108 113.97Z" fill="#FF8B7B"/>
<path d="M243.534 101.042L237.05 101.818L235.286 105.84L242.742 108.02L243.534 101.042Z" fill="#FF8B7B"/>
<path d="M262.232 176.604C262.232 176.604 257.419 216.949 256.885 238.54C256.337 260.97 260.735 306.215 260.735 306.215L273.365 305.948C273.365 305.948 274.886 257.513 276.721 235.318C278.712 211.124 283.73 176.165 283.73 176.165L262.232 176.604Z" fill="#5E53B8"/>
<path opacity="0.6" d="M262.232 176.604C262.232 176.604 257.419 216.949 256.885 238.54C256.337 260.97 260.735 306.215 260.735 306.215L273.365 305.948C273.365 305.948 274.886 257.513 276.721 235.318C278.712 211.124 283.73 176.165 283.73 176.165L262.232 176.604Z" fill="#FEFFE8"/>
<path opacity="0.2" d="M277.277 188.027C271.632 200.469 273.146 228.262 276.352 240.178C276.47 238.446 276.595 236.807 276.721 235.294C278.03 219.347 280.641 198.736 282.295 186.529C280.758 184.303 279.041 184.13 277.277 188.027Z" fill="#37306B"/>
<path d="M274.917 306.489L260.068 306.787L258.971 301.856L274.737 301.816L274.917 306.489Z" fill="#5E53B8"/>
<path d="M303.439 318.03L296.446 318.093L294.541 301.911L301.534 301.848L303.439 318.03Z" fill="#FF8B7B"/>
<path d="M296.43 317.285L304.074 317.214C304.215 317.218 304.351 317.265 304.463 317.349C304.576 317.433 304.659 317.551 304.702 317.685L306.552 323.886C306.599 324.031 306.611 324.184 306.588 324.334C306.564 324.484 306.505 324.626 306.415 324.749C306.325 324.871 306.208 324.971 306.072 325.039C305.936 325.107 305.786 325.142 305.635 325.141C302.875 325.141 298.884 324.992 295.443 325.023C291.397 325.023 289.586 325.305 284.843 325.352C281.973 325.352 280.923 322.483 282.138 322.216C287.516 320.97 290.299 320.805 294.815 317.849C295.287 317.507 295.848 317.311 296.43 317.285Z" fill="#37306B"/>
<path opacity="0.2" d="M294.541 301.919L295.521 310.26L302.522 310.198L301.542 301.856L294.541 301.919Z" fill="#37306B"/>
<path d="M293.545 318.532C294.3 318.517 295.051 318.425 295.788 318.257C295.822 318.252 295.853 318.235 295.875 318.209C295.898 318.183 295.912 318.15 295.913 318.116C295.918 318.083 295.912 318.049 295.897 318.019C295.881 317.99 295.857 317.966 295.827 317.951C295.49 317.787 292.55 316.383 291.75 316.877C291.674 316.924 291.612 316.99 291.571 317.068C291.529 317.147 291.51 317.235 291.515 317.324C291.513 317.474 291.545 317.623 291.609 317.758C291.673 317.894 291.767 318.014 291.883 318.108C292.377 318.425 292.96 318.574 293.545 318.532ZM295.223 318.03C293.71 318.296 292.557 318.241 292.087 317.865C292.006 317.801 291.941 317.718 291.898 317.624C291.854 317.53 291.833 317.428 291.836 317.324C291.832 317.292 291.837 317.259 291.85 317.23C291.864 317.201 291.887 317.176 291.915 317.16C292.354 316.893 294 317.52 295.223 318.03Z" fill="#5E53B8"/>
<path d="M295.748 318.304C295.772 318.303 295.796 318.297 295.818 318.287C295.839 318.276 295.859 318.261 295.874 318.243C295.89 318.224 295.901 318.203 295.908 318.18C295.915 318.156 295.916 318.132 295.913 318.108C295.913 317.983 295.364 314.972 293.702 315.16C293.263 315.207 293.138 315.435 293.106 315.607C292.996 316.391 294.792 317.912 295.686 318.288L295.748 318.304ZM293.843 315.482C294.839 315.482 295.349 317.12 295.521 317.834C294.596 317.316 293.365 316.125 293.436 315.654C293.436 315.654 293.436 315.521 293.733 315.49L293.843 315.482Z" fill="#5E53B8"/>
<path d="M274.557 176.337C274.557 176.337 278.046 219.747 280.594 241.166C283.236 263.448 291.938 306.191 291.938 306.191L304.568 305.925C304.568 305.925 301.103 257.395 299.762 235.161C298.296 210.896 297.92 175.804 297.92 175.804L274.557 176.337Z" fill="#5E53B8"/>
<path opacity="0.6" d="M274.557 176.337C274.557 176.337 278.046 219.747 280.594 241.166C283.236 263.448 291.938 306.191 291.938 306.191L304.568 305.925C304.568 305.925 301.103 257.395 299.762 235.161C298.296 210.896 297.92 175.804 297.92 175.804L274.557 176.337Z" fill="#FEFFE8"/>
<path d="M306.121 306.489L291.264 306.787L290.174 301.856L305.94 301.816L306.121 306.489Z" fill="#5E53B8"/>
<path d="M261.362 116.15C261.362 116.15 256.196 135.326 262.232 176.604C273.506 176.361 292.44 175.922 297.92 175.82C298.061 170.073 293.82 141.896 298.782 114.73C295.212 114.114 291.601 113.763 287.979 113.68C282.677 113.486 277.368 113.602 272.079 114.025C268.457 114.453 264.874 115.164 261.362 116.15Z" fill="#37306B"/>
<path opacity="0.2" d="M296.618 134.064L290.778 129.227C291.162 133.006 294.58 142.265 296.383 146.953C296.352 142.845 296.391 138.51 296.618 134.064Z" fill="#37306B"/>
<path d="M275.725 127.267L269.351 139.881C269.216 140.146 269.169 140.447 269.217 140.74C269.264 141.034 269.403 141.304 269.614 141.514C269.825 141.723 270.097 141.86 270.391 141.904C270.684 141.949 270.985 141.9 271.248 141.763L275.411 139.474C275.638 139.352 275.894 139.296 276.15 139.313C276.407 139.329 276.653 139.418 276.862 139.568L280.962 142.523C281.198 142.695 281.482 142.786 281.773 142.783C282.064 142.78 282.347 142.683 282.579 142.508C282.811 142.332 282.981 142.086 283.062 141.806C283.144 141.527 283.133 141.228 283.032 140.955L278.242 127.486C278.158 127.23 278.002 127.004 277.791 126.836C277.58 126.669 277.324 126.567 277.056 126.543C276.788 126.52 276.518 126.576 276.282 126.705C276.045 126.833 275.851 127.029 275.725 127.267Z" fill="#FEFFE8"/>
<path d="M286.019 95.7734C285.125 100.916 284.325 110.309 287.979 113.641C287.979 113.641 286.913 118.298 277.183 119.913C270.645 117.812 272.079 114.017 272.079 114.017C277.756 112.528 277.513 108.302 276.438 104.35L286.019 95.7734Z" fill="#FF8B7B"/>
<path opacity="0.2" d="M282.115 99.2622L276.438 104.311C276.703 105.232 276.886 106.173 276.987 107.126C279.167 106.765 282.107 104.303 282.287 102.022C282.398 101.099 282.34 100.164 282.115 99.2622Z" fill="#37306B"/>
<path d="M289.131 89.4465C287.242 96.1261 286.481 100.132 282.311 102.869C276.039 106.977 268.348 102.085 268.199 94.958C268.057 88.5605 271.162 78.7057 278.391 77.4513C279.978 77.1696 281.612 77.298 283.136 77.8243C284.66 78.3506 286.025 79.2574 287.1 80.4587C288.176 81.66 288.927 83.116 289.283 84.6889C289.638 86.2618 289.586 87.8993 289.131 89.4465Z" fill="#FF8B7B"/>
<path d="M285.109 93.5391C284.231 91.4066 283.596 84.382 287.258 82.6572C290.919 80.9324 294.721 85.1424 293.757 87.1338C292.275 90.2228 287.148 98.4783 285.109 93.5391Z" fill="#37306B"/>
<path d="M287.297 85.1346C286.395 82.7826 275.647 81.4498 274.141 78.9175C272.354 75.9069 279.684 75.5463 284.725 77.0751C289.155 78.4236 292.111 79.725 291.593 83.0178C291.303 84.8837 287.297 85.1346 287.297 85.1346Z" fill="#37306B"/>
<path d="M289.633 82.7123C289.633 82.7123 291.985 83.3552 293.271 81.6304C292.863 83.3395 290.864 85.0643 289.633 82.7123Z" fill="#37306B"/>
<path d="M278.869 75.4601C275.639 72.9513 271.24 75.8991 271.656 79.1684C272.071 82.4377 282.961 84.923 282.961 84.923C282.961 84.923 283.157 78.7921 278.869 75.4601Z" fill="#37306B"/>
<path d="M271.664 79.1842C272.158 81.4735 273.828 83.2688 277.207 84.6016C275.251 83.1555 273.769 81.1607 272.95 78.8706L271.664 79.1842Z" fill="#37306B"/>
<path d="M278.445 89.1094C278.328 89.666 277.944 90.0502 277.583 89.9718C277.222 89.8934 277.026 89.3759 277.144 88.8271C277.262 88.2783 277.654 87.8942 278.014 87.9726C278.375 88.051 278.571 88.5919 278.445 89.1094Z" fill="#37306B"/>
<path d="M272.22 87.7609C272.095 88.3097 271.711 88.6939 271.35 88.6155C270.99 88.5371 270.794 88.0275 270.911 87.4787C271.029 86.9299 271.421 86.5457 271.781 86.6163C272.142 86.6868 272.338 87.2121 272.22 87.7609Z" fill="#37306B"/>
<path d="M274.141 88.4668C273.118 90.009 271.886 91.4021 270.48 92.6063C271.264 93.7274 273.012 93.6726 273.012 93.6726L274.141 88.4668Z" fill="#FF5652"/>
<path d="M274.282 95.5463C275.019 95.7292 275.788 95.7313 276.525 95.5524C277.262 95.3736 277.945 95.0192 278.516 94.5193C278.532 94.504 278.544 94.4857 278.553 94.4655C278.561 94.4453 278.565 94.4236 278.565 94.4017C278.565 94.3798 278.561 94.3581 278.553 94.3379C278.544 94.3177 278.532 94.2994 278.516 94.2841C278.484 94.2543 278.442 94.2378 278.398 94.2378C278.355 94.2378 278.313 94.2543 278.281 94.2841C277.745 94.7346 277.112 95.0537 276.431 95.2157C275.751 95.3777 275.042 95.3781 274.361 95.2171C274.317 95.2077 274.271 95.2161 274.234 95.2403C274.197 95.2646 274.17 95.3028 274.161 95.3464C274.151 95.3901 274.16 95.4357 274.184 95.4732C274.208 95.5107 274.247 95.537 274.29 95.5463H274.282Z" fill="#37306B"/>
<path d="M280.758 87.5101C280.818 87.5222 280.881 87.5176 280.938 87.4968C280.996 87.476 281.047 87.4399 281.086 87.3923C281.125 87.3447 281.15 87.2875 281.158 87.2267C281.167 87.166 281.159 87.104 281.135 87.0476C280.923 86.5647 280.599 86.1393 280.19 85.8066C279.781 85.4739 279.298 85.2436 278.783 85.1346C278.695 85.1234 278.607 85.1465 278.537 85.1993C278.467 85.252 278.42 85.3301 278.406 85.4169C278.399 85.4596 278.401 85.5032 278.411 85.5453C278.422 85.5873 278.44 85.6269 278.465 85.6619C278.491 85.6968 278.523 85.7264 278.56 85.7489C278.597 85.7715 278.638 85.7865 278.681 85.7932C279.087 85.8826 279.467 86.068 279.787 86.334C280.108 86.5999 280.36 86.9387 280.523 87.322C280.545 87.3694 280.578 87.4111 280.618 87.4438C280.659 87.4765 280.707 87.4992 280.758 87.5101Z" fill="#37306B"/>
<path d="M269.947 85.025C270.008 85.042 270.074 85.0399 270.134 85.0189C270.194 84.9978 270.246 84.959 270.284 84.9074C270.532 84.5744 270.855 84.3043 271.227 84.1191C271.599 83.9339 272.009 83.8387 272.424 83.8412C272.512 83.8495 272.599 83.8228 272.666 83.7669C272.734 83.711 272.777 83.6306 272.785 83.5432C272.793 83.4559 272.767 83.3688 272.711 83.3012C272.655 83.2336 272.574 83.1909 272.487 83.1826C271.961 83.167 271.439 83.2786 270.965 83.5079C270.492 83.7372 270.08 84.0774 269.766 84.4997C269.739 84.5332 269.718 84.5721 269.706 84.6139C269.693 84.6556 269.69 84.6995 269.695 84.7428C269.7 84.786 269.714 84.8278 269.736 84.8655C269.757 84.9033 269.787 84.9362 269.821 84.9623C269.857 84.9937 269.9 85.0153 269.947 85.025Z" fill="#37306B"/>
<path d="M300.491 120.078C301.918 122.571 303.11 124.985 304.349 127.471C305.587 129.956 306.701 132.457 307.759 135.013C308.818 137.569 309.845 140.164 310.738 142.853C311.668 145.535 312.453 148.264 313.09 151.03L313.569 153.17C313.778 154.175 313.867 155.202 313.835 156.228C313.769 158.135 313.346 160.012 312.589 161.763C311.257 164.714 309.364 167.376 307.014 169.603C304.918 171.626 302.635 173.446 300.194 175.036C299.01 175.82 297.787 176.541 296.556 177.231C295.325 177.921 294.102 178.556 292.73 179.16L290.127 174.605C291.076 173.821 292.118 173.037 293.09 172.19C294.063 171.343 295.011 170.481 295.952 169.619C297.769 167.933 299.454 166.112 300.993 164.17C302.362 162.504 303.424 160.609 304.129 158.572C304.372 157.813 304.468 157.015 304.411 156.22C304.389 155.9 304.328 155.585 304.231 155.279L303.698 153.523C302.114 148.652 300.229 143.884 298.053 139.246C296.979 136.894 295.834 134.542 294.69 132.19C293.545 129.838 292.338 127.486 291.17 125.252L300.491 120.078Z" fill="#FF8B7B"/>
<path d="M299.049 114.77C305.587 116.181 310.135 133.241 310.135 133.241L298.445 143.849C294.729 139.714 291.805 134.93 289.821 129.737C286.724 121.199 292.056 113.249 299.049 114.77Z" fill="#37306B"/>
<path d="M291.546 173.797L284.027 173.876L288.731 181.457C288.731 181.457 294.086 180.132 294.564 177.443L291.546 173.797Z" fill="#FF8B7B"/>
<path d="M279.347 178.352L283.494 184.436L288.692 181.457L284.028 173.875L279.347 178.352Z" fill="#FF8B7B"/>
<path d="M291.185 95.562C290.35 97.099 288.941 98.2432 287.265 98.7451C285.039 99.3958 283.902 97.4123 284.498 95.3033C285.039 93.406 286.85 90.7796 289.076 91.054C291.303 91.3284 292.181 93.6726 291.185 95.562Z" fill="#FF8B7B"/>
<path d="M224.548 225.279L216.189 225.886L216.246 226.668L224.605 226.061L224.548 225.279Z" fill="#5E53B8"/>
<path d="M232.059 224.738L227.954 225.036L228.011 225.818L232.116 225.52L232.059 224.738Z" fill="#5E53B8"/>
<path d="M268.128 132.707L129.705 142.688C126.824 142.913 124.148 144.264 122.257 146.45C120.367 148.635 119.415 151.478 119.607 154.362L124.311 219.606C124.534 222.491 125.887 225.172 128.076 227.064C130.265 228.957 133.113 229.908 136 229.712L143.84 229.147C144.41 229.106 144.973 229.293 145.405 229.666C145.837 230.04 146.103 230.569 146.145 231.139L147.024 243.228C147.038 243.462 147.122 243.687 147.265 243.873C147.408 244.059 147.603 244.198 147.825 244.272C148.048 244.346 148.288 244.352 148.514 244.289C148.739 244.226 148.941 244.097 149.093 243.918L162.217 228.747C162.769 228.112 163.55 227.72 164.389 227.658L274.4 219.731C277.282 219.509 279.96 218.158 281.853 215.972C283.745 213.786 284.698 210.942 284.506 208.058L279.802 142.813C279.579 139.931 278.228 137.253 276.042 135.361C273.857 133.468 271.013 132.515 268.128 132.707Z" fill="#5E53B8"/>
<path d="M149.924 172.637L157.404 172.096L158.015 180.563L166.184 179.975L165.573 171.508L173.084 170.959L174.832 195.153L167.321 195.694L166.616 185.91L158.446 186.506L159.152 196.29L151.68 196.831L149.924 172.637Z" fill="#FEFFE8"/>
<path opacity="0.2" d="M129.705 142.688C126.824 142.912 124.148 144.264 122.257 146.45C120.367 148.635 119.415 151.478 119.607 154.361L124.311 219.606C124.534 222.491 125.887 225.172 128.076 227.064C130.265 228.957 133.113 229.908 136 229.712L137.153 229.625C139.068 229.487 140.883 228.72 142.318 227.444C143.753 226.169 144.726 224.455 145.087 222.569L160.853 140.438L129.705 142.688Z" fill="#37306B"/>
<path d="M198.297 186.325L184.828 187.297C184.931 188.17 185.298 188.99 185.879 189.649C186.212 190 186.621 190.269 187.076 190.434C187.53 190.6 188.016 190.659 188.497 190.606C189.157 190.559 189.794 190.343 190.347 189.979C190.78 189.651 191.149 189.247 191.437 188.787L198.101 188.92C197.376 190.563 196.199 191.966 194.706 192.966C193.337 193.833 191.314 194.356 188.638 194.534C186.767 194.751 184.871 194.551 183.087 193.946C181.657 193.345 180.43 192.346 179.552 191.068C178.544 189.613 177.966 187.905 177.882 186.137C177.742 184.909 177.861 183.666 178.231 182.487C178.601 181.308 179.214 180.22 180.03 179.293C181.661 177.474 184.013 176.452 187.086 176.227C189.12 175.985 191.183 176.227 193.107 176.933C194.58 177.562 195.821 178.633 196.659 179.998C197.618 181.694 198.155 183.595 198.227 185.541L198.297 186.325ZM191.241 183.597C191.146 182.577 190.706 181.621 189.995 180.884C189.636 180.608 189.225 180.409 188.786 180.299C188.348 180.189 187.891 180.17 187.445 180.243C186.999 180.317 186.572 180.481 186.192 180.726C185.812 180.971 185.487 181.292 185.236 181.668C184.817 182.406 184.606 183.243 184.624 184.091L191.241 183.597Z" fill="#FEFFE8"/>
<path d="M200.375 168.991L207.109 168.505L208.858 192.691L202.123 193.177L200.375 168.991Z" fill="#FEFFE8"/>
<path d="M211.625 168.176L218.36 167.689L220.108 191.876L213.381 192.362L211.625 168.176Z" fill="#FEFFE8"/>
<path d="M222.946 182.915C222.819 181.688 222.951 180.448 223.335 179.275C223.719 178.103 224.345 177.024 225.173 176.11C226.85 174.244 229.226 173.198 232.299 172.974C235.801 172.723 238.524 173.548 240.468 175.451C242.083 177.154 243.016 179.391 243.09 181.737C243.164 184.083 242.373 186.374 240.868 188.175C239.206 190.026 236.797 191.071 233.64 191.311C231.187 191.605 228.71 191.022 226.647 189.665C225.549 188.903 224.644 187.897 224.001 186.726C223.359 185.554 222.998 184.25 222.946 182.915ZM229.681 182.413C229.668 183.65 230.093 184.853 230.88 185.808C231.198 186.133 231.582 186.385 232.007 186.547C232.431 186.709 232.886 186.776 233.34 186.745C233.793 186.714 234.234 186.584 234.633 186.365C235.031 186.147 235.377 185.844 235.647 185.478C236.28 184.387 236.519 183.111 236.321 181.864C236.329 180.651 235.91 179.475 235.137 178.54C234.835 178.209 234.461 177.952 234.044 177.788C233.626 177.625 233.177 177.56 232.73 177.599C232.265 177.621 231.81 177.749 231.402 177.975C230.994 178.201 230.644 178.518 230.378 178.901C229.747 179.955 229.51 181.2 229.712 182.413H229.681Z" fill="#FEFFE8"/>
<path d="M245.212 165.745L252.385 165.228L252.785 170.716L252.197 181.888L247.76 182.209L245.604 171.233L245.212 165.745ZM246.78 183.997L253.475 183.51L253.906 189.437L247.203 189.916L246.78 183.997Z" fill="#FEFFE8"/>
<path d="M127.792 121.206C127.757 122.354 127.817 123.503 127.972 124.64C120.868 127.013 113.292 127.613 105.903 126.389C106.258 125.048 106.473 123.674 106.546 122.288C106.299 123.683 105.813 125.025 105.111 126.255C103.715 125.989 102.931 125.761 102.931 125.761C102.931 125.761 104.358 118.047 101.787 112.433C99.2153 106.82 100.501 103.684 102.445 102.798C106.052 91.7124 119.607 93.4607 124.194 97.9608C130.011 103.668 130.042 119.748 131.077 123.425C130.223 123.794 129.384 124.131 128.545 124.429C128.125 123.401 127.871 122.314 127.792 121.206Z" fill="#37306B"/>
<path d="M133.398 138.462L134.103 140.697C134.362 141.481 134.621 142.265 134.887 143.01C135.413 144.578 135.961 146.146 136.549 147.651C137.137 149.156 137.702 150.74 138.313 152.276L139.223 154.628L139.45 155.209L139.505 155.342C139.408 155.257 139.297 155.191 139.176 155.146C139.003 155.083 138.933 155.146 139.042 155.146C139.231 155.145 139.419 155.116 139.599 155.06C140.212 154.865 140.801 154.602 141.355 154.276C142.692 153.497 143.971 152.621 145.181 151.657C146.451 150.669 147.698 149.611 148.921 148.521C150.144 147.431 151.375 146.295 152.559 145.181L154.966 147.22C153.962 148.662 152.904 149.979 151.83 151.32C150.755 152.661 149.548 153.915 148.309 155.162C147.034 156.463 145.646 157.649 144.162 158.705C143.313 159.3 142.4 159.8 141.442 160.195C140.833 160.439 140.195 160.602 139.544 160.681C138.661 160.791 137.764 160.669 136.941 160.328C136.045 159.946 135.281 159.308 134.746 158.494C134.629 158.313 134.519 158.133 134.433 157.968L134.221 157.545L133.939 156.973C133.57 156.189 133.155 155.405 132.833 154.668C132.12 153.1 131.406 151.532 130.756 149.964C130.105 148.396 129.47 146.781 128.866 145.166C128.584 144.382 128.302 143.527 128.035 142.704C127.769 141.881 127.51 141.073 127.251 140.109L133.398 138.462Z" fill="#FFC3BD"/>
<path d="M131.54 131.5C134.244 132.19 136.134 143.308 136.134 143.308L128.686 148.372C128.686 148.372 121.551 137.153 123.629 134.182C125.793 131.093 127.596 130.497 131.54 131.5Z" fill="#5E53B8"/>
<path d="M131.54 131.5C134.244 132.19 136.134 143.308 136.134 143.308L128.686 148.372C128.686 148.372 121.551 137.153 123.629 134.182C125.793 131.093 127.596 130.497 131.54 131.5Z" fill="#5E53B8"/>
<path opacity="0.4" d="M131.54 131.5C134.244 132.19 136.134 143.308 136.134 143.308L128.686 148.372C128.686 148.372 121.551 137.153 123.629 134.182C125.793 131.093 127.596 130.497 131.54 131.5Z" fill="#FEFFE8"/>
<path opacity="0.3" d="M131.297 133.986L133.374 145.189L129.188 148.027L131.297 133.986Z" fill="#37306B"/>
<path d="M152.433 145.448L154.918 139.458L157.984 145.448C157.984 145.448 155.992 148.427 153.366 147.698L152.433 145.448Z" fill="#FFC3BD"/>
<path d="M157.655 138.838L161.59 140.422L157.984 145.448L154.911 139.458L157.655 138.838Z" fill="#FFC3BD"/>
<path d="M116.918 318.657H123.48L123.919 303.471H117.357L116.918 318.657Z" fill="#FFC3BD"/>
<path d="M72.9199 299.096L78.9489 301.667L86.8438 288.528L80.807 285.956L72.9199 299.096Z" fill="#FFC3BD"/>
<path d="M80.1092 300.774L73.8372 296.917C73.7299 296.848 73.601 296.821 73.4751 296.841C73.3493 296.861 73.2353 296.927 73.1551 297.026L69.3841 301.55C69.2902 301.669 69.2228 301.806 69.1864 301.952C69.15 302.099 69.1453 302.251 69.1728 302.4C69.2003 302.549 69.2592 302.689 69.3457 302.813C69.4322 302.937 69.5442 303.041 69.6741 303.118C71.885 304.427 73.014 304.945 75.7737 306.638C77.4749 307.689 79.8426 309.382 82.1868 310.825C84.5309 312.267 86.1068 310.041 85.2365 309.218C81.4341 305.588 81.5439 303.863 80.8305 301.715C80.7119 301.324 80.4556 300.99 80.1092 300.774Z" fill="#37306B"/>
<path d="M123.7 317.897H116.338C116.211 317.895 116.088 317.94 115.992 318.022C115.895 318.104 115.831 318.218 115.813 318.343L114.974 324.176C114.953 324.326 114.965 324.478 115.01 324.623C115.054 324.767 115.129 324.9 115.229 325.013C115.33 325.125 115.454 325.215 115.593 325.275C115.731 325.335 115.881 325.364 116.032 325.36C118.604 325.321 119.842 325.164 123.088 325.164C125.079 325.164 129.203 325.376 131.955 325.376C134.707 325.376 134.848 322.655 133.703 322.405C128.568 321.299 126.545 319.778 124.813 318.328C124.506 318.054 124.111 317.901 123.7 317.897Z" fill="#37306B"/>
<path opacity="0.2" d="M123.911 303.479L123.692 311.303H117.13L117.357 303.479H123.911Z" fill="#37306B"/>
<path opacity="0.2" d="M80.8069 285.964L86.8358 288.528L82.7669 295.301L76.7379 292.73L80.8069 285.964Z" fill="#37306B"/>
<path d="M131.54 131.501C131.54 131.501 134.676 132.598 128.404 171.069H101.748C102.194 160.234 102.21 153.554 97.0436 131.312C100.771 130.542 104.549 130.044 108.349 129.823C112.376 129.532 116.419 129.532 120.446 129.823C125.652 130.293 131.54 131.501 131.54 131.501Z" fill="#5E53B8"/>
<path opacity="0.4" d="M131.54 131.501C131.54 131.501 134.676 132.598 128.404 171.069H101.748C102.194 160.234 102.21 153.554 97.0436 131.312C100.771 130.542 104.549 130.044 108.349 129.823C112.376 129.532 116.419 129.532 120.446 129.823C125.652 130.293 131.54 131.501 131.54 131.501Z" fill="#FEFFE8"/>
<path d="M108.365 129.815C112.392 129.532 116.434 129.532 120.462 129.815C121.112 129.877 121.779 129.948 122.437 130.026C122.711 130.438 122.887 130.908 122.951 131.398C123.015 131.889 122.965 132.388 122.806 132.857C121.951 134.965 118.886 135.209 116.659 135.209C108.419 135.209 107.024 130.395 106.969 130.191L106.891 129.901L108.365 129.815Z" fill="#FEFFE8"/>
<path d="M109.564 116.205C110.348 120.125 111.093 127.228 108.365 129.823C108.365 129.823 109.431 133.743 116.659 133.743C124.609 133.743 120.462 129.823 120.462 129.823C116.118 128.788 116.236 125.566 116.989 122.547L109.564 116.205Z" fill="#FFC3BD"/>
<path d="M110.356 113.437C109.423 116.518 110.717 123.809 112.637 126.632C108.851 124.46 107.573 117.843 107.573 117.843L110.356 113.437Z" fill="#37306B"/>
<path opacity="0.2" d="M112.59 118.792L116.989 122.539C116.796 123.242 116.67 123.961 116.612 124.687C114.958 124.444 112.692 122.625 112.504 120.893C112.407 120.193 112.436 119.481 112.59 118.792Z" fill="#37306B"/>
<path d="M105.973 109.258C107.494 115.585 107.996 118.298 111.806 121.018C117.537 125.103 124.978 121.857 125.377 115.201C125.738 109.211 123.198 99.874 116.495 98.4314C115.018 98.1053 113.482 98.1621 112.033 98.5963C110.584 99.0305 109.271 99.8279 108.216 100.913C107.162 101.997 106.403 103.333 106.01 104.794C105.618 106.255 105.605 107.791 105.973 109.258Z" fill="#FFC3BD"/>
<path d="M128.411 171.069C128.411 171.069 133.578 221.574 133.115 241.566C132.669 262.358 125.048 309.774 125.048 309.774H116.189C116.189 309.774 117.592 263.557 116.808 243.134C115.954 220.869 108.882 171.053 108.882 171.053L128.411 171.069Z" fill="#5E53B8"/>
<path opacity="0.4" d="M128.411 171.069C128.411 171.069 133.578 221.574 133.115 241.566C132.669 262.358 125.048 309.774 125.048 309.774H116.189C116.189 309.774 117.592 263.557 116.808 243.134C115.954 220.869 108.882 171.053 108.882 171.053L128.411 171.069Z" fill="#37306B"/>
<path d="M115.452 310.103H125.848L126.616 306.787L114.966 306.379L115.452 310.103Z" fill="#5E53B8"/>
<path opacity="0.2" d="M116.926 183.636C123.464 196.792 118.235 220.79 115.922 229.72C114.738 216.313 112.739 199.928 111.179 187.878C112.167 181.104 113.907 177.568 116.926 183.636Z" fill="#37306B"/>
<path d="M121.379 171.069C121.379 171.069 115.342 223.597 110.787 240.429C105.385 260.445 84.821 294.525 84.821 294.525L76.5968 291.029C76.5968 291.029 89.3211 252.33 93.4606 241.786C102.281 219.285 94.7307 185.753 101.779 171.069H121.379Z" fill="#5E53B8"/>
<path opacity="0.4" d="M121.379 171.069C121.379 171.069 115.342 223.597 110.787 240.429C105.385 260.445 84.821 294.525 84.821 294.525L76.5968 291.029C76.5968 291.029 89.3211 252.33 93.4606 241.786C102.281 219.285 94.7307 185.753 101.779 171.069H121.379Z" fill="#37306B"/>
<path d="M75.4601 291.052L85.6678 295.396L88.1217 292.652L76.346 286.999L75.4601 291.052Z" fill="#5E53B8"/>
<path d="M116.032 109.344C116.126 109.862 116.471 110.238 116.816 110.176C117.161 110.113 117.357 109.642 117.263 109.125C117.169 108.608 116.824 108.231 116.479 108.286C116.134 108.341 115.899 108.819 116.032 109.344Z" fill="#37306B"/>
<path d="M121.881 108.31C121.967 108.827 122.32 109.204 122.665 109.141C123.01 109.078 123.214 108.608 123.119 108.09C123.025 107.573 122.68 107.197 122.335 107.251C121.99 107.306 121.787 107.785 121.881 108.31Z" fill="#37306B"/>
<path d="M122.186 107.314L123.37 106.726C123.37 106.726 122.9 107.816 122.186 107.314Z" fill="#37306B"/>
<path d="M120.477 109.478C121.15 110.585 121.974 111.592 122.923 112.473C122.691 112.708 122.41 112.891 122.1 113.007C121.79 113.123 121.458 113.171 121.128 113.147L120.477 109.478Z" fill="#ED847E"/>
<path d="M118.768 115.601C119.065 115.6 119.362 115.574 119.654 115.523C119.677 115.522 119.698 115.516 119.718 115.506C119.738 115.496 119.756 115.482 119.77 115.464C119.784 115.447 119.794 115.426 119.8 115.405C119.805 115.383 119.806 115.36 119.802 115.338C119.798 115.316 119.79 115.295 119.777 115.277C119.764 115.258 119.748 115.243 119.728 115.231C119.709 115.22 119.688 115.213 119.665 115.21C119.643 115.208 119.621 115.21 119.599 115.217C118.954 115.346 118.287 115.32 117.653 115.141C117.02 114.963 116.437 114.637 115.954 114.19C115.924 114.161 115.885 114.145 115.844 114.145C115.803 114.145 115.763 114.161 115.734 114.19C115.719 114.204 115.707 114.221 115.699 114.24C115.69 114.259 115.686 114.279 115.686 114.3C115.686 114.32 115.69 114.341 115.699 114.36C115.707 114.378 115.719 114.395 115.734 114.409C116.552 115.185 117.641 115.613 118.768 115.601Z" fill="#37306B"/>
<path d="M108.192 105.55C108.364 107.217 108.625 108.874 108.976 110.512C108.976 110.512 112.896 105.55 113.547 102.892C113.391 103.938 113.088 104.957 112.645 105.918C112.645 105.918 117.922 104.766 118.439 101.285C118.43 102.843 118.257 104.396 117.922 105.918C117.922 105.918 122.955 103.943 122.492 100.603C122.03 97.2629 114.299 95.9693 110.732 97.0982C107.165 98.2272 103.676 101.888 104.727 106.922C105.777 111.955 107.792 113.844 107.792 113.844C107.792 113.844 106.342 108.772 108.192 105.55Z" fill="#37306B"/>
<path d="M105.699 114.025C106.183 115.186 107.108 116.108 108.271 116.589C109.839 117.216 110.771 115.875 110.497 114.323C110.254 112.919 109.149 110.912 107.526 110.944C107.171 110.959 106.825 111.063 106.52 111.246C106.215 111.429 105.961 111.685 105.779 111.99C105.598 112.296 105.496 112.642 105.482 112.997C105.468 113.353 105.542 113.706 105.699 114.025Z" fill="#FFC3BD"/>
<path d="M109.141 103.135C108.357 106.271 109.987 113.484 112.041 116.205C108.121 114.221 106.553 107.667 106.553 107.667L109.141 103.135Z" fill="#37306B"/>
<path d="M113.884 107.557C113.924 107.545 113.962 107.525 113.994 107.498C114.026 107.471 114.053 107.438 114.072 107.4C114.237 107.047 114.484 106.737 114.792 106.497C115.1 106.258 115.46 106.094 115.844 106.02C115.925 106.009 115.998 105.967 116.049 105.902C116.1 105.838 116.125 105.757 116.118 105.676C116.114 105.635 116.102 105.595 116.083 105.559C116.063 105.522 116.036 105.491 116.004 105.465C115.972 105.439 115.935 105.42 115.895 105.409C115.856 105.399 115.814 105.396 115.773 105.401C115.287 105.486 114.828 105.686 114.435 105.984C114.042 106.283 113.727 106.672 113.515 107.118C113.489 107.173 113.478 107.234 113.486 107.294C113.493 107.354 113.518 107.411 113.557 107.457C113.596 107.504 113.648 107.538 113.706 107.556C113.764 107.573 113.826 107.574 113.884 107.557Z" fill="#37306B"/>
<path d="M124.021 105.126C124.06 105.128 124.1 105.121 124.136 105.106C124.173 105.092 124.206 105.069 124.233 105.04C124.29 104.982 124.322 104.903 124.322 104.821C124.322 104.739 124.29 104.66 124.233 104.601C123.898 104.239 123.484 103.961 123.022 103.79C122.56 103.618 122.064 103.558 121.575 103.613C121.534 103.621 121.495 103.636 121.461 103.659C121.426 103.682 121.396 103.711 121.373 103.745C121.349 103.78 121.333 103.818 121.325 103.859C121.316 103.899 121.316 103.941 121.324 103.982C121.341 104.061 121.388 104.131 121.455 104.176C121.523 104.221 121.605 104.239 121.685 104.225C122.071 104.182 122.461 104.23 122.825 104.366C123.189 104.503 123.515 104.723 123.778 105.009C123.807 105.045 123.844 105.075 123.886 105.095C123.928 105.115 123.974 105.126 124.021 105.126Z" fill="#37306B"/>
<path d="M100.297 140.618C99.2074 144.06 98.1647 147.674 97.2788 151.234C96.3871 154.747 95.7348 158.317 95.3266 161.919L95.2639 162.578C95.2639 162.79 95.2639 162.837 95.2639 163.025C95.2726 163.395 95.3014 163.764 95.3501 164.13C95.45 164.989 95.5939 165.842 95.7813 166.686C96.1498 168.435 96.5653 170.238 97.0985 172.025C97.6316 173.813 98.0863 175.632 98.6194 177.435L100.187 182.844L97.2788 184.044C95.4913 180.626 93.9389 177.145 92.4885 173.554C91.7908 171.751 91.1087 169.932 90.5442 168.011C90.262 167.055 89.9954 166.075 89.7602 165.008C89.6486 164.444 89.57 163.873 89.525 163.299C89.525 163.009 89.525 162.578 89.525 162.319V161.535C89.5915 159.538 89.7747 157.545 90.0738 155.569C90.3325 153.609 90.7167 151.696 91.1322 149.791C91.948 145.975 92.9952 142.213 94.2682 138.525L100.297 140.618Z" fill="#FFC3BD"/>
<path d="M97.0593 131.312C94.3937 132.096 91.1871 141.308 91.1871 141.308L101.536 148.709C101.536 148.709 105.315 141.042 104.194 137.592C103.026 134.001 100.109 130.387 97.0593 131.312Z" fill="#5E53B8"/>
<path opacity="0.4" d="M97.0593 131.312C94.3937 132.096 91.1871 141.308 91.1871 141.308L101.536 148.709C101.536 148.709 105.315 141.042 104.194 137.592C103.026 134.001 100.109 130.387 97.0593 131.312Z" fill="#FEFFE8"/>
<path d="M82.7591 303.267C82.8866 303.222 83.0026 303.15 83.0988 303.055C83.195 302.96 83.2691 302.845 83.3157 302.718C83.361 302.637 83.3848 302.545 83.3848 302.452C83.3848 302.358 83.361 302.267 83.3157 302.185C82.8453 301.495 80.4698 301.55 80.1797 301.558C80.1497 301.558 80.1204 301.568 80.0954 301.584C80.0703 301.601 80.0506 301.624 80.0386 301.652C80.0233 301.677 80.0153 301.705 80.0153 301.734C80.0153 301.763 80.0233 301.792 80.0386 301.817C80.658 302.436 81.8183 303.447 82.6336 303.291L82.7591 303.267ZM80.556 301.84C81.5047 301.84 82.7748 301.973 83.0256 302.342C83.0471 302.377 83.0584 302.418 83.0584 302.46C83.0584 302.501 83.0471 302.542 83.0256 302.577C82.991 302.672 82.9335 302.756 82.8583 302.823C82.783 302.89 82.6924 302.938 82.5944 302.961C82.1632 303.071 81.4106 302.624 80.556 301.84Z" fill="#5E53B8"/>
<path d="M81.2538 301.675C81.975 301.448 82.7434 301.048 82.908 300.601C82.9489 300.485 82.9495 300.358 82.9097 300.242C82.8698 300.125 82.7919 300.025 82.6885 299.958C82.5972 299.882 82.4897 299.828 82.3743 299.799C82.2588 299.771 82.1384 299.769 82.0221 299.794C81.0891 299.958 80.0856 301.558 80.0464 301.628C80.0326 301.652 80.0254 301.679 80.0254 301.707C80.0254 301.734 80.0326 301.761 80.0464 301.785C80.0605 301.808 80.08 301.827 80.1033 301.841C80.1265 301.855 80.1527 301.862 80.1797 301.863C80.5449 301.853 80.9067 301.79 81.2538 301.675ZM81.975 300.107H82.077C82.1507 300.092 82.2269 300.093 82.3001 300.111C82.3733 300.128 82.4417 300.162 82.5003 300.209C82.6571 300.335 82.6414 300.429 82.6179 300.499C82.4611 300.931 81.2694 301.448 80.4776 301.55C80.8378 300.947 81.3555 300.454 81.975 300.123V300.107Z" fill="#5E53B8"/>
<path d="M126.161 319.041C126.714 319.087 127.266 318.946 127.729 318.641C127.837 318.544 127.919 318.421 127.968 318.285C128.018 318.148 128.032 318.001 128.012 317.857C128.005 317.772 127.978 317.69 127.931 317.619C127.884 317.548 127.82 317.489 127.745 317.45C126.961 317.011 124.335 318.343 124.037 318.492C124.008 318.504 123.983 318.524 123.966 318.55C123.949 318.576 123.939 318.606 123.939 318.637C123.939 318.668 123.949 318.699 123.966 318.725C123.983 318.751 124.008 318.771 124.037 318.782C124.734 318.94 125.446 319.027 126.161 319.041ZM127.329 317.685C127.429 317.679 127.529 317.697 127.62 317.74C127.65 317.757 127.676 317.782 127.694 317.812C127.712 317.842 127.722 317.877 127.721 317.912C127.736 318.002 127.728 318.095 127.698 318.181C127.668 318.267 127.617 318.345 127.549 318.406C127.149 318.767 126.067 318.829 124.617 318.586C125.463 318.134 126.381 317.83 127.329 317.685Z" fill="#5E53B8"/>
<path d="M124.131 318.814H124.194C124.978 318.461 126.545 317.05 126.404 316.305C126.404 316.125 126.248 315.913 125.816 315.866C125.662 315.849 125.506 315.863 125.357 315.909C125.209 315.955 125.072 316.031 124.954 316.132C124.17 316.822 123.982 318.586 123.974 318.657C123.973 318.684 123.979 318.712 123.991 318.736C124.004 318.761 124.022 318.782 124.045 318.798C124.07 318.814 124.101 318.82 124.131 318.814ZM125.699 316.156H125.793C126.075 316.156 126.099 316.305 126.099 316.336C126.177 316.783 125.126 317.904 124.327 318.383C124.389 317.638 124.683 316.931 125.166 316.36C125.309 316.229 125.497 316.156 125.691 316.156H125.699Z" fill="#5E53B8"/>
<path d="M101.379 169.509L100.705 171.861C100.611 172.041 100.83 172.229 101.136 172.229H128.576C128.819 172.229 129.015 172.111 129.031 171.962L129.274 169.61C129.274 169.446 129.078 169.305 128.819 169.305H101.818C101.734 169.298 101.649 169.313 101.572 169.349C101.495 169.385 101.429 169.44 101.379 169.509Z" fill="#37306B"/>
<path d="M105.001 172.519H104.272C104.131 172.519 104.021 172.449 104.029 172.355L104.366 169.219C104.366 169.133 104.507 169.054 104.648 169.054H105.37C105.519 169.054 105.62 169.133 105.613 169.219L105.276 172.355C105.276 172.48 105.15 172.519 105.001 172.519Z" fill="#5E53B8"/>
<path opacity="0.4" d="M105.001 172.519H104.272C104.131 172.519 104.021 172.449 104.029 172.355L104.366 169.219C104.366 169.133 104.507 169.054 104.648 169.054H105.37C105.519 169.054 105.62 169.133 105.613 169.219L105.276 172.355C105.276 172.48 105.15 172.519 105.001 172.519Z" fill="#37306B"/>
<path d="M126.506 172.519H125.785C125.644 172.519 125.534 172.449 125.542 172.355L125.887 169.219C125.887 169.133 126.02 169.054 126.161 169.054H126.883C127.032 169.054 127.141 169.133 127.126 169.219L126.789 172.355C126.781 172.48 126.655 172.519 126.506 172.519Z" fill="#5E53B8"/>
<path opacity="0.4" d="M126.506 172.519H125.785C125.644 172.519 125.534 172.449 125.542 172.355L125.887 169.219C125.887 169.133 126.02 169.054 126.161 169.054H126.883C127.032 169.054 127.141 169.133 127.126 169.219L126.789 172.355C126.781 172.48 126.655 172.519 126.506 172.519Z" fill="#37306B"/>
<path d="M115.758 172.519H115.036C114.887 172.519 114.778 172.449 114.793 172.355L115.13 169.219C115.13 169.133 115.264 169.054 115.413 169.054H116.134C116.275 169.054 116.385 169.133 116.377 169.219L116.04 172.355C116.032 172.48 115.899 172.519 115.758 172.519Z" fill="#5E53B8"/>
<path opacity="0.4" d="M115.758 172.519H115.036C114.887 172.519 114.778 172.449 114.793 172.355L115.13 169.219C115.13 169.133 115.264 169.054 115.413 169.054H116.134C116.275 169.054 116.385 169.133 116.377 169.219L116.04 172.355C116.032 172.48 115.899 172.519 115.758 172.519Z" fill="#37306B"/>
<path d="M116.299 108.341L117.482 107.761C117.482 107.761 117.012 108.851 116.299 108.341Z" fill="#37306B"/>
<path d="M99.968 181.958L105.589 186.27L99.0742 187.705C99.0742 187.705 96.3067 184.569 97.2631 181.982L99.968 181.958Z" fill="#FFC3BD"/>
<path d="M106.969 191.61L101.45 192.511L98.4391 186.851L105.589 186.271L106.969 191.61Z" fill="#FFC3BD"/>
</svg>
