<svg width="353" height="353" viewBox="0 0 353 353" fill="none" xmlns="http://www.w3.org/2000/svg">
<path d="M321.803 187.218C330.229 225.632 306.697 250.45 274.112 249.298C258.488 248.747 239.832 231.569 224.492 227.744C204.45 222.734 187.114 229.223 167.965 230.174C120.324 232.529 120.951 213.089 88.8503 188.02C66.3032 170.4 29.9189 172.329 17.8687 141.473C3.10456 103.752 45.4263 85.5224 77.5767 91.1174C114.521 97.5308 124.75 51.5347 181.176 56.6287C236.626 61.6392 309.937 129.331 321.803 187.218Z" fill="#5E53B8"/>
<path opacity="0.9" d="M321.803 187.218C330.229 225.632 306.697 250.45 274.112 249.298C258.488 248.747 239.832 231.569 224.492 227.744C204.45 222.734 187.114 229.223 167.965 230.174C120.324 232.529 120.951 213.089 88.8503 188.02C66.3032 170.4 29.9189 172.329 17.8687 141.473C3.10456 103.752 45.4263 85.5224 77.5767 91.1174C114.521 97.5308 124.75 51.5347 181.176 56.6287C236.626 61.6392 309.937 129.331 321.803 187.218Z" fill="#FEFFE8"/>
<path d="M176.5 322.701C265.922 322.701 338.413 318.469 338.413 313.248C338.413 308.027 265.922 303.795 176.5 303.795C87.0779 303.795 14.5869 308.027 14.5869 313.248C14.5869 318.469 87.0779 322.701 176.5 322.701Z" fill="#FEFFE8"/>
<path d="M185.193 270.877H78.6623C76.9492 270.852 75.3086 270.181 74.0696 268.998C72.8306 267.815 72.0847 266.207 71.9817 264.497L62.4284 79.4853C62.3754 78.6624 62.493 77.8374 62.7738 77.062C63.0546 76.2867 63.4925 75.5776 64.0602 74.9794C64.6278 74.3812 65.3129 73.9067 66.0725 73.5857C66.832 73.2646 67.6497 73.1039 68.4743 73.1137H175.005C176.717 73.1359 178.358 73.8052 179.597 74.9871C180.836 76.169 181.583 77.776 181.686 79.4853L191.222 264.497C191.275 265.319 191.158 266.143 190.878 266.917C190.599 267.692 190.162 268.401 189.597 268.999C189.031 269.598 188.348 270.073 187.59 270.396C186.833 270.72 186.017 270.883 185.193 270.877Z" fill="#5E53B8"/>
<path opacity="0.8" d="M185.193 270.877H78.6623C76.9492 270.852 75.3086 270.181 74.0696 268.998C72.8306 267.815 72.0847 266.207 71.9817 264.497L62.4284 79.4853C62.3754 78.6624 62.493 77.8374 62.7738 77.062C63.0546 76.2867 63.4925 75.5776 64.0602 74.9794C64.6278 74.3812 65.3129 73.9067 66.0725 73.5857C66.832 73.2646 67.6497 73.1039 68.4743 73.1137H175.005C176.717 73.1359 178.358 73.8052 179.597 74.9871C180.836 76.169 181.583 77.776 181.686 79.4853L191.222 264.497C191.275 265.319 191.158 266.143 190.878 266.917C190.599 267.692 190.162 268.401 189.597 268.999C189.031 269.598 188.348 270.073 187.59 270.396C186.833 270.72 186.017 270.883 185.193 270.877Z" fill="#FEFFE8"/>
<path d="M164.491 67.084H152.708V67.9191H164.491V67.084Z" fill="#5E53B8"/>
<path d="M148.625 67.084H144.308V67.9191H148.625V67.084Z" fill="#5E53B8"/>
<path d="M189.778 259.135H87.8983C86.2576 259.119 84.684 258.482 83.494 257.352C82.304 256.223 81.5861 254.684 81.4849 253.047L72.3658 76.0941C72.3151 75.3065 72.4277 74.5169 72.6966 73.7749C72.9654 73.0329 73.3846 72.3545 73.928 71.7821C74.4713 71.2097 75.1271 70.7558 75.8541 70.4488C76.5811 70.1418 77.3638 69.9883 78.1529 69.998H180.032C181.673 70.0161 183.246 70.655 184.434 71.7861C185.622 72.9172 186.338 74.4564 186.437 76.0941L195.556 253.047C195.607 253.833 195.495 254.622 195.226 255.363C194.958 256.104 194.539 256.781 193.997 257.353C193.454 257.925 192.799 258.378 192.073 258.684C191.347 258.991 190.566 259.144 189.778 259.135Z" fill="#5E53B8"/>
<path d="M189.778 255.068H87.8983C87.3009 255.047 86.7317 254.808 86.2991 254.396C85.8665 253.983 85.6005 253.426 85.5518 252.83L76.4244 75.8854C76.4037 75.6501 76.4332 75.413 76.5109 75.1899C76.5887 74.9667 76.7129 74.7626 76.8753 74.5911C77.0382 74.4199 77.2356 74.2852 77.4544 74.196C77.6732 74.1067 77.9085 74.0649 78.1446 74.0733H180.024C180.62 74.0959 181.187 74.336 181.618 74.7484C182.049 75.1609 182.314 75.7169 182.362 76.3113L191.531 253.256C191.552 253.49 191.522 253.726 191.444 253.949C191.367 254.171 191.243 254.374 191.081 254.545C190.92 254.717 190.724 254.852 190.506 254.942C190.289 255.032 190.055 255.075 189.82 255.068H189.778ZM78.1446 74.2821C77.937 74.2754 77.7303 74.312 77.5376 74.3897C77.3449 74.4673 77.1706 74.5842 77.0256 74.733C76.8862 74.8873 76.7795 75.0682 76.7121 75.2648C76.6446 75.4615 76.6178 75.6698 76.6331 75.8771L85.7522 252.822C85.7987 253.364 86.0416 253.87 86.4354 254.245C86.8291 254.62 87.3464 254.839 87.89 254.859H189.769C189.976 254.867 190.182 254.831 190.373 254.754C190.565 254.676 190.738 254.558 190.88 254.408C191.023 254.256 191.132 254.076 191.199 253.878C191.267 253.681 191.292 253.472 191.273 253.264L182.162 76.3197C182.117 75.7785 181.876 75.2723 181.484 74.8969C181.091 74.5214 180.575 74.3027 180.032 74.2821H78.1446Z" fill="#FEFFE8"/>
<path opacity="0.3" d="M154.142 138.563C165.73 126.672 164.975 107.143 152.457 94.9439C139.938 82.7447 120.396 82.4948 108.809 94.3856C97.2212 106.277 97.9757 125.805 110.494 138.005C123.013 150.204 142.555 150.454 154.142 138.563Z" fill="#FEFFE8"/>
<path d="M156.458 116.479C156.692 120.583 155.866 124.678 154.061 128.37C152.107 132.331 149.074 135.66 145.311 137.972C141.548 140.284 137.208 141.486 132.792 141.439C128.215 141.398 123.727 140.173 119.764 137.883C115.801 135.592 112.499 132.315 110.178 128.37C108.015 124.763 106.771 120.68 106.554 116.479C106.348 113.257 106.809 110.028 107.909 106.993C109.008 103.958 110.722 101.182 112.944 98.8403C115.165 96.4981 117.846 94.6397 120.819 93.3812C123.792 92.1228 126.992 91.4915 130.22 91.5268C136.938 91.5968 143.38 94.2099 148.249 98.8399C153.117 103.47 156.051 109.773 156.458 116.479Z" fill="#FEFFE8"/>
<path d="M154.036 128.37C152.082 132.331 149.049 135.66 145.286 137.972C141.523 140.284 137.183 141.486 132.767 141.439C128.19 141.398 123.702 140.173 119.739 137.883C115.776 135.592 112.474 132.315 110.153 128.37C116.499 123.988 124.036 121.656 131.748 121.69C139.667 121.72 147.407 124.04 154.036 128.37Z" fill="#5E53B8"/>
<path d="M139.211 115.898C143.386 111.614 143.113 104.577 138.601 100.18C134.089 95.7834 127.047 95.692 122.872 99.976C118.698 104.26 118.971 111.297 123.483 115.694C127.995 120.091 135.037 120.182 139.211 115.898Z" fill="#5E53B8"/>
<path d="M175.172 190.291H95.3972C94.7024 190.284 94.036 190.014 93.5325 189.535C93.0289 189.056 92.7254 188.404 92.6832 187.711L92.082 176.019C92.0612 175.687 92.1094 175.354 92.2234 175.041C92.3373 174.727 92.5147 174.441 92.7444 174.2C92.974 173.958 93.2511 173.767 93.5581 173.638C93.8651 173.508 94.1955 173.443 94.5287 173.447H174.304C174.997 173.454 175.662 173.723 176.166 174.201C176.669 174.678 176.973 175.327 177.018 176.019L177.619 187.711C177.641 188.044 177.594 188.378 177.48 188.692C177.367 189.006 177.19 189.293 176.96 189.536C176.73 189.778 176.453 189.97 176.145 190.1C175.837 190.23 175.506 190.295 175.172 190.291Z" fill="#FEFFE8"/>
<path opacity="0.3" d="M150.746 166.992H117.427C116.729 166.987 116.059 166.717 115.554 166.236C115.048 165.755 114.744 165.1 114.704 164.404L114.579 161.898C114.557 161.565 114.604 161.231 114.718 160.917C114.831 160.603 115.008 160.316 115.238 160.073C115.468 159.831 115.745 159.639 116.053 159.509C116.361 159.379 116.692 159.314 117.026 159.318H150.337C151.032 159.325 151.698 159.595 152.202 160.074C152.705 160.553 153.009 161.205 153.051 161.898L153.185 164.404C153.205 164.736 153.157 165.07 153.044 165.383C152.931 165.696 152.754 165.983 152.526 166.226C152.297 166.469 152.021 166.662 151.715 166.794C151.409 166.925 151.079 166.993 150.746 166.992Z" fill="#16132A"/>
<path opacity="0.3" d="M163.139 246.501H113.226C112.044 246.486 110.912 246.025 110.055 245.211C109.199 244.396 108.682 243.288 108.608 242.108L108.316 236.346C108.286 235.78 108.373 235.213 108.569 234.682C108.766 234.15 109.069 233.663 109.459 233.252C109.85 232.841 110.32 232.514 110.842 232.291C111.363 232.068 111.924 231.953 112.491 231.954H162.387C163.569 231.968 164.702 232.429 165.558 233.244C166.415 234.058 166.932 235.166 167.005 236.346L167.297 242.108C167.327 242.673 167.241 243.238 167.046 243.769C166.85 244.3 166.549 244.785 166.16 245.196C165.771 245.607 165.303 245.934 164.783 246.158C164.264 246.383 163.704 246.499 163.139 246.501Z" fill="#16132A"/>
<path d="M176.634 218.567H96.8503C96.1561 218.558 95.4909 218.287 94.9877 217.809C94.4845 217.331 94.1804 216.68 94.1363 215.987L93.5351 204.296C93.5144 203.963 93.5625 203.629 93.6764 203.316C93.7903 203.002 93.9676 202.715 94.1971 202.473C94.4266 202.231 94.7035 202.039 95.0106 201.909C95.3176 201.778 95.6483 201.712 95.9818 201.715H175.757C176.452 201.723 177.118 201.993 177.621 202.472C178.125 202.95 178.429 203.602 178.471 204.296L179.08 215.987C179.1 216.32 179.051 216.653 178.936 216.966C178.822 217.279 178.645 217.565 178.416 217.807C178.186 218.048 177.91 218.241 177.603 218.372C177.297 218.502 176.967 218.569 176.634 218.567Z" fill="#FEFFE8"/>
<path d="M105.518 181.865C105.541 182.234 105.488 182.604 105.362 182.952C105.235 183.299 105.039 183.617 104.784 183.885C104.529 184.153 104.222 184.366 103.881 184.509C103.541 184.653 103.174 184.726 102.804 184.721C102.036 184.712 101.3 184.413 100.744 183.883C100.188 183.353 99.8528 182.632 99.8064 181.865C99.7822 181.497 99.8345 181.127 99.9599 180.78C100.085 180.432 100.281 180.114 100.535 179.846C100.789 179.578 101.096 179.365 101.436 179.221C101.776 179.077 102.143 179.005 102.512 179.009C103.281 179.018 104.018 179.318 104.576 179.847C105.133 180.377 105.47 181.098 105.518 181.865Z" fill="#37306B"/>
<path d="M114.312 181.865C114.336 182.234 114.284 182.604 114.158 182.951C114.033 183.299 113.837 183.616 113.583 183.885C113.329 184.153 113.022 184.365 112.682 184.509C112.342 184.653 111.975 184.726 111.606 184.721C110.837 184.714 110.1 184.415 109.544 183.885C108.987 183.355 108.653 182.633 108.608 181.865C108.584 181.497 108.636 181.127 108.762 180.78C108.887 180.432 109.083 180.114 109.337 179.846C109.591 179.578 109.898 179.365 110.238 179.221C110.578 179.077 110.944 179.005 111.314 179.009C112.083 179.017 112.82 179.316 113.376 179.846C113.933 180.376 114.267 181.098 114.312 181.865Z" fill="#37306B"/>
<path d="M123.055 181.865C123.079 182.234 123.027 182.604 122.902 182.951C122.776 183.299 122.58 183.616 122.326 183.885C122.072 184.153 121.765 184.365 121.425 184.509C121.085 184.653 120.719 184.726 120.349 184.721C119.58 184.712 118.843 184.413 118.286 183.883C117.728 183.354 117.391 182.633 117.343 181.865C117.32 181.496 117.373 181.127 117.5 180.779C117.626 180.432 117.823 180.114 118.078 179.846C118.332 179.578 118.64 179.365 118.98 179.221C119.321 179.077 119.687 179.005 120.057 179.009C120.825 179.019 121.561 179.318 122.118 179.848C122.674 180.378 123.009 181.099 123.055 181.865Z" fill="#37306B"/>
<path d="M131.865 181.865C131.888 182.234 131.835 182.603 131.709 182.95C131.583 183.297 131.387 183.614 131.133 183.882C130.879 184.15 130.573 184.362 130.234 184.507C129.894 184.651 129.528 184.724 129.159 184.721C128.39 184.712 127.653 184.413 127.096 183.883C126.538 183.354 126.201 182.633 126.153 181.865C126.13 181.497 126.183 181.128 126.309 180.781C126.435 180.434 126.631 180.117 126.885 179.849C127.139 179.581 127.445 179.368 127.784 179.224C128.124 179.079 128.49 179.006 128.859 179.009C129.628 179.018 130.365 179.318 130.922 179.847C131.48 180.377 131.817 181.098 131.865 181.865Z" fill="#37306B"/>
<path d="M106.996 210.124C107.021 210.493 106.968 210.862 106.843 211.21C106.718 211.557 106.522 211.875 106.268 212.143C106.014 212.411 105.707 212.624 105.367 212.768C105.026 212.912 104.66 212.984 104.291 212.98C103.522 212.971 102.785 212.672 102.227 212.142C101.67 211.613 101.333 210.892 101.284 210.124C101.262 209.755 101.315 209.385 101.441 209.038C101.568 208.69 101.764 208.373 102.019 208.105C102.274 207.837 102.581 207.624 102.922 207.48C103.262 207.336 103.629 207.264 103.999 207.268C104.767 207.277 105.503 207.577 106.059 208.107C106.615 208.637 106.95 209.357 106.996 210.124Z" fill="#37306B"/>
<path d="M115.773 210.124C115.796 210.493 115.743 210.862 115.617 211.209C115.491 211.555 115.295 211.873 115.041 212.141C114.787 212.409 114.481 212.621 114.142 212.766C113.802 212.91 113.436 212.983 113.067 212.98C112.298 212.971 111.561 212.672 111.004 212.142C110.446 211.613 110.109 210.892 110.061 210.124C110.037 209.756 110.089 209.386 110.215 209.039C110.34 208.691 110.536 208.373 110.79 208.105C111.044 207.837 111.351 207.624 111.691 207.48C112.031 207.336 112.397 207.264 112.767 207.268C113.536 207.277 114.273 207.577 114.83 208.106C115.388 208.636 115.725 209.357 115.773 210.124Z" fill="#37306B"/>
<path d="M124.55 210.124C124.573 210.493 124.519 210.863 124.393 211.211C124.267 211.558 124.07 211.876 123.815 212.144C123.561 212.412 123.253 212.624 122.913 212.768C122.572 212.912 122.206 212.984 121.836 212.98C121.067 212.973 120.33 212.674 119.773 212.144C119.217 211.614 118.882 210.892 118.838 210.124C118.814 209.756 118.866 209.386 118.991 209.039C119.117 208.691 119.313 208.373 119.567 208.105C119.821 207.837 120.128 207.624 120.468 207.48C120.808 207.336 121.174 207.264 121.544 207.268C122.313 207.277 123.05 207.577 123.607 208.106C124.165 208.636 124.501 209.357 124.55 210.124Z" fill="#37306B"/>
<path d="M133.318 210.124C133.342 210.493 133.29 210.862 133.165 211.21C133.039 211.557 132.843 211.875 132.589 212.143C132.335 212.411 132.028 212.624 131.688 212.768C131.348 212.912 130.982 212.984 130.612 212.98C129.843 212.971 129.106 212.672 128.549 212.142C127.991 211.613 127.655 210.892 127.606 210.124C127.583 209.755 127.637 209.385 127.763 209.038C127.889 208.69 128.086 208.373 128.341 208.105C128.595 207.837 128.903 207.624 129.243 207.48C129.584 207.336 129.95 207.264 130.32 207.268C131.089 207.275 131.826 207.574 132.383 208.105C132.939 208.635 133.274 209.357 133.318 210.124Z" fill="#37306B"/>
<path d="M142.095 210.124C142.119 210.493 142.067 210.862 141.941 211.21C141.816 211.557 141.62 211.875 141.366 212.143C141.112 212.411 140.805 212.624 140.465 212.768C140.125 212.912 139.759 212.984 139.389 212.98C138.62 212.971 137.883 212.672 137.326 212.142C136.768 211.612 136.431 210.892 136.383 210.124C136.36 209.756 136.413 209.387 136.539 209.04C136.665 208.693 136.861 208.376 137.115 208.108C137.368 207.84 137.675 207.627 138.014 207.483C138.354 207.338 138.72 207.265 139.089 207.268C139.857 207.277 140.595 207.577 141.152 208.106C141.71 208.636 142.046 209.357 142.095 210.124Z" fill="#37306B"/>
<path d="M150.871 210.124C150.894 210.493 150.841 210.863 150.715 211.211C150.588 211.558 150.392 211.876 150.137 212.144C149.882 212.412 149.575 212.624 149.234 212.768C148.894 212.912 148.527 212.984 148.157 212.98C147.389 212.971 146.653 212.671 146.097 212.142C145.541 211.612 145.206 210.891 145.159 210.124C145.135 209.756 145.188 209.386 145.313 209.039C145.438 208.691 145.634 208.373 145.888 208.105C146.142 207.837 146.449 207.624 146.789 207.48C147.129 207.336 147.496 207.264 147.865 207.268C148.634 207.277 149.371 207.577 149.929 208.106C150.486 208.636 150.823 209.357 150.871 210.124Z" fill="#37306B"/>
<path d="M245.811 113.147C246.02 113.464 246.129 113.631 246.262 113.857L246.638 114.475C246.88 114.892 247.097 115.31 247.306 115.719C247.724 116.554 248.141 117.389 248.475 118.224C249.175 119.883 249.778 121.581 250.279 123.31C251.29 126.725 251.956 130.233 252.267 133.782L252.325 134.441C252.332 134.575 252.332 134.709 252.325 134.842V135.285C252.339 135.866 252.305 136.447 252.225 137.022C252.065 138.088 251.785 139.133 251.39 140.137C250.656 141.929 249.684 143.614 248.5 145.147C246.292 147.975 243.671 150.455 240.726 152.504L238.421 149.807C240.518 147.438 242.376 144.867 243.966 142.133C244.682 140.892 245.242 139.568 245.636 138.191C245.796 137.608 245.888 137.008 245.912 136.404C245.937 136.146 245.937 135.885 245.912 135.627V135.452C245.92 135.374 245.92 135.296 245.912 135.218L245.811 134.634C245.274 131.521 244.515 128.452 243.54 125.448C243.056 123.953 242.463 122.508 241.87 121.097C241.578 120.387 241.244 119.694 240.91 119.026L240.392 118.041L240.133 117.581L239.916 117.214L245.811 113.147Z" fill="#FF928E"/>
<path d="M238.045 152.521L241.068 158.909L243.465 153.506C243.465 153.506 241.335 148.83 238.454 149.264L238.045 152.521Z" fill="#FF8F8A"/>
<path d="M243.231 159.226L245.636 155.285L243.465 153.506L241.068 158.909L243.231 159.226Z" fill="#FF8F8A"/>
<path d="M229.636 306.551C230.261 306.535 230.883 306.451 231.49 306.3C231.521 306.291 231.548 306.273 231.57 306.25C231.592 306.227 231.608 306.198 231.615 306.166C231.62 306.134 231.616 306.101 231.602 306.072C231.589 306.042 231.567 306.017 231.54 305.999C231.298 305.841 229.177 304.471 228.358 304.839C228.268 304.881 228.19 304.947 228.133 305.029C228.075 305.111 228.041 305.207 228.033 305.306C228.007 305.457 228.019 305.612 228.067 305.758C228.115 305.903 228.198 306.035 228.308 306.141C228.687 306.434 229.158 306.579 229.636 306.551ZM231.014 306.058C229.803 306.308 228.884 306.267 228.509 305.941C228.432 305.865 228.376 305.771 228.345 305.667C228.314 305.563 228.31 305.454 228.333 305.348C228.333 305.206 228.417 305.164 228.475 305.139C228.926 304.939 230.154 305.532 231.014 306.058Z" fill="#5E53B8"/>
<path d="M231.448 306.3H231.532C231.557 306.284 231.578 306.262 231.592 306.236C231.607 306.209 231.615 306.18 231.615 306.15C231.615 306.067 231.615 304.054 230.847 303.378C230.753 303.293 230.641 303.23 230.52 303.192C230.399 303.155 230.271 303.144 230.145 303.16C230.014 303.162 229.886 303.208 229.785 303.291C229.683 303.375 229.613 303.491 229.586 303.62C229.427 304.413 230.697 305.916 231.365 306.3H231.448ZM230.254 303.469C230.322 303.468 230.389 303.479 230.452 303.503C230.515 303.528 230.573 303.565 230.621 303.611C231.062 304.261 231.29 305.031 231.273 305.816C230.605 305.282 229.811 304.146 229.912 303.67C229.912 303.595 229.97 303.494 230.179 303.469H230.254Z" fill="#5E53B8"/>
<path d="M221.753 303.143C221.772 303.119 221.785 303.089 221.79 303.058C221.794 303.027 221.79 302.996 221.778 302.967C221.766 302.938 221.747 302.912 221.722 302.893C221.697 302.875 221.667 302.863 221.636 302.859C221.294 302.859 218.296 302.717 217.611 303.452V303.502C217.554 303.574 217.518 303.66 217.504 303.751C217.491 303.842 217.502 303.935 217.536 304.02C217.58 304.163 217.659 304.294 217.765 304.4C217.872 304.506 218.002 304.585 218.145 304.63C219.114 304.93 220.826 303.836 221.761 303.16L221.753 303.143ZM217.861 303.669C218.237 303.268 219.891 303.16 221.127 303.177C219.832 304.062 218.755 304.479 218.212 304.312C218.117 304.284 218.031 304.232 217.961 304.162C217.892 304.092 217.84 304.006 217.811 303.911C217.794 303.879 217.786 303.843 217.786 303.807C217.786 303.771 217.794 303.735 217.811 303.703L217.861 303.669Z" fill="#5E53B8"/>
<path d="M221.753 303.143C221.765 303.117 221.772 303.089 221.772 303.06C221.772 303.031 221.765 303.002 221.753 302.976C221.711 302.91 220.776 301.306 219.673 300.972C219.515 300.926 219.349 300.912 219.185 300.932C219.022 300.952 218.864 301.006 218.721 301.089C218.321 301.323 218.296 301.599 218.346 301.774C218.563 302.55 220.692 303.235 221.611 303.227C221.64 303.226 221.668 303.218 221.693 303.204C221.718 303.189 221.738 303.168 221.753 303.143ZM218.755 301.473C218.802 301.427 218.855 301.388 218.914 301.356C219.017 301.291 219.133 301.248 219.254 301.232C219.375 301.217 219.498 301.228 219.615 301.264C220.341 301.457 221.018 302.392 221.327 302.851C220.333 302.743 218.822 302.133 218.696 301.665C218.686 301.63 218.686 301.592 218.696 301.556C218.706 301.521 218.727 301.489 218.755 301.465V301.473Z" fill="#5E53B8"/>
<path d="M230.947 88.6875C230.112 92.8629 228.308 101.89 231.206 104.663C231.206 104.663 230.07 108.838 222.362 108.838C213.878 108.838 218.312 104.663 218.312 104.663C222.939 103.56 222.822 100.12 222.012 96.8963L230.947 88.6875Z" fill="#FF8F8A"/>
<path d="M216.818 78.9002C216.865 78.9078 216.913 78.9078 216.96 78.9002C216.999 78.8806 217.035 78.8534 217.064 78.8201C217.093 78.7868 217.115 78.748 217.129 78.7061C217.143 78.6641 217.149 78.6198 217.145 78.5757C217.142 78.5316 217.13 78.4886 217.11 78.4492C216.885 77.9729 216.55 77.5574 216.131 77.2377C215.713 76.918 215.224 76.7034 214.705 76.612C214.618 76.6048 214.532 76.631 214.463 76.6853C214.395 76.7396 214.35 76.8179 214.337 76.9043C214.328 76.9917 214.353 77.0793 214.408 77.148C214.463 77.2168 214.543 77.2613 214.63 77.2718C215.039 77.3504 215.424 77.5254 215.752 77.7825C216.08 78.0396 216.343 78.3712 216.517 78.7498C216.549 78.7992 216.594 78.8392 216.647 78.8656C216.7 78.892 216.759 78.9039 216.818 78.9002Z" fill="#37306B"/>
<path d="M214.287 82.5659C213.63 83.7849 212.81 84.9087 211.849 85.9062C212.109 86.1442 212.418 86.3227 212.754 86.4294C213.09 86.5361 213.445 86.5685 213.795 86.5242L214.287 82.5659Z" fill="#5E53B8"/>
<path d="M214.914 81.6222C214.847 82.1817 214.488 82.5993 214.129 82.5575C213.77 82.5158 213.519 82.0231 213.586 81.4636C213.653 80.904 214.012 80.4865 214.421 80.5283C214.83 80.57 214.972 81.0627 214.914 81.6222Z" fill="#37306B"/>
<path d="M214.53 80.5783L213.244 80.0605C213.244 80.0605 213.786 81.1628 214.53 80.5783Z" fill="#37306B"/>
<path d="M229.126 301.557L222.312 303.143L218.17 287.477L224.985 285.891L229.126 301.557Z" fill="#FF8F8A"/>
<path d="M239.582 306.134H232.592L233.135 289.941H240.133L239.582 306.134Z" fill="#FF8F8A"/>
<path d="M232.033 305.323H239.891C240.027 305.322 240.159 305.371 240.262 305.46C240.365 305.549 240.432 305.673 240.45 305.808L241.344 312.021C241.361 312.178 241.346 312.337 241.297 312.487C241.249 312.638 241.17 312.777 241.064 312.894C240.958 313.012 240.829 313.106 240.684 313.169C240.539 313.233 240.383 313.266 240.225 313.265C237.486 313.223 236.166 313.056 232.709 313.056C230.58 313.056 227.473 313.282 224.542 313.282C221.611 313.282 221.444 310.375 222.671 310.117C228.15 308.931 229.018 307.311 230.864 305.757C231.19 305.479 231.604 305.325 232.033 305.323Z" fill="#37306B"/>
<path d="M221.711 302.099L228.851 298.817C228.972 298.76 229.111 298.748 229.24 298.785C229.369 298.822 229.48 298.905 229.553 299.018L232.968 304.295C233.048 304.431 233.098 304.582 233.116 304.739C233.134 304.895 233.119 305.054 233.071 305.204C233.024 305.354 232.946 305.493 232.842 305.611C232.738 305.73 232.61 305.825 232.467 305.89C229.962 306.993 228.692 307.402 225.553 308.847C223.623 309.732 219.707 311.769 217.051 313.022C214.396 314.275 213.026 311.678 214.028 310.926C218.513 307.586 219.799 305.189 220.826 303.009C221 302.608 221.315 302.284 221.711 302.099Z" fill="#37306B"/>
<path opacity="0.2" d="M218.17 287.477L220.392 295.878L227.122 293.966L224.993 285.891L218.17 287.477Z" fill="#16132A"/>
<path opacity="0.2" d="M240.133 289.941H233.135L232.859 298.292H239.857L240.133 289.941Z" fill="#16132A"/>
<path d="M243.306 106.249C246.212 106.892 249.319 117.339 249.319 117.339L241.102 126.082C241.102 126.082 234.279 116.261 235.674 112.654C237.085 108.888 239.841 105.497 243.306 106.249Z" fill="#37306B"/>
<path opacity="0.4" d="M238.663 112.904C237.194 111.56 236.2 111.961 235.523 113.029C234.855 116.136 238.814 122.641 240.409 125.105C241.143 122.165 241.987 115.969 238.663 112.904Z" fill="#16132A"/>
<path d="M206.488 106.458C206.488 106.458 203.147 107.627 209.828 148.671H238.221C237.745 137.114 237.728 129.982 243.231 106.249C239.253 105.428 235.22 104.898 231.164 104.663C226.872 104.353 222.563 104.353 218.271 104.663C212.767 105.172 206.488 106.458 206.488 106.458Z" fill="#37306B"/>
<path opacity="0.4" d="M206.229 122.207C206.413 124.203 206.655 126.449 206.972 128.988C209.302 126.892 211.206 120.929 210.504 117.456C208.84 118.807 207.397 120.41 206.229 122.207Z" fill="#16132A"/>
<path d="M209.269 115.969C207.736 119.825 206.011 123.601 204.099 127.284C202.21 131.1 199.973 134.734 197.419 138.14L196.884 138.8L196.617 139.125C196.525 139.234 196.45 139.334 196.308 139.485C195.806 140.033 195.246 140.526 194.638 140.954C193.564 141.698 192.388 142.283 191.147 142.691C188.983 143.382 186.737 143.781 184.467 143.877C180.216 144.046 175.961 143.667 171.807 142.75L172.266 139.242C174.187 139.242 176.2 139.242 178.112 139.084C180.033 138.989 181.946 138.777 183.84 138.449C185.6 138.174 187.321 137.692 188.968 137.013C189.633 136.729 190.254 136.352 190.813 135.894C191.027 135.715 191.22 135.513 191.39 135.292C191.39 135.292 191.49 135.159 191.557 135.067L191.749 134.791L192.141 134.24C194.237 131.004 196.103 127.624 197.728 124.127C199.398 120.578 201.068 116.896 202.596 113.271L209.269 115.969Z" fill="#FF928E"/>
<path d="M206.488 106.458C203.005 107.293 198.73 116.846 198.73 116.846L205.945 127.452C205.945 127.452 215.557 115.352 214.412 111.66C213.243 107.811 210.738 105.422 206.488 106.458Z" fill="#37306B"/>
<path d="M174.27 139.777L168.25 136.997L167.648 142.984C167.648 142.984 172.659 144.462 175.164 142.984L174.27 139.777Z" fill="#FF8F8A"/>
<path d="M164.65 136.395L164.074 140.955L167.648 142.984L168.249 136.996L164.65 136.395Z" fill="#FF8F8A"/>
<path d="M233.97 82.032C232.692 88.8546 232.3 91.7774 228.392 94.8755C222.546 99.5352 214.404 96.4789 213.619 89.4141C212.901 83.0508 215.106 72.9631 222.179 71.0424C223.737 70.6125 225.379 70.589 226.949 70.974C228.518 71.359 229.963 72.1397 231.146 73.2417C232.328 74.3437 233.209 75.7302 233.703 77.269C234.197 78.8078 234.289 80.4476 233.97 82.032Z" fill="#FF8F8A"/>
<path d="M218.98 83.468C218.588 86.9502 218.438 95.9941 226.087 96.278C235.448 96.6204 238.254 88.6204 237.419 85.422C242.296 81.4554 242.997 74.6328 237.519 69.4136C232.041 64.1944 219.982 67.1088 216.642 72.1944C212.408 78.4992 218.98 83.468 218.98 83.468Z" fill="#37306B"/>
<path d="M228.358 71.4429C227.907 67.7686 228.258 65.2383 231.699 65.2383C235.139 65.2383 239.832 66.4825 241.553 69.9982C243.273 73.5139 243.415 79.0171 238.613 78.4576C233.811 77.8981 228.901 75.8354 228.358 71.4429Z" fill="#5E53B8"/>
<path d="M233.686 70.5578C232.851 66.182 236.768 53.8562 246.279 53.0212C250.688 52.6454 252.726 57.3886 250.455 58.1736C254.63 58.1235 257.302 63.6433 253.411 64.4701C256.484 66.4409 255.724 70.4826 251.34 72.4701C248.075 73.9733 234.814 76.6204 233.686 70.5578Z" fill="#37306B"/>
<path d="M243.849 75.259C240.784 75.259 237.586 74.808 235.598 73.4802C235.043 73.1453 234.575 72.6827 234.234 72.1308C233.892 71.579 233.687 70.9538 233.636 70.307C233.633 70.252 233.652 70.1982 233.688 70.1564C233.723 70.1145 233.773 70.0878 233.828 70.0815C233.856 70.078 233.884 70.0803 233.91 70.0883C233.937 70.0962 233.962 70.1097 233.983 70.1277C234.004 70.1458 234.022 70.1681 234.034 70.1932C234.046 70.2183 234.053 70.2457 234.054 70.2735C234.104 70.8572 234.291 71.4208 234.6 71.9185C234.909 72.4162 235.331 72.834 235.832 73.1379C239.615 75.6431 248.358 74.808 251.081 73.9729C253.436 73.2047 255.031 71.7099 255.348 69.9896C255.447 69.3584 255.369 68.712 255.123 68.1224C254.877 67.5327 254.472 67.0228 253.953 66.6493C253.933 66.6306 253.917 66.6079 253.907 66.5828C253.896 66.5577 253.89 66.5306 253.89 66.5032C253.89 66.4758 253.896 66.4487 253.907 66.4236C253.917 66.3984 253.933 66.3758 253.953 66.357C253.992 66.3188 254.045 66.2974 254.1 66.2974C254.154 66.2974 254.207 66.3188 254.246 66.357C254.829 66.7824 255.282 67.3614 255.555 68.0294C255.827 68.6974 255.909 69.4282 255.791 70.1399C255.448 72.0189 253.753 73.6222 251.248 74.4406C248.83 75.0499 246.341 75.3253 243.849 75.259Z" fill="#37306B"/>
<path d="M216.851 82.5661C216.073 83.6569 215.753 85.0084 215.957 86.3323C216.233 88.086 217.937 88.2029 219.173 87.0839C220.408 85.9649 221.486 83.944 220.575 82.491C220.373 82.1771 220.094 81.9202 219.764 81.7448C219.435 81.5693 219.066 81.4812 218.692 81.4887C218.319 81.4963 217.954 81.5992 217.631 81.7878C217.309 81.9764 217.04 82.2443 216.851 82.5661Z" fill="#FF8F8A"/>
<path d="M217.327 148.671C217.327 148.671 221.385 196.679 225.602 223.736C229.001 245.59 231.69 296.672 231.69 296.672H241.227C241.227 296.672 244.617 247.118 242.897 225.506C238.53 170.809 248.275 166.349 238.246 148.679L217.327 148.671Z" fill="#5E53B8"/>
<path opacity="0.4" d="M229.335 166.817C225.556 170.784 222.506 175.386 220.325 180.412C221.436 191.202 222.755 203.177 224.158 213.665C229.915 198.762 231.699 182.618 229.335 166.817Z" fill="#16132A"/>
<path d="M210.655 148.37C210.655 148.37 201.845 200.805 200.458 224.437C203.916 246.291 218.062 292.488 218.062 292.488L226.738 289.339C226.738 289.339 221.937 238.968 216.717 225.181C228.467 185.623 237.102 175.619 234.588 148.671C228.567 148.671 210.655 148.37 210.655 148.37Z" fill="#5E53B8"/>
<path d="M216.901 294.793L228.626 291.611L227.957 286.935L215.406 290.333L216.901 294.793Z" fill="#37306B"/>
<path d="M230.379 296.864H242.53L243.164 292.605L230.312 292.17L230.379 296.864Z" fill="#37306B"/>
<path d="M238.663 147.001L239.941 149.548C240.041 149.748 239.807 149.949 239.482 149.949H209.686C209.435 149.949 209.218 149.824 209.202 149.657L208.943 147.151C208.943 146.976 209.152 146.826 209.427 146.826H238.196C238.282 146.814 238.37 146.824 238.451 146.854C238.533 146.885 238.606 146.935 238.663 147.001Z" fill="#5E53B8"/>
<path opacity="0.5" d="M238.663 147.001L239.941 149.548C240.041 149.748 239.807 149.949 239.482 149.949H209.686C209.435 149.949 209.218 149.824 209.202 149.657L208.943 147.151C208.943 146.976 209.152 146.826 209.427 146.826H238.196C238.282 146.814 238.37 146.824 238.451 146.854C238.533 146.885 238.606 146.935 238.663 147.001Z" fill="#16132A"/>
<path d="M234.797 150.207H235.565C235.724 150.207 235.841 150.124 235.832 150.032L235.465 146.691C235.465 146.591 235.323 146.516 235.173 146.516H234.396C234.246 146.516 234.129 146.591 234.137 146.691L234.496 150.032C234.513 150.14 234.646 150.207 234.797 150.207Z" fill="#5E53B8"/>
<path d="M224.459 125.89C224.366 125.889 224.277 125.858 224.204 125.802C224.13 125.747 224.076 125.669 224.049 125.581C221.327 115.51 215.699 107.209 212.968 105.957C212.756 105.827 212.501 105.785 212.258 105.84C212.208 105.866 212.152 105.882 212.095 105.887C212.039 105.891 211.982 105.884 211.928 105.865C211.874 105.847 211.824 105.817 211.782 105.779C211.74 105.741 211.706 105.694 211.683 105.642C211.659 105.59 211.647 105.534 211.646 105.477C211.645 105.42 211.656 105.363 211.678 105.311C211.7 105.258 211.732 105.21 211.773 105.171C211.814 105.131 211.862 105.1 211.916 105.08C212.144 104.996 212.388 104.963 212.63 104.983C212.872 105.004 213.107 105.076 213.319 105.197C216.208 106.566 221.92 114.75 224.776 125.047C226.822 125.047 229.978 124.771 230.747 124.704C231.699 123.569 238.697 114.817 236.083 105.239C236.068 105.186 236.063 105.131 236.07 105.077C236.077 105.022 236.094 104.97 236.121 104.922C236.148 104.875 236.185 104.833 236.229 104.8C236.272 104.767 236.322 104.743 236.375 104.729C236.481 104.701 236.595 104.716 236.69 104.771C236.785 104.825 236.855 104.916 236.885 105.022C239.799 115.677 231.348 125.289 231.256 125.381C231.223 125.421 231.183 125.455 231.137 125.479C231.091 125.504 231.041 125.518 230.989 125.523C230.947 125.523 226.78 125.89 224.459 125.89Z" fill="#5E53B8"/>
<path d="M238.296 131.786C233.745 123.259 231.882 122.658 231.072 119.919C231.686 118.387 232.562 116.974 233.661 115.744C233.11 115.585 231.924 115.351 231.156 115.209C231.239 114.833 231.331 114.466 231.415 114.107C230.579 114.013 229.733 114.053 228.91 114.224V113.389C227.849 113.158 226.759 113.088 225.678 113.18C225.772 113.575 225.864 113.976 225.953 114.383C225.118 114.541 223.849 114.8 223.239 114.975C224.424 116.317 225.294 117.906 225.786 119.627C223.331 123.844 213.795 150.951 229.31 153.03C244.826 155.109 242.839 140.32 238.296 131.786Z" fill="#5E53B8"/>
<path opacity="0.4" d="M238.296 131.786C233.745 123.259 231.882 122.658 231.072 119.919C231.686 118.387 232.562 116.974 233.661 115.744C233.11 115.585 231.924 115.351 231.156 115.209C231.239 114.833 231.331 114.466 231.415 114.107C230.579 114.013 229.733 114.053 228.91 114.224V113.389C227.849 113.158 226.759 113.088 225.678 113.18C225.772 113.575 225.864 113.976 225.953 114.383C225.118 114.541 223.849 114.8 223.239 114.975C224.424 116.317 225.294 117.906 225.786 119.627C223.331 123.844 213.795 150.951 229.31 153.03C244.826 155.109 242.839 140.32 238.296 131.786Z" fill="#FEFFE8"/>
<path d="M225.152 118.817C225.055 119.247 225.013 119.687 225.026 120.128C225.026 120.437 225.861 120.646 226.788 120.737C227.715 120.829 231.607 120.98 231.481 120.545C231.356 120.111 231.673 119.518 231.69 119.151C231.707 118.783 230.145 118.767 228.834 118.817C227.523 118.867 225.41 118.349 225.152 118.817Z" fill="#5E53B8"/>
<path d="M216.124 150.207H216.893C217.043 150.207 217.16 150.124 217.152 150.032L216.793 146.691C216.793 146.591 216.651 146.516 216.492 146.516H215.749C215.598 146.516 215.481 146.591 215.49 146.691L215.849 150.032C215.832 150.14 215.966 150.207 216.124 150.207Z" fill="#5E53B8"/>
</svg>
