<svg width="392" height="392" viewBox="0 0 392 392" fill="none" xmlns="http://www.w3.org/2000/svg">
<path d="M322.522 100.956L320.86 98.2507C306.858 75.4677 281.542 61.732 254.855 63.4019C251.429 63.6161 248.023 64.0772 244.663 64.7818C220.398 69.917 199.285 88.0352 190.567 111.242C185.424 124.891 183.989 140.61 174.22 151.437C161.504 165.549 139.92 165.98 120.948 165.4C101.975 164.82 80.3757 165.314 67.7219 179.465C59.733 188.332 57.232 200.939 57.8514 212.817C59.5448 244.247 81.7242 272.354 109.932 286.324C138.141 300.295 171.351 301.542 202.225 295.395C245.47 286.771 286.599 263.149 311.326 226.631C336.054 190.112 342.302 140.336 322.522 100.956Z" fill="#FEFFE8"/>
<path d="M336.218 329.068C330.244 325.603 327.046 317.543 326.81 310.942C326.575 304.341 329.319 297.465 334.729 293.694C340.429 289.711 348.543 289.774 354.399 293.53C360.256 297.285 363.682 304.357 363.415 311.303C363.215 314.784 362.246 318.177 360.577 321.238C358.908 324.299 356.582 326.952 353.764 329.006" fill="#6B5FD2"/>
<path d="M345.744 329.703C345.657 329.207 345.62 328.702 345.634 328.198C345.634 327.116 345.564 325.736 345.517 324.082C345.43 320.609 345.289 315.811 345.062 310.519C344.835 305.227 344.537 300.429 344.325 296.956C344.223 295.309 344.145 293.93 344.074 292.848C344.025 292.344 344.025 291.838 344.074 291.334C344.194 291.826 344.272 292.327 344.309 292.832C344.427 293.796 344.576 295.184 344.733 296.932C345.054 300.39 345.399 305.188 345.634 310.488C345.869 315.787 345.94 320.601 345.924 324.074C345.924 325.815 345.924 327.21 345.87 328.198C345.874 328.703 345.832 329.207 345.744 329.703Z" fill="#FEFFE8"/>
<path d="M328.574 309.453C328.574 309.61 327.61 309.657 326.45 309.555C325.289 309.453 324.349 309.257 324.364 309.108C324.38 308.959 325.329 308.904 326.489 308.998C327.649 309.092 328.59 309.296 328.574 309.453Z" fill="#27224A"/>
<path d="M328.904 303.534C328.841 303.675 328.018 303.447 327.069 303.024C326.12 302.601 325.391 302.146 325.454 302.005C325.517 301.864 326.34 302.091 327.296 302.514C328.253 302.938 328.966 303.408 328.904 303.534Z" fill="#27224A"/>
<path d="M331.946 299.143C331.867 299.268 330.942 298.829 329.986 298.037C329.029 297.246 328.418 296.415 328.527 296.313C328.637 296.211 329.405 296.838 330.338 297.606C331.271 298.375 332.032 299.01 331.946 299.143Z" fill="#27224A"/>
<path d="M335.011 294.996C334.87 295.058 334.423 294.368 334.023 293.428C333.623 292.487 333.404 291.719 333.545 291.656C333.686 291.593 334.133 292.283 334.533 293.224C334.933 294.165 335.152 294.933 335.011 294.996Z" fill="#27224A"/>
<path d="M339.817 292.056C339.676 292.118 339.198 291.381 338.884 290.362C338.57 289.343 338.539 288.457 338.688 288.434C338.837 288.41 339.111 289.218 339.417 290.19C339.723 291.162 339.958 291.985 339.817 292.056Z" fill="#27224A"/>
<path d="M347.837 288.739C347.978 288.786 347.892 289.421 347.633 290.143C347.375 290.864 347.053 291.413 346.912 291.358C346.771 291.303 346.849 290.683 347.108 289.954C347.367 289.225 347.688 288.684 347.837 288.739Z" fill="#27224A"/>
<path d="M353.78 291.287C353.89 291.405 353.506 291.93 352.933 292.463C352.361 292.997 351.804 293.334 351.702 293.247C351.601 293.161 351.977 292.612 352.549 292.079C353.121 291.546 353.678 291.178 353.78 291.287Z" fill="#27224A"/>
<path d="M359.017 294.674C359.103 294.8 358.641 295.262 357.982 295.709C357.324 296.156 356.712 296.423 356.626 296.289C356.54 296.156 357.002 295.693 357.669 295.247C358.335 294.8 358.931 294.541 359.017 294.674Z" fill="#27224A"/>
<path d="M362.741 299.715C362.796 299.856 362.067 300.303 361.103 300.719C360.138 301.134 359.299 301.346 359.245 301.205C359.19 301.064 359.911 300.609 360.883 300.201C361.855 299.794 362.678 299.574 362.741 299.715Z" fill="#27224A"/>
<path d="M364.199 305.211C364.199 305.368 363.478 305.58 362.537 305.697C361.596 305.815 360.82 305.783 360.797 305.634C360.773 305.485 361.526 305.258 362.467 305.14C363.408 305.023 364.184 305.054 364.199 305.211Z" fill="#27224A"/>
<path d="M364.96 311.977C364.905 312.118 364.105 311.914 363.188 311.514C362.271 311.115 361.573 310.676 361.62 310.534C361.667 310.393 362.475 310.597 363.4 310.997C364.325 311.397 365.023 311.836 364.96 311.977Z" fill="#27224A"/>
<path d="M364.293 317.787C364.246 317.928 363.235 317.693 362.184 317.003C361.134 316.313 360.515 315.49 360.616 315.388C360.718 315.286 361.495 315.89 362.49 316.532C363.486 317.175 364.348 317.638 364.293 317.787Z" fill="#27224A"/>
<path d="M361.267 323.078C361.173 323.196 360.374 322.726 359.605 321.895C358.837 321.064 358.429 320.24 358.555 320.154C358.68 320.068 359.284 320.726 360.021 321.518C360.758 322.31 361.369 322.953 361.267 323.078Z" fill="#27224A"/>
<path d="M332.549 323.698C332.628 323.831 331.765 324.411 330.676 324.992C329.586 325.572 328.614 325.925 328.543 325.776C328.473 325.627 329.327 325.062 330.417 324.482C331.507 323.902 332.479 323.557 332.549 323.698Z" fill="#27224A"/>
<path d="M329.931 318.916C329.993 319.057 329.319 319.496 328.425 319.904C327.532 320.311 326.756 320.523 326.693 320.382C326.63 320.241 327.296 319.802 328.198 319.394C329.1 318.986 329.868 318.775 329.931 318.916Z" fill="#27224A"/>
<path d="M328.002 314.682C328.002 314.831 327.218 315.074 326.152 315.223C325.086 315.372 324.239 315.372 324.223 315.223C324.208 315.074 325.007 314.823 326.074 314.674C327.14 314.525 327.979 314.525 328.002 314.682Z" fill="#27224A"/>
<path d="M334.329 312.345C334.376 312.487 333.545 312.863 332.487 312.988C331.428 313.114 330.534 312.918 330.542 312.769C330.55 312.62 331.397 312.549 332.424 312.432C333.451 312.314 334.282 312.189 334.329 312.345Z" fill="#27224A"/>
<path d="M339.582 307.117C339.629 307.258 338.978 307.587 338.116 307.673C337.253 307.759 336.548 307.563 336.548 307.414C336.548 307.265 337.23 307.195 338.037 307.117C338.845 307.038 339.535 306.968 339.582 307.117Z" fill="#27224A"/>
<path d="M340.585 302.93C340.53 303.071 339.841 302.969 339.017 302.687C338.194 302.405 337.598 302.06 337.645 301.903C337.692 301.746 338.39 301.864 339.213 302.138C340.037 302.412 340.632 302.781 340.585 302.93Z" fill="#27224A"/>
<path d="M342.514 298.704C342.404 298.806 341.926 298.493 341.581 297.92C341.236 297.348 341.205 296.76 341.354 296.721C341.503 296.681 341.761 297.121 342.067 297.646C342.373 298.171 342.608 298.587 342.514 298.704Z" fill="#27224A"/>
<path d="M340.185 316.03C340.185 316.179 339.621 316.461 338.837 316.65C338.468 316.746 338.089 316.801 337.708 316.814L337.598 316.493C337.802 316.454 337.928 316.493 337.959 316.493C337.99 316.493 337.904 316.65 337.739 316.775L337.63 316.446C337.975 316.282 338.338 316.158 338.712 316.077C339.472 315.952 340.154 315.881 340.185 316.03Z" fill="#27224A"/>
<path d="M341.267 323.455C341.33 323.596 340.554 324.035 339.55 324.435C338.547 324.835 337.684 325.031 337.63 324.89C337.575 324.748 338.343 324.309 339.347 323.91C340.35 323.51 341.212 323.314 341.267 323.455Z" fill="#27224A"/>
<path d="M335.332 320.154C335.387 320.303 334.87 320.609 334.188 320.844C333.506 321.079 332.91 321.142 332.863 321.001C332.816 320.86 333.325 320.546 334.008 320.311C334.69 320.076 335.285 320.013 335.332 320.154Z" fill="#27224A"/>
<path d="M335.787 305.046C335.787 305.195 334.862 305.101 333.827 304.741C332.792 304.38 332.048 303.878 332.11 303.745C332.173 303.612 333.012 303.855 334.015 304.208C335.019 304.56 335.826 304.89 335.787 305.046Z" fill="#27224A"/>
<path d="M350.15 303.408C350.236 303.541 349.735 304.02 349.029 304.49C348.323 304.96 347.68 305.227 347.594 305.094C347.508 304.96 348.018 304.482 348.723 304.02C349.429 303.557 350.064 303.275 350.15 303.408Z" fill="#27224A"/>
<path d="M350.934 310.856C350.934 311.013 350.432 311.248 349.75 311.389C349.068 311.53 348.488 311.522 348.457 311.389C348.425 311.256 348.951 310.997 349.641 310.856C350.33 310.715 350.903 310.707 350.934 310.856Z" fill="#27224A"/>
<path d="M351.843 319.245C351.773 319.378 351.012 319.166 350.142 318.766C349.272 318.367 348.613 317.92 348.676 317.779C348.739 317.637 349.499 317.849 350.377 318.257C351.256 318.664 351.906 319.088 351.843 319.245Z" fill="#27224A"/>
<path d="M349.923 327.407C349.797 327.501 349.303 327.101 348.817 326.505C348.331 325.909 348.033 325.345 348.143 325.243C348.253 325.141 348.755 325.548 349.249 326.144C349.742 326.74 350.04 327.305 349.923 327.407Z" fill="#27224A"/>
<path d="M349.523 297.92C349.625 298.037 349.296 298.453 348.739 298.704C348.182 298.955 347.657 299.002 347.618 298.861C347.579 298.719 347.986 298.461 348.488 298.21C348.99 297.959 349.429 297.787 349.523 297.92Z" fill="#27224A"/>
<path d="M356.563 305.431C356.618 305.572 355.967 305.933 355.074 306.058C354.18 306.183 353.459 306.011 353.506 305.862C353.553 305.713 354.203 305.619 355.034 305.501C355.865 305.384 356.516 305.282 356.563 305.431Z" fill="#27224A"/>
<path d="M355.152 298.704C355.223 298.845 354.58 299.3 353.655 299.598C352.729 299.896 351.945 299.888 351.922 299.739C351.898 299.59 352.612 299.339 353.49 299.065C354.368 298.79 355.089 298.539 355.152 298.704Z" fill="#27224A"/>
<path d="M358.1 315.889C358.1 316.038 356.994 316.14 355.662 315.889C354.329 315.638 353.31 315.176 353.372 315.035C353.435 314.894 354.47 315.113 355.724 315.341C356.979 315.568 358.108 315.733 358.1 315.889Z" fill="#27224A"/>
<path d="M355.489 325.697C355.395 325.815 354.58 325.337 353.764 324.513C352.949 323.69 352.479 322.883 352.596 322.789C352.714 322.694 353.38 323.33 354.164 324.121C354.948 324.913 355.583 325.572 355.489 325.697Z" fill="#27224A"/>
<path d="M343.988 290.699C342.2 291.788 340.552 293.091 339.08 294.58C335.657 298.327 333.515 303.066 332.965 308.112C332.706 310.878 332.83 313.667 333.333 316.399C333.735 318.642 334.258 320.861 334.901 323.047C335.442 324.913 335.936 326.41 336.265 327.453C336.47 327.982 336.628 328.527 336.736 329.084C336.468 328.581 336.242 328.056 336.062 327.516C335.67 326.497 335.113 325.015 334.494 323.149C333.797 320.962 333.237 318.734 332.816 316.477C332.28 313.696 332.145 310.853 332.416 308.033C332.976 302.88 335.219 298.056 338.798 294.306C339.886 293.194 341.117 292.232 342.459 291.444C342.929 291.154 343.329 290.997 343.58 290.864C343.707 290.788 343.844 290.733 343.988 290.699Z" fill="#FEFFE8"/>
<path d="M351.624 329.429C352.564 327.468 353.403 325.461 354.141 323.416C355.826 318.444 356.341 313.15 355.646 307.947C355.268 305.098 354.476 302.319 353.294 299.7C352.287 297.585 350.909 295.668 349.225 294.039C348.04 292.993 346.696 292.143 345.242 291.522C344.207 291.091 343.58 290.989 343.596 290.942C343.612 290.895 343.753 290.942 344.051 290.942C344.482 291.025 344.907 291.14 345.321 291.287C346.84 291.843 348.25 292.663 349.484 293.71C351.256 295.337 352.706 297.284 353.757 299.449C355.004 302.103 355.84 304.931 356.234 307.837C356.95 313.124 356.372 318.505 354.548 323.517C354.227 324.49 353.819 325.313 353.521 326.065C353.223 326.818 352.863 327.414 352.588 327.908C352.309 328.44 351.986 328.949 351.624 329.429Z" fill="#FEFFE8"/>
<path d="M329.931 328.104H360.797L360.993 334.282H329.931V328.104Z" fill="#27224A"/>
<path d="M332.557 331.193L334.329 350.056H356.892L358.704 331.397L332.557 331.193Z" fill="#27224A"/>
<path d="M360.993 334.36C360.993 334.509 354.039 334.635 345.462 334.635C336.885 334.635 329.939 334.509 329.939 334.36C329.939 334.211 336.885 334.078 345.462 334.078C354.039 334.078 360.993 334.204 360.993 334.36Z" fill="#FEFFE8"/>
<path d="M357.849 340.099C357.693 340.526 357.471 340.925 357.19 341.283C356.496 342.306 355.695 343.253 354.799 344.106L354.658 344.247L354.517 344.098C352.663 342.152 350.638 340.378 348.465 338.798H348.81C347.947 339.582 347.046 340.366 346.128 341.15L342.953 343.91L342.781 344.058L342.6 343.91L337.449 339.582H337.747C336.681 340.875 335.787 341.934 335.082 342.835C334.773 343.253 334.421 343.637 334.031 343.98C334.276 343.522 334.565 343.089 334.894 342.686L337.418 339.315L337.543 339.143L337.716 339.284L342.945 343.525H342.608L345.744 340.75C346.661 339.966 347.563 339.182 348.433 338.398L348.598 338.249L348.77 338.382C350.962 339.998 352.98 341.837 354.791 343.87H354.509C355.725 342.708 356.842 341.446 357.849 340.099Z" fill="#FEFFE8"/>
<path d="M355.513 350.135C355.513 350.252 284.09 350.338 196.008 350.338C107.925 350.338 36.4873 350.252 36.4873 350.135C36.4873 350.017 107.894 349.931 196.008 349.931C284.122 349.931 355.513 350.025 355.513 350.135Z" fill="#27224A"/>
<path d="M174.612 323.22C174.612 323.22 156.745 326.356 153.915 325.681C151.085 325.007 141.418 324.466 140.007 325.783C138.595 327.101 127.745 379.676 131.516 378.962C135.287 378.249 155.232 349.484 155.232 349.484C156.181 349.303 180.226 344.999 180.226 344.999L174.612 323.22Z" fill="#FEFFE8"/>
<path d="M302.24 290.08C302.24 290.08 281.072 284.145 263.918 290.786C246.764 297.426 240.688 293.655 240.688 293.655L198.038 316.195L202.272 330.48L260.946 307.109L302.24 290.08Z" fill="#27224A"/>
<path d="M194.071 330.331L277.622 289.445C277.622 289.445 296.846 288.042 302.24 290.041C307.634 292.04 314.784 305.964 314.784 312.706C314.784 319.449 316.579 319.496 312.534 326.881C308.488 334.266 279.747 349.092 279.747 349.092L238.869 354.07L207.109 346.324L194.071 330.331Z" fill="#27224A"/>
<path d="M278.877 289.367C278.815 289.401 278.749 289.427 278.681 289.445L278.1 289.641L275.858 290.339L274.235 290.833C273.655 291.037 273.028 291.287 272.346 291.538C270.997 292.064 269.437 292.589 267.783 293.365L265.172 294.525C264.271 294.941 263.353 295.427 262.397 295.905C260.46 296.83 258.477 297.983 256.376 299.143C252.213 301.566 247.752 304.404 243.103 307.493C238.454 310.582 234.087 313.569 230.041 316.203C228.011 317.504 226.082 318.751 224.24 319.849C223.314 320.405 222.444 320.962 221.574 321.417L219.081 322.828C215.657 324.781 212.114 326.517 208.473 328.026L208.654 327.916C208.803 327.845 208.983 327.759 209.203 327.642L211.311 326.615L212.879 325.885C213.436 325.603 214.024 325.282 214.667 324.945C215.937 324.255 217.419 323.518 218.979 322.593L221.456 321.158C222.319 320.656 223.189 320.099 224.099 319.543C225.933 318.43 227.846 317.191 229.877 315.866C233.906 313.216 238.289 310.221 242.914 307.124C247.54 304.027 252.04 301.205 256.242 298.79C258.367 297.638 260.351 296.493 262.303 295.576C263.267 295.106 264.184 294.627 265.094 294.212L267.728 293.075C269.39 292.291 270.966 291.805 272.33 291.303C273.012 291.06 273.639 290.817 274.235 290.629L275.866 290.166L278.132 289.531L278.728 289.382L278.877 289.367Z" fill="#FEFFE8"/>
<path d="M206.678 330.73C206.678 330.73 224.757 333.082 227.58 332.4C230.402 331.718 240.076 331.193 241.496 332.502C242.915 333.812 253.757 386.394 249.986 385.689C246.215 384.983 226.247 356.21 226.247 356.21C225.298 356.03 201.261 351.718 201.261 351.718L206.678 330.73Z" fill="#FEFFE8"/>
<path d="M200.579 310.762C200.579 310.762 111.712 291.687 100.932 293.82C90.1521 295.952 76.9182 304.976 75.1228 317.12C73.3275 329.264 73.8449 337.724 87.3219 344.913C100.799 352.102 206.976 352.753 206.976 352.753L210.034 330.017L193.217 324.153L202.531 327.932L200.579 310.762Z" fill="#27224A"/>
<path d="M206.466 350.134C206.466 350.134 206.466 350.017 206.513 349.782C206.56 349.546 206.607 349.178 206.678 348.731C206.835 347.79 207.054 346.442 207.344 344.717C207.948 341.213 208.818 336.179 209.885 329.962L210.018 330.135C203.973 329.46 197.184 326.999 189.885 323.949C182.586 320.899 174.714 317.214 166.302 313.757C162.146 312.006 157.898 310.48 153.578 309.186C149.583 307.897 145.404 307.27 141.206 307.328C137.411 307.499 133.645 308.072 129.971 309.037C126.506 309.884 123.315 310.84 120.375 311.632C115.766 313.026 111.018 313.912 106.216 314.274H103.951C103.292 314.274 102.735 314.204 102.288 314.18L101.277 314.102L100.932 314.063H101.277L102.296 314.102C102.743 314.102 103.292 314.18 103.951 314.149L106.208 314.094C110.996 313.67 115.726 312.745 120.32 311.334C123.253 310.55 126.443 309.555 129.917 308.684C133.612 307.701 137.402 307.112 141.222 306.928C145.275 306.717 149.501 307.555 153.711 308.763C158.048 310.057 162.311 311.586 166.482 313.341C174.91 316.814 182.758 320.523 190.057 323.573C197.356 326.622 204.091 329.115 210.073 329.805H210.23V329.954C209.108 336.164 208.191 341.189 207.556 344.694C207.235 346.41 206.984 347.759 206.811 348.692C206.725 349.131 206.655 349.476 206.607 349.735C206.569 349.871 206.522 350.004 206.466 350.134Z" fill="#FEFFE8"/>
<path d="M116.659 311.789C116.612 311.852 115.789 311.217 114.307 310.401C112.42 309.346 110.396 308.555 108.294 308.049C106.19 307.543 104.027 307.332 101.865 307.422C100.203 307.493 99.1838 307.673 99.1681 307.603C99.3945 307.509 99.6314 307.443 99.8737 307.407C100.526 307.273 101.186 307.182 101.849 307.132C106.268 306.773 110.686 307.83 114.464 310.151C115.032 310.495 115.577 310.878 116.095 311.295C116.302 311.436 116.492 311.602 116.659 311.789Z" fill="#FEFFE8"/>
<path d="M242.036 337.559C242.036 337.559 241.84 337.653 241.464 337.739C240.935 337.857 240.398 337.931 239.857 337.959C238.058 338.067 236.255 337.836 234.541 337.277C232.823 336.721 231.227 335.843 229.837 334.69C229.419 334.345 229.028 333.967 228.669 333.561C228.525 333.421 228.404 333.259 228.309 333.082C228.363 333.028 228.944 333.647 230.018 334.462C232.838 336.595 236.29 337.723 239.826 337.669C241.19 337.645 242.021 337.489 242.036 337.559Z" fill="#27224A"/>
<path d="M248.285 364.78C248.285 364.85 247.501 364.78 246.333 364.897C243.209 365.172 240.266 366.48 237.968 368.613C237.089 369.397 236.627 370.017 236.572 369.978C236.878 369.391 237.281 368.861 237.764 368.41C238.886 367.262 240.216 366.339 241.684 365.689C243.15 365.043 244.724 364.679 246.325 364.615C246.983 364.559 247.646 364.614 248.285 364.78Z" fill="#27224A"/>
<path d="M221.943 163.307C222.86 164.538 224.671 164.695 226.16 164.311C227.65 163.927 228.999 163.127 230.496 162.79C232.241 162.451 234.05 162.743 235.6 163.615C237.15 164.487 238.339 165.881 238.955 167.549C239.441 168.983 239.465 170.528 239.818 172.002C240.445 174.644 242.099 176.902 243.361 179.301C244.624 181.7 245.533 184.569 244.553 187.141C243.456 189.979 240.202 191.531 237.16 191.469C234.118 191.406 231.264 190.05 228.638 188.521C226.012 186.992 223.464 185.251 220.571 184.295C217.678 183.339 214.299 183.276 211.798 184.993C211.053 180.175 210.751 175.299 210.896 170.426" fill="#27224A"/>
<path d="M239.567 160.72C239.567 160.72 239.434 160.775 239.222 160.916C238.923 161.131 238.709 161.445 238.618 161.802C238.539 162.077 238.536 162.369 238.611 162.645C238.686 162.921 238.835 163.172 239.042 163.37C239.303 163.645 239.63 163.851 239.991 163.969C240.353 164.086 240.737 164.112 241.111 164.044C241.567 163.959 241.997 163.775 242.373 163.504C242.748 163.233 243.059 162.882 243.283 162.476C243.528 162.005 243.663 161.485 243.68 160.954C243.696 160.423 243.593 159.896 243.377 159.411C242.921 158.314 242.087 157.418 241.025 156.886C239.859 156.332 238.586 156.04 237.295 156.032C236.003 156.024 234.726 156.299 233.554 156.839C232.49 157.39 231.582 158.198 230.911 159.191C230.237 160.132 229.704 161.12 229.108 161.99C228.581 162.825 227.922 163.569 227.156 164.193C226.516 164.716 225.742 165.048 224.922 165.15C224.304 165.237 223.674 165.161 223.095 164.93C222.73 164.79 222.403 164.567 222.139 164.279C222.04 164.186 221.96 164.074 221.903 163.95C222.252 164.32 222.681 164.604 223.158 164.781C223.807 164.995 224.501 165.035 225.171 164.897C225.841 164.76 226.463 164.449 226.976 163.997C227.704 163.379 228.329 162.649 228.826 161.833C229.398 160.971 229.916 159.983 230.606 159.003C231.299 157.946 232.252 157.085 233.373 156.502C234.601 155.925 235.942 155.629 237.299 155.637C238.655 155.646 239.993 155.957 241.213 156.549C242.369 157.122 243.275 158.098 243.761 159.293C243.992 159.83 244.097 160.413 244.07 160.997C244.043 161.581 243.884 162.151 243.604 162.664C243.349 163.105 243 163.484 242.581 163.774C242.162 164.064 241.684 164.258 241.182 164.342C240.766 164.409 240.341 164.373 239.943 164.236C239.545 164.099 239.187 163.866 238.9 163.558C238.68 163.325 238.526 163.036 238.455 162.724C238.383 162.411 238.396 162.084 238.493 161.778C238.608 161.394 238.866 161.069 239.214 160.869C239.32 160.795 239.44 160.744 239.567 160.72Z" fill="#27224A"/>
<path d="M235.623 178.94C236.009 177.858 236.145 176.703 236.023 175.561C235.851 174.334 235.461 173.147 234.871 172.057C234.216 170.693 233.236 169.511 232.017 168.615C230.696 167.887 229.173 167.612 227.681 167.831C226.422 167.976 225.152 168.008 223.887 167.925C223.02 167.864 222.181 167.595 221.441 167.141C221.245 167.011 221.064 166.862 220.9 166.694C220.79 166.569 220.743 166.506 220.751 166.498C220.759 166.49 221.01 166.71 221.535 167C222.259 167.392 223.064 167.615 223.887 167.651C225.139 167.692 226.392 167.632 227.634 167.47C228.385 167.388 229.142 167.388 229.892 167.47C230.727 167.545 231.532 167.813 232.244 168.254C233.523 169.19 234.545 170.433 235.216 171.869C235.811 173.003 236.184 174.24 236.313 175.514C236.4 176.379 236.307 177.252 236.039 178.078C235.963 178.299 235.872 178.514 235.764 178.721C235.678 178.878 235.639 178.948 235.623 178.94Z" fill="#FEFFE8"/>
<path d="M150.959 300.711C168.717 314.313 194.369 328.065 210.034 324.529C216.039 323.173 226.576 311.468 231.782 308.183C236.988 304.898 241.409 300.123 243.503 294.329L236.047 281.456L157.043 298.837L150.959 300.711Z" fill="#6B5FD2"/>
<path d="M255.231 190.951C255.231 190.951 258.657 194.683 259.19 196.839C259.723 198.995 268.598 225.886 268.598 225.886C268.598 225.886 286.301 274.416 277.677 285.055C273.443 290.284 252.338 294.996 242.005 291.727L238.336 262.013C239.296 260.508 240.728 259.364 242.407 258.758C244.086 258.153 245.919 258.12 247.618 258.665L239.528 240.633L239.794 212.66L252.746 191.414" fill="#6B5FD2"/>
<path d="M134.127 208.034L116.816 266.63C116.816 266.63 112.112 279.441 112.112 282.561C112.112 285.682 111.493 290.997 117.114 294.125C122.735 297.253 129.917 303 137.106 299.613C144.295 296.226 151.163 294.392 150.849 288.457C150.536 282.522 148.662 270.339 148.662 270.339L156.157 234.11L134.127 208.034Z" fill="#6B5FD2"/>
<path d="M255.749 191.437C255.749 191.437 239.528 175.334 210.959 173.452L177.435 175.31C176.376 175.726 148.286 184.224 141.3 192.354C136.181 198.305 134.127 208.034 134.127 208.034L154.722 250.292L157.427 285.055L150.959 300.735L243.471 294.353L239.551 224.404L255.749 191.437Z" fill="#6B5FD2"/>
<path d="M128.019 264.514C128.019 264.584 126.969 264.71 125.346 265.298C123.243 266.036 121.312 267.194 119.67 268.7C118.048 270.229 116.759 272.076 115.883 274.126C115.209 275.694 115.005 276.76 114.934 276.744C114.925 276.479 114.957 276.215 115.028 275.96C115.168 275.286 115.365 274.625 115.616 273.984C116.431 271.849 117.724 269.929 119.396 268.37C121.067 266.812 123.073 265.656 125.26 264.992C125.916 264.79 126.587 264.641 127.267 264.545C127.514 264.495 127.768 264.484 128.019 264.514Z" fill="#27224A"/>
<path d="M127.886 264.992C126.779 264.613 125.644 264.319 124.491 264.114C123.32 264.049 122.145 264.081 120.979 264.208C122.103 263.746 123.326 263.576 124.533 263.713C125.741 263.85 126.894 264.29 127.886 264.992Z" fill="#27224A"/>
<path d="M144.17 283.447C144.083 283.671 143.961 283.881 143.809 284.067C143.443 284.618 143.037 285.142 142.594 285.635C141.142 287.25 139.42 288.6 137.506 289.625C135.588 290.647 133.509 291.331 131.359 291.648C130.71 291.743 130.055 291.793 129.399 291.797C129.16 291.821 128.919 291.805 128.686 291.75C128.686 291.679 129.705 291.656 131.312 291.358C135.529 290.588 139.4 288.518 142.382 285.439C143.519 284.239 144.107 283.4 144.17 283.447Z" fill="#27224A"/>
<g opacity="0.3">
<path d="M129.36 292.299C131.878 292.964 134.536 292.872 137.003 292.035C139.469 291.199 141.635 289.654 143.229 287.595C144.287 286.183 145.322 284.372 147.086 284.208C147.933 284.122 149.172 284.208 149.258 283.361C149.305 282.875 148.842 282.491 148.388 282.31C147.673 282.102 146.918 282.076 146.19 282.235C145.463 282.394 144.787 282.732 144.225 283.22C143.115 284.206 142.114 285.307 141.238 286.505C138.548 289.719 133.311 290.887 129.36 292.306" fill="black"/>
</g>
<path d="M152.653 245.878C152.535 245.878 151.579 239.104 150.512 230.723C149.446 222.342 148.662 215.522 148.78 215.506C148.897 215.49 149.846 222.28 150.912 230.668C151.978 239.057 152.762 245.862 152.653 245.878Z" fill="#27224A"/>
<path d="M265.447 269.437C264.455 268.14 263.33 266.949 262.091 265.886C260.718 264.771 259.237 263.797 257.669 262.977C255.905 262.036 253.891 261.135 251.758 260.217C249.84 259.221 247.753 258.591 245.604 258.359C245.127 258.333 244.648 258.36 244.177 258.438C243.73 258.508 243.291 258.665 242.852 258.775C242.055 258.954 241.284 259.23 240.555 259.598C239.536 260.202 238.729 261.106 238.242 262.185C237.866 262.969 237.725 263.393 237.685 263.377C237.646 263.361 237.685 263.259 237.764 263.04C237.854 262.724 237.966 262.414 238.101 262.115C238.551 260.966 239.363 259.994 240.414 259.347C241.155 258.947 241.946 258.647 242.766 258.453C243.208 258.307 243.658 258.184 244.114 258.085C244.611 257.995 245.115 257.961 245.619 257.983C247.809 258.201 249.937 258.831 251.891 259.841C254.016 260.766 256.039 261.676 257.811 262.648C259.394 263.491 260.882 264.503 262.248 265.666C263.164 266.455 263.99 267.344 264.71 268.316C264.969 268.661 265.133 268.951 265.251 269.139C265.329 269.229 265.395 269.329 265.447 269.437Z" fill="#27224A"/>
<path d="M268.496 263.675C267.782 263.323 267.095 262.917 266.442 262.46C264.85 261.419 263.139 260.572 261.346 259.935C259.553 259.323 257.631 259.193 255.772 259.559C255.013 259.768 254.269 260.03 253.546 260.343C253.694 260.188 253.87 260.06 254.063 259.966C254.577 259.671 255.128 259.445 255.702 259.292C257.611 258.831 259.613 258.924 261.472 259.559C263.298 260.205 265.024 261.105 266.599 262.232C267.276 262.652 267.911 263.135 268.496 263.675Z" fill="#27224A"/>
<path d="M149.195 204.71C149.003 204.034 148.856 203.345 148.756 202.648C148.09 199.328 146.953 196.12 145.377 193.123C145.014 192.518 144.692 191.889 144.413 191.241C144.894 191.764 145.303 192.35 145.628 192.982C146.496 194.456 147.221 196.01 147.792 197.623C148.362 199.237 148.779 200.901 149.038 202.594C149.178 203.29 149.231 204.001 149.195 204.71Z" fill="#27224A"/>
<path d="M248.426 193.452C248.473 193.491 247.799 194.432 246.78 196C245.464 198.043 244.273 200.164 243.212 202.351C242.165 204.547 241.257 206.807 240.492 209.116C239.904 210.888 239.598 212.002 239.536 211.986C239.54 211.72 239.582 211.456 239.661 211.202C239.771 210.692 239.951 209.955 240.218 209.054C240.905 206.702 241.783 204.41 242.844 202.202C243.907 199.992 245.144 197.871 246.544 195.859C247.085 195.075 247.54 194.487 247.877 194.079C248.03 193.845 248.214 193.634 248.426 193.452Z" fill="#27224A"/>
<path d="M234.737 299.433C234.737 299.433 234.683 299.48 234.573 299.535L234.055 299.794C233.601 300.021 232.926 300.35 232.048 300.75C230.308 301.534 227.76 302.71 224.561 304.004C218.187 306.568 209.101 309.79 198.595 310.958C193.664 311.497 188.687 311.468 183.762 310.872C179.746 310.382 175.799 309.429 172.002 308.034C169.439 307.101 166.971 305.925 164.632 304.521C163.785 304.051 163.19 303.596 162.766 303.322L162.288 302.992C162.232 302.958 162.18 302.919 162.131 302.875C162.131 302.875 162.194 302.875 162.312 302.961L162.805 303.251C163.252 303.502 163.856 303.941 164.711 304.388C167.071 305.728 169.545 306.859 172.104 307.767C175.892 309.103 179.818 310.008 183.809 310.464C188.704 311.037 193.649 311.055 198.548 310.519C208.999 309.359 218.062 306.191 224.459 303.706C227.658 302.444 230.222 301.354 231.986 300.57L234.016 299.684L234.549 299.457L234.737 299.433Z" fill="#27224A"/>
<path d="M202.311 195.749C202.086 195.921 201.838 196.061 201.574 196.165C201.282 196.324 200.978 196.46 200.665 196.572C200.261 196.746 199.847 196.895 199.426 197.019C198.329 197.36 197.203 197.599 196.063 197.733C194.66 197.874 193.247 197.874 191.845 197.733C190.445 197.567 189.066 197.26 187.729 196.815C186.641 196.44 185.59 195.962 184.593 195.388C184.207 195.173 183.833 194.937 183.472 194.683C183.199 194.5 182.937 194.301 182.688 194.087C182.46 193.92 182.25 193.731 182.06 193.523C182.115 193.452 183.04 194.228 184.75 195.138C185.756 195.665 186.805 196.105 187.886 196.455C190.501 197.302 193.262 197.609 196 197.356C197.123 197.247 198.235 197.042 199.324 196.745C201.206 196.227 202.272 195.671 202.311 195.749Z" fill="#FEFFE8"/>
<path d="M239.12 219.034C239.163 219.166 239.19 219.303 239.198 219.441C239.245 219.755 239.292 220.139 239.355 220.602C239.481 221.613 239.645 223.079 239.826 224.89C240.186 228.504 240.61 233.514 240.939 239.065C241.268 244.616 241.433 249.633 241.496 253.279C241.496 255.098 241.543 256.564 241.496 257.583C241.496 258.053 241.496 258.445 241.496 258.759C241.514 258.894 241.514 259.031 241.496 259.167C241.46 259.034 241.444 258.896 241.448 258.759C241.448 258.445 241.409 258.061 241.386 257.591C241.347 256.509 241.284 255.058 241.213 253.287C241.08 249.649 240.868 244.663 240.539 239.088C240.21 233.514 239.833 228.536 239.543 224.914C239.402 223.142 239.292 221.691 239.206 220.617L239.128 219.449C239.105 219.312 239.103 219.172 239.12 219.034Z" fill="#27224A"/>
<g opacity="0.3">
<path d="M156.87 277.881C163.582 277.756 170.685 277.732 176.47 281.174C180.171 283.385 182.97 286.842 186.537 289.257C191 292.257 196.414 293.502 201.739 292.754C206.121 292.119 210.3 290.135 214.73 290.057C218.65 289.994 222.436 291.437 226.27 292.291C232.214 293.618 238.384 293.559 244.302 292.119C242.852 289.618 239.943 288.426 237.246 287.415C211.135 277.843 183.998 271.342 156.384 268.042" fill="black"/>
</g>
<g opacity="0.3">
<path d="M125.44 264.035C124.295 264.184 122.892 264.208 122.304 263.251C122.089 262.776 122.061 262.237 122.225 261.742C122.389 261.246 122.734 260.831 123.19 260.578C124.124 260.108 125.164 259.887 126.208 259.935C124.899 258.814 125.73 256.58 127.071 255.498C128.411 254.416 130.207 253.82 131.202 252.424C131.986 251.319 132.253 249.829 133.257 248.904C134.652 247.611 136.91 247.94 138.596 247.054C140.767 245.917 141.394 243.173 141.943 240.782C143.569 234.282 146.178 228.069 149.681 222.358C151.759 237.003 154.315 252.699 154.55 267.485C154.55 268.567 152.676 269.178 152.151 270.119C151.461 271.358 150.034 271.962 148.686 272.393C145.448 273.412 141.92 273.851 138.658 272.895C135.397 271.938 132.488 269.374 131.767 266.058L131.681 265.337" fill="black"/>
</g>
<g opacity="0.3">
<path d="M257.583 262.766C260.427 264.05 262.938 265.971 264.923 268.38C266.907 270.788 268.312 273.621 269.03 276.658C269.218 277.442 269.453 278.422 270.237 278.712C270.447 278.759 270.663 278.764 270.875 278.726C271.087 278.688 271.288 278.609 271.469 278.492C271.649 278.375 271.804 278.223 271.925 278.046C272.046 277.868 272.131 277.668 272.173 277.458C272.316 276.592 272.173 275.703 271.766 274.925C270.171 271.18 267.619 267.92 264.366 265.474C261.112 263.027 257.273 261.479 253.232 260.986" fill="black"/>
</g>
<path d="M179.309 266.427H179.497L180.061 266.38L182.272 266.223L190.661 265.666L220.602 263.785L220.437 263.973C219.779 251.844 218.987 237.521 218.148 222.225C218.148 221.99 218.148 221.762 218.148 221.535L218.352 221.731C201.706 222.117 185.103 223.579 168.646 226.106L168.779 225.917C170.543 235.686 171.986 243.691 172.997 249.265C173.491 252.032 173.868 254.204 174.134 255.694C174.26 256.423 174.354 256.979 174.416 257.379C174.479 257.779 174.503 257.952 174.503 257.952C174.503 257.952 174.448 257.763 174.369 257.387L174.04 255.709C173.758 254.22 173.342 252.064 172.817 249.296C171.774 243.73 170.285 235.733 168.458 225.972V225.808H168.623C185.09 223.22 201.711 221.729 218.375 221.347H218.571V221.543C218.571 221.77 218.571 222.005 218.571 222.233C219.394 237.528 220.139 251.852 220.806 263.981V264.161H220.633L190.684 265.894L182.288 266.356L180.077 266.458H179.512L179.309 266.427Z" fill="#FEFFE8"/>
<path d="M184.483 262.256C184.282 261.835 184.119 261.397 183.997 260.947C183.715 260.1 183.33 258.853 182.876 257.317C181.966 254.244 180.83 249.955 179.787 245.165C178.744 240.375 178.015 235.984 177.568 232.848C177.341 231.28 177.176 229.971 177.09 229.077C177.022 228.615 176.986 228.149 176.98 227.682C177.108 228.131 177.197 228.59 177.247 229.054C177.396 230.002 177.607 231.272 177.85 232.801C178.376 235.937 179.152 240.32 180.202 245.094C181.253 249.869 182.335 254.165 183.166 257.254C183.574 258.752 183.911 259.99 184.169 260.915C184.303 261.355 184.408 261.803 184.483 262.256Z" fill="#FEFFE8"/>
<path d="M190.59 263.369C190.558 263.249 190.537 263.125 190.528 263.001L190.41 261.95C190.324 260.97 190.198 259.661 190.049 258.077C189.752 254.808 189.312 250.292 188.756 245.314C188.199 240.335 187.611 235.835 187.188 232.574C186.976 231.006 186.804 229.696 186.678 228.724C186.631 228.301 186.584 227.94 186.553 227.674C186.534 227.549 186.534 227.422 186.553 227.297C186.602 227.412 186.634 227.534 186.647 227.658C186.702 227.94 186.772 228.285 186.851 228.693C187.015 229.602 187.235 230.912 187.486 232.534C187.995 235.78 188.63 240.28 189.187 245.267C189.744 250.253 190.144 254.777 190.371 258.054C190.488 259.692 190.567 261.025 190.606 261.974C190.606 262.389 190.606 262.758 190.606 263.032C190.619 263.145 190.614 263.258 190.59 263.369Z" fill="#FEFFE8"/>
<path d="M201.143 267.015C201.091 266.882 201.059 266.742 201.049 266.599C201.002 266.27 200.939 265.87 200.861 265.376C200.696 264.263 200.461 262.75 200.186 260.907C199.606 257.128 198.705 251.931 197.466 246.231C196.227 240.531 194.894 235.427 193.86 231.75C193.35 229.955 192.927 228.481 192.621 227.399C192.48 226.921 192.37 226.529 192.284 226.208C192.236 226.074 192.207 225.934 192.198 225.792C192.267 225.916 192.322 226.048 192.362 226.184L192.77 227.352C193.115 228.364 193.554 229.837 194.142 231.664C195.247 235.333 196.627 240.437 197.866 246.145C199.105 251.852 199.959 257.074 200.477 260.86C200.727 262.758 200.916 264.294 201.018 265.36L201.127 266.584C201.152 266.726 201.157 266.871 201.143 267.015Z" fill="#FEFFE8"/>
<path d="M209.798 264.859C209.742 264.739 209.699 264.612 209.673 264.482C209.595 264.184 209.508 263.816 209.391 263.377C209.148 262.358 208.826 261.025 208.426 259.324C207.642 255.898 206.553 251.147 205.392 245.902C203.37 236.776 201.747 229.14 201.433 227.305H201.511C201.315 227.525 201.214 227.634 201.198 227.619C201.268 227.487 201.353 227.364 201.449 227.25L201.496 227.188V227.274C201.99 229.069 203.746 236.682 205.769 245.8C206.929 251.045 207.956 255.804 208.685 259.245L209.524 263.33C209.602 263.777 209.673 264.114 209.728 264.443C209.774 264.577 209.798 264.717 209.798 264.859Z" fill="#FEFFE8"/>
<path d="M214.816 262.64C214.706 262.64 213.82 254.345 212.832 244.083C211.845 233.82 211.147 225.502 211.264 225.494C211.382 225.486 212.26 233.789 213.24 244.044C214.22 254.298 214.926 262.64 214.816 262.64Z" fill="#FEFFE8"/>
<path d="M191.163 257.512C190.745 256.587 190.621 255.556 190.807 254.558C190.994 253.56 191.482 252.644 192.206 251.932C192.93 251.22 193.854 250.747 194.855 250.577C195.856 250.407 196.885 250.549 197.803 250.982C199.747 251.907 200.876 253.969 201.566 255.999C202.642 259.155 202.983 262.515 202.562 265.823C202.482 267.377 201.867 268.856 200.822 270.009" fill="#CC774B"/>
<path d="M128.231 263.016L120.775 274.4C120.775 274.4 119.505 288.182 129.493 288.943C139.481 289.703 142.586 282.875 142.586 282.875V270.221L128.231 263.016Z" fill="#FFBE9D"/>
<path d="M175.569 249.265C174.659 247.469 172.433 246.638 170.442 246.811C168.446 247.109 166.542 247.848 164.867 248.975C163.135 249.994 161.002 252.581 159.05 253.067L170.951 256.728C172.425 256.046 174.307 255.27 175.169 253.898C175.62 253.222 175.894 252.443 175.963 251.633C176.033 250.823 175.898 250.008 175.569 249.265Z" fill="#FFBE9D"/>
<path d="M145.158 262.303C145.158 262.303 144.068 271.17 147.455 272.346C150.842 273.522 155.412 271.429 155.412 271.429L181.323 276.007C181.323 276.007 186.067 281.213 192.456 281.495C198.846 281.778 202.735 274.126 202.735 274.126L203.44 260.445L185.808 258.477C185.808 258.477 165.424 254.212 163.77 253.695C162.115 253.177 152.504 250.175 150.669 250.08C148.835 249.986 146.624 254.784 146.624 254.784L145.158 262.303Z" fill="#27224A"/>
<path d="M188.16 259.355C187.021 259.209 185.865 259.273 184.75 259.543C184.176 259.648 183.649 259.927 183.239 260.342C182.829 260.757 182.556 261.288 182.458 261.862C182.359 262.437 182.44 263.028 182.689 263.556C182.937 264.083 183.342 264.522 183.848 264.812C185.038 265.545 186.378 266.001 187.768 266.145L193.891 267.25C194.661 267.43 195.454 267.49 196.243 267.43C196.639 267.395 197.023 267.271 197.364 267.066C197.705 266.86 197.994 266.58 198.211 266.246C198.422 265.906 198.494 265.498 198.414 265.106C198.334 264.714 198.107 264.368 197.78 264.137" fill="#FEFFE8"/>
<path d="M211.798 263.149L245.078 263.879C245.078 263.879 258.634 271.091 257.285 280.515C255.937 289.939 243.675 291.726 243.675 291.726L210.598 283.102L211.798 263.149Z" fill="#FFBE9D"/>
<path d="M157.529 251.476C156.228 251.162 154.981 250.857 153.609 250.645C152.237 250.433 150.544 250.911 150.159 252.213C150.08 252.684 150.11 253.167 150.246 253.625C150.382 254.083 150.62 254.503 150.943 254.855C153.358 258.077 157.584 259.441 161.606 259.653C162.648 259.778 163.706 259.627 164.671 259.214C165.148 258.998 165.542 258.632 165.792 258.173C166.043 257.713 166.136 257.184 166.059 256.666C165.733 255.85 165.116 255.185 164.326 254.8C162.249 253.343 159.955 252.224 157.529 251.484" fill="#FEFFE8"/>
<path d="M213.13 271.586C214.346 269.406 211.343 266.184 211.343 266.184C212.057 264.873 212.52 263.439 212.707 261.958C212.95 259.653 208.897 257.662 208.897 257.662L201.143 255.96C201.143 255.96 190.951 256.807 189.281 258.508C187.611 260.21 189.281 262.428 189.281 262.428L189.642 263.087C190.324 264.263 197.85 263.448 197.85 263.448C197.85 263.448 201.582 264.138 201.935 264.467C202.288 264.796 203.801 267.383 201.629 268.05C201.112 268.207 187.737 269.618 185.439 269.767C183.142 269.916 182.037 270.825 182.021 273.687C182.021 275.513 185.157 276.446 185.69 276.595C185.236 276.478 182.899 275.976 182.139 277.928C181.292 280.092 185.526 281.558 185.526 281.558C185.686 281.578 185.838 281.637 185.97 281.731C186.102 281.824 186.208 281.948 186.28 282.092C186.352 282.236 186.388 282.396 186.383 282.557C186.379 282.719 186.335 282.876 186.255 283.016C185.008 286.348 190.371 287.313 190.371 287.313L202.131 286.905C202.131 286.905 207.337 288.12 209.971 286.348C212.605 284.576 211.061 280.727 212.997 277.928C214.934 275.129 211.923 273.765 213.13 271.586Z" fill="#FFBE9D"/>
<path d="M205.408 273.554C205.16 273.67 204.895 273.749 204.624 273.789C204.13 273.914 203.401 274.079 202.507 274.267C200.72 274.635 198.227 275.106 195.451 275.529C192.676 275.953 190.175 276.258 188.395 276.439C187.486 276.533 186.749 276.595 186.239 276.627C185.979 276.658 185.716 276.658 185.455 276.627C185.707 276.534 185.971 276.478 186.239 276.462L188.387 276.149C190.198 275.89 192.699 275.537 195.443 275.114C198.187 274.69 200.688 274.275 202.499 273.969L204.624 273.616C204.882 273.568 205.145 273.547 205.408 273.554Z" fill="#CC774B"/>
<path d="M207.321 279.818C207.072 279.944 206.809 280.041 206.537 280.108C206.035 280.272 205.306 280.484 204.404 280.711C202.034 281.308 199.623 281.732 197.192 281.981C194.765 282.238 192.323 282.316 189.885 282.217C188.944 282.177 188.191 282.123 187.666 282.06C187.4 282.054 187.136 282.009 186.882 281.927C186.882 281.864 188.042 281.927 189.9 281.927C194.757 281.957 199.602 281.455 204.35 280.429C206.192 280.045 207.297 279.755 207.321 279.818Z" fill="#CC774B"/>
<path d="M211.586 259.504C211.586 259.504 211.758 259.582 212.001 259.841C212.343 260.224 212.585 260.684 212.707 261.182C212.906 261.953 212.906 262.762 212.707 263.534C212.426 264.496 212.034 265.422 211.539 266.293L211.484 266.066C212.283 266.688 212.883 267.53 213.209 268.488C213.535 269.447 213.573 270.48 213.319 271.46C213.152 272.119 212.853 272.738 212.44 273.279L212.354 272.965C212.74 273.129 213.082 273.38 213.354 273.698C213.626 274.016 213.821 274.393 213.922 274.8C214.119 275.516 214.119 276.271 213.922 276.987C213.525 278.108 213.04 279.196 212.472 280.241C212.124 280.932 211.906 281.681 211.829 282.452C211.782 283 211.829 283.298 211.829 283.298C211.829 283.298 211.79 283.236 211.751 283.087C211.711 282.877 211.69 282.665 211.688 282.452C211.713 281.652 211.9 280.865 212.237 280.139C212.756 279.09 213.207 278.008 213.585 276.901C213.765 276.249 213.765 275.561 213.585 274.91C213.503 274.566 213.343 274.245 213.118 273.973C212.892 273.701 212.607 273.485 212.284 273.342L212.033 273.247L212.19 273.036C212.555 272.531 212.821 271.962 212.974 271.358C213.219 270.409 213.17 269.408 212.832 268.489C212.527 267.654 212.001 266.917 211.311 266.356L211.186 266.254L211.257 266.121C211.756 265.28 212.158 264.386 212.456 263.455C212.674 262.736 212.714 261.975 212.574 261.237C212.404 260.581 212.063 259.983 211.586 259.504Z" fill="#CC774B"/>
<path d="M194.495 268.755C194.358 268.807 194.216 268.844 194.071 268.865L192.856 269.116C192.331 269.225 191.68 269.343 190.92 269.429C190.159 269.515 189.297 269.664 188.332 269.727C187.368 269.79 186.318 269.892 185.196 269.9C184.075 269.907 182.844 269.9 181.567 269.9C178.793 269.76 176.032 269.43 173.303 268.912C170.587 268.365 167.912 267.628 165.299 266.709C164.107 266.254 162.947 265.838 161.927 265.36C160.908 264.882 159.936 264.451 159.074 264.012C158.211 263.573 157.459 263.142 156.792 262.765C156.126 262.389 155.561 262.044 155.107 261.746L154.072 261.056C153.948 260.982 153.833 260.895 153.727 260.797C153.866 260.844 153.998 260.91 154.119 260.993L155.193 261.605C155.655 261.887 156.22 262.216 156.902 262.569C157.584 262.922 158.329 263.353 159.207 263.753C160.085 264.153 161.018 264.631 162.061 265.047C163.103 265.462 164.232 265.909 165.424 266.348C170.624 268.171 176.062 269.228 181.567 269.484C182.837 269.523 184.044 269.578 185.173 269.539C186.302 269.5 187.352 269.476 188.309 269.414C189.265 269.351 190.128 269.257 190.888 269.178C191.649 269.1 192.299 269.014 192.833 268.935L194.056 268.763C194.201 268.738 194.349 268.735 194.495 268.755Z" fill="#FEFFE8"/>
<path d="M125.714 273.303C125.714 273.303 123.841 268.473 124.625 267.234C125.409 265.996 128.545 263.314 128.545 263.314C128.545 263.314 127.455 259.394 129.791 258.493L132.143 257.56C132.143 257.56 131.712 253.201 134.182 251.797C135.965 250.934 137.945 250.558 139.92 250.708C139.92 250.708 144.703 242.256 147.392 242.93C150.081 243.605 160.579 248.528 160.72 251.821C160.861 255.114 159.575 255.372 157.631 255.114C156.314 254.941 149.352 252.597 149.352 252.597L145.04 256.47L147.698 258.979C147.698 258.979 155.326 262.899 152.99 265.988C150.653 269.077 147.698 267.234 145.205 266.145C142.711 265.055 138.666 261.158 138.666 261.158L143.652 268.473C143.652 268.473 154.315 272.887 154.37 276.258C154.39 277.149 154.088 278.016 153.521 278.703C152.954 279.39 152.159 279.849 151.281 279.998C151.281 279.998 152.927 282.922 150.159 283.557C147.392 284.192 141.316 283.557 141.316 283.557L134.213 280.46L125.714 273.303Z" fill="#FFBE9D"/>
<path d="M145.949 283.808C145.6 283.845 145.248 283.845 144.899 283.808C144.225 283.808 143.252 283.73 142.053 283.604C138.924 283.267 135.833 282.645 132.817 281.746C131.919 281.518 131.103 281.039 130.465 280.366C129.936 279.705 129.468 278.997 129.07 278.249L126.953 274.596L125.55 272.111C125.363 271.814 125.208 271.499 125.087 271.17C125.312 271.44 125.514 271.728 125.691 272.032L127.196 274.447L129.399 278.061C129.792 278.78 130.248 279.463 130.763 280.1C131.366 280.715 132.129 281.15 132.966 281.354C135.961 282.242 139.02 282.897 142.116 283.314C143.307 283.479 144.272 283.581 144.946 283.651C145.285 283.672 145.62 283.725 145.949 283.808Z" fill="#CC774B"/>
<path d="M151.132 280.515C150.829 280.517 150.527 280.488 150.23 280.429C149.418 280.314 148.614 280.146 147.823 279.927C146.645 279.604 145.489 279.201 144.366 278.72C141.613 277.523 139.086 275.863 136.894 273.812C136.003 272.978 135.175 272.08 134.417 271.123C133.898 270.486 133.421 269.816 132.99 269.116C132.819 268.871 132.674 268.608 132.559 268.332C132.621 268.285 133.304 269.375 134.636 270.951C135.421 271.867 136.261 272.734 137.153 273.546C139.344 275.53 141.83 277.162 144.523 278.383C145.621 278.878 146.749 279.302 147.902 279.653C149.877 280.249 151.147 280.437 151.132 280.515Z" fill="#CC774B"/>
<path d="M216.462 160.171C217.552 158.846 219.849 159.066 220.962 160.359C221.479 161.043 221.795 161.857 221.875 162.71C221.955 163.562 221.797 164.421 221.417 165.189C220.627 166.716 219.452 168.011 218.007 168.944C216.961 169.69 215.855 170.346 214.698 170.904C214.089 171.256 213.395 171.438 212.691 171.429C211.202 171.304 210.261 169.587 210.457 168.105C210.779 166.636 211.568 165.31 212.707 164.326C213.842 163.351 214.816 162.203 215.592 160.924" fill="#6B5FD2"/>
<path d="M165.651 154.612L156.345 150.747C154.777 150.095 153.434 148.995 152.485 147.586C151.536 146.177 151.022 144.52 151.006 142.821L150.92 133.742L158.368 126.302L176.4 132.802L174.542 145.04C174.542 145.04 169.25 154.001 165.651 154.612Z" fill="#6B5FD2"/>
<path d="M198.47 99.8894C197.443 96.3614 192.84 92.4493 188.96 91.485C187.025 91.018 185.008 91.0161 183.073 91.4794C181.138 91.9428 179.34 92.8582 177.827 94.1506C174.856 96.8162 173.687 100.728 171.139 103.739C166.239 109.525 156.972 111.195 152.323 117.13C148.074 122.524 148.889 130.215 152.566 135.946C154.174 138.439 156.322 140.861 156.486 143.786C156.58 145.534 155.914 147.243 155.906 148.991C155.906 152.998 159.873 156.675 164.287 156.698" fill="#27224A"/>
<path d="M196.408 98.4624C197.646 95.2166 203.691 95.052 206.788 96.6278C209.885 98.2037 211.829 101.332 213.617 104.303C216.313 108.772 219.005 113.243 221.692 117.717C223.761 121.151 225.839 124.624 227.133 128.419C228.426 132.214 228.873 136.416 227.634 140.234C226.286 144.381 223.056 147.76 221.911 151.994C221.127 154.816 221.362 157.827 220.571 160.618C219.779 163.409 216.204 168.685 210.99 168.67" fill="#27224A"/>
<path d="M213.483 125.863L212.66 178.391C212.58 183.033 210.663 187.454 207.331 190.687C203.998 193.919 199.521 195.7 194.879 195.639C190.377 195.584 186.068 193.8 182.844 190.657C179.621 187.513 177.729 183.251 177.56 178.752L177.317 171.774C177.317 171.774 163.613 170.308 162.805 156.714C162.413 150.159 162.703 136.62 163.111 124.35C163.331 117.742 166.111 111.477 170.864 106.881C175.617 102.284 181.971 99.7152 188.583 99.7168C191.949 99.7542 195.272 100.465 198.358 101.808C201.444 103.151 204.23 105.099 206.551 107.536C208.871 109.973 210.681 112.85 211.871 115.998C213.062 119.146 213.61 122.5 213.483 125.863Z" fill="#FFBE9D"/>
<path d="M177.302 171.79C183.586 171.61 189.675 169.563 194.793 165.91C194.793 165.91 191.069 175.898 177.435 175.318L177.302 171.79Z" fill="#CC774B"/>
<path d="M168.427 133.735C168.447 134.241 168.664 134.719 169.032 135.067C169.399 135.416 169.888 135.607 170.394 135.601C170.642 135.609 170.889 135.568 171.12 135.479C171.351 135.39 171.562 135.256 171.741 135.084C171.919 134.912 172.061 134.706 172.159 134.479C172.256 134.251 172.307 134.006 172.307 133.758C172.291 133.251 172.077 132.771 171.71 132.421C171.344 132.071 170.854 131.878 170.347 131.884C170.099 131.876 169.851 131.918 169.619 132.007C169.387 132.096 169.175 132.231 168.996 132.403C168.817 132.576 168.674 132.782 168.576 133.011C168.478 133.24 168.428 133.486 168.427 133.735Z" fill="#27224A"/>
<path d="M166.373 130.999C166.623 131.242 168.042 130.081 170.136 129.987C172.229 129.893 173.805 130.865 174.056 130.599C174.166 130.481 173.899 130.034 173.209 129.58C172.269 129.002 171.174 128.729 170.073 128.796C168.986 128.842 167.942 129.234 167.094 129.917C166.443 130.426 166.247 130.928 166.373 130.999Z" fill="#27224A"/>
<path d="M188.842 133.735C188.862 134.241 189.079 134.719 189.447 135.067C189.814 135.416 190.303 135.607 190.81 135.601C191.058 135.609 191.305 135.568 191.537 135.479C191.768 135.391 191.98 135.256 192.159 135.085C192.338 134.913 192.481 134.707 192.579 134.479C192.677 134.252 192.729 134.006 192.731 133.758C192.71 133.252 192.494 132.773 192.126 132.423C191.759 132.073 191.27 131.88 190.763 131.885C190.515 131.877 190.267 131.92 190.036 132.009C189.804 132.099 189.592 132.234 189.413 132.406C189.235 132.578 189.092 132.785 188.994 133.013C188.896 133.241 188.844 133.486 188.842 133.735Z" fill="#27224A"/>
<path d="M186.929 130.418C187.18 130.661 188.607 129.501 190.692 129.407C192.778 129.313 194.361 130.285 194.612 130.018C194.714 129.901 194.448 129.454 193.758 128.999C192.819 128.418 191.723 128.144 190.622 128.215C189.534 128.259 188.489 128.652 187.643 129.336C187.007 129.838 186.804 130.308 186.929 130.418Z" fill="#27224A"/>
<path d="M180.077 146.271C180.077 146.153 178.776 145.989 176.659 145.824C176.118 145.824 175.608 145.706 175.498 145.354C175.436 144.815 175.534 144.269 175.781 143.786C176.228 142.468 176.682 141.089 177.168 139.646C179.089 133.758 180.445 128.921 180.21 128.85C179.975 128.78 178.227 133.484 176.29 139.372C175.836 140.822 175.389 142.21 174.973 143.535C174.67 144.196 174.607 144.941 174.793 145.644C174.881 145.828 175.009 145.989 175.167 146.117C175.326 146.244 175.512 146.335 175.71 146.381C176.009 146.444 176.314 146.473 176.62 146.467C178.752 146.443 180.077 146.396 180.077 146.271Z" fill="#27224A"/>
<path d="M187.376 121.52C187.619 122.077 189.689 121.685 192.158 121.842C194.628 121.998 196.643 122.547 196.941 122.022C197.066 121.771 196.698 121.238 195.867 120.752C194.762 120.138 193.532 119.784 192.269 119.717C191.007 119.651 189.746 119.873 188.583 120.368C187.721 120.814 187.29 121.285 187.376 121.52Z" fill="#27224A"/>
<path d="M165.981 122.084C166.373 122.539 167.792 121.982 169.524 121.873C171.257 121.763 172.731 122.045 173.044 121.528C173.186 121.285 172.927 120.822 172.26 120.399C171.377 119.89 170.359 119.666 169.344 119.756C168.328 119.821 167.358 120.202 166.569 120.846C165.989 121.363 165.808 121.865 165.981 122.084Z" fill="#27224A"/>
<path d="M211.351 136.643C209.289 141.277 204.655 141.779 204.6 135.742C204.6 132.88 205.275 129.925 204.357 127.22C202.993 123.198 198.65 121.167 195.522 118.298C193.419 116.329 191.814 113.888 190.839 111.177C189.864 108.466 189.548 105.562 189.916 102.704C190.167 100.862 190.841 98.8939 192.448 98.0001C193.868 97.2161 195.639 97.3886 197.231 97.7884C206.937 100.234 214.306 109.023 216.58 118.776C218.854 128.529 218.399 141.598 213.664 150.418" fill="#27224A"/>
<path d="M192.182 98.1099C190.943 101.632 188.895 104.814 186.203 107.401C183.511 109.988 180.25 111.907 176.682 113.006C174.534 113.649 172.292 113.986 170.175 114.746C168.058 115.507 166.02 116.793 164.985 118.784C164.554 119.615 163.785 121.857 163.213 122.594C162.641 123.331 162.084 122.516 161.285 122.038C160.305 121.457 160.438 119.999 160.83 118.902C162.092 115.413 164.609 112.559 167.149 109.862C170.418 106.381 173.868 102.963 178.07 100.689C182.272 98.4156 187.345 97.3651 191.868 98.8782" fill="#27224A"/>
<path d="M178.211 153.052C178.039 152.519 179.701 151.484 181.912 150.826C184.122 150.167 186.059 150.042 186.231 150.551C186.404 151.061 184.734 152.119 182.523 152.778C180.312 153.437 178.376 153.593 178.211 153.052Z" fill="#27224A"/>
<path d="M186.294 135.632C186.357 135.593 186.686 136.11 187.431 136.706C188.391 137.492 189.572 137.958 190.81 138.039C192.047 138.092 193.27 137.763 194.314 137.098C195.098 136.588 195.506 136.11 195.561 136.157C195.616 136.204 195.287 136.73 194.479 137.333C193.417 138.127 192.11 138.521 190.787 138.447C189.463 138.372 188.208 137.833 187.243 136.926C186.82 136.584 186.493 136.138 186.294 135.632Z" fill="#CC774B"/>
<path d="M165.659 135.906C165.706 135.859 166.043 136.212 166.71 136.604C167.567 137.115 168.551 137.37 169.548 137.341C170.545 137.312 171.513 136.999 172.339 136.439C172.974 136.016 173.295 135.655 173.35 135.655C173.405 135.655 173.139 136.126 172.503 136.643C171.663 137.31 170.628 137.687 169.556 137.717C168.483 137.746 167.429 137.427 166.553 136.808C165.894 136.369 165.62 135.93 165.659 135.906Z" fill="#CC774B"/>
<path d="M187.987 138.619C188.38 138.682 188.766 138.782 189.14 138.917C190.987 139.357 192.933 139.076 194.581 138.133C194.908 137.905 195.251 137.701 195.608 137.521C195.647 137.521 195.357 137.937 194.738 138.376C193.914 138.931 192.974 139.291 191.991 139.426C191.007 139.562 190.005 139.471 189.062 139.16C188.664 139.073 188.294 138.887 187.987 138.619Z" fill="#CC774B"/>
<path d="M166.38 138.462C167.239 138.645 168.114 138.737 168.991 138.737C169.856 138.599 170.705 138.373 171.524 138.062C170.833 138.691 169.952 139.072 169.021 139.144C168.089 139.217 167.16 138.977 166.38 138.462Z" fill="#CC774B"/>
<path d="M198.234 83.2451C198.281 83.3 197.584 83.841 196.8 84.9778C195.771 86.4583 195.201 88.2088 195.161 90.011C195.211 91.8157 195.591 93.596 196.282 95.2638C196.595 95.9573 196.857 96.6726 197.066 97.4042C196.65 96.7676 196.305 96.0865 196.039 95.3736C195.249 93.6911 194.819 91.8618 194.777 90.0032C194.811 88.1218 195.446 86.3006 196.588 84.8053C196.929 84.3591 197.318 83.9516 197.748 83.5901C197.889 83.4474 198.053 83.3306 198.234 83.2451Z" fill="#27224A"/>
<path d="M173.617 83.7704C173.765 83.7298 173.918 83.7139 174.071 83.7233C174.517 83.7207 174.961 83.768 175.396 83.8645C176.092 84.013 176.751 84.301 177.333 84.7112C178.114 85.2663 178.688 86.0664 178.964 86.9848C179.145 87.5444 179.178 88.1416 179.058 88.7176C178.938 89.2937 178.671 89.8286 178.282 90.2697C177.846 90.7709 177.265 91.1242 176.619 91.2811C176.273 91.3639 175.913 91.3725 175.563 91.3063C175.213 91.2401 174.881 91.1006 174.589 90.8969C174.278 90.6909 174.011 90.4244 173.805 90.1133C173.599 89.8022 173.458 89.4528 173.389 89.0859C173.337 88.6935 173.381 88.2943 173.518 87.9228C173.654 87.5512 173.879 87.2185 174.173 86.9534C175.342 85.8558 176.972 85.5736 178.517 85.3854C181.506 85.1498 184.501 85.7813 187.141 87.2043C189.271 88.3685 191.156 89.9339 192.691 91.8142C193.728 93.0691 194.625 94.4336 195.365 95.8832C195.624 96.4006 195.812 96.8005 195.922 97.0827C195.992 97.2192 196.044 97.3641 196.078 97.5139C195.991 97.3873 195.915 97.2536 195.851 97.1141C195.71 96.8475 195.498 96.4555 195.224 95.9616C194.437 94.5681 193.515 93.2552 192.472 92.0416C190.944 90.2183 189.081 88.7042 186.984 87.5806C184.405 86.2125 181.49 85.6061 178.579 85.8323C177.074 85.9891 175.498 86.2949 174.479 87.2592C174.23 87.4793 174.038 87.7576 173.922 88.0694C173.806 88.3812 173.768 88.7169 173.813 89.0467C173.871 89.3632 173.992 89.6648 174.168 89.9341C174.345 90.2033 174.573 90.4347 174.84 90.6147C175.09 90.7901 175.374 90.9109 175.674 90.9689C175.974 91.027 176.283 91.0212 176.58 90.9518C177.155 90.8152 177.675 90.5061 178.07 90.0659C178.428 89.6689 178.677 89.1852 178.791 88.6627C178.905 88.1402 178.881 87.597 178.721 87.0867C178.477 86.2205 177.956 85.4579 177.239 84.915C176.687 84.5069 176.061 84.2088 175.396 84.0369C174.811 83.8995 174.216 83.8104 173.617 83.7704Z" fill="#27224A"/>
<path d="M151.069 113.507C151.154 113.249 151.296 113.013 151.484 112.817C151.759 112.533 152.09 112.307 152.455 112.155C152.821 112.002 153.213 111.926 153.609 111.931C154.188 111.924 154.755 112.097 155.232 112.425C155.794 112.834 156.194 113.428 156.361 114.103C156.569 114.883 156.514 115.71 156.204 116.455C155.849 117.279 155.189 117.934 154.362 118.282C153.461 118.679 152.453 118.762 151.5 118.517C150.476 118.233 149.577 117.615 148.944 116.761C148.251 115.855 147.842 114.763 147.768 113.625C147.688 112.437 147.89 111.247 148.356 110.152C148.861 108.984 149.593 107.929 150.509 107.047C151.426 106.166 152.509 105.475 153.695 105.017C154.942 104.53 156.278 104.314 157.615 104.382C158.97 104.53 160.313 104.766 161.637 105.087C162.92 105.422 164.263 105.449 165.557 105.166C166.786 104.786 167.86 104.022 168.623 102.986C170.191 101.003 171.179 98.6113 172.888 96.8787C174.452 95.2154 176.363 93.9171 178.485 93.0763C180.332 92.3404 182.308 91.9857 184.295 92.0336C187.171 92.1171 189.964 93.0112 192.354 94.6129C193.229 95.1768 194.021 95.8603 194.706 96.6435C194.706 96.6435 194.644 96.6043 194.542 96.5181L194.095 96.1182C193.514 95.6153 192.898 95.1542 192.252 94.7384C189.864 93.2173 187.103 92.382 184.271 92.3237C182.327 92.2998 180.398 92.6622 178.595 93.3899C176.511 94.2177 174.637 95.4976 173.107 97.1374C172.296 98.0266 171.581 98.9989 170.975 100.038C170.35 101.152 169.648 102.221 168.874 103.237C168.069 104.353 166.925 105.178 165.612 105.589C164.256 105.887 162.849 105.863 161.504 105.518C160.198 105.201 158.873 104.965 157.537 104.813C156.248 104.745 154.96 104.953 153.758 105.424C152.619 105.86 151.579 106.518 150.696 107.359C149.813 108.2 149.106 109.208 148.615 110.324C148.168 111.365 147.969 112.495 148.035 113.625C148.105 114.69 148.483 115.712 149.125 116.565C149.707 117.359 150.533 117.94 151.477 118.219C152.359 118.457 153.296 118.387 154.134 118.023C154.901 117.711 155.519 117.116 155.859 116.361C156.147 115.677 156.207 114.918 156.032 114.197C155.884 113.572 155.523 113.018 155.012 112.629C154.569 112.317 154.042 112.147 153.499 112.143C153.121 112.129 152.743 112.191 152.389 112.325C152.034 112.46 151.711 112.665 151.437 112.927C151.298 113.11 151.175 113.304 151.069 113.507Z" fill="#27224A"/>
<path d="M210.355 103.065C210.269 102.779 210.213 102.484 210.19 102.187C210.112 101.528 210.01 100.728 209.9 99.7798C209.79 98.8312 209.649 97.5297 209.508 96.2126C209.457 95.5358 209.248 94.8805 208.897 94.2996C208.677 94.0219 208.405 93.7902 208.095 93.618C207.786 93.4458 207.445 93.3364 207.094 93.2961C205.667 93.1059 204.216 93.2453 202.852 93.7038C201.723 94.0718 200.663 94.6256 199.716 95.3424C198.872 96.048 198.1 96.8359 197.411 97.6944C197.524 97.4124 197.677 97.1483 197.866 96.9104C198.338 96.2431 198.9 95.6443 199.536 95.1307C200.469 94.3631 201.531 93.766 202.672 93.3667C204.094 92.8643 205.615 92.7084 207.109 92.912C207.514 92.9589 207.906 93.0873 208.26 93.2894C208.615 93.4915 208.924 93.7631 209.171 94.088C209.553 94.7241 209.778 95.4413 209.83 96.1812C209.939 97.5062 210.041 98.7136 210.128 99.772C210.214 100.83 210.253 101.528 210.292 102.187C210.349 102.476 210.37 102.771 210.355 103.065Z" fill="#27224A"/>
<path d="M234.777 122.116C234.777 122.116 234.73 122.312 234.549 122.626C234.285 123.064 233.96 123.462 233.585 123.809C232.97 124.401 232.239 124.858 231.439 125.154C230.639 125.45 229.786 125.577 228.935 125.527C228.083 125.478 227.251 125.253 226.49 124.867C225.729 124.481 225.057 123.942 224.514 123.284C224.193 122.898 223.929 122.467 223.73 122.006C223.581 121.677 223.534 121.481 223.558 121.473C223.928 122.037 224.331 122.579 224.765 123.096C225.854 124.3 227.374 125.028 228.995 125.12C230.616 125.212 232.209 124.663 233.428 123.59C233.91 123.13 234.361 122.637 234.777 122.116Z" fill="#27224A"/>
<path d="M184.499 169.242C183.896 169.513 183.257 169.695 182.601 169.783C181.051 170.069 179.472 170.172 177.897 170.089C176.303 170.02 174.724 169.757 173.193 169.305C172.554 169.156 171.94 168.91 171.375 168.576C173.512 169.141 175.694 169.518 177.897 169.705C180.107 169.742 182.316 169.587 184.499 169.242Z" fill="#FEFFE8"/>
<path d="M180.155 147.07C179.386 147.255 178.592 147.316 177.803 147.251C177.012 147.302 176.218 147.226 175.451 147.023C177.034 146.768 178.649 146.784 180.226 147.07H180.155Z" fill="#FEFFE8"/>
<path d="M183.738 152.919C183.112 153.303 182.421 153.568 181.7 153.703C181.017 153.968 180.292 154.104 179.559 154.103C180.865 153.447 182.283 153.042 183.738 152.911V152.919Z" fill="#FEFFE8"/>
<path d="M192.684 136.047C192.371 136.287 192.008 136.451 191.622 136.527C191.235 136.603 190.837 136.589 190.457 136.487C190.064 136.453 189.684 136.33 189.346 136.128C189.008 135.925 188.72 135.649 188.505 135.318C189.151 135.647 189.829 135.909 190.528 136.102C191.246 136.159 191.969 136.14 192.684 136.047Z" fill="#FEFFE8"/>
<path d="M171.649 135.632C171.704 135.718 171.069 136.142 170.159 136.142C169.25 136.142 168.591 135.726 168.662 135.64C168.732 135.554 169.352 135.742 170.152 135.734C170.951 135.726 171.594 135.499 171.649 135.632Z" fill="#FEFFE8"/>
<path d="M172.394 122.641C172.394 122.767 170.967 122.5 169.258 122.782C167.549 123.064 166.294 123.723 166.239 123.613C167.11 122.969 168.123 122.544 169.194 122.375C170.264 122.205 171.359 122.297 172.386 122.641H172.394Z" fill="#FEFFE8"/>
<path d="M196.894 123.457C196.847 123.574 195.2 122.884 193.044 122.673C190.888 122.461 189.124 122.751 189.124 122.626C190.413 122.245 191.765 122.124 193.101 122.268C194.437 122.412 195.731 122.818 196.909 123.465L196.894 123.457Z" fill="#FEFFE8"/>
<path d="M190.951 101.222C190.894 101.356 190.82 101.482 190.732 101.598C190.567 101.841 190.347 102.202 190.01 102.633C189.074 103.871 188.025 105.018 186.874 106.059C185.184 107.617 183.306 108.957 181.284 110.05C180.091 110.695 178.852 111.251 177.576 111.712C176.218 112.197 174.83 112.593 173.421 112.896C172.009 113.158 170.617 113.522 169.258 113.986C168.008 114.424 166.872 115.136 165.934 116.071C164.417 117.747 163.43 119.833 163.095 122.069C162.855 123.578 162.732 125.103 162.727 126.631C162.727 127.141 162.727 127.557 162.727 127.886C162.751 128.031 162.751 128.179 162.727 128.325C162.696 128.181 162.68 128.033 162.68 127.886C162.68 127.604 162.641 127.18 162.625 126.639C162.565 125.093 162.647 123.545 162.868 122.014C163.173 119.704 164.168 117.54 165.722 115.804C166.693 114.824 167.872 114.074 169.171 113.609C170.549 113.136 171.958 112.764 173.389 112.496C178.349 111.515 182.953 109.215 186.717 105.84C187.854 104.824 188.903 103.715 189.853 102.523C190.575 101.692 190.92 101.198 190.951 101.222Z" fill="#FEFFE8"/>
<path d="M157.513 151.1C157.924 150.139 158.188 149.121 158.297 148.082C158.431 145.226 157.872 142.38 156.667 139.787C155.992 138.109 155.154 136.306 154.464 134.299C154.112 133.247 153.849 132.166 153.68 131.069C153.515 129.898 153.491 128.71 153.609 127.533C153.882 125.004 154.773 122.581 156.204 120.477C156.962 119.365 157.87 118.363 158.901 117.498C159.98 116.639 161.14 115.887 162.366 115.256C164.828 113.954 167.36 112.99 169.626 111.728C171.853 110.623 173.705 108.885 174.95 106.734C176.047 104.633 176.518 102.359 177.302 100.383C177.687 99.4186 178.216 98.5174 178.87 97.7099C179.508 96.9811 180.269 96.3707 181.12 95.9067C182.58 95.0935 184.256 94.7538 185.918 94.9345C187.16 95.0793 188.354 95.5056 189.407 96.1811C190.072 96.6097 190.667 97.1386 191.171 97.7491C191.352 97.9544 191.512 98.1777 191.649 98.4155C190.988 97.5969 190.193 96.8969 189.297 96.3457C188.256 95.7081 187.085 95.3141 185.871 95.1933C184.603 95.081 183.327 95.2721 182.148 95.7506C180.969 96.2291 179.92 96.9813 179.089 97.9451C178.438 98.7283 177.909 99.6059 177.521 100.548C176.69 102.484 176.275 104.766 175.169 106.938C173.884 109.161 171.976 110.959 169.681 112.112C167.384 113.39 164.852 114.362 162.413 115.648C161.214 116.27 160.078 117.005 159.019 117.843C158.015 118.683 157.131 119.656 156.392 120.736C154.988 122.788 154.112 125.155 153.844 127.627C153.722 128.772 153.738 129.928 153.891 131.069C154.064 132.135 154.326 133.184 154.675 134.205C155.342 136.22 156.165 138.031 156.824 139.693C158.203 143.056 158.627 146.075 158.344 148.105C158.254 148.883 158.059 149.646 157.764 150.371C157.688 150.561 157.601 150.747 157.506 150.928C157.511 150.985 157.514 151.043 157.513 151.1Z" fill="#FEFFE8"/>
<path d="M209.744 124.044C209.375 123.941 209.018 123.802 208.677 123.629C207.729 123.197 206.817 122.691 205.949 122.116C203.059 120.208 200.662 117.643 198.956 114.629C197.25 111.616 196.282 108.241 196.133 104.782C196.089 103.735 196.123 102.687 196.235 101.646C196.265 101.263 196.333 100.885 196.439 100.517C196.456 100.899 196.442 101.281 196.4 101.661C196.334 102.69 196.334 103.722 196.4 104.75C196.621 108.149 197.607 111.454 199.285 114.417C200.963 117.381 203.289 119.927 206.09 121.865C206.933 122.444 207.813 122.968 208.724 123.433C209.081 123.608 209.422 123.812 209.744 124.044Z" fill="#FEFFE8"/>
<path d="M210.449 109.634C210.449 109.634 210.253 109.689 209.9 109.713C209.401 109.741 208.899 109.723 208.403 109.658C206.753 109.453 205.166 108.896 203.75 108.025C202.334 107.154 201.121 105.989 200.194 104.609C199.915 104.192 199.674 103.752 199.473 103.292C199.386 103.131 199.327 102.956 199.301 102.774C199.363 102.774 199.693 103.449 200.43 104.444C202.377 107.05 205.246 108.814 208.45 109.376C209.665 109.587 210.441 109.564 210.449 109.634Z" fill="#FEFFE8"/>
<path d="M210.59 136.871C210.818 136.761 219.802 133.664 219.951 142.978C220.1 152.292 210.716 150.512 210.692 150.246C210.669 149.979 210.59 136.871 210.59 136.871Z" fill="#FFBE9D"/>
<path d="M213.483 146.671C213.522 146.671 213.648 146.781 213.922 146.906C214.312 147.062 214.747 147.062 215.137 146.906C216.117 146.53 216.917 144.954 216.941 143.276C216.955 142.465 216.786 141.661 216.447 140.924C216.356 140.634 216.196 140.371 215.98 140.158C215.764 139.944 215.499 139.788 215.208 139.701C215.021 139.646 214.82 139.663 214.644 139.749C214.469 139.834 214.332 139.982 214.259 140.164C214.142 140.422 214.197 140.61 214.15 140.626C214.103 140.642 213.946 140.469 214.016 140.085C214.065 139.853 214.193 139.646 214.377 139.497C214.63 139.299 214.951 139.208 215.271 139.246C215.654 139.318 216.012 139.486 216.313 139.734C216.613 139.982 216.845 140.303 216.988 140.665C217.395 141.466 217.6 142.354 217.583 143.253C217.583 145.126 216.619 146.898 215.286 147.306C215.037 147.383 214.774 147.403 214.517 147.365C214.259 147.327 214.013 147.232 213.797 147.086C213.507 146.898 213.452 146.686 213.483 146.671Z" fill="#CC774B"/>
<path d="M222.91 150.42C228.501 144.83 228.501 135.765 222.91 130.175C217.32 124.584 208.255 124.584 202.665 130.175C197.074 135.765 197.074 144.83 202.665 150.42C208.255 156.011 217.32 156.011 222.91 150.42Z" fill="#FEFFE8"/>
<path d="M217.905 154.612L203.315 148.544L203.174 133.742L210.59 126.302L228.622 132.802L226.796 145.04C226.796 145.04 221.504 154.001 217.905 154.612Z" fill="#6B5FD2"/>
<path d="M223.181 135.687C223.181 135.687 223.965 117.169 220.727 109.901C217.489 102.633 210.488 99.709 210.488 99.709C213.24 103.763 214.785 108.516 214.941 113.413L215.529 132.174L211.366 139.332L217.583 143.307L223.181 135.687Z" fill="#6B5FD2"/>
<path d="M214.981 114.589L222.35 116.212L222.742 119.278L215.09 118.282L214.981 114.589Z" fill="#E0E0E0"/>
<path d="M222.742 124.57L228.63 132.81L218.509 133.743L210.59 126.303L216.094 122.869L222.742 124.57Z" fill="#6B5FD2"/>
<path d="M223.056 124.248C223.056 124.248 223.056 124.35 223.103 124.546C223.15 124.742 223.142 125.04 223.158 125.424C223.197 126.208 223.205 127.298 223.158 128.686C223.079 132.368 222.709 136.038 222.052 139.662L222.013 139.873L221.801 139.811L218.509 138.862L213.805 137.506L213.648 137.459V137.294C214.001 133.304 214.306 129.838 214.534 127.282C214.651 126.091 214.753 125.111 214.832 124.374C214.849 124.02 214.899 123.668 214.981 123.323C215.01 123.675 215.01 124.029 214.981 124.382C214.934 125.166 214.871 126.106 214.8 127.306C214.612 129.854 214.353 133.335 214.055 137.333L213.914 137.122L218.579 138.47L221.872 139.427L221.621 139.583C222.279 135.972 222.692 132.321 222.86 128.654C222.923 127.282 222.954 126.169 222.962 125.409C222.967 125.02 222.998 124.633 223.056 124.248Z" fill="#27224A"/>
<path d="M213.914 125.166C213.753 125.402 213.572 125.625 213.373 125.832L211.805 127.627C210.386 129.195 208.434 131.351 206.145 133.899L206.192 133.774C206.192 136.228 206.192 138.948 206.192 141.818V146.467L206.074 146.286L215.796 150.99L218.618 152.386C218.966 152.539 219.299 152.723 219.614 152.935C219.252 152.824 218.901 152.682 218.563 152.511L215.686 151.218L205.902 146.608L205.784 146.553V146.428C205.784 144.946 205.784 143.386 205.784 141.778C205.784 138.909 205.784 136.189 205.784 133.735V133.664L205.831 133.609L211.602 127.47L213.271 125.746C213.465 125.53 213.68 125.336 213.914 125.166Z" fill="#27224A"/>
<path d="M215.529 146.443L194.604 158.901L193.468 161.049L187.376 163.268L184.624 161.59L185.087 158.666L190.347 155.64L192.731 155.93L212.386 142.845L215.529 146.443Z" fill="#6B5FD2"/>
<path d="M206.192 152.135C207.282 151.191 208.458 150.351 209.704 149.626C210.879 148.788 212.132 148.063 213.444 147.462C212.352 148.404 211.176 149.243 209.932 149.971C208.754 150.806 207.502 151.53 206.192 152.135Z" fill="#27224A"/>
<path d="M210.959 143.558C210.959 143.511 211.249 143.315 211.829 143.268C212.212 143.241 212.595 143.292 212.958 143.417C213.32 143.543 213.654 143.74 213.938 143.997C214.217 144.258 214.442 144.572 214.6 144.921C214.757 145.269 214.844 145.646 214.855 146.028C214.855 146.608 214.683 146.937 214.644 146.922C214.604 146.906 214.644 146.569 214.565 146.051C214.468 145.382 214.151 144.764 213.664 144.295C213.155 143.85 212.512 143.59 211.837 143.558C211.312 143.527 210.982 143.621 210.959 143.558Z" fill="#27224A"/>
<path d="M205.518 147.572C206.399 146.794 207.34 146.086 208.332 145.456C209.248 144.716 210.224 144.052 211.249 143.472C209.607 145.18 207.664 146.57 205.518 147.572Z" fill="#27224A"/>
<path d="M219.99 142.304C220.181 142.104 220.433 141.974 220.706 141.936C220.979 141.897 221.258 141.952 221.496 142.092C221.776 142.253 221.982 142.517 222.068 142.829C222.133 143.097 222.104 143.38 221.985 143.629C221.866 143.878 221.664 144.079 221.415 144.197C221.165 144.315 220.882 144.343 220.614 144.276C220.346 144.21 220.109 144.053 219.943 143.833C219.776 143.61 219.69 143.338 219.698 143.06C219.707 142.782 219.81 142.515 219.99 142.304Z" fill="#FEFFE8"/>
<path d="M216.462 141.12C216.655 140.924 216.907 140.797 217.179 140.758C217.451 140.72 217.728 140.773 217.968 140.908C218.107 140.987 218.23 141.092 218.328 141.219C218.427 141.346 218.499 141.491 218.54 141.645C218.592 141.847 218.591 142.059 218.536 142.26C218.482 142.461 218.376 142.645 218.229 142.792C218.082 142.94 217.899 143.047 217.698 143.102C217.497 143.158 217.286 143.16 217.084 143.109C216.882 143.057 216.697 142.954 216.546 142.81C216.396 142.665 216.287 142.484 216.228 142.284C216.169 142.084 216.163 141.873 216.211 141.67C216.259 141.467 216.359 141.28 216.502 141.128L216.462 141.12Z" fill="#FEFFE8"/>
<path d="M219.246 152.637C219.191 152.582 220.03 151.688 221.237 150.097C224.337 145.924 226.33 141.034 227.031 135.883C227.297 133.915 227.305 132.676 227.376 132.676C227.432 132.963 227.45 133.255 227.431 133.547C227.439 134.332 227.4 135.118 227.313 135.899C226.771 141.141 224.742 146.119 221.464 150.246C220.978 150.87 220.454 151.464 219.896 152.025C219.706 152.256 219.487 152.461 219.246 152.637Z" fill="#FEFFE8"/>
<path d="M221.942 119.819C222.026 120.048 222.074 120.289 222.084 120.532C222.154 120.987 222.225 121.653 222.295 122.484C222.475 124.638 222.546 126.799 222.507 128.96C222.474 131.122 222.333 133.281 222.084 135.428C221.982 136.212 221.888 136.918 221.801 137.373C221.783 137.615 221.728 137.853 221.637 138.078C221.636 137.185 221.688 136.292 221.794 135.405C221.919 133.751 222.06 131.485 222.099 128.952C222.138 126.42 222.099 124.154 222.013 122.5C221.932 121.609 221.909 120.713 221.942 119.819Z" fill="#FEFFE8"/>
<path d="M217.709 105.942C218.641 107.223 219.385 108.63 219.92 110.121C220.575 111.56 221.018 113.086 221.237 114.652C221.119 114.652 220.516 112.669 219.543 110.27C218.571 107.871 217.599 106.005 217.709 105.942Z" fill="#FEFFE8"/>
<path d="M194.526 158.541C194.745 158.356 194.984 158.199 195.239 158.07L197.231 156.894C198.916 155.906 201.237 154.542 203.754 152.919C206.27 151.297 208.505 149.783 210.112 148.694L212.025 147.384C212.248 147.208 212.493 147.06 212.754 146.945C212.567 147.162 212.354 147.354 212.119 147.518C211.696 147.863 211.068 148.349 210.284 148.929C208.716 150.105 206.498 151.657 203.973 153.264C201.449 154.872 199.097 156.22 197.372 157.145C196.51 157.608 195.804 157.968 195.31 158.211C195.063 158.353 194.8 158.463 194.526 158.541Z" fill="#FEFFE8"/>
<path d="M244.326 87.4474H242.538L243.432 85.9029L244.326 84.3584L245.212 85.9029L246.105 87.4474H244.326Z" fill="#27224A"/>
<path d="M332.318 93.4626C335.883 71.408 320.893 50.6397 298.839 47.0753C276.784 43.5109 256.016 58.5002 252.451 80.5548C248.887 102.609 263.876 123.378 285.931 126.942C307.986 130.507 328.754 115.517 332.318 93.4626Z" fill="#6B5FD2"/>
<path d="M291.907 123.629C312.067 123.629 328.41 107.286 328.41 87.1261C328.41 66.966 312.067 50.623 291.907 50.623C271.747 50.623 255.404 66.966 255.404 87.1261C255.404 107.286 271.747 123.629 291.907 123.629Z" fill="#6B5FD2"/>
<path d="M317.641 113.304C331.982 98.9631 331.982 75.7117 317.641 61.3706C303.3 47.0296 280.049 47.0296 265.708 61.3706C251.367 75.7117 251.367 98.9631 265.708 113.304C280.049 127.645 303.3 127.645 317.641 113.304Z" fill="#FEFFE8"/>
<path d="M255.035 84.9305C255.035 84.9305 255.035 85.1343 255.035 85.5263V87.2747C255.035 87.6588 255.035 88.0587 255.035 88.5604C255.035 89.0622 255.121 89.5483 255.168 90.1284C255.216 90.7086 255.27 91.2809 255.333 91.9238C255.411 92.6064 255.526 93.2842 255.678 93.9543C256.302 97.4408 257.455 100.812 259.096 103.95C261.235 108.132 264.163 111.86 267.72 114.926L269.218 116.204C269.751 116.604 270.315 116.988 270.864 117.372C271.413 117.757 271.962 118.156 272.581 118.517L274.416 119.552L275.349 120.069L276.336 120.508L278.32 121.363C279.002 121.637 279.723 121.833 280.437 122.084C281.147 122.343 281.872 122.558 282.608 122.727C284.114 123.11 285.644 123.39 287.187 123.566C287.971 123.644 288.755 123.77 289.539 123.809L291.962 123.848C292.369 123.848 292.746 123.848 293.185 123.848L294.416 123.739C295.2 123.66 296.062 123.613 296.893 123.503C298.566 123.241 300.221 122.871 301.848 122.398L303.087 122.029C303.29 121.967 303.502 121.912 303.706 121.841L304.31 121.598L306.74 120.618C307.524 120.25 308.308 119.834 309.092 119.411C309.476 119.199 309.876 119.019 310.26 118.776L311.389 118.039C312.914 117.056 314.373 115.974 315.756 114.801L317.74 112.88L318.241 112.394L318.696 111.869L319.605 110.81L320.515 109.744L321.299 108.592L322.083 107.431L322.491 106.851C322.616 106.647 322.726 106.443 322.843 106.232L324.255 103.747L325.415 101.112C326.863 97.4749 327.754 93.6397 328.057 89.7364C328.264 85.8262 327.884 81.907 326.928 78.1097C326.661 77.1846 326.387 76.2673 326.144 75.35L325.07 72.6923L324.803 72.0337L324.474 71.4065L323.823 70.1521L323.165 68.9055L322.381 67.7295L321.597 66.5535L321.213 65.9734L320.781 65.4324L319.065 63.2686C317.844 61.9196 316.535 60.6545 315.145 59.4819L314.125 58.6038C313.788 58.3137 313.404 58.0863 313.051 57.8198C312.314 57.318 311.609 56.7849 310.864 56.3145L308.582 55.0287L308.018 54.7073C307.83 54.6054 307.626 54.527 307.43 54.4407L306.246 53.9155C304.697 53.229 303.105 52.6449 301.479 52.1671C300.695 51.9476 299.857 51.7987 299.057 51.6105L297.92 51.3439C297.52 51.2655 297.136 51.242 296.705 51.1871L294.298 50.9049C293.514 50.8343 292.73 50.8657 291.946 50.8343C290.395 50.8057 288.844 50.8843 287.305 51.0695C286.55 51.1387 285.801 51.2566 285.062 51.4223C284.325 51.5713 283.588 51.6732 282.875 51.8614L280.774 52.4729L279.739 52.7787L278.743 53.1707L276.791 53.9547C276.14 54.1977 275.553 54.5662 274.941 54.8641C274.329 55.162 273.734 55.4756 273.161 55.8049L271.499 56.879C267.581 59.4612 264.197 62.7754 261.535 66.6398C259.498 69.5384 257.912 72.7289 256.831 76.1027C256.595 76.7477 256.394 77.4045 256.227 78.0705L255.827 79.8345C255.709 80.3833 255.576 80.8851 255.498 81.3476C255.419 81.8102 255.38 82.2414 255.333 82.6255C255.239 83.4095 255.168 83.9583 255.114 84.3582C255.059 84.758 255.027 84.9462 255.027 84.9462C255.027 84.9462 255.027 84.7502 255.074 84.3582C255.121 83.9662 255.176 83.3703 255.255 82.6177C255.294 82.2335 255.341 81.8337 255.396 81.3319C255.451 80.8302 255.592 80.3598 255.709 79.811L256.086 78.0313C256.203 77.3963 256.478 76.7534 256.682 76.0556C257.735 72.6551 259.306 69.437 261.339 66.5143C264 62.613 267.392 59.2638 271.327 56.6516L272.989 55.5697C273.577 55.2326 274.18 54.9347 274.792 54.6132C275.404 54.2918 275.992 53.939 276.65 53.6881L278.618 52.9041L279.614 52.5043L280.664 52.1985L282.781 51.5713C283.502 51.3831 284.247 51.2812 284.984 51.1244C285.732 50.9604 286.488 50.84 287.25 50.7638C288.81 50.5748 290.382 50.4935 291.954 50.5207C292.738 50.5207 293.522 50.5207 294.361 50.5835L296.791 50.8579C297.191 50.9127 297.575 50.9363 298.014 51.0147L299.229 51.2891C300.013 51.4694 300.868 51.6262 301.683 51.8457C303.326 52.3272 304.937 52.9138 306.505 53.6019L307.697 54.1271L308.292 54.3937L308.865 54.723L311.17 56.0244C311.954 56.4948 312.636 57.0358 313.381 57.5375C313.741 57.8041 314.164 58.0393 314.47 58.3215L315.505 59.1996C316.895 60.3865 318.205 61.6647 319.425 63.0255L321.166 65.2051L321.605 65.7539L321.989 66.3419L322.773 67.5257L323.557 68.7174L324.223 69.9796L324.882 71.2497L325.219 71.8847L325.493 72.5511C325.849 73.4397 326.209 74.3334 326.575 75.2324C326.842 76.1575 327.116 77.0905 327.359 78.0235C329.399 85.734 328.862 93.8998 325.83 101.277L324.654 103.943C324.176 104.781 323.698 105.62 323.228 106.459C323.11 106.663 323 106.882 322.875 107.086L322.459 107.667L321.636 108.843L320.852 110.003L319.935 111.085L319.002 112.112L318.539 112.645L318.03 113.131L316.023 115.075C314.625 116.261 313.15 117.353 311.609 118.345L310.472 119.082C310.088 119.332 309.688 119.513 309.28 119.724C308.496 120.132 307.712 120.571 306.928 120.947L304.474 121.935L303.863 122.178L303.236 122.367L301.981 122.735C300.337 123.213 298.664 123.582 296.971 123.84C296.14 123.958 295.301 123.997 294.47 124.076L293.232 124.185C292.816 124.185 292.409 124.185 291.993 124.185H289.547C288.763 124.146 287.979 124.013 287.195 123.935C285.638 123.756 284.095 123.471 282.577 123.08C281.833 122.904 281.1 122.685 280.382 122.421C279.669 122.17 278.947 121.975 278.257 121.692L276.235 120.799L275.239 120.352L274.306 119.826L272.456 118.776C271.861 118.419 271.285 118.032 270.731 117.615C270.174 117.216 269.61 116.831 269.077 116.439L267.571 115.146C264.006 112.044 261.077 108.279 258.947 104.06C257.312 100.898 256.175 97.5025 255.576 93.9935C255.431 93.3203 255.321 92.6399 255.247 91.9551C255.192 91.3044 255.145 90.7007 255.098 90.1441C255.051 89.5875 255.004 89.0622 254.988 88.5761C254.972 88.09 254.988 87.6667 254.988 87.2825C254.988 86.4985 254.988 85.9419 255.035 85.5342C255.082 85.1265 255.035 84.9305 255.035 84.9305Z" fill="#27224A"/>
<path d="M308.535 88.1218C308.108 88.1919 307.675 88.2208 307.242 88.208L303.667 88.2786C300.64 88.3256 296.423 88.357 291.656 88.357H291.421V85.7463C291.421 80.4229 291.421 75.6092 291.491 72.1204C291.491 70.4426 291.546 69.0549 291.57 67.9965C291.554 67.4908 291.58 66.9848 291.648 66.4834C291.719 66.9845 291.75 67.4905 291.742 67.9965C291.742 69.0549 291.789 70.4426 291.821 72.1204C291.821 75.6092 291.891 80.4229 291.891 85.7463C291.891 86.5303 291.891 87.3613 291.891 88.0983L291.656 87.8631C296.423 87.8631 300.64 87.9023 303.667 87.9415L307.242 88.012C307.675 88.0122 308.108 88.0489 308.535 88.1218Z" fill="#27224A"/>
<path d="M291.773 56.3066C292.004 57.3164 292.083 58.3547 292.009 59.3878C292.083 60.4234 292.003 61.4642 291.773 62.4767C291.64 62.4767 291.53 61.089 291.53 59.3878C291.53 57.6865 291.648 56.3066 291.773 56.3066Z" fill="#27224A"/>
<path d="M308.504 61.262C307.969 62.1445 307.3 62.9381 306.52 63.614C305.337 64.8057 304.294 65.6916 304.168 65.5975C304.709 64.7189 305.377 63.9261 306.152 63.2455C307.375 62.0538 308.41 61.1522 308.504 61.262Z" fill="#27224A"/>
<path d="M318.304 71.9477C317.527 72.6047 316.678 73.1703 315.772 73.6333C314.944 74.2268 314.049 74.7214 313.106 75.1072C313.028 74.9975 314.078 74.1037 315.529 73.2256C316.979 72.3476 318.233 71.8301 318.304 71.9477Z" fill="#27224A"/>
<path d="M324.019 87.808C321.224 88.1216 318.402 88.1216 315.607 87.808C315.607 87.6747 317.489 87.5649 319.817 87.5649C322.146 87.5649 324.019 87.6747 324.019 87.808Z" fill="#27224A"/>
<path d="M265.69 87.2435C265.69 87.3768 263.91 87.4787 261.715 87.4787C259.52 87.4787 257.748 87.3768 257.748 87.2435C257.748 87.1102 259.52 87.0083 261.715 87.0083C263.91 87.0083 265.69 87.1102 265.69 87.2435Z" fill="#27224A"/>
<path d="M269.814 99.0508C269.9 99.1527 268.559 100.368 266.811 101.779C265.806 102.689 264.698 103.478 263.51 104.131C263.432 104.021 264.78 102.806 266.513 101.403C267.521 100.497 268.629 99.7085 269.814 99.0508Z" fill="#27224A"/>
<path d="M279.99 108.192C280.1 108.271 279.104 109.807 277.951 111.736C276.799 113.665 275.905 115.256 275.78 115.201C276.171 113.88 276.763 112.626 277.536 111.485C278.712 109.533 279.888 108.106 279.99 108.192Z" fill="#27224A"/>
<path d="M291.773 119.952C291.64 119.952 291.53 118.07 291.53 115.75C291.53 113.429 291.64 111.54 291.773 111.54C292.005 112.93 292.084 114.342 292.009 115.75C292.084 117.155 292.005 118.564 291.773 119.952Z" fill="#27224A"/>
<path d="M309.899 114.354C309.837 114.464 308.19 113.515 306.434 112.002C304.678 110.489 303.51 108.976 303.604 108.866C303.698 108.756 305.015 110.12 306.74 111.626C308.465 113.131 309.978 114.244 309.899 114.354Z" fill="#27224A"/>
<path d="M318.414 105.189C318.32 105.284 317.073 104.186 315.631 102.743C314.188 101.301 313.083 100.054 313.177 99.9602C313.271 99.8661 314.517 100.964 315.96 102.406C316.891 103.228 317.715 104.163 318.414 105.189Z" fill="#27224A"/>
<path d="M269.429 75.9303C269.335 76.0244 268.238 75.0757 266.968 73.8135C265.698 72.5512 264.757 71.4615 264.851 71.3517C264.945 71.242 266.043 72.2141 267.305 73.4764C268.128 74.187 268.844 75.0136 269.429 75.9303Z" fill="#27224A"/>
<path d="M279.935 64.8679C279.841 64.962 278.759 64.0369 277.512 62.7982C276.266 61.5595 275.341 60.4854 275.435 60.3913C275.529 60.2972 276.611 61.2302 277.85 62.4611C278.656 63.1599 279.358 63.9704 279.935 64.8679Z" fill="#27224A"/>
<path d="M259.222 87.4786C259.223 78.1744 262.778 69.2219 269.159 62.4504C275.539 55.679 284.265 51.5997 293.553 51.0462C292.84 51.0462 292.118 50.9756 291.389 50.9756C286.55 50.9047 281.745 51.7966 277.254 53.5994C272.762 55.4022 268.674 58.08 265.227 61.477C261.78 64.874 259.042 68.9225 257.174 73.387C255.306 77.8515 254.343 82.6429 254.343 87.4826C254.343 92.3223 255.306 97.1137 257.174 101.578C259.042 106.043 261.78 110.091 265.227 113.488C268.674 116.885 272.762 119.563 277.254 121.366C281.745 123.169 286.55 124.06 291.389 123.99C292.118 123.99 292.84 123.99 293.553 123.919C284.264 123.365 275.537 119.285 269.156 112.512C262.775 105.739 259.221 96.7842 259.222 87.4786Z" fill="#E0E0E0"/>
<path d="M244.326 86.4832C244.326 86.4832 244.326 86.6792 244.326 87.0634C244.326 87.4476 244.365 88.0199 244.388 88.749C244.412 89.4781 244.514 90.4111 244.616 91.4852C244.718 92.5592 244.906 93.8372 245.188 95.1935C245.827 98.5575 246.826 101.843 248.167 104.993C249.025 106.948 250.002 108.849 251.092 110.685C252.336 112.732 253.722 114.689 255.239 116.542C258.76 120.765 262.979 124.353 267.712 127.149C273.154 130.35 279.186 132.419 285.447 133.233C292.366 134.142 299.401 133.513 306.05 131.391C309.552 130.253 312.913 128.723 316.07 126.828C319.299 124.843 322.29 122.494 324.984 119.827C327.654 117.138 330.001 114.146 331.977 110.913C333.879 107.761 335.412 104.402 336.548 100.901C338.67 94.2496 339.299 87.212 338.39 80.2896C337.577 74.0289 335.508 67.9969 332.306 62.5556C329.51 57.8217 325.922 53.6027 321.699 50.0821C319.848 48.5622 317.89 47.1762 315.842 45.9348C314.008 44.8421 312.107 43.8654 310.15 43.0104C306.999 41.6705 303.714 40.6692 300.35 40.0234C298.963 39.749 297.724 39.6 296.642 39.4589C295.56 39.3178 294.651 39.2786 293.906 39.2316L292.252 39.2002H291.679C291.679 39.2002 291.867 39.2002 292.252 39.2002H293.945C294.69 39.2002 295.607 39.2943 296.689 39.3884C297.771 39.4824 299.041 39.6471 300.405 39.9215C303.79 40.5339 307.097 41.5145 310.268 42.8458C314.462 44.6366 318.382 47.0121 321.91 49.9018C326.178 53.435 329.804 57.6787 332.628 62.4458C335.867 67.9224 337.965 73.9972 338.798 80.3053C339.722 87.2818 339.093 94.3763 336.955 101.081C334.655 108.289 330.657 114.839 325.297 120.18C322.582 122.871 319.565 125.239 316.305 127.236C307.047 132.836 296.155 135.107 285.431 133.672C279.123 132.84 273.048 130.741 267.571 127.502C262.804 124.679 258.56 121.053 255.027 116.785C253.504 114.92 252.118 112.947 250.88 110.881C249.785 109.034 248.814 107.117 247.971 105.142C246.634 101.973 245.651 98.6651 245.039 95.2797C244.765 93.892 244.639 92.6455 244.506 91.5636C244.373 90.4816 244.349 89.5565 244.318 88.8196V87.1261C244.318 86.6792 244.326 86.4832 244.326 86.4832Z" fill="#27224A"/>
<path d="M340.193 106.624C340.177 106.775 340.14 106.923 340.084 107.063L339.699 108.302C339.613 108.576 339.511 108.874 339.409 109.196C339.307 109.517 339.143 109.854 339.002 110.23C338.688 110.967 338.382 111.798 337.912 112.716C337.692 113.17 337.457 113.641 337.214 114.135C336.971 114.629 336.665 115.115 336.375 115.632C335.811 116.675 335.089 117.718 334.352 118.823C332.679 121.184 330.795 123.388 328.723 125.409C326.625 127.4 324.353 129.2 321.934 130.787C320.789 131.477 319.723 132.159 318.657 132.684C318.132 132.951 317.638 133.241 317.136 133.468L315.685 134.103C314.776 134.542 313.906 134.817 313.161 135.099C312.785 135.232 312.44 135.365 312.11 135.467L311.209 135.726L309.962 136.063C309.816 136.106 309.667 136.138 309.515 136.157C309.647 136.079 309.79 136.021 309.939 135.985L311.162 135.569L312.048 135.287C312.369 135.169 312.706 135.028 313.083 134.879C313.82 134.581 314.651 134.291 315.576 133.845L316.995 133.178C317.489 132.951 317.983 132.661 318.5 132.394C319.551 131.861 320.601 131.171 321.722 130.473C324.111 128.887 326.359 127.098 328.441 125.126C330.491 123.12 332.366 120.943 334.047 118.619C334.784 117.522 335.513 116.495 336.085 115.483C336.375 114.974 336.689 114.495 336.94 114.009L337.653 112.614C338.131 111.736 338.437 110.889 338.79 110.16C338.947 109.799 339.104 109.462 339.229 109.149C339.354 108.835 339.449 108.537 339.55 108.27C339.739 107.784 339.888 107.385 340.005 107.063C340.05 106.91 340.113 106.762 340.193 106.624Z" fill="#27224A"/>
<path d="M290.989 91.7278C290.989 91.7748 290.707 91.9238 290.205 91.8924C289.867 91.8715 289.536 91.7788 289.236 91.6207C288.935 91.4625 288.672 91.2424 288.463 90.9748C288.254 90.7073 288.104 90.3985 288.023 90.0688C287.943 89.7391 287.933 89.396 287.994 89.0622C288.089 88.5526 288.3 88.2782 288.347 88.3331C288.394 88.388 288.292 88.6388 288.277 89.1171C288.256 89.7029 288.436 90.2782 288.786 90.7478C289.155 91.202 289.671 91.5127 290.245 91.6259C290.676 91.7278 290.974 91.6808 290.989 91.7278Z" fill="#27224A"/>
<path d="M289.782 93.3977C289.782 93.4447 289.484 93.5231 288.998 93.4369C288.353 93.3038 287.763 92.9789 287.305 92.5046C286.848 92.0303 286.544 91.4289 286.434 90.7791C286.364 90.2852 286.434 89.9951 286.505 89.9951C286.575 89.9951 286.583 90.293 286.717 90.7242C286.889 91.2888 287.193 91.8045 287.603 92.2295C288.013 92.6515 288.514 92.9734 289.069 93.1703C289.492 93.2958 289.782 93.335 289.782 93.3977Z" fill="#27224A"/>
</svg>
