<svg width="391" height="391" viewBox="0 0 391 391" fill="none" xmlns="http://www.w3.org/2000/svg">
<path d="M344.635 206.26C346.199 185.483 341.367 163.79 334.892 144.482C325.312 115.736 306.607 86.278 275.17 79.4746C257.043 75.5646 238.596 79.7562 223.05 89.5781C208.106 99.0247 196.462 111.232 178.077 113.593C159.489 115.986 140.416 115.024 121.734 115.024C73.6957 115.024 34.713 165.487 44.4567 218.053C54.2005 270.619 100.151 307.068 139.133 307.068C174.167 307.068 202.992 286.056 236.266 280.41C252.766 277.61 269.336 280.926 285.665 276.734C304.644 271.854 322.489 260.226 333.007 243.39C340.17 231.91 343.658 219.265 344.635 206.26Z" fill="#5E53B8"/>
<path opacity="0.7" d="M344.635 206.26C346.199 185.483 341.367 163.79 334.892 144.482C325.312 115.736 306.607 86.278 275.17 79.4746C257.043 75.5646 238.596 79.7562 223.05 89.5781C208.106 99.0247 196.462 111.232 178.077 113.593C159.489 115.986 140.416 115.024 121.734 115.024C73.6957 115.024 34.713 165.487 44.4567 218.053C54.2005 270.619 100.151 307.068 139.133 307.068C174.167 307.068 202.992 286.056 236.266 280.41C252.766 277.61 269.336 280.926 285.665 276.734C304.644 271.854 322.489 260.226 333.007 243.39C340.17 231.91 343.658 219.265 344.635 206.26Z" fill="white"/>
<path d="M339.012 198.964C339.012 198.964 339.012 195.054 333.538 189.635C328.064 184.216 324.592 181.072 324.592 181.072C324.592 181.072 321.871 190.018 326.938 195.469C330.658 199.297 334.692 202.807 338.997 205.963L339.012 198.964Z" fill="#5E53B8"/>
<path d="M331.114 223.253C331.114 223.253 331.114 219.343 325.64 213.924C320.166 208.505 316.71 205.361 316.71 205.361C316.71 205.361 313.981 214.307 319.056 219.758C322.776 223.586 326.809 227.096 331.114 230.252V223.253Z" fill="#5E53B8"/>
<path d="M338.668 205.588C338.668 205.588 339.083 201.725 345.073 196.884C351.063 192.044 354.871 189.322 354.871 189.322C354.871 189.322 356.631 198.503 351.032 203.398C346.928 206.813 342.547 209.878 337.933 212.563L338.668 205.588Z" fill="#5E53B8"/>
<path d="M329.128 234.272C329.128 234.272 329.91 230.471 336.408 226.287C342.907 222.104 346.942 219.797 346.942 219.797C346.942 219.797 347.724 229.118 341.648 233.38C337.208 236.345 332.528 238.935 327.658 241.122L329.128 234.272Z" fill="#5E53B8"/>
<path d="M330.919 265.552C330.919 265.552 330.919 261.642 336.393 256.214C341.867 250.787 345.331 247.659 345.331 247.659C345.331 247.659 348.06 256.605 342.985 262.048C339.267 265.88 335.233 269.393 330.927 272.55L330.919 265.552Z" fill="#5E53B8"/>
<path d="M330.833 273.184C330.833 273.184 331.38 269.336 326.766 263.174C322.153 257.012 319.126 253.431 319.126 253.431C319.126 253.431 315.162 261.9 319.392 268.007C322.528 272.326 326.02 276.376 329.832 280.112L330.833 273.184Z" fill="#5E53B8"/>
<path d="M325.46 295.807C325.46 295.807 325.46 291.897 330.934 286.478C336.408 281.059 339.881 277.915 339.881 277.915C339.881 277.915 342.602 286.861 337.535 292.312C333.814 296.141 329.78 299.654 325.476 302.814L325.46 295.807Z" fill="#5E53B8"/>
<path d="M329.097 316.319C329.097 316.319 328.112 312.558 331.998 305.911C335.885 299.264 338.489 295.369 338.489 295.369C338.489 295.369 343.384 303.33 339.873 309.883C337.246 314.529 334.235 318.947 330.872 323.091L329.097 316.319Z" fill="#5E53B8"/>
<path d="M339.505 197.971C339.231 202.02 338.735 206.051 338.019 210.045C335.861 221.165 330.481 228.344 328.33 238.385C326.18 248.426 332.358 261.368 330.676 274.271C328.995 287.174 324.006 294.345 325.437 302.955C326.868 311.564 334.406 334.884 334.406 334.884" stroke="#263238" stroke-linecap="round" stroke-linejoin="round"/>
<path d="M338.622 208.176L344.487 203.672" stroke="#263238" stroke-linecap="round" stroke-linejoin="round"/>
<path d="M338.895 202.992L336.432 198.62" stroke="#263238" stroke-linecap="round" stroke-linejoin="round"/>
<path d="M328.659 237.923C328.659 237.923 333.57 234.24 338.621 230.557" stroke="#263238" stroke-linecap="round" stroke-linejoin="round"/>
<path d="M331.114 230.252C331.114 230.252 327.017 222.229 322.379 216.911" stroke="#263238" stroke-linecap="round" stroke-linejoin="round"/>
<path d="M331.114 271.088C333.916 265.911 337.456 261.169 341.624 257.012" stroke="#263238" stroke-linecap="round" stroke-linejoin="round"/>
<path d="M330.16 276.546C328.67 273.036 326.888 269.656 324.835 266.443C321.973 262.212 321.558 261.665 321.558 261.665" stroke="#263238" stroke-linecap="round" stroke-linejoin="round"/>
<path d="M325.46 302.955C326.707 299.872 328.187 296.89 329.887 294.032C331.587 291.376 333.505 288.865 335.619 286.525" stroke="#263238" stroke-linecap="round" stroke-linejoin="round"/>
<path d="M330.872 323.091C330.587 320.144 331.094 317.174 332.342 314.489C334.391 310.532 336.705 305.348 337.659 303.299" stroke="#263238" stroke-linecap="round" stroke-linejoin="round"/>
<path d="M294.579 250.928C294.579 250.928 294.157 248.488 296.98 244.477C299.803 240.465 301.672 238.142 301.672 238.142C301.672 238.142 304.346 243.46 301.766 247.417C299.849 250.224 297.701 252.866 295.345 255.315L294.579 250.928Z" fill="#5E53B8"/>
<path d="M302.172 265.301C302.172 265.301 301.75 262.861 304.573 258.85C307.396 254.838 309.265 252.516 309.265 252.516C309.265 252.516 311.939 257.833 309.359 261.798C307.441 264.601 305.293 267.24 302.939 269.688L302.172 265.301Z" fill="#5E53B8"/>
<path d="M295.51 255.041C295.51 255.041 294.837 252.695 290.552 250.279C286.267 247.863 283.592 246.596 283.592 246.596C283.592 246.596 283.483 252.547 287.502 255.002C290.445 256.696 293.524 258.143 296.706 259.327L295.51 255.041Z" fill="#5E53B8"/>
<path d="M304.612 271.995C304.612 271.995 303.69 269.696 299.185 267.772C294.681 265.849 291.866 264.848 291.866 264.848C291.866 264.848 292.382 270.775 296.667 272.793C299.773 274.169 302.987 275.283 306.278 276.124L304.612 271.995Z" fill="#5E53B8"/>
<path d="M306.88 291.803C306.88 291.803 306.466 289.363 302.454 286.54C298.442 283.717 295.916 282.146 295.916 282.146C295.916 282.146 295.181 288.05 298.943 290.912C301.691 292.913 304.602 294.678 307.646 296.19L306.88 291.803Z" fill="#5E53B8"/>
<path d="M307.772 296.581C307.772 296.581 306.99 294.235 309.234 289.856C311.478 285.477 312.964 282.92 312.964 282.92C312.964 282.92 316.366 287.799 314.379 292.093C312.883 295.141 311.133 298.057 309.148 300.812L307.772 296.581Z" fill="#5E53B8"/>
<path d="M314.606 316.249C314.606 316.249 314.888 313.793 318.728 310.775C322.567 307.756 324.984 306.012 324.984 306.012C324.984 306.012 326.055 311.869 322.466 314.943C319.837 317.094 317.032 319.022 314.083 320.706L314.606 316.249Z" fill="#5E53B8"/>
<path d="M313.582 310.18C313.582 310.18 313.159 307.74 309.156 304.917C305.152 302.094 302.634 300.523 302.634 300.523C302.634 300.523 301.899 306.427 305.66 309.297C308.41 311.294 311.321 313.06 314.364 314.575L313.582 310.18Z" fill="#5E53B8"/>
<path d="M313.582 323.443C313.582 323.443 313.785 320.972 310.626 317.226C307.467 313.48 305.418 311.322 305.418 311.322C305.418 311.322 303.205 316.843 306.122 320.573C308.26 323.2 310.614 325.643 313.16 327.877L313.582 323.443Z" fill="#5E53B8"/>
<path d="M294.165 250.349C294.776 252.86 295.526 255.335 296.409 257.763C298.966 264.504 303.118 268.421 305.558 274.482C307.998 280.542 305.558 289.34 307.967 297.246C310.375 305.152 314.364 309.109 314.364 314.661C314.364 320.213 312.205 335.658 312.205 335.658" stroke="#263238" stroke-linecap="round" stroke-linejoin="round"/>
<path d="M295.83 256.652L291.662 254.471" stroke="#263238" stroke-linecap="round" stroke-linejoin="round"/>
<path d="M295.095 253.431L296.159 250.428" stroke="#263238" stroke-linecap="round" stroke-linejoin="round"/>
<path d="M305.3 274.232C305.3 274.232 301.82 272.457 298.262 270.689" stroke="#263238" stroke-linecap="round" stroke-linejoin="round"/>
<path d="M302.931 269.688C303.957 266.466 305.306 263.356 306.958 260.406" stroke="#263238" stroke-linecap="round" stroke-linejoin="round"/>
<path d="M307.365 295.291C305.044 292.355 302.31 289.771 299.248 287.62" stroke="#263238" stroke-linecap="round" stroke-linejoin="round"/>
<path d="M308.554 298.607C309.11 296.247 309.861 293.938 310.798 291.702C312.135 288.738 312.362 288.347 312.362 288.347" stroke="#263238" stroke-linecap="round" stroke-linejoin="round"/>
<path d="M314.176 318.876C315.532 317.196 317.034 315.639 318.665 314.223C319.702 313.46 320.675 312.612 321.574 311.69" stroke="#263238" stroke-linecap="round" stroke-linejoin="round"/>
<path d="M314.364 314.661C313.247 312.859 311.994 311.144 310.618 309.531C309.262 308.052 307.787 306.686 306.208 305.449" stroke="#263238" stroke-linecap="round" stroke-linejoin="round"/>
<path d="M313.159 327.877C313.02 325.997 312.38 324.188 311.306 322.638C309.594 320.378 307.576 317.375 306.755 316.194" stroke="#263238" stroke-linecap="round" stroke-linejoin="round"/>
<path d="M72.4676 216.864L69.0425 207.081L72.4676 211.234L69.7776 196.556L73.9378 207.081L75.408 186.523L77.8556 206.096L80.5457 202.186V207.081L83.7284 200.474L82.0159 211.969L84.9484 210.014L80.3033 216.372L72.4676 216.864Z" fill="#5E53B8"/>
<path d="M83.2358 214.417H70.5127L72.804 240.105H80.9446L83.2358 214.417Z" fill="#263238" stroke="#263238" stroke-linecap="round" stroke-linejoin="round"/>
<path d="M107.103 239.816H63.7563V331.623H107.103V239.816Z" fill="white" stroke="#263238" stroke-linecap="round" stroke-linejoin="round"/>
<path d="M109.472 239.816H85.4258V331.623H109.472V239.816Z" fill="white" stroke="#263238" stroke-linecap="round" stroke-linejoin="round"/>
<path d="M106.767 239.816H85.4258V331.623H106.767V239.816Z" fill="#263238" stroke="#263238" stroke-linecap="round" stroke-linejoin="round"/>
<path d="M104.366 310.274H85.4258V329.073H104.366V310.274Z" fill="#5E53B8" stroke="#263238" stroke-linecap="round" stroke-linejoin="round"/>
<path d="M104.366 311.291H85.4258V313.699H104.366V311.291Z" fill="white" stroke="#263238" stroke-linecap="round" stroke-linejoin="round"/>
<path d="M104.366 325.132H85.4258V327.541H104.366V325.132Z" fill="white" stroke="#263238" stroke-linecap="round" stroke-linejoin="round"/>
<path d="M89.0151 310.665V334.438" stroke="#263238" stroke-linecap="round" stroke-linejoin="round"/>
<path d="M95.623 310.665V334.438" stroke="#263238" stroke-linecap="round" stroke-linejoin="round"/>
<path d="M101.425 310.665V334.438" stroke="#263238" stroke-linecap="round" stroke-linejoin="round"/>
<path d="M104.366 243.225H85.4258V270.869H104.366V243.225Z" fill="#5E53B8" stroke="#263238" stroke-linecap="round" stroke-linejoin="round"/>
<path d="M104.366 244.383H85.4258V247.12H104.366V244.383Z" fill="white" stroke="#263238" stroke-linecap="round" stroke-linejoin="round"/>
<path d="M104.366 262.103H85.4258V264.84H104.366V262.103Z" fill="white" stroke="#263238" stroke-linecap="round" stroke-linejoin="round"/>
<path d="M89.0151 243.663V270.681" stroke="#263238" stroke-linecap="round" stroke-linejoin="round"/>
<path d="M95.623 243.663V270.681" stroke="#263238" stroke-linecap="round" stroke-linejoin="round"/>
<path d="M101.425 243.663V270.681" stroke="#263238" stroke-linecap="round" stroke-linejoin="round"/>
<path d="M104.366 276.539H85.4258V304.182H104.366V276.539Z" fill="#5E53B8" stroke="#263238" stroke-linecap="round" stroke-linejoin="round"/>
<path d="M104.366 277.696H85.4258V280.433H104.366V277.696Z" fill="white" stroke="#263238" stroke-linecap="round" stroke-linejoin="round"/>
<path d="M104.366 295.416H85.4258V298.153H104.366V295.416Z" fill="white" stroke="#263238" stroke-linecap="round" stroke-linejoin="round"/>
<path d="M89.0151 276.984V303.995" stroke="#263238" stroke-linecap="round" stroke-linejoin="round"/>
<path d="M95.623 276.984V303.995" stroke="#263238" stroke-linecap="round" stroke-linejoin="round"/>
<path d="M101.425 276.984V303.995" stroke="#263238" stroke-linecap="round" stroke-linejoin="round"/>
<path d="M107.095 270.486H85.4258V273.63H107.095V270.486Z" fill="white" stroke="#263238" stroke-linecap="round" stroke-linejoin="round"/>
<path d="M107.095 304.01H85.4258V307.154H107.095V304.01Z" fill="white" stroke="#263238" stroke-linecap="round" stroke-linejoin="round"/>
<path d="M107.095 239.816V331.615" stroke="#263238" stroke-linecap="round" stroke-linejoin="round"/>
<path d="M82.3682 239.816V331.615H85.4258V243.225H106.72V239.777L82.3682 239.816Z" fill="white" stroke="#263238" stroke-linecap="round" stroke-linejoin="round"/>
<path d="M85.4258 243.225V239.816" stroke="#263238" stroke-linecap="round" stroke-linejoin="round"/>
<path d="M106.93 197.643C104.655 193.256 103.701 190.112 103.701 189.385C103.701 187.946 106.829 187.086 106.829 187.086C111.708 184.505 134.66 188.235 144.99 189.956C150.773 190.964 156.623 191.539 162.491 191.676C162.491 191.676 163.922 190.534 165.619 189.095C167.316 187.657 175.371 178.194 178.53 177.365C181.69 176.537 184.552 178.515 184.552 178.515C184.552 178.515 189.721 181.643 188.853 182.245C187.985 182.847 175.371 193.717 172.212 195.727C169.052 197.737 162.46 196.876 156.72 198.026C151.778 199.011 131.759 200.231 127.168 200.606C123.721 201.424 120.103 201.123 116.838 199.746" fill="white"/>
<mask id="mask0_29_1840" style="mask-type:luminance" maskUnits="userSpaceOnUse" x="103" y="177" width="86" height="25">
<path d="M106.93 197.643C104.655 193.256 103.701 190.112 103.701 189.385C103.701 187.946 106.829 187.086 106.829 187.086C111.708 184.505 134.66 188.235 144.99 189.956C150.773 190.964 156.623 191.539 162.491 191.676C162.491 191.676 163.922 190.534 165.619 189.095C167.316 187.657 175.371 178.194 178.53 177.365C181.69 176.537 184.552 178.515 184.552 178.515C184.552 178.515 189.721 181.643 188.853 182.245C187.985 182.847 175.371 193.717 172.212 195.727C169.052 197.737 162.46 196.876 156.72 198.026C151.778 199.011 131.759 200.231 127.168 200.606C123.721 201.424 120.103 201.123 116.838 199.746" fill="white"/>
</mask>
<g mask="url(#mask0_29_1840)">
<path d="M184.606 178.484C184.606 178.484 181.736 176.474 178.585 177.334C175.433 178.194 167.395 187.664 165.674 189.064C163.954 190.464 162.546 191.645 162.546 191.645C156.678 191.508 150.828 190.932 145.045 189.924C134.715 188.204 111.763 184.45 106.883 187.054C106.883 187.054 103.755 187.915 103.755 189.353C103.864 190.158 104.072 190.946 104.373 191.699L104.803 191.856C104.803 191.856 110.535 191.254 122.907 191.551C135.278 191.848 163.891 193.545 165.729 194.21C166.511 194.507 172.055 193.256 178.202 191.082C182.894 187.258 188.407 182.48 188.962 182.143C189.775 181.635 184.606 178.484 184.606 178.484Z" fill="#5E53B8"/>
<path opacity="0.5" d="M184.606 178.484C184.606 178.484 181.736 176.474 178.585 177.334C175.433 178.194 167.395 187.664 165.674 189.064C163.954 190.464 162.546 191.645 162.546 191.645C156.678 191.508 150.828 190.932 145.045 189.924C134.715 188.204 111.763 184.45 106.883 187.054C106.883 187.054 103.755 187.915 103.755 189.353C103.864 190.158 104.072 190.946 104.373 191.699L104.803 191.856C104.803 191.856 110.535 191.254 122.907 191.551C135.278 191.848 163.891 193.545 165.729 194.21C166.511 194.507 172.055 193.256 178.202 191.082C182.894 187.258 188.407 182.48 188.962 182.143C189.775 181.635 184.606 178.484 184.606 178.484Z" fill="white"/>
</g>
<path d="M106.93 197.643C104.655 193.256 103.701 190.112 103.701 189.385C103.701 187.946 106.829 187.086 106.829 187.086C111.708 184.505 134.66 188.235 144.99 189.956C150.773 190.964 156.623 191.539 162.491 191.676C162.491 191.676 163.922 190.534 165.619 189.095C167.316 187.657 175.371 178.194 178.53 177.365C181.69 176.537 184.552 178.515 184.552 178.515C184.552 178.515 189.721 181.643 188.853 182.245C187.985 182.847 175.371 193.717 172.212 195.727C169.052 197.737 162.46 196.876 156.72 198.026C151.778 199.011 131.759 200.231 127.168 200.606C123.721 201.424 120.103 201.123 116.838 199.746" stroke="#263238" stroke-linecap="round" stroke-linejoin="round"/>
<path d="M220.25 223.152C220.769 222.166 221.548 221.342 222.502 220.767C223.455 220.192 224.548 219.889 225.662 219.891H277.821C277.821 219.891 281.59 219.891 280.464 227.054C279.338 234.217 263.87 277.954 260.132 291.178C256.394 304.401 255.604 332.272 255.604 332.272H193.044C193.044 332.272 198.002 265.622 220.25 223.152Z" fill="white"/>
<mask id="mask1_29_1840" style="mask-type:luminance" maskUnits="userSpaceOnUse" x="193" y="219" width="88" height="114">
<path d="M220.25 223.152C220.769 222.166 221.548 221.342 222.502 220.767C223.455 220.192 224.548 219.889 225.662 219.891H277.821C277.821 219.891 281.59 219.891 280.464 227.054C279.338 234.217 263.87 277.954 260.132 291.178C256.394 304.401 255.604 332.272 255.604 332.272H193.044C193.044 332.272 198.002 265.622 220.25 223.152Z" fill="white"/>
</mask>
<g mask="url(#mask1_29_1840)">
<path opacity="0.16" d="M243.742 219.891H225.662C224.548 219.889 223.455 220.192 222.502 220.767C221.548 221.342 220.769 222.166 220.25 223.152C198.002 265.622 192.99 332.248 192.99 332.248H221.048L227.969 305.965L256.824 311.916C257.028 309.711 257.262 307.467 257.536 305.254L256.903 298.216C256.903 298.216 250.991 291.999 249.13 290.443C247.268 288.886 248.504 286.079 248.191 273.95C247.878 261.821 236.993 253.102 232.942 245.634C228.891 238.166 235.124 233.497 240.723 226.029C242.717 223.331 243.53 221.345 243.742 219.891Z" fill="black"/>
</g>
<path d="M220.25 223.152C220.769 222.166 221.548 221.342 222.502 220.767C223.455 220.192 224.548 219.889 225.662 219.891H277.821C277.821 219.891 281.59 219.891 280.464 227.054C279.338 234.217 263.87 277.954 260.132 291.178C256.394 304.401 255.604 332.272 255.604 332.272H193.044C193.044 332.272 198.002 265.622 220.25 223.152Z" stroke="#263238" stroke-linecap="round" stroke-linejoin="round"/>
<path d="M268.773 232.332C263.503 244.633 252.351 293.328 250.537 332.248H255.573C255.573 332.248 256.355 304.347 260.101 291.154C263.847 277.962 279.33 234.217 280.433 227.03C281.536 219.844 277.79 219.867 277.79 219.867C277.79 219.867 273.004 222.471 268.773 232.332Z" fill="#263238" stroke="#263238" stroke-linecap="round" stroke-linejoin="round"/>
<path d="M177.146 207.746C177.146 207.746 168.826 202.866 165.674 194.264C162.523 185.662 190.346 171.884 202.428 171.023C214.51 170.163 217.92 173.315 225.106 185.655C232.293 197.995 237.157 214.917 233.427 223.238C229.697 231.558 223.386 233.568 227.953 240.442C232.52 247.315 245.454 266.834 244.594 276.015C243.733 285.195 234.842 293.219 221.916 294.095C208.989 294.97 191.785 287.205 177.443 274.545C163.101 261.884 166.824 243.265 171.969 237.243C177.115 231.222 184.88 228.923 185.451 222.901C186.022 216.88 177.146 207.746 177.146 207.746Z" fill="#263238" stroke="#263238" stroke-linecap="round" stroke-linejoin="round"/>
<path d="M212.61 194.132C217.028 202.358 222.557 213.377 224.285 220.031C227.304 231.683 211.773 239.018 216.082 244.625" stroke="white" stroke-linecap="round" stroke-linejoin="round"/>
<path d="M206.589 183.356C206.589 183.356 208.309 186.288 210.687 190.605" stroke="white" stroke-linecap="round" stroke-linejoin="round"/>
<path d="M229.767 204.055C230.277 205.597 230.607 207.192 230.752 208.81" stroke="white" stroke-linecap="round" stroke-linejoin="round"/>
<path d="M209.576 179.078C209.576 179.078 223.167 189.119 228.594 201.138" stroke="white" stroke-linecap="round" stroke-linejoin="round"/>
<path d="M190.714 186.609C181.009 189.33 167.051 193.748 168.185 196.298" stroke="white" stroke-linecap="round" stroke-linejoin="round"/>
<path d="M199.684 184.216C199.684 184.216 197.611 184.732 194.522 185.561" stroke="white" stroke-linecap="round" stroke-linejoin="round"/>
<path d="M187.68 179.148C193.239 177.396 199.061 176.629 204.884 176.881" stroke="white" stroke-linecap="round" stroke-linejoin="round"/>
<path d="M183.723 180.767C184.602 180.309 185.511 179.912 186.445 179.578" stroke="white" stroke-linecap="round" stroke-linejoin="round"/>
<path d="M106.931 197.643C105.613 195.231 104.565 192.682 103.803 190.042C104.561 192.683 105.61 195.233 106.931 197.643ZM103.717 189.596C103.717 189.643 103.717 189.698 103.717 189.768C103.732 189.698 103.724 189.643 103.717 189.596ZM106.931 197.635C109.855 203.174 113.494 208.306 117.753 212.9C128.084 224.09 157.925 253.36 160.763 255.37C163.602 257.38 162.773 263.112 160.763 268.852C158.754 274.591 151.293 282.928 151.583 292.093C151.872 301.258 154.711 315.334 154.453 318.204C154.195 321.074 147.016 330.833 147.016 330.833H221.04C221.04 330.833 211.812 319.103 211.812 315.091C211.812 311.08 224.481 259.679 225.052 255.949C225.623 252.218 223.331 249.638 218.741 249.349C214.151 249.059 196.649 245.329 195.789 242.459C194.929 239.589 200.38 228.688 200.38 228.688L183.176 229.548C183.176 229.548 182.315 237.009 181.166 238.447C180.016 239.886 178.296 237.009 174.276 235.007C170.257 233.005 162.546 231.277 159.645 228.977C156.744 226.678 129.233 200.825 129.233 200.825" fill="white"/>
<mask id="mask2_29_1840" style="mask-type:luminance" maskUnits="userSpaceOnUse" x="103" y="189" width="123" height="142">
<path d="M106.931 197.643C105.613 195.231 104.565 192.682 103.803 190.042C104.561 192.683 105.61 195.233 106.931 197.643ZM103.717 189.596C103.717 189.643 103.717 189.698 103.717 189.768C103.732 189.698 103.724 189.643 103.717 189.596ZM106.931 197.635C109.855 203.174 113.494 208.306 117.753 212.9C128.084 224.09 157.925 253.36 160.763 255.37C163.602 257.38 162.773 263.112 160.763 268.852C158.754 274.591 151.293 282.928 151.583 292.093C151.872 301.258 154.711 315.334 154.453 318.204C154.195 321.074 147.016 330.833 147.016 330.833H221.04C221.04 330.833 211.812 319.103 211.812 315.091C211.812 311.08 224.481 259.679 225.052 255.949C225.623 252.218 223.331 249.638 218.741 249.349C214.151 249.059 196.649 245.329 195.789 242.459C194.929 239.589 200.38 228.688 200.38 228.688L183.176 229.548C183.176 229.548 182.315 237.009 181.166 238.447C180.016 239.886 178.296 237.009 174.276 235.007C170.257 233.005 162.546 231.277 159.645 228.977C156.744 226.678 129.233 200.825 129.233 200.825" fill="white"/>
</mask>
<g mask="url(#mask2_29_1840)">
<path d="M164.04 231.191C165.471 233.693 166.902 235.953 166.902 235.953C166.902 235.953 171.727 238.666 172.931 238.666C174.136 238.666 181.377 242.576 181.377 242.576C181.377 242.576 187.414 241.067 185.287 235.937C184.616 234.624 183.769 233.408 182.769 232.324C182.409 234.6 181.831 237.579 181.15 238.432C180.001 239.863 178.28 236.993 174.261 234.991C171.657 233.693 167.442 232.504 164.04 231.191Z" fill="#5E53B8"/>
<path d="M149.307 219.578C140.447 211.375 129.233 200.857 129.233 200.857L122.711 199.918L121.929 200.356C121.929 200.356 140.337 216.645 144.255 218.46C145.84 219.188 147.563 219.569 149.307 219.578Z" fill="#5E53B8"/>
<path d="M158.59 228.07L157.886 227.445C158.245 228.039 158.449 228.414 158.449 228.414L158.59 228.07Z" fill="#5E53B8"/>
<g opacity="0.5">
<path d="M164.04 231.191C165.471 233.693 166.902 235.953 166.902 235.953C166.902 235.953 171.727 238.666 172.931 238.666C174.136 238.666 181.377 242.576 181.377 242.576C181.377 242.576 187.414 241.067 185.287 235.937C184.616 234.624 183.769 233.408 182.769 232.324C182.409 234.6 181.831 237.579 181.15 238.432C180.001 239.863 178.28 236.993 174.261 234.991C171.657 233.693 167.442 232.504 164.04 231.191Z" fill="white"/>
<path d="M149.307 219.578C140.447 211.375 129.233 200.857 129.233 200.857L122.711 199.918L121.929 200.356C121.929 200.356 140.337 216.645 144.255 218.46C145.84 219.188 147.563 219.569 149.307 219.578Z" fill="white"/>
<path d="M158.59 228.07L157.886 227.445C158.245 228.039 158.449 228.414 158.449 228.414L158.59 228.07Z" fill="white"/>
</g>
</g>
<path d="M103.701 189.385C103.697 189.439 103.697 189.494 103.701 189.549M103.803 190.042C104.565 192.682 105.613 195.231 106.931 197.643C105.61 195.233 104.561 192.683 103.803 190.042ZM103.803 190.042C103.781 189.967 103.765 189.892 103.756 189.815M106.931 197.635C109.855 203.174 113.494 208.306 117.753 212.9C128.084 224.09 157.925 253.36 160.763 255.37C163.602 257.38 162.773 263.112 160.763 268.852C158.754 274.591 151.293 282.928 151.583 292.093C151.872 301.258 154.711 315.334 154.453 318.204C154.195 321.074 147.016 330.833 147.016 330.833H221.04C221.04 330.833 211.812 319.103 211.812 315.091C211.812 311.08 224.481 259.679 225.052 255.949C225.623 252.218 223.331 249.638 218.741 249.349C214.151 249.059 196.649 245.329 195.789 242.459C194.929 239.589 200.38 228.688 200.38 228.688L183.176 229.548C183.176 229.548 182.315 237.009 181.166 238.447C180.016 239.886 178.296 237.009 174.276 235.007C170.257 233.005 162.546 231.277 159.645 228.977C156.744 226.678 129.233 200.825 129.233 200.825M103.717 189.596C103.717 189.643 103.717 189.698 103.717 189.768C103.732 189.698 103.724 189.643 103.717 189.596Z" stroke="#263238" stroke-linecap="round" stroke-linejoin="round"/>
<path d="M129.233 200.857C129.233 200.857 120.068 201.029 114.954 196.814" stroke="#263238" stroke-linecap="round" stroke-linejoin="round"/>
<path d="M195.797 242.459C194.937 239.597 200.387 228.688 200.387 228.688L183.183 229.548C183.183 229.548 182.323 237.009 181.174 238.447C180.024 239.886 178.304 237.009 174.284 235.007C173.979 234.85 173.643 234.702 173.299 234.553L172.259 250.905C172.259 250.905 173.768 266.74 191.864 263.73C199.191 262.51 207.011 255.972 213.76 248.621C206.815 247.347 196.454 244.657 195.797 242.459Z" fill="white"/>
<mask id="mask3_29_1840" style="mask-type:luminance" maskUnits="userSpaceOnUse" x="172" y="228" width="42" height="37">
<path d="M195.797 242.459C194.937 239.597 200.387 228.688 200.387 228.688L183.183 229.548C183.183 229.548 182.323 237.009 181.174 238.447C180.024 239.886 178.304 237.009 174.284 235.007C173.979 234.85 173.643 234.702 173.299 234.553L172.259 250.905C172.259 250.905 173.768 266.74 191.864 263.73C199.191 262.51 207.011 255.972 213.76 248.621C206.815 247.347 196.454 244.657 195.797 242.459Z" fill="white"/>
</mask>
<g mask="url(#mask3_29_1840)">
<path d="M195.312 230.854C195.312 230.854 194.272 236.688 193.435 243.139C192.599 249.591 191.981 254.392 191.981 254.392L195.797 242.459L200.098 229.814C200.098 229.814 195.938 229.814 195.312 230.854Z" fill="#5E53B8"/>
<path opacity="0.5" d="M195.312 230.854C195.312 230.854 194.272 236.688 193.435 243.139C192.599 249.591 191.981 254.392 191.981 254.392L195.797 242.459L200.098 229.814C200.098 229.814 195.938 229.814 195.312 230.854Z" fill="white"/>
</g>
<path d="M195.797 242.459C194.937 239.597 200.387 228.688 200.387 228.688L183.183 229.548C183.183 229.548 182.323 237.009 181.174 238.447C180.024 239.886 178.304 237.009 174.284 235.007C173.979 234.85 173.643 234.702 173.299 234.553L172.259 250.905C172.259 250.905 173.768 266.74 191.864 263.73C199.191 262.51 207.011 255.972 213.76 248.621C206.815 247.347 196.454 244.657 195.797 242.459Z" stroke="#263238" stroke-linecap="round" stroke-linejoin="round"/>
<path d="M181.166 238.447C180.016 239.879 178.296 237.009 174.276 235.007C171.742 233.732 167.707 232.575 164.368 231.323C163.422 229.079 162.171 226.154 161.365 224.387C159.934 221.259 157.635 223.238 157.635 223.238C156.436 221.873 155.466 220.323 154.765 218.647C153.334 215.519 151.035 215.777 147.884 215.206C144.732 214.636 138.124 208.606 138.124 208.606C138.124 208.606 135.035 206.26 133.761 205.095C132.275 208.02 128.717 213.165 121.022 216.379C133.292 229.196 158.183 253.548 160.794 255.378C163.664 257.38 162.804 263.12 160.794 268.859C158.785 274.599 151.324 282.935 151.614 292.1C151.903 301.266 154.742 315.342 154.484 318.211C154.226 320.769 148.501 328.784 147.258 330.505L150.175 330.833H165.361C165.275 323.138 165.283 291.733 170.546 279.221C176.575 264.84 181.166 238.447 181.166 238.447Z" fill="#5E53B8"/>
<mask id="mask4_29_1840" style="mask-type:luminance" maskUnits="userSpaceOnUse" x="121" y="205" width="61" height="126">
<path d="M181.166 238.447C180.016 239.879 178.296 237.009 174.276 235.007C171.742 233.732 167.707 232.575 164.368 231.323C163.422 229.079 162.171 226.154 161.365 224.387C159.934 221.259 157.635 223.238 157.635 223.238C156.436 221.873 155.466 220.323 154.765 218.647C153.334 215.519 151.035 215.777 147.884 215.206C144.732 214.636 138.124 208.606 138.124 208.606C138.124 208.606 135.035 206.26 133.761 205.095C132.275 208.02 128.717 213.165 121.022 216.379C133.292 229.196 158.183 253.548 160.794 255.378C163.664 257.38 162.804 263.12 160.794 268.859C158.785 274.599 151.324 282.935 151.614 292.1C151.903 301.266 154.742 315.342 154.484 318.211C154.226 320.769 148.501 328.784 147.258 330.505L150.175 330.833H165.361C165.275 323.138 165.283 291.733 170.546 279.221C176.575 264.84 181.166 238.447 181.166 238.447Z" fill="white"/>
</mask>
<g mask="url(#mask4_29_1840)">
<path opacity="0.16" d="M174.276 235.007C171.743 233.732 167.708 232.575 164.368 231.323C163.422 229.079 162.171 226.154 161.366 224.387C159.934 221.259 157.635 223.238 157.635 223.238C156.436 221.873 155.467 220.323 154.765 218.647C153.334 215.519 151.035 215.777 147.884 215.206C144.732 214.636 138.125 208.606 138.125 208.606C138.125 208.606 135.036 206.26 133.761 205.095C133.125 206.337 132.368 207.513 131.501 208.606C136.631 212.946 142.293 217.545 144.271 218.46C148.181 220.266 149.096 218.757 152.091 220.571C155.086 222.385 158.425 228.391 158.425 228.391C158.425 228.391 160.239 223.558 161.749 226.882C163.258 230.205 166.879 235.929 166.879 235.929C166.879 235.929 171.704 238.643 172.908 238.643C173.854 238.643 178.491 241.052 180.462 242.092C180.9 239.8 181.142 238.424 181.142 238.424C180.016 239.879 178.296 237.009 174.276 235.007Z" fill="black"/>
</g>
<path d="M181.166 238.447C180.016 239.879 178.296 237.009 174.276 235.007C171.742 233.732 167.707 232.575 164.368 231.323C163.422 229.079 162.171 226.154 161.365 224.387C159.934 221.259 157.635 223.238 157.635 223.238C156.436 221.873 155.466 220.323 154.765 218.647C153.334 215.519 151.035 215.777 147.884 215.206C144.732 214.636 138.124 208.606 138.124 208.606C138.124 208.606 135.035 206.26 133.761 205.095C132.275 208.02 128.717 213.165 121.022 216.379C133.292 229.196 158.183 253.548 160.794 255.378C163.664 257.38 162.804 263.12 160.794 268.859C158.785 274.599 151.324 282.935 151.614 292.1C151.903 301.266 154.742 315.342 154.484 318.211C154.226 320.769 148.501 328.784 147.258 330.505L150.175 330.833H165.361C165.275 323.138 165.283 291.733 170.546 279.221C176.575 264.84 181.166 238.447 181.166 238.447Z" stroke="#263238" stroke-linecap="round" stroke-linejoin="round"/>
<path d="M181.369 237.447C181.369 237.447 177.803 236.352 175.606 238.275C173.408 240.199 170.132 250.068 168.2 260.774C167.01 267.006 167.831 273.455 170.546 279.19C170.546 279.19 175.058 267.358 176.427 261.595C177.795 255.831 181.369 237.447 181.369 237.447Z" fill="#5E53B8"/>
<mask id="mask5_29_1840" style="mask-type:luminance" maskUnits="userSpaceOnUse" x="167" y="237" width="15" height="43">
<path d="M181.369 237.447C181.369 237.447 177.803 236.352 175.606 238.275C173.408 240.199 170.132 250.068 168.2 260.774C167.01 267.006 167.831 273.455 170.546 279.19C170.546 279.19 175.058 267.358 176.427 261.595C177.795 255.831 181.369 237.447 181.369 237.447Z" fill="white"/>
</mask>
<g mask="url(#mask5_29_1840)">
<path opacity="0.16" d="M174.527 239.19C174.527 239.19 177.107 238.565 178.171 238.924C179.067 239.309 179.904 239.817 180.658 240.434L181.369 237.446C180.302 236.901 179.091 236.702 177.905 236.876C176.13 237.235 174.527 239.19 174.527 239.19Z" fill="black"/>
</g>
<path d="M181.369 237.447C181.369 237.447 177.803 236.352 175.606 238.275C173.408 240.199 170.132 250.068 168.2 260.774C167.01 267.006 167.831 273.455 170.546 279.19C170.546 279.19 175.058 267.358 176.427 261.595C177.795 255.831 181.369 237.447 181.369 237.447Z" stroke="#263238" stroke-linecap="round" stroke-linejoin="round"/>
<path d="M157.354 238.385L161.944 257.036L151.614 233.505" stroke="#263238" stroke-linecap="round" stroke-linejoin="round"/>
<path d="M187.594 330.833H221.048C221.048 330.833 211.82 319.103 211.82 315.091C211.82 311.08 224.489 259.679 225.06 255.949C225.631 252.218 223.339 249.638 218.749 249.349C214.159 249.059 196.657 245.329 195.797 242.459C195.797 242.459 189.197 265.7 186.906 281.481C184.935 295.017 186.976 323.107 187.594 330.833Z" fill="#5E53B8"/>
<mask id="mask6_29_1840" style="mask-type:luminance" maskUnits="userSpaceOnUse" x="186" y="242" width="40" height="89">
<path d="M187.594 330.833H221.048C221.048 330.833 211.82 319.103 211.82 315.091C211.82 311.08 224.489 259.679 225.06 255.949C225.631 252.218 223.339 249.638 218.749 249.349C214.159 249.059 196.657 245.329 195.797 242.459C195.797 242.459 189.197 265.7 186.906 281.481C184.935 295.017 186.976 323.107 187.594 330.833Z" fill="white"/>
</mask>
<g mask="url(#mask6_29_1840)">
<path opacity="0.16" d="M218.749 249.349C214.988 249.114 202.562 246.565 197.721 244.078L199.481 248.144C202.669 249.836 206.097 251.028 209.647 251.679C215.473 252.719 220.892 252.516 224.434 257.724L224.606 257.982C224.825 256.981 224.974 256.277 225.021 255.949C225.639 252.218 223.34 249.638 218.749 249.349Z" fill="black"/>
</g>
<path d="M187.594 330.833H221.048C221.048 330.833 211.82 319.103 211.82 315.091C211.82 311.08 224.489 259.679 225.06 255.949C225.631 252.218 223.339 249.638 218.749 249.349C214.159 249.059 196.657 245.329 195.797 242.459C195.797 242.459 189.197 265.7 186.906 281.481C184.935 295.017 186.976 323.107 187.594 330.833Z" stroke="#263238" stroke-linecap="round" stroke-linejoin="round"/>
<path d="M195.797 242.459C195.797 242.459 186.945 270.611 186.906 281.481C186.906 281.481 199.48 266.255 201.123 255.558C202.765 244.86 195.797 242.459 195.797 242.459Z" fill="#5E53B8"/>
<mask id="mask7_29_1840" style="mask-type:luminance" maskUnits="userSpaceOnUse" x="186" y="242" width="16" height="40">
<path d="M195.797 242.459C195.797 242.459 186.945 270.611 186.906 281.481C186.906 281.481 199.48 266.255 201.123 255.558C202.765 244.86 195.797 242.459 195.797 242.459Z" fill="white"/>
</mask>
<g mask="url(#mask7_29_1840)">
<path opacity="0.16" d="M194.272 246.056C195.602 246.012 196.923 246.292 198.121 246.872C199.318 247.453 200.357 248.316 201.146 249.388C201.146 249.388 199.41 244.281 195.797 242.459L194.272 246.056Z" fill="black"/>
</g>
<path d="M195.797 242.459C195.797 242.459 186.945 270.611 186.906 281.481C186.906 281.481 199.48 266.255 201.123 255.558C202.765 244.86 195.797 242.459 195.797 242.459Z" stroke="#263238" stroke-linecap="round" stroke-linejoin="round"/>
<path d="M290.302 325.539C290.302 325.539 296.784 325.805 301.031 326.415C303.862 326.799 306.713 327.026 309.57 327.095C309.57 327.095 307.224 322.356 304.722 321.019C302.219 319.682 297.684 317.289 293.883 317.82C290.083 318.352 284.648 322.184 285.101 323.404C285.555 324.624 287.58 325.171 290.302 325.539Z" fill="white"/>
<mask id="mask8_29_1840" style="mask-type:luminance" maskUnits="userSpaceOnUse" x="285" y="317" width="25" height="11">
<path d="M290.302 325.539C290.302 325.539 296.784 325.805 301.031 326.415C303.862 326.799 306.713 327.026 309.57 327.095C309.57 327.095 307.224 322.356 304.722 321.019C302.219 319.682 297.684 317.289 293.883 317.82C290.083 318.352 284.648 322.184 285.101 323.404C285.555 324.624 287.58 325.171 290.302 325.539Z" fill="white"/>
</mask>
<g mask="url(#mask8_29_1840)">
<path d="M290.302 325.539C290.302 325.539 296.784 325.805 301.031 326.415C303.862 326.799 306.713 327.026 309.57 327.095C309.57 327.095 307.224 322.356 304.722 321.019C302.219 319.682 297.684 317.289 293.883 317.82C290.083 318.352 284.648 322.184 285.101 323.404C285.555 324.624 287.58 325.171 290.302 325.539Z" fill="#5E53B8"/>
<path opacity="0.5" d="M290.302 325.539C290.302 325.539 296.784 325.805 301.031 326.415C303.862 326.799 306.713 327.026 309.57 327.095C309.57 327.095 307.224 322.356 304.722 321.019C302.219 319.682 297.684 317.289 293.883 317.82C290.083 318.352 284.648 322.184 285.101 323.404C285.555 324.624 287.58 325.171 290.302 325.539Z" fill="white"/>
</g>
<path d="M290.302 325.539C290.302 325.539 296.784 325.805 301.031 326.415C303.862 326.799 306.713 327.026 309.57 327.095C309.57 327.095 307.224 322.356 304.722 321.019C302.219 319.682 297.684 317.289 293.883 317.82C290.083 318.352 284.648 322.184 285.101 323.404C285.555 324.624 287.58 325.171 290.302 325.539Z" stroke="#263238" stroke-linecap="round" stroke-linejoin="round"/>
<path d="M301.07 323.599C301.07 323.599 306.208 320.933 307.49 320.972C308.773 321.011 317.296 326.774 316.874 327.697C316.587 328.125 316.173 328.452 315.69 328.632C315.208 328.811 314.681 328.834 314.184 328.698C313.238 328.252 307.498 325.813 307.498 325.813L303.744 326.696L301.07 323.599Z" fill="white"/>
<mask id="mask9_29_1840" style="mask-type:luminance" maskUnits="userSpaceOnUse" x="301" y="320" width="16" height="9">
<path d="M301.07 323.599C301.07 323.599 306.208 320.933 307.49 320.972C308.773 321.011 317.296 326.774 316.874 327.697C316.587 328.125 316.173 328.452 315.69 328.632C315.208 328.811 314.681 328.834 314.184 328.698C313.238 328.252 307.498 325.813 307.498 325.813L303.744 326.696L301.07 323.599Z" fill="white"/>
</mask>
<g mask="url(#mask9_29_1840)">
<path d="M301.07 323.599C301.07 323.599 306.208 320.933 307.49 320.972C308.773 321.011 317.296 326.774 316.874 327.697C316.452 328.62 314.434 329.371 314.184 328.698C313.934 328.026 307.498 325.813 307.498 325.813L303.744 326.696L301.07 323.599Z" fill="#5E53B8"/>
<path opacity="0.5" d="M301.07 323.599C301.07 323.599 306.208 320.933 307.49 320.972C308.773 321.011 317.296 326.774 316.874 327.697C316.452 328.62 314.434 329.371 314.184 328.698C313.934 328.026 307.498 325.813 307.498 325.813L303.744 326.696L301.07 323.599Z" fill="white"/>
</g>
<path d="M301.07 323.599C301.07 323.599 306.208 320.933 307.49 320.972C308.773 321.011 317.296 326.774 316.874 327.697C316.587 328.125 316.173 328.452 315.69 328.632C315.208 328.811 314.681 328.834 314.184 328.698C313.238 328.252 307.498 325.813 307.498 325.813L303.744 326.696L301.07 323.599Z" stroke="#263238" stroke-linecap="round" stroke-linejoin="round"/>
<path d="M297.402 319.212C297.402 319.212 304.253 318.993 305.613 319.682C306.974 320.37 313.121 330.911 312.198 331.677C311.275 332.444 308.726 332.217 308.804 331.365C308.882 330.512 303.142 324.866 303.142 324.866L298.677 323.889L297.402 319.212Z" fill="white"/>
<mask id="mask10_29_1840" style="mask-type:luminance" maskUnits="userSpaceOnUse" x="297" y="319" width="16" height="14">
<path d="M297.402 319.212C297.402 319.212 304.253 318.993 305.613 319.682C306.974 320.37 313.121 330.911 312.198 331.677C311.275 332.444 308.726 332.217 308.804 331.365C308.882 330.512 303.142 324.866 303.142 324.866L298.677 323.889L297.402 319.212Z" fill="white"/>
</mask>
<g mask="url(#mask10_29_1840)">
<path d="M297.402 319.212C297.402 319.212 304.253 318.993 305.613 319.682C306.974 320.37 313.121 330.911 312.198 331.677C311.275 332.444 308.726 332.217 308.804 331.365C308.882 330.512 303.142 324.866 303.142 324.866L298.677 323.889L297.402 319.212Z" fill="#5E53B8"/>
<path opacity="0.5" d="M297.402 319.212C297.402 319.212 304.253 318.993 305.613 319.682C306.974 320.37 313.121 330.911 312.198 331.677C311.275 332.444 308.726 332.217 308.804 331.365C308.882 330.512 303.142 324.866 303.142 324.866L298.677 323.889L297.402 319.212Z" fill="white"/>
</g>
<path d="M297.402 319.212C297.402 319.212 304.253 318.993 305.613 319.682C306.974 320.37 313.121 330.911 312.198 331.677C311.275 332.444 308.726 332.217 308.804 331.365C308.882 330.512 303.142 324.866 303.142 324.866L298.677 323.889L297.402 319.212Z" stroke="#263238" stroke-linecap="round" stroke-linejoin="round"/>
<path d="M293.344 317.797C293.344 317.797 300.28 317.57 301.656 318.274C303.033 318.978 309.257 329.636 308.319 330.418C307.381 331.2 304.816 330.958 304.894 330.098C304.972 329.238 299.162 323.521 299.162 323.521L294.642 322.528L293.344 317.797Z" fill="white"/>
<mask id="mask11_29_1840" style="mask-type:luminance" maskUnits="userSpaceOnUse" x="293" y="317" width="16" height="14">
<path d="M293.344 317.797C293.344 317.797 300.28 317.57 301.656 318.274C303.033 318.978 309.257 329.636 308.319 330.418C307.381 331.2 304.816 330.958 304.894 330.098C304.972 329.238 299.162 323.521 299.162 323.521L294.642 322.528L293.344 317.797Z" fill="white"/>
</mask>
<g mask="url(#mask11_29_1840)">
<path d="M293.344 317.797C293.344 317.797 300.28 317.57 301.656 318.274C303.033 318.978 309.257 329.636 308.319 330.418C307.381 331.2 304.816 330.958 304.894 330.098C304.972 329.238 299.162 323.521 299.162 323.521L294.642 322.528L293.344 317.797Z" fill="#5E53B8"/>
<path opacity="0.5" d="M293.344 317.797C293.344 317.797 300.28 317.57 301.656 318.274C303.033 318.978 309.257 329.636 308.319 330.418C307.381 331.2 304.816 330.958 304.894 330.098C304.972 329.238 299.162 323.521 299.162 323.521L294.642 322.528L293.344 317.797Z" fill="white"/>
</g>
<path d="M293.344 317.797C293.344 317.797 300.28 317.57 301.656 318.274C303.033 318.978 309.257 329.636 308.319 330.418C307.381 331.2 304.816 330.958 304.894 330.098C304.972 329.238 299.162 323.521 299.162 323.521L294.642 322.528L293.344 317.797Z" stroke="#263238" stroke-linecap="round" stroke-linejoin="round"/>
<path d="M214.479 278.056C219.499 285.79 229.579 305.387 232.52 307.592C237.11 311.033 267.796 319.384 270.752 321.668C273.708 323.951 273.504 326.243 276.304 327.079C279.103 327.916 289.598 330.317 293.602 330.692C297.605 331.068 295.815 328.589 295.815 328.589L288.988 323.897L294.939 322.426C294.939 322.426 300.906 329.605 302.024 329.996C303.142 330.387 305.113 329.996 304.988 329.113C304.769 327.697 298.403 316.116 296.143 315.623C293.883 315.13 280.167 317.031 280.167 317.031C280.167 317.031 251.397 297.629 250.881 296.941C250.881 296.941 249.161 292.061 247.753 290.052C246.345 288.042 245.454 288.621 245.454 288.621C245.454 288.621 246.033 286.032 245.172 285.172L240.582 280.582L240.418 280.801C239.636 279.237 238.854 277.454 237.994 275.42C235.593 269.767 227.093 253.9 225.661 251.609C224.59 249.896 215.613 248.668 211.062 248.152" fill="#5E53B8"/>
<mask id="mask12_29_1840" style="mask-type:luminance" maskUnits="userSpaceOnUse" x="211" y="248" width="94" height="83">
<path d="M214.479 278.056C219.499 285.79 229.579 305.387 232.52 307.592C237.11 311.033 267.796 319.384 270.752 321.668C273.708 323.951 273.504 326.243 276.304 327.079C279.103 327.916 289.598 330.317 293.602 330.692C297.605 331.068 295.815 328.589 295.815 328.589L288.988 323.897L294.939 322.426C294.939 322.426 300.906 329.605 302.024 329.996C303.142 330.387 305.113 329.996 304.988 329.113C304.769 327.697 298.403 316.116 296.143 315.623C293.883 315.13 280.167 317.031 280.167 317.031C280.167 317.031 251.397 297.629 250.881 296.941C250.881 296.941 249.161 292.061 247.753 290.052C246.345 288.042 245.454 288.621 245.454 288.621C245.454 288.621 246.033 286.032 245.172 285.172L240.582 280.582L240.418 280.801C239.636 279.237 238.854 277.454 237.994 275.42C235.593 269.767 227.093 253.9 225.661 251.609C224.59 249.896 215.613 248.668 211.062 248.152" fill="white"/>
</mask>
<g mask="url(#mask12_29_1840)">
<path opacity="0.16" d="M234.467 278.548C238.22 281.88 236.969 281.88 236.132 284.804C235.296 287.729 236.758 283.764 240.301 283.976C243.843 284.187 242.803 288.761 242.381 289.598C241.958 290.435 246.76 291.475 245.923 293.344C245.086 295.213 240.301 297.926 237.595 300.64C234.889 303.353 244.672 296.261 248.003 296.057C249.02 295.987 249.857 296.12 250.56 296.104C249.822 294.012 248.874 292 247.73 290.099C246.291 288.089 245.43 288.668 245.43 288.668C245.43 288.668 246.009 286.079 245.149 285.219L240.559 280.629L240.394 280.848C239.612 279.284 238.83 277.501 237.97 275.467C235.569 269.813 227.069 253.947 225.638 251.655C224.567 249.943 215.589 248.715 211.038 248.199L211.453 251.82L211.554 251.898C211.554 251.898 217.177 252.938 219.054 253.149C220.93 253.36 223.222 255.018 223.011 256.277C222.799 257.536 217.388 263.151 219.054 263.573C220.719 263.995 222.596 259.405 224.473 260.031C226.35 260.656 230.69 275.217 234.467 278.548Z" fill="black"/>
</g>
<path d="M214.479 278.056C219.499 285.79 229.579 305.387 232.52 307.592C237.11 311.033 267.796 319.384 270.752 321.668C273.708 323.951 273.504 326.243 276.304 327.079C279.103 327.916 289.598 330.317 293.602 330.692C297.605 331.068 295.815 328.589 295.815 328.589L288.988 323.897L294.939 322.426C294.939 322.426 300.906 329.605 302.024 329.996C303.142 330.387 305.113 329.996 304.988 329.113C304.769 327.697 298.403 316.116 296.143 315.623C293.883 315.13 280.167 317.031 280.167 317.031C280.167 317.031 251.397 297.629 250.881 296.941C250.881 296.941 249.161 292.061 247.753 290.052C246.345 288.042 245.454 288.621 245.454 288.621C245.454 288.621 246.033 286.032 245.172 285.172L240.582 280.582L240.418 280.801C239.636 279.237 238.854 277.454 237.994 275.42C235.593 269.767 227.093 253.9 225.661 251.609C224.59 249.896 215.613 248.668 211.062 248.152" stroke="#263238" stroke-linecap="round" stroke-linejoin="round"/>
<path d="M214.557 267.444C214.346 268.148 214.166 268.852 214.025 269.571" stroke="#263238" stroke-linecap="round" stroke-linejoin="round"/>
<path d="M222.158 254.502C219.701 257.303 217.629 260.419 215.996 263.769" stroke="#263238" stroke-linecap="round" stroke-linejoin="round"/>
<path d="M233.646 298.904C235.757 295.776 239.12 291.811 242.827 290.677" stroke="#263238" stroke-linecap="round" stroke-linejoin="round"/>
<path d="M231.308 302.751C231.308 302.751 231.683 302.016 232.355 300.906" stroke="#263238" stroke-linecap="round" stroke-linejoin="round"/>
<path d="M231.308 297.809C231.308 297.809 235.147 288.206 238.987 285.735C242.826 283.264 240.629 288.206 240.629 288.206" stroke="#263238" stroke-linecap="round" stroke-linejoin="round"/>
<path d="M270.752 321.676C273.715 323.967 273.504 326.25 276.304 327.087C279.103 327.924 289.598 330.325 293.602 330.7C297.605 331.075 295.815 328.596 295.815 328.596L288.988 323.904L294.939 322.434C294.939 322.434 300.906 329.613 302.024 330.004C303.142 330.395 305.269 330.536 304.988 329.12C304.44 326.383 298.403 316.124 296.143 315.631C293.883 315.138 280.167 317.038 280.167 317.038C280.167 317.038 253.962 299.052 251.092 297.105C239.964 298.177 234.67 304.003 232.441 307.498L232.52 307.561C237.11 311.033 267.796 319.384 270.752 321.676Z" fill="white"/>
<mask id="mask13_29_1840" style="mask-type:luminance" maskUnits="userSpaceOnUse" x="232" y="297" width="74" height="34">
<path d="M270.752 321.676C273.715 323.967 273.504 326.25 276.304 327.087C279.103 327.924 289.598 330.325 293.602 330.7C297.605 331.075 295.815 328.596 295.815 328.596L288.988 323.904L294.939 322.434C294.939 322.434 300.906 329.613 302.024 330.004C303.142 330.395 305.269 330.536 304.988 329.12C304.44 326.383 298.403 316.124 296.143 315.631C293.883 315.138 280.167 317.038 280.167 317.038C280.167 317.038 253.962 299.052 251.092 297.105C239.964 298.177 234.67 304.003 232.441 307.498L232.52 307.561C237.11 311.033 267.796 319.384 270.752 321.676Z" fill="white"/>
</mask>
<g mask="url(#mask13_29_1840)">
<path d="M304.98 329.152C303.557 325.672 298.395 316.155 296.135 315.662C293.875 315.169 280.159 317.07 280.159 317.07C280.159 317.07 253.954 299.084 251.084 297.137C248.164 297.391 245.298 298.084 242.584 299.193C246.721 301.539 274.294 317.179 277.774 317.875C281.465 318.657 293.782 316.632 295.948 318.086C297.324 319.009 301.422 325.508 304.19 330.121C304.98 330.004 305.269 329.855 304.98 329.152Z" fill="#5E53B8"/>
<path opacity="0.5" d="M304.98 329.152C302.759 324.17 298.395 316.155 296.135 315.662C293.875 315.169 280.159 317.07 280.159 317.07C280.159 317.07 253.954 299.084 251.084 297.137C248.164 297.391 245.298 298.084 242.584 299.193C246.721 301.539 274.294 317.179 277.774 317.875C281.465 318.657 293.782 316.632 295.948 318.086C297.324 319.009 301.422 325.508 304.19 330.121C304.98 330.004 305.293 329.848 304.98 329.152Z" fill="white"/>
</g>
<path d="M270.752 321.676C273.715 323.967 273.504 326.25 276.304 327.087C279.103 327.924 289.598 330.325 293.602 330.7C297.605 331.075 295.815 328.596 295.815 328.596L288.988 323.904L294.939 322.434C294.939 322.434 300.906 329.613 302.024 330.004C303.142 330.395 305.269 330.536 304.988 329.12C304.44 326.383 298.403 316.124 296.143 315.631C293.883 315.138 280.167 317.038 280.167 317.038C280.167 317.038 253.962 299.052 251.092 297.105C239.964 298.177 234.67 304.003 232.441 307.498L232.52 307.561C237.11 311.033 267.796 319.384 270.752 321.676Z" stroke="#263238" stroke-linecap="round" stroke-linejoin="round"/>
<path d="M201.639 185.123L178.085 194.953C177.799 199.092 176.774 203.147 175.059 206.925C172.275 212.813 173.901 223.957 176.576 229.971C179.25 235.984 191.035 233.63 195.344 232.88C198.266 232.324 201.128 231.488 203.891 230.385C205.149 230.87 206.509 231.027 207.845 230.841C209.18 230.654 210.446 230.132 211.523 229.322C211.523 229.322 198.917 193.936 201.639 185.123Z" fill="white"/>
<mask id="mask14_29_1840" style="mask-type:luminance" maskUnits="userSpaceOnUse" x="173" y="185" width="39" height="49">
<path d="M201.639 185.123L178.085 194.953C177.799 199.092 176.774 203.147 175.059 206.925C172.275 212.813 173.901 223.957 176.576 229.971C179.25 235.984 191.035 233.63 195.344 232.88C198.266 232.324 201.128 231.488 203.891 230.385C205.149 230.87 206.509 231.027 207.845 230.841C209.18 230.654 210.446 230.132 211.523 229.322C211.523 229.322 198.917 193.936 201.639 185.123Z" fill="white"/>
</mask>
<g mask="url(#mask14_29_1840)">
<path d="M201.639 185.123L178.085 194.953C177.799 199.092 176.774 203.147 175.059 206.925C172.275 212.813 173.901 223.957 176.576 229.971C177.023 230.938 177.744 231.753 178.648 232.317V231.863C178.648 231.863 174.277 221.032 175.105 214.784C175.934 208.536 179.485 205.4 179.899 201.451C180.314 197.502 180.102 195.625 188.024 192.708C195.946 189.791 199.269 187.086 200.098 189.995C200.927 192.904 204.266 212.078 206.558 216.661C208.849 221.243 208.638 226.045 205.103 228.117C201.531 230.262 197.703 231.948 193.709 233.138L195.375 232.848C198.297 232.292 201.16 231.457 203.922 230.354C205.18 230.839 206.541 230.995 207.876 230.809C209.211 230.623 210.477 230.1 211.554 229.29C211.554 229.29 198.917 193.936 201.639 185.123Z" fill="#5E53B8"/>
<path opacity="0.5" d="M201.639 185.123L178.085 194.953C177.799 199.092 176.774 203.147 175.059 206.925C172.275 212.813 173.901 223.957 176.576 229.971C177.023 230.938 177.744 231.753 178.648 232.317V231.863C178.648 231.863 174.277 221.032 175.105 214.784C175.934 208.536 179.485 205.4 179.899 201.451C180.314 197.502 180.102 195.625 188.024 192.708C195.946 189.791 199.269 187.086 200.098 189.995C200.927 192.904 204.266 212.078 206.558 216.661C208.849 221.243 208.638 226.045 205.103 228.117C201.531 230.262 197.703 231.948 193.709 233.138L195.375 232.848C198.297 232.292 201.16 231.457 203.922 230.354C205.18 230.839 206.541 230.995 207.876 230.809C209.211 230.623 210.477 230.1 211.554 229.29C211.554 229.29 198.917 193.936 201.639 185.123Z" fill="white"/>
</g>
<path d="M201.639 185.123L178.085 194.953C177.799 199.092 176.774 203.147 175.059 206.925C172.275 212.813 173.901 223.957 176.576 229.971C179.25 235.984 191.035 233.63 195.344 232.88C198.266 232.324 201.128 231.488 203.891 230.385C205.149 230.87 206.509 231.027 207.845 230.841C209.18 230.654 210.446 230.132 211.523 229.322C211.523 229.322 198.917 193.936 201.639 185.123Z" stroke="#263238" stroke-linecap="round" stroke-linejoin="round"/>
<path d="M189.737 200.536C189.801 201.921 189.629 203.307 189.228 204.634C188.603 206.198 182.699 212.344 182.879 213.009C183.058 213.674 183.59 215.809 184.638 216.012" stroke="#263238" stroke-linecap="round" stroke-linejoin="round"/>
<path d="M196.282 206.034C197.103 204.391 199.801 205.994 199.762 209.693" stroke="#263238" stroke-linecap="round" stroke-linejoin="round"/>
<path d="M182.91 201.201C182.91 201.201 185.209 200.192 187.265 203.914" stroke="#263238" stroke-linecap="round" stroke-linejoin="round"/>
<path d="M193.013 211.453C195.67 211.587 198.196 212.646 200.153 214.448" stroke="#263238" stroke-width="0.5" stroke-linecap="round" stroke-linejoin="round"/>
<path d="M180.134 206.565C181.507 206.749 182.849 207.12 184.122 207.668" stroke="#263238" stroke-width="0.5" stroke-linecap="round" stroke-linejoin="round"/>
<path d="M189.478 197.064C188.871 196.743 188.198 196.567 187.511 196.551C186.824 196.535 186.143 196.678 185.521 196.97C183.418 197.979 182.128 199.089 182.268 197.799C182.409 196.509 184.88 195.086 185.623 194.898C186.366 194.71 189.689 194.194 189.478 197.064Z" fill="#263238"/>
<path d="M195.375 194.147C197.567 195.921 199.309 198.188 200.458 200.763C202.022 204.673 203.258 200.403 202.022 197.846C200.786 195.289 197.213 192.568 195.375 194.147Z" fill="#263238"/>
<path d="M211.867 236.008C211.867 237.83 210.835 239.308 209.568 239.308C208.301 239.308 207.277 237.83 207.277 236.008C207.277 234.186 208.301 229.548 209.568 229.548C210.835 229.548 211.867 234.186 211.867 236.008Z" fill="#5E53B8" stroke="#263238" stroke-linecap="round" stroke-linejoin="round"/>
<path d="M196.485 205.322C196.395 205.561 196.325 205.807 196.274 206.057C196.047 207.214 195.821 209.631 196.274 209.732C196.728 209.834 197.838 207.574 198.034 206.417C198.078 206.19 198.104 205.96 198.112 205.729C197.578 205.561 197.035 205.425 196.485 205.322Z" fill="#263238"/>
<path d="M183.144 200.974C183.075 201.178 183.02 201.387 182.98 201.6C182.746 202.757 182.753 205.298 183.246 205.392C183.739 205.486 184.544 203.109 184.771 201.952C184.828 201.671 184.859 201.385 184.865 201.099C184.305 200.945 183.721 200.903 183.144 200.974Z" fill="#263238"/>
<path d="M196.282 206.073L197.064 204.618C198.304 204.86 199.427 205.509 200.254 206.464" stroke="#263238" stroke-width="0.75" stroke-linecap="round" stroke-linejoin="round"/>
<path d="M183.144 200.974L183.926 200.059C183.926 200.059 184.262 199.895 186.108 200.732" stroke="#263238" stroke-width="0.75" stroke-linecap="round" stroke-linejoin="round"/>
<path d="M180.181 222.182C180.181 222.182 181.494 219.765 183.254 219.765C185.013 219.765 186.327 223.715 186.327 223.715" stroke="#263238" stroke-linecap="round" stroke-linejoin="round"/>
<path d="M123.556 326.391C121.856 326.307 120.185 325.909 118.629 325.218C118.412 325.138 118.214 325.014 118.046 324.855C117.879 324.696 117.745 324.504 117.654 324.291C117.563 324.079 117.516 323.85 117.516 323.619C117.516 323.387 117.563 323.158 117.655 322.946C117.746 322.733 117.88 322.542 118.047 322.382C118.215 322.223 118.414 322.1 118.631 322.02C118.848 321.94 119.079 321.905 119.31 321.917C119.541 321.929 119.767 321.988 119.974 322.09C121.538 322.755 123.564 323.169 124.103 322.935C125.097 321.824 126.621 315.115 124.651 311.877C124.205 311.158 123.791 311.025 123.517 310.994C122.399 310.837 120.741 311.987 120.154 312.558C119.991 312.712 119.799 312.832 119.589 312.912C119.379 312.992 119.156 313.029 118.932 313.023C118.707 313.016 118.486 312.966 118.281 312.874C118.077 312.782 117.892 312.651 117.738 312.487C117.584 312.324 117.464 312.132 117.384 311.922C117.304 311.712 117.266 311.489 117.273 311.264C117.279 311.04 117.33 310.819 117.422 310.614C117.514 310.41 117.645 310.225 117.808 310.071C118.113 309.774 120.936 307.232 123.947 307.639C124.694 307.748 125.405 308.027 126.026 308.456C126.648 308.885 127.162 309.451 127.529 310.11C130.43 314.841 128.444 323.842 126.215 325.625C125.44 326.173 124.503 326.443 123.556 326.391Z" fill="white"/>
<mask id="mask15_29_1840" style="mask-type:luminance" maskUnits="userSpaceOnUse" x="117" y="307" width="12" height="20">
<path d="M123.556 326.391C121.856 326.307 120.185 325.909 118.629 325.218C118.412 325.138 118.214 325.014 118.046 324.855C117.879 324.696 117.745 324.504 117.654 324.291C117.563 324.079 117.516 323.85 117.516 323.619C117.516 323.387 117.563 323.158 117.655 322.946C117.746 322.733 117.88 322.542 118.047 322.382C118.215 322.223 118.414 322.1 118.631 322.02C118.848 321.94 119.079 321.905 119.31 321.917C119.541 321.929 119.767 321.988 119.974 322.09C121.538 322.755 123.564 323.169 124.103 322.935C125.097 321.824 126.621 315.115 124.651 311.877C124.205 311.158 123.791 311.025 123.517 310.994C122.399 310.837 120.741 311.987 120.154 312.558C119.991 312.712 119.799 312.832 119.589 312.912C119.379 312.992 119.156 313.029 118.932 313.023C118.707 313.016 118.486 312.966 118.281 312.874C118.077 312.782 117.892 312.651 117.738 312.487C117.584 312.324 117.464 312.132 117.384 311.922C117.304 311.712 117.266 311.489 117.273 311.264C117.279 311.04 117.33 310.819 117.422 310.614C117.514 310.41 117.645 310.225 117.808 310.071C118.113 309.774 120.936 307.232 123.947 307.639C124.694 307.748 125.405 308.027 126.026 308.456C126.648 308.885 127.162 309.451 127.529 310.11C130.43 314.841 128.444 323.842 126.215 325.625C125.44 326.173 124.503 326.443 123.556 326.391Z" fill="white"/>
</mask>
<g mask="url(#mask15_29_1840)">
<path d="M125.848 311.361C125.642 310.875 125.321 310.447 124.912 310.115C124.503 309.782 124.019 309.555 123.502 309.453C121.547 309.14 119.709 311.103 119.506 311.322C119.319 311.547 119.203 311.823 119.174 312.114C119.145 312.405 119.203 312.699 119.341 312.956C119.649 312.895 119.933 312.748 120.162 312.534C120.749 311.987 122.407 310.837 123.525 310.97C123.799 310.97 124.213 311.134 124.659 311.854C126.63 315.06 125.105 321.801 124.112 322.911C123.572 323.146 121.554 322.731 119.983 322.067C119.789 321.985 119.582 321.94 119.373 321.934C119.387 322.148 119.454 322.355 119.569 322.537C119.684 322.719 119.842 322.869 120.029 322.974C121.018 323.502 122.109 323.811 123.228 323.881C123.866 323.912 124.492 323.693 124.972 323.271C126.442 321.918 127.74 314.997 125.848 311.361Z" fill="#5E53B8"/>
<path opacity="0.5" d="M125.848 311.361C125.642 310.875 125.321 310.447 124.912 310.115C124.503 309.782 124.019 309.555 123.502 309.453C121.547 309.14 119.709 311.103 119.506 311.322C119.319 311.547 119.203 311.823 119.174 312.114C119.145 312.405 119.203 312.699 119.341 312.956C119.649 312.895 119.933 312.748 120.162 312.534C120.749 311.987 122.407 310.837 123.525 310.97C123.799 310.97 124.213 311.134 124.659 311.854C126.63 315.06 125.105 321.801 124.112 322.911C123.572 323.146 121.554 322.731 119.983 322.067C119.789 321.985 119.582 321.94 119.373 321.934C119.387 322.148 119.454 322.355 119.569 322.537C119.684 322.719 119.842 322.869 120.029 322.974C121.018 323.502 122.109 323.811 123.228 323.881C123.866 323.912 124.492 323.693 124.972 323.271C126.442 321.918 127.74 314.997 125.848 311.361Z" fill="white"/>
</g>
<path d="M123.556 326.391C121.856 326.307 120.185 325.909 118.629 325.218C118.412 325.138 118.214 325.014 118.046 324.855C117.879 324.696 117.745 324.504 117.654 324.291C117.563 324.079 117.516 323.85 117.516 323.619C117.516 323.387 117.563 323.158 117.655 322.946C117.746 322.733 117.88 322.542 118.047 322.382C118.215 322.223 118.414 322.1 118.631 322.02C118.848 321.94 119.079 321.905 119.31 321.917C119.541 321.929 119.767 321.988 119.974 322.09C121.538 322.755 123.564 323.169 124.103 322.935C125.097 321.824 126.621 315.115 124.651 311.877C124.205 311.158 123.791 311.025 123.517 310.994C122.399 310.837 120.741 311.987 120.154 312.558C119.991 312.712 119.799 312.832 119.589 312.912C119.379 312.992 119.156 313.029 118.932 313.023C118.707 313.016 118.486 312.966 118.281 312.874C118.077 312.782 117.892 312.651 117.738 312.487C117.584 312.324 117.464 312.132 117.384 311.922C117.304 311.712 117.266 311.489 117.273 311.264C117.279 311.04 117.33 310.819 117.422 310.614C117.514 310.41 117.645 310.225 117.808 310.071C118.113 309.774 120.936 307.232 123.947 307.639C124.694 307.748 125.405 308.027 126.026 308.456C126.648 308.885 127.162 309.451 127.529 310.11C130.43 314.841 128.444 323.842 126.215 325.625C125.44 326.173 124.503 326.443 123.556 326.391Z" stroke="#263238" stroke-linecap="round" stroke-linejoin="round"/>
<path d="M120.569 306.216H101.762V331.177H120.569V306.216Z" fill="white"/>
<mask id="mask16_29_1840" style="mask-type:luminance" maskUnits="userSpaceOnUse" x="101" y="306" width="20" height="26">
<path d="M120.569 306.216H101.762V331.177H120.569V306.216Z" fill="white"/>
</mask>
<g mask="url(#mask16_29_1840)">
<path d="M109.464 306.216H101.762V331.177H109.464V306.216Z" fill="#5E53B8"/>
<path opacity="0.5" d="M109.464 306.216H101.762V331.177H109.464V306.216Z" fill="white"/>
</g>
<path d="M120.569 306.216H101.762V331.177H120.569V306.216Z" stroke="#263238" stroke-linecap="round" stroke-linejoin="round"/>
<path d="M223.918 330.833H143.575L140.956 286.666C140.883 286.237 140.905 285.798 141.018 285.379C141.132 284.96 141.335 284.571 141.614 284.238C141.893 283.904 142.24 283.636 142.633 283.45C143.026 283.265 143.454 283.166 143.888 283.162H223.574C224.011 283.162 224.443 283.257 224.839 283.44C225.236 283.624 225.587 283.892 225.869 284.226C226.152 284.559 226.358 284.95 226.473 285.372C226.588 285.793 226.611 286.235 226.538 286.666L223.918 330.833Z" fill="#263238" stroke="#263238" stroke-linecap="round" stroke-linejoin="round"/>
<path d="M147.532 284.218H222.995C223.422 284.214 223.844 284.302 224.232 284.478C224.62 284.654 224.965 284.913 225.243 285.236C225.521 285.559 225.725 285.94 225.841 286.35C225.956 286.76 225.981 287.191 225.912 287.612" stroke="white" stroke-linecap="round" stroke-linejoin="round"/>
<path d="M141.542 286.916C141.605 286.177 141.944 285.489 142.492 284.988C143.04 284.488 143.756 284.213 144.498 284.218" stroke="white" stroke-linecap="round" stroke-linejoin="round"/>
<path d="M224.254 326.532H143.239V330.833H224.254V326.532Z" fill="white" stroke="#263238" stroke-linecap="round" stroke-linejoin="round"/>
<path d="M183.457 310.61C186.627 310.61 189.197 309.07 189.197 307.17C189.197 305.269 186.627 303.729 183.457 303.729C180.287 303.729 177.717 305.269 177.717 307.17C177.717 309.07 180.287 310.61 183.457 310.61Z" fill="white" stroke="#263238" stroke-linecap="round" stroke-linejoin="round"/>
<path d="M346.45 330.325H44.707V337.652H346.45V330.325Z" fill="#263238"/>
<path d="M268.21 58.65H123.048C118.154 58.65 114.188 62.6168 114.188 67.5101V150.801C114.188 155.694 118.154 159.661 123.048 159.661H268.21C273.104 159.661 277.07 155.694 277.07 150.801V67.5101C277.07 62.6168 273.104 58.65 268.21 58.65Z" fill="#5E53B8"/>
<path d="M199.459 116.698C212.627 114.582 221.586 102.192 219.47 89.024C217.354 75.8563 204.964 66.8973 191.796 69.0135C178.628 71.1297 169.669 83.5198 171.785 96.6875C173.902 109.855 186.292 118.814 199.459 116.698Z" fill="#263238"/>
<path d="M195.445 97.3199L187.398 107.65C187.125 108.08 186.748 108.435 186.303 108.684C185.858 108.932 185.358 109.066 184.849 109.073C184.15 109.083 183.475 108.816 182.972 108.33C182.716 108.096 182.514 107.809 182.379 107.489C182.244 107.169 182.18 106.824 182.19 106.477C182.215 105.7 182.489 104.952 182.972 104.342L192.145 92.9954L183.543 81.6408C183.143 81.1079 182.924 80.4614 182.917 79.7953C182.915 79.398 182.996 79.0046 183.153 78.6399C183.31 78.2752 183.542 77.947 183.832 77.6761C184.105 77.3912 184.433 77.1646 184.796 77.01C185.159 76.8555 185.549 76.7761 185.944 76.7768C186.449 76.785 186.944 76.9195 187.384 77.1681C187.824 77.4167 188.194 77.7714 188.462 78.2L196.235 88.4364L204.055 78.372C204.334 77.9025 204.725 77.5091 205.193 77.2268C205.661 76.9444 206.191 76.7818 206.737 76.7533C207.076 76.7525 207.411 76.8215 207.722 76.956C208.033 77.0906 208.312 77.2878 208.543 77.5353C208.79 77.7673 208.986 78.0472 209.121 78.3578C209.255 78.6685 209.325 79.0033 209.325 79.3417C209.317 79.9474 209.108 80.5332 208.731 81.0074L199.527 92.7843L208.418 104.514C208.839 105.039 209.073 105.688 209.083 106.36C209.086 106.748 209.004 107.133 208.843 107.487C208.682 107.84 208.447 108.155 208.152 108.409C207.579 108.96 206.814 109.269 206.018 109.269C205.51 109.263 205.012 109.129 204.569 108.88C204.127 108.632 203.753 108.276 203.484 107.846L195.445 97.3199Z" fill="white"/>
<path d="M241.638 142.168H149.589C147.722 142.168 145.932 141.426 144.612 140.106C143.292 138.786 142.551 136.996 142.551 135.13C142.551 133.263 143.292 131.473 144.612 130.153C145.932 128.833 147.722 128.092 149.589 128.092H241.638C243.505 128.092 245.295 128.833 246.615 130.153C247.934 131.473 248.676 133.263 248.676 135.13C248.676 136.996 247.934 138.786 246.615 140.106C245.295 141.426 243.505 142.168 241.638 142.168Z" fill="white"/>
<path d="M162.202 137.397C162.141 137.397 162.08 137.385 162.023 137.361C161.967 137.337 161.916 137.301 161.874 137.257C161.827 137.211 161.791 137.156 161.767 137.095C161.743 137.035 161.731 136.97 161.733 136.905C161.733 136.795 161.763 136.687 161.819 136.592L162.523 135.497H161.084C161.017 135.501 160.951 135.49 160.889 135.466C160.827 135.441 160.771 135.404 160.724 135.356C160.644 135.263 160.6 135.144 160.6 135.02C160.6 134.897 160.644 134.777 160.724 134.684C160.771 134.636 160.827 134.599 160.889 134.575C160.951 134.55 161.017 134.54 161.084 134.543L162.499 134.582L161.874 133.566C161.811 133.461 161.776 133.343 161.772 133.222C161.77 133.156 161.782 133.092 161.806 133.031C161.83 132.97 161.867 132.916 161.913 132.87C161.957 132.825 162.009 132.789 162.067 132.765C162.124 132.741 162.186 132.729 162.249 132.729C162.337 132.728 162.423 132.752 162.496 132.799C162.57 132.847 162.628 132.915 162.664 132.995L163.352 134.222L164.009 133.049C164.05 132.958 164.116 132.88 164.198 132.824C164.281 132.767 164.378 132.734 164.478 132.729C164.539 132.729 164.6 132.741 164.656 132.766C164.713 132.79 164.764 132.825 164.806 132.87C164.852 132.913 164.888 132.965 164.913 133.023C164.937 133.081 164.949 133.143 164.947 133.206C164.946 133.317 164.913 133.425 164.853 133.519L164.165 134.621L165.596 134.582C165.663 134.578 165.729 134.589 165.791 134.613C165.853 134.637 165.91 134.675 165.956 134.723C166.036 134.817 166.08 134.936 166.08 135.059C166.08 135.183 166.036 135.302 165.956 135.395C165.91 135.444 165.853 135.481 165.791 135.505C165.729 135.53 165.663 135.54 165.596 135.536H164.149L164.791 136.537C164.863 136.658 164.903 136.795 164.908 136.936C164.91 136.999 164.899 137.063 164.877 137.122C164.854 137.181 164.819 137.235 164.775 137.28C164.734 137.324 164.684 137.359 164.629 137.383C164.574 137.407 164.515 137.42 164.454 137.421C164.358 137.419 164.263 137.389 164.183 137.335C164.103 137.28 164.039 137.205 164.001 137.116L163.352 135.966L162.703 137.116C162.656 137.206 162.583 137.281 162.494 137.331C162.406 137.381 162.304 137.404 162.202 137.397Z" fill="black"/>
<path d="M169.381 137.397C169.319 137.397 169.259 137.385 169.202 137.361C169.146 137.337 169.095 137.301 169.052 137.257C169.006 137.211 168.97 137.156 168.946 137.095C168.921 137.035 168.91 136.97 168.912 136.905C168.912 136.795 168.941 136.687 168.998 136.592L169.701 135.497H168.263C168.196 135.501 168.13 135.49 168.068 135.465C168.006 135.441 167.949 135.404 167.903 135.356C167.823 135.263 167.778 135.143 167.778 135.02C167.778 134.897 167.823 134.777 167.903 134.684C167.949 134.636 168.006 134.599 168.068 134.575C168.13 134.55 168.196 134.54 168.263 134.543L169.678 134.582L169.013 133.526C168.951 133.422 168.916 133.304 168.912 133.182C168.91 133.117 168.921 133.052 168.946 132.992C168.97 132.931 169.006 132.876 169.052 132.831C169.096 132.786 169.149 132.75 169.206 132.726C169.264 132.702 169.326 132.69 169.389 132.69C169.476 132.688 169.562 132.713 169.636 132.76C169.71 132.808 169.768 132.876 169.803 132.956L170.491 134.183L171.148 133.01C171.19 132.919 171.255 132.841 171.338 132.784C171.421 132.728 171.517 132.695 171.617 132.69C171.679 132.69 171.74 132.702 171.796 132.726C171.853 132.751 171.903 132.786 171.946 132.831C171.992 132.873 172.028 132.926 172.052 132.984C172.076 133.042 172.088 133.104 172.087 133.167C172.086 133.278 172.053 133.386 171.993 133.48L171.305 134.582L172.736 134.543C172.802 134.539 172.869 134.55 172.931 134.574C172.993 134.598 173.049 134.636 173.095 134.684C173.176 134.777 173.22 134.897 173.22 135.02C173.22 135.143 173.176 135.263 173.095 135.356C173.049 135.404 172.993 135.442 172.931 135.466C172.869 135.491 172.802 135.501 172.736 135.497H171.289L171.93 136.498C172.003 136.619 172.043 136.756 172.047 136.897C172.05 136.96 172.039 137.023 172.016 137.083C171.993 137.142 171.959 137.196 171.915 137.241C171.873 137.285 171.824 137.32 171.769 137.344C171.714 137.368 171.654 137.381 171.594 137.382C171.497 137.38 171.402 137.351 171.322 137.297C171.241 137.242 171.178 137.166 171.14 137.077L170.491 135.927L169.842 137.077C169.804 137.169 169.74 137.247 169.658 137.304C169.576 137.361 169.48 137.393 169.381 137.397Z" fill="black"/>
<path d="M176.56 137.397C176.498 137.397 176.437 137.385 176.381 137.361C176.324 137.337 176.274 137.301 176.231 137.257C176.185 137.211 176.149 137.156 176.124 137.095C176.1 137.035 176.089 136.97 176.09 136.905C176.09 136.795 176.12 136.687 176.176 136.592L176.88 135.497H175.441C175.375 135.501 175.308 135.49 175.246 135.465C175.184 135.441 175.128 135.404 175.082 135.356C175.001 135.263 174.957 135.143 174.957 135.02C174.957 134.897 175.001 134.777 175.082 134.684C175.128 134.636 175.184 134.599 175.246 134.575C175.308 134.55 175.375 134.54 175.441 134.543L176.857 134.582L176.192 133.526C176.129 133.422 176.094 133.304 176.09 133.182C176.089 133.117 176.1 133.052 176.124 132.992C176.149 132.931 176.185 132.876 176.231 132.831C176.275 132.786 176.327 132.75 176.385 132.726C176.443 132.702 176.505 132.69 176.567 132.69C176.655 132.688 176.741 132.713 176.815 132.76C176.888 132.808 176.947 132.876 176.982 132.956L177.67 134.183L178.327 133.01C178.368 132.919 178.434 132.841 178.517 132.784C178.599 132.728 178.696 132.695 178.796 132.69C178.858 132.69 178.918 132.702 178.975 132.726C179.031 132.751 179.082 132.786 179.125 132.831C179.17 132.873 179.207 132.926 179.231 132.984C179.255 133.042 179.267 133.104 179.265 133.167C179.264 133.278 179.232 133.386 179.171 133.48L178.483 134.582L179.914 134.543C179.981 134.539 180.048 134.55 180.11 134.574C180.172 134.598 180.228 134.636 180.274 134.684C180.354 134.777 180.399 134.897 180.399 135.02C180.399 135.143 180.354 135.263 180.274 135.356C180.228 135.404 180.172 135.442 180.11 135.466C180.048 135.491 179.981 135.501 179.914 135.497H178.468L179.109 136.498C179.181 136.619 179.222 136.756 179.226 136.897C179.228 136.96 179.218 137.023 179.195 137.083C179.172 137.142 179.138 137.196 179.093 137.241C179.052 137.285 179.002 137.32 178.947 137.344C178.892 137.368 178.833 137.381 178.773 137.382C178.676 137.38 178.581 137.351 178.501 137.297C178.42 137.242 178.357 137.166 178.319 137.077L177.67 135.927L177.021 137.077C176.982 137.169 176.919 137.247 176.837 137.304C176.755 137.361 176.659 137.393 176.56 137.397Z" fill="black"/>
<path d="M183.77 137.397C183.709 137.397 183.648 137.385 183.591 137.361C183.535 137.337 183.484 137.301 183.442 137.257C183.395 137.211 183.359 137.156 183.335 137.095C183.311 137.035 183.299 136.97 183.301 136.905C183.301 136.795 183.33 136.687 183.387 136.592L184.091 135.497H182.652C182.585 135.501 182.519 135.49 182.457 135.465C182.395 135.441 182.339 135.404 182.292 135.356C182.212 135.263 182.167 135.143 182.167 135.02C182.167 134.897 182.212 134.777 182.292 134.684C182.339 134.636 182.395 134.599 182.457 134.575C182.519 134.55 182.585 134.54 182.652 134.543L184.067 134.582L183.402 133.526C183.34 133.422 183.305 133.304 183.301 133.182C183.299 133.117 183.311 133.052 183.335 132.992C183.359 132.931 183.395 132.876 183.442 132.831C183.485 132.786 183.538 132.75 183.595 132.726C183.653 132.702 183.715 132.69 183.778 132.69C183.865 132.688 183.951 132.713 184.025 132.76C184.099 132.808 184.157 132.876 184.192 132.956L184.88 134.183L185.537 133.01C185.579 132.919 185.644 132.841 185.727 132.784C185.81 132.728 185.906 132.695 186.007 132.69C186.068 132.69 186.129 132.702 186.185 132.726C186.242 132.751 186.293 132.786 186.335 132.831C186.381 132.873 186.417 132.926 186.441 132.984C186.466 133.042 186.477 133.104 186.476 133.167C186.475 133.278 186.442 133.386 186.382 133.48L185.694 134.582L187.125 134.543C187.191 134.539 187.258 134.55 187.32 134.574C187.382 134.598 187.438 134.636 187.485 134.684C187.565 134.777 187.609 134.897 187.609 135.02C187.609 135.143 187.565 135.263 187.485 135.356C187.438 135.404 187.382 135.442 187.32 135.466C187.258 135.491 187.191 135.501 187.125 135.497H185.678L186.319 136.498C186.392 136.619 186.432 136.756 186.437 136.897C186.439 136.96 186.428 137.023 186.405 137.083C186.383 137.142 186.348 137.196 186.304 137.241C186.263 137.285 186.213 137.32 186.158 137.344C186.103 137.368 186.043 137.381 185.983 137.382C185.886 137.379 185.792 137.349 185.712 137.295C185.631 137.241 185.568 137.166 185.53 137.077L184.88 135.927L184.231 137.077C184.193 137.169 184.129 137.247 184.047 137.304C183.966 137.361 183.869 137.393 183.77 137.397Z" fill="black"/>
<path d="M190.917 137.397C190.856 137.397 190.795 137.385 190.739 137.361C190.682 137.337 190.631 137.301 190.589 137.257C190.543 137.211 190.506 137.156 190.482 137.095C190.458 137.035 190.446 136.97 190.448 136.905C190.452 136.795 190.481 136.688 190.534 136.592L191.238 135.497H189.799C189.733 135.501 189.666 135.49 189.604 135.465C189.542 135.441 189.486 135.404 189.44 135.356C189.359 135.263 189.315 135.143 189.315 135.02C189.315 134.897 189.359 134.777 189.44 134.684C189.486 134.636 189.542 134.599 189.604 134.575C189.666 134.55 189.733 134.54 189.799 134.543L191.215 134.582L190.55 133.526C190.487 133.422 190.452 133.304 190.448 133.182C190.446 133.117 190.458 133.052 190.482 132.992C190.506 132.931 190.543 132.876 190.589 132.831C190.633 132.786 190.685 132.75 190.743 132.726C190.801 132.702 190.863 132.69 190.925 132.69C191.013 132.688 191.099 132.713 191.173 132.76C191.246 132.808 191.304 132.876 191.34 132.956L192.028 134.183L192.685 133.01C192.726 132.919 192.792 132.841 192.875 132.784C192.957 132.728 193.054 132.695 193.154 132.69C193.216 132.689 193.277 132.701 193.333 132.725C193.39 132.749 193.441 132.785 193.482 132.831C193.528 132.873 193.565 132.926 193.589 132.984C193.613 133.042 193.625 133.104 193.623 133.167C193.622 133.278 193.59 133.386 193.529 133.48L192.841 134.582L194.272 134.543C194.339 134.539 194.405 134.55 194.468 134.574C194.53 134.598 194.586 134.636 194.632 134.684C194.712 134.777 194.757 134.897 194.757 135.02C194.757 135.143 194.712 135.263 194.632 135.356C194.586 135.404 194.53 135.442 194.468 135.466C194.405 135.491 194.339 135.501 194.272 135.497H192.826L193.467 136.498C193.539 136.619 193.58 136.756 193.584 136.897C193.586 136.96 193.576 137.023 193.553 137.083C193.53 137.142 193.495 137.196 193.451 137.241C193.41 137.285 193.36 137.32 193.305 137.344C193.25 137.368 193.191 137.381 193.131 137.382C193.034 137.379 192.94 137.349 192.859 137.295C192.779 137.241 192.716 137.166 192.677 137.077L192.028 135.927L191.379 137.077C191.34 137.169 191.276 137.247 191.195 137.304C191.113 137.361 191.017 137.393 190.917 137.397Z" fill="black"/>
<path d="M198.096 137.397C198.035 137.397 197.974 137.385 197.918 137.361C197.861 137.337 197.81 137.301 197.768 137.257C197.721 137.211 197.685 137.156 197.661 137.095C197.637 137.035 197.625 136.97 197.627 136.905C197.631 136.795 197.66 136.688 197.713 136.592L198.417 135.497H196.986C196.918 135.501 196.85 135.491 196.787 135.466C196.723 135.442 196.666 135.405 196.618 135.356C196.538 135.263 196.494 135.143 196.494 135.02C196.494 134.897 196.538 134.777 196.618 134.684C196.666 134.636 196.723 134.598 196.787 134.574C196.85 134.55 196.918 134.539 196.986 134.543L198.393 134.582L197.729 133.526C197.666 133.422 197.631 133.304 197.627 133.182C197.625 133.117 197.637 133.052 197.661 132.992C197.685 132.931 197.721 132.876 197.768 132.831C197.812 132.786 197.864 132.75 197.922 132.726C197.979 132.702 198.041 132.69 198.104 132.69C198.192 132.688 198.278 132.713 198.351 132.76C198.425 132.808 198.483 132.876 198.518 132.956L199.207 134.183L199.864 133.01C199.905 132.919 199.971 132.841 200.053 132.784C200.136 132.728 200.233 132.695 200.333 132.69C200.394 132.689 200.455 132.701 200.512 132.725C200.569 132.749 200.619 132.785 200.661 132.831C200.707 132.873 200.743 132.926 200.767 132.984C200.792 133.042 200.803 133.104 200.802 133.167C200.801 133.278 200.768 133.386 200.708 133.48L200.02 134.582L201.451 134.543C201.518 134.539 201.584 134.55 201.646 134.574C201.708 134.598 201.764 134.636 201.811 134.684C201.891 134.777 201.935 134.897 201.935 135.02C201.935 135.143 201.891 135.263 201.811 135.356C201.764 135.404 201.708 135.442 201.646 135.466C201.584 135.491 201.518 135.501 201.451 135.497H200.004L200.646 136.498C200.718 136.619 200.758 136.756 200.763 136.897C200.765 136.96 200.754 137.023 200.732 137.083C200.709 137.142 200.674 137.196 200.63 137.241C200.589 137.285 200.539 137.32 200.484 137.344C200.429 137.368 200.369 137.381 200.309 137.382C200.212 137.379 200.118 137.349 200.038 137.295C199.958 137.241 199.894 137.166 199.856 137.077L199.207 135.927L198.558 137.077C198.519 137.169 198.455 137.247 198.374 137.304C198.292 137.361 198.196 137.393 198.096 137.397Z" fill="black"/>
<path d="M205.275 137.397C205.213 137.397 205.153 137.385 205.096 137.361C205.04 137.337 204.989 137.301 204.946 137.257C204.9 137.211 204.864 137.156 204.84 137.095C204.815 137.035 204.804 136.97 204.806 136.905C204.806 136.795 204.835 136.687 204.892 136.592L205.596 135.497H204.157C204.09 135.501 204.024 135.49 203.962 135.466C203.9 135.441 203.843 135.404 203.797 135.356C203.717 135.263 203.672 135.144 203.672 135.02C203.672 134.897 203.717 134.777 203.797 134.684C203.843 134.636 203.9 134.599 203.962 134.575C204.024 134.55 204.09 134.54 204.157 134.543L205.572 134.582L204.884 133.566C204.821 133.461 204.786 133.343 204.782 133.222C204.78 133.156 204.792 133.092 204.816 133.031C204.84 132.97 204.877 132.916 204.923 132.87C204.967 132.825 205.019 132.789 205.077 132.765C205.135 132.741 205.197 132.729 205.259 132.729C205.347 132.728 205.433 132.752 205.507 132.799C205.58 132.847 205.638 132.915 205.674 132.995L206.362 134.222L207.019 133.049C207.06 132.958 207.126 132.88 207.208 132.824C207.291 132.767 207.388 132.734 207.488 132.729C207.55 132.728 207.611 132.74 207.667 132.764C207.724 132.788 207.775 132.824 207.816 132.87C207.862 132.913 207.898 132.965 207.923 133.023C207.947 133.081 207.959 133.143 207.957 133.206C207.956 133.317 207.924 133.425 207.863 133.519L207.175 134.621L208.606 134.582C208.673 134.578 208.739 134.589 208.802 134.613C208.864 134.637 208.92 134.675 208.966 134.723C209.046 134.817 209.091 134.936 209.091 135.059C209.091 135.183 209.046 135.302 208.966 135.395C208.92 135.444 208.864 135.481 208.802 135.505C208.739 135.53 208.673 135.54 208.606 135.536H207.16L207.801 136.537C207.873 136.658 207.913 136.795 207.918 136.936C207.92 136.999 207.91 137.063 207.887 137.122C207.864 137.181 207.829 137.235 207.785 137.28C207.744 137.324 207.694 137.359 207.639 137.383C207.584 137.407 207.525 137.42 207.464 137.421C207.368 137.419 207.274 137.389 207.193 137.335C207.113 137.281 207.05 137.205 207.011 137.116L206.362 135.966L205.713 137.116C205.671 137.197 205.608 137.266 205.531 137.315C205.454 137.364 205.366 137.393 205.275 137.397Z" fill="black"/>
<path d="M212.454 137.397C212.392 137.397 212.332 137.385 212.275 137.361C212.219 137.337 212.168 137.301 212.125 137.257C212.079 137.211 212.043 137.156 212.019 137.095C211.994 137.035 211.983 136.97 211.985 136.905C211.988 136.795 212.018 136.688 212.071 136.592L212.774 135.497H211.343C211.277 135.502 211.21 135.492 211.147 135.468C211.085 135.443 211.029 135.405 210.984 135.356C210.898 135.265 210.851 135.145 210.851 135.02C210.851 134.895 210.898 134.775 210.984 134.684C211.029 134.635 211.085 134.597 211.147 134.572C211.21 134.548 211.277 134.538 211.343 134.543L212.751 134.582L212.086 133.527C212.024 133.422 211.989 133.304 211.985 133.182C211.983 133.118 211.993 133.055 212.016 132.995C212.039 132.935 212.074 132.881 212.119 132.835C212.163 132.789 212.216 132.752 212.275 132.728C212.334 132.703 212.398 132.69 212.462 132.69C212.549 132.688 212.635 132.713 212.709 132.76C212.783 132.808 212.841 132.876 212.876 132.956L213.564 134.183L214.221 133.01C214.263 132.919 214.328 132.841 214.411 132.784C214.494 132.728 214.59 132.695 214.69 132.69C214.752 132.688 214.813 132.699 214.87 132.724C214.927 132.748 214.978 132.784 215.019 132.831C215.065 132.873 215.101 132.926 215.125 132.984C215.149 133.042 215.161 133.104 215.16 133.167C215.159 133.278 215.126 133.386 215.066 133.48L214.378 134.582L215.809 134.543C215.875 134.539 215.942 134.55 216.004 134.574C216.066 134.598 216.122 134.636 216.168 134.684C216.249 134.777 216.293 134.897 216.293 135.02C216.293 135.144 216.249 135.263 216.168 135.356C216.122 135.404 216.066 135.442 216.004 135.466C215.942 135.491 215.875 135.501 215.809 135.497H214.362L215.003 136.498C215.076 136.619 215.116 136.756 215.12 136.897C215.123 136.959 215.112 137.02 215.091 137.078C215.069 137.135 215.036 137.188 214.994 137.233C214.952 137.278 214.901 137.315 214.845 137.34C214.789 137.366 214.729 137.38 214.667 137.382C214.57 137.379 214.476 137.349 214.396 137.295C214.315 137.241 214.252 137.166 214.213 137.077L213.564 135.927L212.915 137.077C212.877 137.169 212.813 137.247 212.731 137.304C212.649 137.361 212.553 137.393 212.454 137.397Z" fill="black"/>
<path d="M219.633 137.397C219.571 137.397 219.51 137.385 219.454 137.361C219.397 137.337 219.346 137.301 219.304 137.257C219.258 137.211 219.221 137.156 219.197 137.095C219.173 137.035 219.162 136.97 219.163 136.905C219.167 136.795 219.196 136.688 219.249 136.592L219.953 135.497H218.514C218.449 135.501 218.383 135.49 218.323 135.466C218.262 135.442 218.207 135.404 218.162 135.356C218.077 135.265 218.03 135.145 218.03 135.02C218.03 134.895 218.077 134.775 218.162 134.684C218.207 134.636 218.262 134.599 218.323 134.574C218.383 134.55 218.449 134.539 218.514 134.543L219.93 134.582L219.265 133.527C219.202 133.422 219.167 133.304 219.163 133.182C219.161 133.118 219.172 133.055 219.195 132.995C219.218 132.935 219.253 132.881 219.297 132.835C219.342 132.789 219.395 132.752 219.454 132.728C219.513 132.703 219.576 132.69 219.64 132.69C219.728 132.688 219.814 132.713 219.888 132.76C219.961 132.808 220.02 132.876 220.055 132.956L220.743 134.183L221.4 133.01C221.441 132.919 221.507 132.841 221.59 132.784C221.672 132.728 221.769 132.695 221.869 132.69C221.931 132.688 221.992 132.699 222.049 132.724C222.106 132.748 222.156 132.784 222.198 132.831C222.243 132.873 222.28 132.926 222.304 132.984C222.328 133.042 222.34 133.104 222.338 133.167C222.337 133.278 222.305 133.386 222.244 133.48L221.556 134.582L222.987 134.543C223.054 134.539 223.121 134.55 223.183 134.574C223.245 134.598 223.301 134.636 223.347 134.684C223.427 134.777 223.472 134.897 223.472 135.02C223.472 135.144 223.427 135.263 223.347 135.356C223.301 135.404 223.245 135.442 223.183 135.466C223.121 135.491 223.054 135.501 222.987 135.497H221.541L222.182 136.498C222.254 136.619 222.295 136.756 222.299 136.897C222.301 136.959 222.291 137.02 222.27 137.078C222.248 137.135 222.215 137.188 222.173 137.233C222.131 137.278 222.08 137.315 222.024 137.34C221.968 137.366 221.907 137.38 221.846 137.382C221.749 137.379 221.655 137.349 221.574 137.295C221.494 137.241 221.431 137.166 221.392 137.077L220.743 135.927L220.094 137.077C220.055 137.169 219.992 137.247 219.91 137.304C219.828 137.361 219.732 137.393 219.633 137.397Z" fill="black"/>
<path d="M226.78 137.397C226.719 137.397 226.658 137.385 226.601 137.361C226.545 137.337 226.494 137.301 226.452 137.257C226.405 137.211 226.369 137.156 226.345 137.095C226.321 137.035 226.309 136.97 226.311 136.905C226.314 136.795 226.344 136.688 226.397 136.592L227.101 135.497H225.662C225.596 135.501 225.531 135.49 225.47 135.466C225.409 135.442 225.355 135.404 225.31 135.356C225.225 135.265 225.177 135.145 225.177 135.02C225.177 134.895 225.225 134.775 225.31 134.684C225.355 134.636 225.409 134.599 225.47 134.574C225.531 134.55 225.596 134.539 225.662 134.543L227.077 134.582L226.412 133.527C226.35 133.422 226.315 133.304 226.311 133.182C226.309 133.117 226.321 133.052 226.345 132.992C226.369 132.931 226.405 132.876 226.452 132.831C226.495 132.786 226.548 132.75 226.605 132.726C226.663 132.702 226.725 132.69 226.788 132.69C226.875 132.688 226.961 132.713 227.035 132.76C227.109 132.808 227.167 132.876 227.202 132.956L227.89 134.183L228.547 133.01C228.589 132.919 228.654 132.841 228.737 132.784C228.82 132.728 228.916 132.695 229.017 132.69C229.078 132.688 229.14 132.699 229.196 132.724C229.253 132.748 229.304 132.784 229.345 132.831C229.391 132.873 229.427 132.926 229.451 132.984C229.476 133.042 229.487 133.104 229.486 133.167C229.485 133.278 229.452 133.386 229.392 133.48L228.704 134.582L230.135 134.543C230.201 134.539 230.268 134.55 230.33 134.574C230.392 134.598 230.448 134.636 230.495 134.684C230.575 134.777 230.619 134.897 230.619 135.02C230.619 135.144 230.575 135.263 230.495 135.356C230.448 135.404 230.392 135.442 230.33 135.466C230.268 135.491 230.201 135.501 230.135 135.497H228.688L229.329 136.498C229.402 136.619 229.442 136.756 229.447 136.897C229.449 136.96 229.438 137.023 229.415 137.083C229.393 137.142 229.358 137.196 229.314 137.241C229.273 137.285 229.223 137.32 229.168 137.344C229.113 137.368 229.053 137.381 228.993 137.382C228.896 137.379 228.802 137.349 228.722 137.295C228.641 137.241 228.578 137.166 228.54 137.077L227.89 135.927L227.241 137.077C227.203 137.169 227.139 137.247 227.057 137.304C226.976 137.361 226.879 137.393 226.78 137.397Z" fill="black"/>
<path d="M251.381 154.695H260.945" stroke="white" stroke-width="3" stroke-linecap="round" stroke-linejoin="round"/>
<path d="M118.731 84.2761V147.798C118.731 149.638 119.462 151.402 120.763 152.703C122.063 154.004 123.828 154.734 125.667 154.734H242.303" stroke="white" stroke-width="3" stroke-linecap="round" stroke-linejoin="round"/>
<path d="M118.731 67.4319V76.9566" stroke="white" stroke-width="3" stroke-linecap="round" stroke-linejoin="round"/>
</svg>
