<svg width="26" height="22" viewBox="0 0 26 22" fill="none" xmlns="http://www.w3.org/2000/svg">
<path d="M12.4014 3.20795L13 4.00127L13.5987 3.20795C14.7219 1.71959 16.5234 0.75 18.5352 0.75C21.9509 0.75 24.7167 3.5067 24.7167 6.90899C24.7167 8.29748 24.4934 9.57865 24.1054 10.7674L24.1039 10.7723C23.1735 13.6913 21.2648 16.0493 19.1973 17.8109C17.1267 19.5751 14.9407 20.7034 13.5332 21.1782L13.5332 21.1781L13.5252 21.1809C13.4179 21.2185 13.2274 21.25 13 21.25C12.7726 21.25 12.5822 21.2185 12.4748 21.1809L12.4748 21.1809L12.4668 21.1782C11.0593 20.7034 8.87331 19.5751 6.80273 17.8109C4.73523 16.0493 2.82658 13.6913 1.89617 10.7723L1.89619 10.7723L1.89459 10.7674C1.50667 9.57865 1.28333 8.29748 1.28333 6.90899C1.28333 3.5067 4.04914 0.75 7.46481 0.75C9.47659 0.75 11.2782 1.71959 12.4014 3.20795Z" stroke="#FEFFE8" stroke-width="1.5"/>
</svg>
