<svg width="96" height="96" viewBox="0 0 96 96" fill="none" xmlns="http://www.w3.org/2000/svg">
<g clip-path="url(#clip0_1650_1011)">
<path fill-rule="evenodd" clip-rule="evenodd" d="M23.3081 52.014C23.5746 51.4144 24.4254 51.4144 24.6918 52.014L25.3719 53.5C28.2814 59.5192 32.8649 64.572 38.5712 68.0524L39.6307 68.6732C40.1232 68.9504 40.1232 69.6592 39.6307 69.936L38.5712 70.5572C32.8649 74.0376 28.2814 79.09 25.3719 85.1092L24.6918 86.5956C24.4254 87.1948 23.5746 87.1948 23.3081 86.5956L22.6281 85.1092C19.7185 79.09 15.135 74.0376 9.42879 70.5572L8.36927 69.936C7.87691 69.6592 7.87691 68.9504 8.36927 68.6732L9.42879 68.0524C15.135 64.572 19.7185 59.5192 22.6281 53.5C22.8649 53.0104 23.0868 52.512 23.3081 52.014ZM23.9878 65.96L23.2873 66.784C22.7891 67.3448 22.2762 67.8924 21.7491 68.4263L20.948 69.2168L20.8398 69.312L21.7492 70.204L22.5291 71.0151L23.2873 71.8464L23.9878 72.668L24.6899 71.8464C25.1882 71.2856 25.7011 70.7379 26.2281 70.204L27.1358 69.312L27.0293 69.2168C26.4882 68.6968 25.961 68.1627 25.4483 67.6152L24.69 66.784L23.9878 65.96ZM57.8908 10.9196C58.3572 9.87054 59.846 9.87054 60.3124 10.9196L60.9144 12.2635L61.5024 13.5203L62.2855 15.0828L63.1892 16.7581L63.6376 17.5457C67.6252 24.4272 72.9204 30.4553 79.2166 35.2922L80.9252 36.558C82.118 37.4099 83.344 38.2202 84.6012 38.9869C85.212 39.3595 85.83 39.7217 86.4552 40.0736C87.3168 40.558 87.3168 41.7988 86.4552 42.2832C85.83 42.6352 85.212 42.9972 84.6012 43.37C83.763 43.8809 82.9388 44.4114 82.129 44.9607L80.6872 45.9696C73.7428 50.9792 67.932 57.4 63.6376 64.8112L63.1116 65.7376C62.5468 66.7528 62.01 67.7864 61.5024 68.8364L60.9144 70.0932L60.3124 71.4372C59.846 72.486 58.3572 72.486 57.8908 71.4372L57.2888 70.0932L56.7008 68.8364L55.9176 67.2739L55.014 65.5984L54.5656 64.8112C50.5779 57.9294 45.2824 51.9015 38.9865 47.0645L37.2778 45.7988C36.0849 44.9468 34.859 44.1364 33.602 43.37C32.9912 42.9972 32.373 42.6352 31.7477 42.2832C30.8861 41.7988 30.8861 40.558 31.7477 40.0736C32.373 39.7217 32.9912 39.3595 33.602 38.9869C34.44 38.4758 35.2642 37.9452 36.074 37.3959L37.5159 36.3871C44.46 31.3776 50.2712 24.9565 54.5656 17.5457L55.0916 16.6192C55.6564 15.6037 56.1932 14.5705 56.7008 13.5203L57.2888 12.2635L57.8908 10.9196ZM59.1016 25.3798C55.0788 31.3797 50.134 36.7124 44.4496 41.1784C50.134 45.6444 55.0788 50.9768 59.1016 56.9768C63.1244 50.9768 68.0688 45.6444 73.7536 41.1784C68.0688 36.7124 63.1244 31.3797 59.1016 25.3798Z" fill="#FEFFE8"/>
<path d="M58.0417 25L42 41.1353L44.9167 45.0601C46.0509 46.3683 48.6111 49.2465 49.7778 50.2931C51.2361 51.6014 51.2361 52.4736 51.7222 52.9096C52.2083 53.3457 52.6944 54.654 54.1528 55.9623C55.6111 57.2705 55.125 56.8344 57.5556 57.7066C59.9861 58.5788 59.9861 57.2705 62.4167 56.8344C64.8472 56.3983 64.3611 55.5262 66.3056 52.9096C68.25 50.2931 68.25 50.7292 69.2222 49.4209C70.1944 48.1127 76.0278 45.0601 76.5139 44.624C76.9028 44.2751 77 42.7343 77 42.0074C75.2176 40.4084 71.5556 36.9488 71.1667 35.9022C70.7778 34.8556 65.4954 30.2331 62.9028 28.0526L58.0417 25Z" fill="#FEFFE8" stroke="#FEFFE8"/>
</g>
<defs>
<clipPath id="clip0_1650_1011">
<rect width="96" height="96" fill="white"/>
</clipPath>
</defs>
</svg>
