<svg width="18" height="18" viewBox="0 0 18 18" fill="none" xmlns="http://www.w3.org/2000/svg">
<path d="M8.1086 1.31526C8.47929 0.586325 9.52061 0.586317 9.89132 1.31525L12.0553 5.57043C12.2259 5.90586 12.5703 6.11712 12.9467 6.11712H16.1111C17.0605 6.11712 17.4756 7.31616 16.7293 7.90312L13.9748 10.0697C13.6543 10.3218 13.5189 10.7432 13.6327 11.1348L14.9113 15.5347C15.1705 16.4266 14.1797 17.1593 13.4029 16.6501L9.54814 14.1235C9.21525 13.9053 8.78464 13.9053 8.45175 14.1235L4.59715 16.6501C3.82033 17.1593 2.82948 16.4266 3.08867 15.5347L4.36727 11.1348C4.48106 10.7432 4.34572 10.3218 4.02523 10.0697L1.27066 7.90312C0.52442 7.31616 0.939473 6.11712 1.88889 6.11712H5.05333C5.42965 6.11712 5.77411 5.90585 5.94469 5.57041L8.1086 1.31526Z" fill="#FFC121" stroke="#FFC121" stroke-linejoin="round"/>
</svg>
